<?xml version="1.0" encoding="UTF-8" standalone="no"?>
<!DOCTYPE svg PUBLIC "-//W3C//DTD SVG 1.1//EN"
 "http://www.w3.org/Graphics/SVG/1.1/DTD/svg11.dtd">
<!-- Generated by graphviz version 2.42.4 (0)
 -->
<!-- Title: ERD Pages: 1 -->
<svg width="873pt" height="2506pt"
 viewBox="0.00 0.00 873.20 2506.20" xmlns="http://www.w3.org/2000/svg" xmlns:xlink="http://www.w3.org/1999/xlink">
<g id="graph0" class="graph" transform="scale(1 1) rotate(0) translate(21.6 2484.6)">
<title>ERD</title>
<polygon fill="white" stroke="transparent" points="-21.6,21.6 -21.6,-2484.6 851.6,-2484.6 851.6,21.6 -21.6,21.6"/>
<text text-anchor="middle" x="415" y="-2444.6" font-family="Times,serif" font-size="18.00">Coffee Environment Workspace and Equipment Hierarchy Model</text>
<!-- CoffeeEnvironment -->
<g id="node1" class="node">
<title>CoffeeEnvironment</title>
<polygon fill="lightgray" stroke="transparent" points="484,-1218.5 484,-1241.5 828,-1241.5 828,-1218.5 484,-1218.5"/>
<text text-anchor="start" x="580.5" y="-1227.3" font-family="Helvetica,sans-Serif" font-weight="bold" font-size="14.00">CoffeeEnvironment</text>
<text text-anchor="start" x="488" y="-1203.3" font-family="Helvetica,sans-Serif" font-size="14.00">coffeeEnvironmentID : Identifier</text>
<text text-anchor="start" x="488" y="-1180.3" font-family="Helvetica,sans-Serif" font-size="14.00">environmentOperationalState : OperationalState</text>
<text text-anchor="start" x="488" y="-1157.3" font-family="Helvetica,sans-Serif" font-size="14.00">environmentPosition : Position</text>
<text text-anchor="start" x="488" y="-1134.3" font-family="Helvetica,sans-Serif" font-size="14.00">environmentExtent : Extent</text>
<text text-anchor="start" x="488" y="-1111.3" font-family="Helvetica,sans-Serif" font-size="14.00">workspace : Workspace</text>
<text text-anchor="start" x="488" y="-1088.3" font-family="Helvetica,sans-Serif" font-size="14.00">coffeeStation : CoffeeStation</text>
<text text-anchor="start" x="488" y="-1065.3" font-family="Helvetica,sans-Serif" font-size="14.00">waterSupplySystem : WaterSupplySystem</text>
<text text-anchor="start" x="488" y="-1042.3" font-family="Helvetica,sans-Serif" font-size="14.00">powerSupplySystem : PowerSupplySystem</text>
<text text-anchor="start" x="488" y="-1019.3" font-family="Helvetica,sans-Serif" font-size="14.00">storageSystem : StorageSystem</text>
<text text-anchor="start" x="488" y="-996.3" font-family="Helvetica,sans-Serif" font-size="14.00">servingContext : ServingContext</text>
<text text-anchor="start" x="488" y="-973.3" font-family="Helvetica,sans-Serif" font-size="14.00">consumptionContext : ConsumptionContext</text>
<polygon fill="none" stroke="black" points="483,-964.5 483,-1242.5 829,-1242.5 829,-964.5 483,-964.5"/>
</g>
<!-- Workspace -->
<g id="node2" class="node">
<title>Workspace</title>
<polygon fill="lightgray" stroke="transparent" points="491,-908.5 491,-931.5 821,-931.5 821,-908.5 491,-908.5"/>
<text text-anchor="start" x="612.5" y="-917.3" font-family="Helvetica,sans-Serif" font-weight="bold" font-size="14.00">Workspace</text>
<text text-anchor="start" x="495" y="-893.3" font-family="Helvetica,sans-Serif" font-size="14.00">workspaceID : Identifier</text>
<text text-anchor="start" x="495" y="-870.3" font-family="Helvetica,sans-Serif" font-size="14.00">workspaceName : Name</text>
<text text-anchor="start" x="495" y="-847.3" font-family="Helvetica,sans-Serif" font-size="14.00">workspaceOperationalState : OperationalState</text>
<text text-anchor="start" x="495" y="-824.3" font-family="Helvetica,sans-Serif" font-size="14.00">workspacePosition : Position</text>
<text text-anchor="start" x="495" y="-801.3" font-family="Helvetica,sans-Serif" font-size="14.00">workspaceExtent : Extent</text>
<polygon fill="none" stroke="black" points="490,-792.5 490,-932.5 822,-932.5 822,-792.5 490,-792.5"/>
</g>
<!-- CoffeeStation -->
<g id="node3" class="node">
<title>CoffeeStation</title>
<polygon fill="lightgray" stroke="transparent" points="493,-609.5 493,-632.5 820,-632.5 820,-609.5 493,-609.5"/>
<text text-anchor="start" x="602" y="-618.3" font-family="Helvetica,sans-Serif" font-weight="bold" font-size="14.00">CoffeeStation</text>
<text text-anchor="start" x="497" y="-594.3" font-family="Helvetica,sans-Serif" font-size="14.00">coffeeStationID : Identifier</text>
<text text-anchor="start" x="497" y="-571.3" font-family="Helvetica,sans-Serif" font-size="14.00">stationOperationalState : OperationalState</text>
<text text-anchor="start" x="497" y="-548.3" font-family="Helvetica,sans-Serif" font-size="14.00">stationPosition : Position</text>
<text text-anchor="start" x="497" y="-525.3" font-family="Helvetica,sans-Serif" font-size="14.00">stationExtent : Extent</text>
<text text-anchor="start" x="497" y="-502.3" font-family="Helvetica,sans-Serif" font-size="14.00">coffeeMakerAssembly : CoffeeMakerAssembly</text>
<text text-anchor="start" x="497" y="-479.3" font-family="Helvetica,sans-Serif" font-size="14.00">brewAccessorySet : BrewAccessorySet</text>
<polygon fill="none" stroke="black" points="491.5,-471 491.5,-634 820.5,-634 820.5,-471 491.5,-471"/>
</g>
<!-- CoffeeMakerAssembly -->
<g id="node4" class="node">
<title>CoffeeMakerAssembly</title>
<polygon fill="lightgray" stroke="transparent" points="499,-265.5 499,-288.5 814,-288.5 814,-265.5 499,-265.5"/>
<text text-anchor="start" x="569" y="-274.3" font-family="Helvetica,sans-Serif" font-weight="bold" font-size="14.00">CoffeeMakerAssembly</text>
<text text-anchor="start" x="503" y="-250.3" font-family="Helvetica,sans-Serif" font-size="14.00">coffeeMakerAssemblyID : Identifier</text>
<text text-anchor="start" x="503" y="-227.3" font-family="Helvetica,sans-Serif" font-size="14.00">machineOperationalState : OperationalState</text>
<text text-anchor="start" x="503" y="-204.3" font-family="Helvetica,sans-Serif" font-size="14.00">machinePowerState : OperationalState</text>
<text text-anchor="start" x="503" y="-181.3" font-family="Helvetica,sans-Serif" font-size="14.00">machineTemperature : Temperature</text>
<text text-anchor="start" x="503" y="-158.3" font-family="Helvetica,sans-Serif" font-size="14.00">reservoirVolume : ScalarVolume</text>
<polygon fill="none" stroke="black" points="497.5,-149.5 497.5,-289.5 814.5,-289.5 814.5,-149.5 497.5,-149.5"/>
</g>
<!-- BrewAccessorySet -->
<g id="node5" class="node">
<title>BrewAccessorySet</title>
<polygon fill="lightgray" stroke="transparent" points="494,-736.5 494,-759.5 819,-759.5 819,-736.5 494,-736.5"/>
<text text-anchor="start" x="584" y="-745.3" font-family="Helvetica,sans-Serif" font-weight="bold" font-size="14.00">BrewAccessorySet</text>
<text text-anchor="start" x="498" y="-721.3" font-family="Helvetica,sans-Serif" font-size="14.00">brewAccessorySetID : Identifier</text>
<text text-anchor="start" x="498" y="-698.3" font-family="Helvetica,sans-Serif" font-size="14.00">accessoryCount : Count</text>
<text text-anchor="start" x="498" y="-675.3" font-family="Helvetica,sans-Serif" font-size="14.00">accessoryOperationalState : OperationalState</text>
<polygon fill="none" stroke="black" points="492.5,-666.5 492.5,-760.5 819.5,-760.5 819.5,-666.5 492.5,-666.5"/>
</g>
<!-- WaterSupplySystem -->
<g id="node6" class="node">
<title>WaterSupplySystem</title>
<polygon fill="lightgray" stroke="transparent" points="509,-414.5 509,-437.5 804,-437.5 804,-414.5 509,-414.5"/>
<text text-anchor="start" x="577" y="-423.3" font-family="Helvetica,sans-Serif" font-weight="bold" font-size="14.00">WaterSupplySystem</text>
<text text-anchor="start" x="513" y="-399.3" font-family="Helvetica,sans-Serif" font-size="14.00">waterSupplySystemID : Identifier</text>
<text text-anchor="start" x="513" y="-376.3" font-family="Helvetica,sans-Serif" font-size="14.00">waterOperationalState : OperationalState</text>
<text text-anchor="start" x="513" y="-353.3" font-family="Helvetica,sans-Serif" font-size="14.00">availableWaterVolume : ScalarVolume</text>
<text text-anchor="start" x="513" y="-330.3" font-family="Helvetica,sans-Serif" font-size="14.00">waterTemperature : Temperature</text>
<polygon fill="none" stroke="black" points="507.5,-322 507.5,-439 804.5,-439 804.5,-322 507.5,-322"/>
</g>
<!-- PowerSupplySystem -->
<g id="node7" class="node">
<title>PowerSupplySystem</title>
<polygon fill="lightgray" stroke="transparent" points="507,-92.5 507,-115.5 806,-115.5 806,-92.5 507,-92.5"/>
<text text-anchor="start" x="576.5" y="-101.3" font-family="Helvetica,sans-Serif" font-weight="bold" font-size="14.00">PowerSupplySystem</text>
<text text-anchor="start" x="511" y="-77.3" font-family="Helvetica,sans-Serif" font-size="14.00">powerSupplySystemID : Identifier</text>
<text text-anchor="start" x="511" y="-54.3" font-family="Helvetica,sans-Serif" font-size="14.00">powerOperationalState : OperationalState</text>
<text text-anchor="start" x="511" y="-31.3" font-family="Helvetica,sans-Serif" font-size="14.00">suppliedPower : Power</text>
<text text-anchor="start" x="511" y="-8.3" font-family="Helvetica,sans-Serif" font-size="14.00">supplyDuration : Duration</text>
<polygon fill="none" stroke="black" points="505.5,0 505.5,-117 806.5,-117 806.5,0 505.5,0"/>
</g>
<!-- StorageSystem -->
<g id="node8" class="node">
<title>StorageSystem</title>
<polygon fill="lightgray" stroke="transparent" points="502,-1516.5 502,-1539.5 811,-1539.5 811,-1516.5 502,-1516.5"/>
<text text-anchor="start" x="596" y="-1525.3" font-family="Helvetica,sans-Serif" font-weight="bold" font-size="14.00">StorageSystem</text>
<text text-anchor="start" x="506" y="-1501.3" font-family="Helvetica,sans-Serif" font-size="14.00">storageSystemID : Identifier</text>
<text text-anchor="start" x="506" y="-1478.3" font-family="Helvetica,sans-Serif" font-size="14.00">storageOperationalState : OperationalState</text>
<text text-anchor="start" x="506" y="-1455.3" font-family="Helvetica,sans-Serif" font-size="14.00">storedContainerCount : Count</text>
<text text-anchor="start" x="506" y="-1432.3" font-family="Helvetica,sans-Serif" font-size="14.00">storageExtent : Extent</text>
<polygon fill="none" stroke="black" points="500.5,-1424 500.5,-1541 811.5,-1541 811.5,-1424 500.5,-1424"/>
</g>
<!-- BeanContainer -->
<g id="node9" class="node">
<title>BeanContainer</title>
<polygon fill="lightgray" stroke="transparent" points="496,-1665.5 496,-1688.5 817,-1688.5 817,-1665.5 496,-1665.5"/>
<text text-anchor="start" x="597.5" y="-1674.3" font-family="Helvetica,sans-Serif" font-weight="bold" font-size="14.00">BeanContainer</text>
<text text-anchor="start" x="500" y="-1650.3" font-family="Helvetica,sans-Serif" font-size="14.00">beanContainerID : Identifier</text>
<text text-anchor="start" x="500" y="-1627.3" font-family="Helvetica,sans-Serif" font-size="14.00">beanMass : Mass</text>
<text text-anchor="start" x="500" y="-1604.3" font-family="Helvetica,sans-Serif" font-size="14.00">containerOperationalState : OperationalState</text>
<text text-anchor="start" x="500" y="-1581.3" font-family="Helvetica,sans-Serif" font-size="14.00">containerExtent : Extent</text>
<polygon fill="none" stroke="black" points="494.5,-1573 494.5,-1690 817.5,-1690 817.5,-1573 494.5,-1573"/>
</g>
<!-- FilterContainer -->
<g id="node10" class="node">
<title>FilterContainer</title>
<polygon fill="lightgray" stroke="transparent" points="496,-1367.5 496,-1390.5 817,-1390.5 817,-1367.5 496,-1367.5"/>
<text text-anchor="start" x="596.5" y="-1376.3" font-family="Helvetica,sans-Serif" font-weight="bold" font-size="14.00">FilterContainer</text>
<text text-anchor="start" x="500" y="-1352.3" font-family="Helvetica,sans-Serif" font-size="14.00">filterContainerID : Identifier</text>
<text text-anchor="start" x="500" y="-1329.3" font-family="Helvetica,sans-Serif" font-size="14.00">filterCount : Count</text>
<text text-anchor="start" x="500" y="-1306.3" font-family="Helvetica,sans-Serif" font-size="14.00">containerOperationalState : OperationalState</text>
<text text-anchor="start" x="500" y="-1283.3" font-family="Helvetica,sans-Serif" font-size="14.00">containerExtent : Extent</text>
<polygon fill="none" stroke="black" points="494.5,-1275 494.5,-1392 817.5,-1392 817.5,-1275 494.5,-1275"/>
</g>
<!-- ServingContext -->
<g id="node11" class="node">
<title>ServingContext</title>
<polygon fill="lightgray" stroke="transparent" points="502,-2261.5 502,-2284.5 810,-2284.5 810,-2261.5 502,-2261.5"/>
<text text-anchor="start" x="595" y="-2270.3" font-family="Helvetica,sans-Serif" font-weight="bold" font-size="14.00">ServingContext</text>
<text text-anchor="start" x="506" y="-2246.3" font-family="Helvetica,sans-Serif" font-size="14.00">servingContextID : Identifier</text>
<text text-anchor="start" x="506" y="-2223.3" font-family="Helvetica,sans-Serif" font-size="14.00">servingOperationalState : OperationalState</text>
<text text-anchor="start" x="506" y="-2200.3" font-family="Helvetica,sans-Serif" font-size="14.00">servingSurfacePosition : Position</text>
<text text-anchor="start" x="506" y="-2177.3" font-family="Helvetica,sans-Serif" font-size="14.00">servingCapacityCount : Count</text>
<polygon fill="none" stroke="black" points="501,-2169 501,-2286 811,-2286 811,-2169 501,-2169"/>
</g>
<!-- ConsumptionContext -->
<g id="node12" class="node">
<title>ConsumptionContext</title>
<polygon fill="lightgray" stroke="transparent" points="483,-1814.5 483,-1837.5 829,-1837.5 829,-1814.5 483,-1814.5"/>
<text text-anchor="start" x="573" y="-1823.3" font-family="Helvetica,sans-Serif" font-weight="bold" font-size="14.00">ConsumptionContext</text>
<text text-anchor="start" x="487" y="-1799.3" font-family="Helvetica,sans-Serif" font-size="14.00">consumptionContextID : Identifier</text>
<text text-anchor="start" x="487" y="-1776.3" font-family="Helvetica,sans-Serif" font-size="14.00">consumptionOperationalState : OperationalState</text>
<text text-anchor="start" x="487" y="-1753.3" font-family="Helvetica,sans-Serif" font-size="14.00">ambientTemperature : Temperature</text>
<text text-anchor="start" x="487" y="-1730.3" font-family="Helvetica,sans-Serif" font-size="14.00">occupancyCount : Count</text>
<polygon fill="none" stroke="black" points="482,-1722 482,-1839 830,-1839 830,-1722 482,-1722"/>
</g>
<!-- Cup -->
<g id="node13" class="node">
<title>Cup</title>
<polygon fill="lightgray" stroke="transparent" points="515,-2112.5 515,-2135.5 797,-2135.5 797,-2112.5 515,-2112.5"/>
<text text-anchor="start" x="640.5" y="-2121.3" font-family="Helvetica,sans-Serif" font-weight="bold" font-size="14.00">Cup</text>
<text text-anchor="start" x="519" y="-2097.3" font-family="Helvetica,sans-Serif" font-size="14.00">cupID : Identifier</text>
<text text-anchor="start" x="519" y="-2074.3" font-family="Helvetica,sans-Serif" font-size="14.00">cupVolume : ScalarVolume</text>
<text text-anchor="start" x="519" y="-2051.3" font-family="Helvetica,sans-Serif" font-size="14.00">cupTemperature : Temperature</text>
<text text-anchor="start" x="519" y="-2028.3" font-family="Helvetica,sans-Serif" font-size="14.00">cupOperationalState : OperationalState</text>
<polygon fill="none" stroke="black" points="514,-2020 514,-2137 798,-2137 798,-2020 514,-2020"/>
</g>
<!-- Carafe -->
<g id="node14" class="node">
<title>Carafe</title>
<polygon fill="lightgray" stroke="transparent" points="506,-2410.5 506,-2433.5 806,-2433.5 806,-2410.5 506,-2410.5"/>
<text text-anchor="start" x="629.5" y="-2419.3" font-family="Helvetica,sans-Serif" font-weight="bold" font-size="14.00">Carafe</text>
<text text-anchor="start" x="510" y="-2395.3" font-family="Helvetica,sans-Serif" font-size="14.00">carafeID : Identifier</text>
<text text-anchor="start" x="510" y="-2372.3" font-family="Helvetica,sans-Serif" font-size="14.00">carafeVolume : ScalarVolume</text>
<text text-anchor="start" x="510" y="-2349.3" font-family="Helvetica,sans-Serif" font-size="14.00">carafeTemperature : Temperature</text>
<text text-anchor="start" x="510" y="-2326.3" font-family="Helvetica,sans-Serif" font-size="14.00">carafeOperationalState : OperationalState</text>
<polygon fill="none" stroke="black" points="505,-2318 505,-2435 807,-2435 807,-2318 505,-2318"/>
</g>
<!-- Consumer -->
<g id="node15" class="node">
<title>Consumer</title>
<polygon fill="lightgray" stroke="transparent" points="489,-1963.5 489,-1986.5 824,-1986.5 824,-1963.5 489,-1963.5"/>
<text text-anchor="start" x="617" y="-1972.3" font-family="Helvetica,sans-Serif" font-weight="bold" font-size="14.00">Consumer</text>
<text text-anchor="start" x="493" y="-1948.3" font-family="Helvetica,sans-Serif" font-size="14.00">consumerID : Identifier</text>
<text text-anchor="start" x="493" y="-1925.3" font-family="Helvetica,sans-Serif" font-size="14.00">consumerOperationalState : OperationalState</text>
<text text-anchor="start" x="493" y="-1902.3" font-family="Helvetica,sans-Serif" font-size="14.00">temperaturePreferenceState : OperationalState</text>
<text text-anchor="start" x="493" y="-1879.3" font-family="Helvetica,sans-Serif" font-size="14.00">servingCount : Count</text>
<polygon fill="none" stroke="black" points="487.5,-1871 487.5,-1988 824.5,-1988 824.5,-1871 487.5,-1871"/>
</g>
<!-- A_CoffeeEnvironmentContainsWorkspace -->
<g id="node16" class="node">
<title>A_CoffeeEnvironmentContainsWorkspace</title>
<polygon fill="lightblue" stroke="transparent" points="48,-939.5 48,-962.5 363,-962.5 363,-939.5 48,-939.5"/>
<text text-anchor="start" x="52" y="-948.3" font-family="Helvetica,sans-Serif" font-weight="bold" font-size="14.00">CoffeeEnvironmentContainsWorkspace</text>
<text text-anchor="start" x="52" y="-924.3" font-family="Helvetica,sans-Serif" font-size="14.00">relativePosition : Position</text>
<polygon fill="none" stroke="black" points="46.5,-915.5 46.5,-963.5 363.5,-963.5 363.5,-915.5 46.5,-915.5"/>
</g>
<!-- A_CoffeeEnvironmentContainsWorkspace&#45;&gt;CoffeeEnvironment -->
<g id="edge1" class="edge">
<title>A_CoffeeEnvironmentContainsWorkspace&#45;&gt;CoffeeEnvironment</title>
<path fill="none" stroke="#555555" d="M271.77,-963.52C327.18,-983.76 409.02,-1013.65 482.85,-1040.62"/>
</g>
<!-- A_CoffeeEnvironmentContainsWorkspace&#45;&gt;Workspace -->
<g id="edge2" class="edge">
<title>A_CoffeeEnvironmentContainsWorkspace&#45;&gt;Workspace</title>
<path fill="none" stroke="#555555" d="M346.22,-915.45C391.76,-907.64 442.72,-898.9 489.9,-890.81"/>
</g>
<!-- A_WorkspaceContainsCoffeeStation -->
<g id="node17" class="node">
<title>A_WorkspaceContainsCoffeeStation</title>
<polygon fill="lightblue" stroke="transparent" points="69,-784.5 69,-807.5 341,-807.5 341,-784.5 69,-784.5"/>
<text text-anchor="start" x="73" y="-793.3" font-family="Helvetica,sans-Serif" font-weight="bold" font-size="14.00">WorkspaceContainsCoffeeStation</text>
<text text-anchor="start" x="73" y="-769.3" font-family="Helvetica,sans-Serif" font-size="14.00">stationPosition : Position</text>
<polygon fill="none" stroke="black" points="68,-760.5 68,-808.5 342,-808.5 342,-760.5 68,-760.5"/>
</g>
<!-- A_WorkspaceContainsCoffeeStation&#45;&gt;Workspace -->
<g id="edge3" class="edge">
<title>A_WorkspaceContainsCoffeeStation&#45;&gt;Workspace</title>
<path fill="none" stroke="#555555" d="M342.24,-808.17C388.69,-816.24 441.13,-825.35 489.62,-833.77"/>
</g>
<!-- A_WorkspaceContainsCoffeeStation&#45;&gt;CoffeeStation -->
<g id="edge4" class="edge">
<title>A_WorkspaceContainsCoffeeStation&#45;&gt;CoffeeStation</title>
<path fill="none" stroke="#555555" d="M252.78,-760.33C310.34,-730.59 411.03,-678.56 497.27,-634"/>
</g>
<!-- A_CoffeeStationContainsCoffeeMakerAssembly -->
<g id="node18" class="node">
<title>A_CoffeeStationContainsCoffeeMakerAssembly</title>
<polygon fill="lightblue" stroke="transparent" points="25,-462.5 25,-485.5 385,-485.5 385,-462.5 25,-462.5"/>
<text text-anchor="start" x="29" y="-471.3" font-family="Helvetica,sans-Serif" font-weight="bold" font-size="14.00">CoffeeStationContainsCoffeeMakerAssembly</text>
<text text-anchor="start" x="29" y="-447.3" font-family="Helvetica,sans-Serif" font-size="14.00">assemblyPosition : Position</text>
<polygon fill="none" stroke="black" points="24,-438.5 24,-486.5 386,-486.5 386,-438.5 24,-438.5"/>
</g>
<!-- A_CoffeeStationContainsCoffeeMakerAssembly&#45;&gt;CoffeeStation -->
<g id="edge5" class="edge">
<title>A_CoffeeStationContainsCoffeeMakerAssembly&#45;&gt;CoffeeStation</title>
<path fill="none" stroke="#555555" d="M325.73,-486.5C376.52,-496.68 436.53,-508.71 491.31,-519.69"/>
</g>
<!-- A_CoffeeStationContainsCoffeeMakerAssembly&#45;&gt;CoffeeMakerAssembly -->
<g id="edge6" class="edge">
<title>A_CoffeeStationContainsCoffeeMakerAssembly&#45;&gt;CoffeeMakerAssembly</title>
<path fill="none" stroke="#555555" d="M246.75,-438.37C300.26,-406.91 397.33,-350.58 482,-305.5 491.92,-300.22 502.2,-294.85 512.59,-289.5"/>
</g>
<!-- A_CoffeeStationContainsBrewAccessorySet -->
<g id="node19" class="node">
<title>A_CoffeeStationContainsBrewAccessorySet</title>
<polygon fill="lightblue" stroke="transparent" points="40,-628.5 40,-651.5 370,-651.5 370,-628.5 40,-628.5"/>
<text text-anchor="start" x="44" y="-637.3" font-family="Helvetica,sans-Serif" font-weight="bold" font-size="14.00">CoffeeStationContainsBrewAccessorySet</text>
<text text-anchor="start" x="44" y="-613.3" font-family="Helvetica,sans-Serif" font-size="14.00">accessoryPosition : Position</text>
<polygon fill="none" stroke="black" points="39,-604.5 39,-652.5 371,-652.5 371,-604.5 39,-604.5"/>
</g>
<!-- A_CoffeeStationContainsBrewAccessorySet&#45;&gt;CoffeeStation -->
<g id="edge7" class="edge">
<title>A_CoffeeStationContainsBrewAccessorySet&#45;&gt;CoffeeStation</title>
<path fill="none" stroke="#555555" d="M348.07,-604.45C393.54,-596.76 444.26,-588.17 491.15,-580.23"/>
</g>
<!-- A_CoffeeStationContainsBrewAccessorySet&#45;&gt;BrewAccessorySet -->
<g id="edge8" class="edge">
<title>A_CoffeeStationContainsBrewAccessorySet&#45;&gt;BrewAccessorySet</title>
<path fill="none" stroke="#555555" d="M332.87,-652.52C382.4,-661.89 439.8,-672.76 492.31,-682.7"/>
</g>
<!-- A_StorageSystemContainsBeanContainer -->
<g id="node20" class="node">
<title>A_StorageSystemContainsBeanContainer</title>
<polygon fill="lightblue" stroke="transparent" points="48,-1556.5 48,-1579.5 363,-1579.5 363,-1556.5 48,-1556.5"/>
<text text-anchor="start" x="52" y="-1565.3" font-family="Helvetica,sans-Serif" font-weight="bold" font-size="14.00">StorageSystemContainsBeanContainer</text>
<text text-anchor="start" x="52" y="-1541.3" font-family="Helvetica,sans-Serif" font-size="14.00">containerPosition : Position</text>
<polygon fill="none" stroke="black" points="46.5,-1532.5 46.5,-1580.5 363.5,-1580.5 363.5,-1532.5 46.5,-1532.5"/>
</g>
<!-- A_StorageSystemContainsBeanContainer&#45;&gt;StorageSystem -->
<g id="edge9" class="edge">
<title>A_StorageSystemContainsBeanContainer&#45;&gt;StorageSystem</title>
<path fill="none" stroke="#555555" d="M351.78,-1532.47C399.28,-1524.65 452.16,-1515.93 500.29,-1508"/>
</g>
<!-- A_StorageSystemContainsBeanContainer&#45;&gt;BeanContainer -->
<g id="edge10" class="edge">
<title>A_StorageSystemContainsBeanContainer&#45;&gt;BeanContainer</title>
<path fill="none" stroke="#555555" d="M349.92,-1580.54C395.96,-1588.23 447.22,-1596.79 494.37,-1604.67"/>
</g>
<!-- A_StorageSystemContainsFilterContainer -->
<g id="node21" class="node">
<title>A_StorageSystemContainsFilterContainer</title>
<polygon fill="lightblue" stroke="transparent" points="47,-1404.5 47,-1427.5 364,-1427.5 364,-1404.5 47,-1404.5"/>
<text text-anchor="start" x="51" y="-1413.3" font-family="Helvetica,sans-Serif" font-weight="bold" font-size="14.00">StorageSystemContainsFilterContainer</text>
<text text-anchor="start" x="51" y="-1389.3" font-family="Helvetica,sans-Serif" font-size="14.00">containerPosition : Position</text>
<polygon fill="none" stroke="black" points="45.5,-1380.5 45.5,-1428.5 364.5,-1428.5 364.5,-1380.5 45.5,-1380.5"/>
</g>
<!-- A_StorageSystemContainsFilterContainer&#45;&gt;StorageSystem -->
<g id="edge11" class="edge">
<title>A_StorageSystemContainsFilterContainer&#45;&gt;StorageSystem</title>
<path fill="none" stroke="#555555" d="M344.38,-1428.54C393.72,-1437.11 449.61,-1446.82 500.24,-1455.62"/>
</g>
<!-- A_StorageSystemContainsFilterContainer&#45;&gt;FilterContainer -->
<g id="edge12" class="edge">
<title>A_StorageSystemContainsFilterContainer&#45;&gt;FilterContainer</title>
<path fill="none" stroke="#555555" d="M358.01,-1380.46C401.9,-1373.52 449.92,-1365.93 494.32,-1358.91"/>
</g>
<!-- A_WaterSupplySystemSuppliesCoffeeMakerAssembly -->
<g id="node22" class="node">
<title>A_WaterSupplySystemSuppliesCoffeeMakerAssembly</title>
<polygon fill="lightblue" stroke="transparent" points="1,-262.5 1,-285.5 409,-285.5 409,-262.5 1,-262.5"/>
<text text-anchor="start" x="5" y="-271.3" font-family="Helvetica,sans-Serif" font-weight="bold" font-size="14.00">WaterSupplySystemSuppliesCoffeeMakerAssembly</text>
<text text-anchor="start" x="5" y="-247.3" font-family="Helvetica,sans-Serif" font-size="14.00">suppliedWaterVolume : ScalarVolume</text>
<polygon fill="none" stroke="black" points="0,-238.5 0,-286.5 410,-286.5 410,-238.5 0,-238.5"/>
</g>
<!-- A_WaterSupplySystemSuppliesCoffeeMakerAssembly&#45;&gt;CoffeeMakerAssembly -->
<g id="edge14" class="edge">
<title>A_WaterSupplySystemSuppliesCoffeeMakerAssembly&#45;&gt;CoffeeMakerAssembly</title>
<path fill="none" stroke="#555555" d="M410.14,-242.95C439.44,-240.14 469.21,-237.29 497.43,-234.59"/>
</g>
<!-- A_WaterSupplySystemSuppliesCoffeeMakerAssembly&#45;&gt;WaterSupplySystem -->
<g id="edge13" class="edge">
<title>A_WaterSupplySystemSuppliesCoffeeMakerAssembly&#45;&gt;WaterSupplySystem</title>
<path fill="none" stroke="#555555" d="M297.4,-286.52C357.66,-302.36 437.94,-323.45 507.16,-341.65"/>
</g>
<!-- A_PowerSupplySystemPowersCoffeeMakerAssembly -->
<g id="node23" class="node">
<title>A_PowerSupplySystemPowersCoffeeMakerAssembly</title>
<polygon fill="lightblue" stroke="transparent" points="5,-142.5 5,-165.5 406,-165.5 406,-142.5 5,-142.5"/>
<text text-anchor="start" x="9" y="-151.3" font-family="Helvetica,sans-Serif" font-weight="bold" font-size="14.00">PowerSupplySystemPowersCoffeeMakerAssembly</text>
<text text-anchor="start" x="9" y="-127.3" font-family="Helvetica,sans-Serif" font-size="14.00">suppliedPower : Power</text>
<polygon fill="none" stroke="black" points="3.5,-118.5 3.5,-166.5 406.5,-166.5 406.5,-118.5 3.5,-118.5"/>
</g>
<!-- A_PowerSupplySystemPowersCoffeeMakerAssembly&#45;&gt;CoffeeMakerAssembly -->
<g id="edge16" class="edge">
<title>A_PowerSupplySystemPowersCoffeeMakerAssembly&#45;&gt;CoffeeMakerAssembly</title>
<path fill="none" stroke="#555555" d="M346.22,-166.55C394.21,-174.78 448.21,-184.04 497.47,-192.48"/>
</g>
<!-- A_PowerSupplySystemPowersCoffeeMakerAssembly&#45;&gt;PowerSupplySystem -->
<g id="edge15" class="edge">
<title>A_PowerSupplySystemPowersCoffeeMakerAssembly&#45;&gt;PowerSupplySystem</title>
<path fill="none" stroke="#555555" d="M334.36,-118.49C387.62,-108.52 449.78,-96.89 505.12,-86.54"/>
</g>
<!-- A_ServingContextContainsCup -->
<g id="node24" class="node">
<title>A_ServingContextContainsCup</title>
<polygon fill="lightblue" stroke="transparent" points="91,-2112.5 91,-2135.5 320,-2135.5 320,-2112.5 91,-2112.5"/>
<text text-anchor="start" x="95" y="-2121.3" font-family="Helvetica,sans-Serif" font-weight="bold" font-size="14.00">ServingContextContainsCup</text>
<text text-anchor="start" x="95" y="-2097.3" font-family="Helvetica,sans-Serif" font-size="14.00">cupPosition : Position</text>
<polygon fill="none" stroke="black" points="89.5,-2088.5 89.5,-2136.5 320.5,-2136.5 320.5,-2088.5 89.5,-2088.5"/>
</g>
<!-- A_ServingContextContainsCup&#45;&gt;ServingContext -->
<g id="edge17" class="edge">
<title>A_ServingContextContainsCup&#45;&gt;ServingContext</title>
<path fill="none" stroke="#555555" d="M299.85,-2136.54C357.95,-2151.42 433.96,-2170.89 500.74,-2187.99"/>
</g>
<!-- A_ServingContextContainsCup&#45;&gt;Cup -->
<g id="edge18" class="edge">
<title>A_ServingContextContainsCup&#45;&gt;Cup</title>
<path fill="none" stroke="#555555" d="M320.75,-2103.81C379.47,-2099.36 451.48,-2093.91 513.6,-2089.21"/>
</g>
<!-- A_ServingContextContainsCarafe -->
<g id="node25" class="node">
<title>A_ServingContextContainsCarafe</title>
<polygon fill="lightblue" stroke="transparent" points="79,-2301.5 79,-2324.5 331,-2324.5 331,-2301.5 79,-2301.5"/>
<text text-anchor="start" x="83" y="-2310.3" font-family="Helvetica,sans-Serif" font-weight="bold" font-size="14.00">ServingContextContainsCarafe</text>
<text text-anchor="start" x="83" y="-2286.3" font-family="Helvetica,sans-Serif" font-size="14.00">carafePosition : Position</text>
<polygon fill="none" stroke="black" points="78,-2277.5 78,-2325.5 332,-2325.5 332,-2277.5 78,-2277.5"/>
</g>
<!-- A_ServingContextContainsCarafe&#45;&gt;ServingContext -->
<g id="edge19" class="edge">
<title>A_ServingContextContainsCarafe&#45;&gt;ServingContext</title>
<path fill="none" stroke="#555555" d="M332.27,-2280.69C384.66,-2272.05 445.95,-2261.95 500.96,-2252.89"/>
</g>
<!-- A_ServingContextContainsCarafe&#45;&gt;Carafe -->
<g id="edge20" class="edge">
<title>A_ServingContextContainsCarafe&#45;&gt;Carafe</title>
<path fill="none" stroke="#555555" d="M332.27,-2322.59C385.83,-2331.54 448.68,-2342.04 504.62,-2351.38"/>
</g>
<!-- A_ConsumptionContextAccommodatesConsumer -->
<g id="node26" class="node">
<title>A_ConsumptionContextAccommodatesConsumer</title>
<polygon fill="lightblue" stroke="transparent" points="19,-1814.5 19,-1837.5 391,-1837.5 391,-1814.5 19,-1814.5"/>
<text text-anchor="start" x="23" y="-1823.3" font-family="Helvetica,sans-Serif" font-weight="bold" font-size="14.00">ConsumptionContextAccommodatesConsumer</text>
<text text-anchor="start" x="23" y="-1799.3" font-family="Helvetica,sans-Serif" font-size="14.00">occupancyState : OperationalState</text>
<polygon fill="none" stroke="black" points="18,-1790.5 18,-1838.5 392,-1838.5 392,-1790.5 18,-1790.5"/>
</g>
<!-- A_ConsumptionContextAccommodatesConsumer&#45;&gt;ConsumptionContext -->
<g id="edge21" class="edge">
<title>A_ConsumptionContextAccommodatesConsumer&#45;&gt;ConsumptionContext</title>
<path fill="none" stroke="#555555" d="M392.19,-1800.4C421.85,-1798.16 452.42,-1795.84 481.76,-1793.62"/>
</g>
<!-- A_ConsumptionContextAccommodatesConsumer&#45;&gt;Consumer -->
<g id="edge22" class="edge">
<title>A_ConsumptionContextAccommodatesConsumer&#45;&gt;Consumer</title>
<path fill="none" stroke="#555555" d="M299.85,-1838.54C354.1,-1852.43 423.95,-1870.32 487.33,-1886.56"/>
</g>
<!-- A_ConsumerUsesCup -->
<g id="node27" class="node">
<title>A_ConsumerUsesCup</title>
<polygon fill="lightblue" stroke="transparent" points="105,-1980.5 105,-2003.5 305,-2003.5 305,-1980.5 105,-1980.5"/>
<text text-anchor="start" x="131.5" y="-1989.3" font-family="Helvetica,sans-Serif" font-weight="bold" font-size="14.00">ConsumerUsesCup</text>
<text text-anchor="start" x="109" y="-1965.3" font-family="Helvetica,sans-Serif" font-size="14.00">useState : OperationalState</text>
<polygon fill="none" stroke="black" points="104,-1956.5 104,-2004.5 306,-2004.5 306,-1956.5 104,-1956.5"/>
</g>
<!-- A_ConsumerUsesCup&#45;&gt;Cup -->
<g id="edge24" class="edge">
<title>A_ConsumerUsesCup&#45;&gt;Cup</title>
<path fill="none" stroke="#555555" d="M306.21,-2002.37C367.33,-2015.71 446.41,-2032.97 513.81,-2047.68"/>
</g>
<!-- A_ConsumerUsesCup&#45;&gt;Consumer -->
<g id="edge23" class="edge">
<title>A_ConsumerUsesCup&#45;&gt;Consumer</title>
<path fill="none" stroke="#555555" d="M306.21,-1969.12C359.45,-1963.07 426.31,-1955.48 487.21,-1948.56"/>
</g>
</g>
</svg>
