<?xml version="1.0" encoding="UTF-8" standalone="no"?>
<!DOCTYPE svg PUBLIC "-//W3C//DTD SVG 1.1//EN"
 "http://www.w3.org/Graphics/SVG/1.1/DTD/svg11.dtd">
<!-- Generated by graphviz version 2.42.4 (0)
 -->
<!-- Title: ERD Pages: 1 -->
<svg width="786pt" height="1827pt"
 viewBox="0.00 0.00 786.20 1827.20" xmlns="http://www.w3.org/2000/svg" xmlns:xlink="http://www.w3.org/1999/xlink">
<g id="graph0" class="graph" transform="scale(1 1) rotate(0) translate(21.6 1805.6)">
<title>ERD</title>
<polygon fill="white" stroke="transparent" points="-21.6,21.6 -21.6,-1805.6 764.6,-1805.6 764.6,21.6 -21.6,21.6"/>
<text text-anchor="middle" x="371.5" y="-1765.6" font-family="Times,serif" font-size="18.00">Coffee Environment Service Setting and Interaction Model</text>
<!-- CoffeeSetting -->
<g id="node1" class="node">
<title>CoffeeSetting</title>
<polygon fill="lightgray" stroke="transparent" points="424.5,-539.5 424.5,-562.5 728.5,-562.5 728.5,-539.5 424.5,-539.5"/>
<text text-anchor="start" x="522" y="-548.3" font-family="Helvetica,sans-Serif" font-weight="bold" font-size="14.00">CoffeeSetting</text>
<text text-anchor="start" x="428.5" y="-524.3" font-family="Helvetica,sans-Serif" font-size="14.00">coffeeSettingID : Identifier</text>
<text text-anchor="start" x="428.5" y="-501.3" font-family="Helvetica,sans-Serif" font-size="14.00">settingOperationalState : OperationalState</text>
<text text-anchor="start" x="428.5" y="-478.3" font-family="Helvetica,sans-Serif" font-size="14.00">settingName : Name</text>
<text text-anchor="start" x="428.5" y="-455.3" font-family="Helvetica,sans-Serif" font-size="14.00">settingExtent : Extent</text>
<polygon fill="none" stroke="black" points="423.5,-447 423.5,-564 729.5,-564 729.5,-447 423.5,-447"/>
</g>
<!-- PreparationZone -->
<g id="node2" class="node">
<title>PreparationZone</title>
<polygon fill="lightgray" stroke="transparent" points="432.5,-1135.5 432.5,-1158.5 721.5,-1158.5 721.5,-1135.5 432.5,-1135.5"/>
<text text-anchor="start" x="510" y="-1144.3" font-family="Helvetica,sans-Serif" font-weight="bold" font-size="14.00">PreparationZone</text>
<text text-anchor="start" x="436.5" y="-1120.3" font-family="Helvetica,sans-Serif" font-size="14.00">preparationZoneID : Identifier</text>
<text text-anchor="start" x="436.5" y="-1097.3" font-family="Helvetica,sans-Serif" font-size="14.00">zoneOperationalState : OperationalState</text>
<text text-anchor="start" x="436.5" y="-1074.3" font-family="Helvetica,sans-Serif" font-size="14.00">zonePosition : Position</text>
<text text-anchor="start" x="436.5" y="-1051.3" font-family="Helvetica,sans-Serif" font-size="14.00">zoneExtent : Extent</text>
<polygon fill="none" stroke="black" points="431,-1043 431,-1160 722,-1160 722,-1043 431,-1043"/>
</g>
<!-- EquipmentRole -->
<g id="node3" class="node">
<title>EquipmentRole</title>
<polygon fill="lightgray" stroke="transparent" points="411.5,-1582.5 411.5,-1605.5 742.5,-1605.5 742.5,-1582.5 411.5,-1582.5"/>
<text text-anchor="start" x="517.5" y="-1591.3" font-family="Helvetica,sans-Serif" font-weight="bold" font-size="14.00">EquipmentRole</text>
<text text-anchor="start" x="415.5" y="-1567.3" font-family="Helvetica,sans-Serif" font-size="14.00">equipmentRoleID : Identifier</text>
<text text-anchor="start" x="415.5" y="-1544.3" font-family="Helvetica,sans-Serif" font-size="14.00">equipmentOperationalState : OperationalState</text>
<text text-anchor="start" x="415.5" y="-1521.3" font-family="Helvetica,sans-Serif" font-size="14.00">equipmentCount : Count</text>
<text text-anchor="start" x="415.5" y="-1498.3" font-family="Helvetica,sans-Serif" font-size="14.00">equipmentAvailabilityState : OperationalState</text>
<polygon fill="none" stroke="black" points="410,-1490 410,-1607 743,-1607 743,-1490 410,-1490"/>
</g>
<!-- MachineRole -->
<g id="node4" class="node">
<title>MachineRole</title>
<polygon fill="lightgray" stroke="transparent" points="419.5,-1731.5 419.5,-1754.5 734.5,-1754.5 734.5,-1731.5 419.5,-1731.5"/>
<text text-anchor="start" x="526.5" y="-1740.3" font-family="Helvetica,sans-Serif" font-weight="bold" font-size="14.00">MachineRole</text>
<text text-anchor="start" x="423.5" y="-1716.3" font-family="Helvetica,sans-Serif" font-size="14.00">machineRoleID : Identifier</text>
<text text-anchor="start" x="423.5" y="-1693.3" font-family="Helvetica,sans-Serif" font-size="14.00">machineOperationalState : OperationalState</text>
<text text-anchor="start" x="423.5" y="-1670.3" font-family="Helvetica,sans-Serif" font-size="14.00">machineTemperature : Temperature</text>
<text text-anchor="start" x="423.5" y="-1647.3" font-family="Helvetica,sans-Serif" font-size="14.00">machinePowerState : OperationalState</text>
<polygon fill="none" stroke="black" points="418,-1639 418,-1756 735,-1756 735,-1639 418,-1639"/>
</g>
<!-- StorageRole -->
<g id="node5" class="node">
<title>StorageRole</title>
<polygon fill="lightgray" stroke="transparent" points="422.5,-1284.5 422.5,-1307.5 731.5,-1307.5 731.5,-1284.5 422.5,-1284.5"/>
<text text-anchor="start" x="528.5" y="-1293.3" font-family="Helvetica,sans-Serif" font-weight="bold" font-size="14.00">StorageRole</text>
<text text-anchor="start" x="426.5" y="-1269.3" font-family="Helvetica,sans-Serif" font-size="14.00">storageRoleID : Identifier</text>
<text text-anchor="start" x="426.5" y="-1246.3" font-family="Helvetica,sans-Serif" font-size="14.00">storageOperationalState : OperationalState</text>
<text text-anchor="start" x="426.5" y="-1223.3" font-family="Helvetica,sans-Serif" font-size="14.00">storageCapacityCount : Count</text>
<text text-anchor="start" x="426.5" y="-1200.3" font-family="Helvetica,sans-Serif" font-size="14.00">storageExtent : Extent</text>
<polygon fill="none" stroke="black" points="421,-1192 421,-1309 732,-1309 732,-1192 421,-1192"/>
</g>
<!-- ServiceRole -->
<g id="node6" class="node">
<title>ServiceRole</title>
<polygon fill="lightgray" stroke="transparent" points="423.5,-837.5 423.5,-860.5 729.5,-860.5 729.5,-837.5 423.5,-837.5"/>
<text text-anchor="start" x="530" y="-846.3" font-family="Helvetica,sans-Serif" font-weight="bold" font-size="14.00">ServiceRole</text>
<text text-anchor="start" x="427.5" y="-822.3" font-family="Helvetica,sans-Serif" font-size="14.00">serviceRoleID : Identifier</text>
<text text-anchor="start" x="427.5" y="-799.3" font-family="Helvetica,sans-Serif" font-size="14.00">serviceOperationalState : OperationalState</text>
<text text-anchor="start" x="427.5" y="-776.3" font-family="Helvetica,sans-Serif" font-size="14.00">serviceCapacityCount : Count</text>
<text text-anchor="start" x="427.5" y="-753.3" font-family="Helvetica,sans-Serif" font-size="14.00">serviceTemperature : Temperature</text>
<polygon fill="none" stroke="black" points="422.5,-745 422.5,-862 730.5,-862 730.5,-745 422.5,-745"/>
</g>
<!-- AmbientRole -->
<g id="node7" class="node">
<title>AmbientRole</title>
<polygon fill="lightgray" stroke="transparent" points="420.5,-241.5 420.5,-264.5 733.5,-264.5 733.5,-241.5 420.5,-241.5"/>
<text text-anchor="start" x="527" y="-250.3" font-family="Helvetica,sans-Serif" font-weight="bold" font-size="14.00">AmbientRole</text>
<text text-anchor="start" x="424.5" y="-226.3" font-family="Helvetica,sans-Serif" font-size="14.00">ambientRoleID : Identifier</text>
<text text-anchor="start" x="424.5" y="-203.3" font-family="Helvetica,sans-Serif" font-size="14.00">ambientOperationalState : OperationalState</text>
<text text-anchor="start" x="424.5" y="-180.3" font-family="Helvetica,sans-Serif" font-size="14.00">ambientTemperature : Temperature</text>
<text text-anchor="start" x="424.5" y="-157.3" font-family="Helvetica,sans-Serif" font-size="14.00">ambientNoiseState : OperationalState</text>
<polygon fill="none" stroke="black" points="419,-149 419,-266 734,-266 734,-149 419,-149"/>
</g>
<!-- SeatingRole -->
<g id="node8" class="node">
<title>SeatingRole</title>
<polygon fill="lightgray" stroke="transparent" points="423.5,-92.5 423.5,-115.5 730.5,-115.5 730.5,-92.5 423.5,-92.5"/>
<text text-anchor="start" x="529.5" y="-101.3" font-family="Helvetica,sans-Serif" font-weight="bold" font-size="14.00">SeatingRole</text>
<text text-anchor="start" x="427.5" y="-77.3" font-family="Helvetica,sans-Serif" font-size="14.00">seatingRoleID : Identifier</text>
<text text-anchor="start" x="427.5" y="-54.3" font-family="Helvetica,sans-Serif" font-size="14.00">seatingOperationalState : OperationalState</text>
<text text-anchor="start" x="427.5" y="-31.3" font-family="Helvetica,sans-Serif" font-size="14.00">seatCount : Count</text>
<text text-anchor="start" x="427.5" y="-8.3" font-family="Helvetica,sans-Serif" font-size="14.00">seatExtent : Extent</text>
<polygon fill="none" stroke="black" points="422,0 422,-117 731,-117 731,0 422,0"/>
</g>
<!-- ConsumerRole -->
<g id="node9" class="node">
<title>ConsumerRole</title>
<polygon fill="lightgray" stroke="transparent" points="414.5,-390.5 414.5,-413.5 739.5,-413.5 739.5,-390.5 414.5,-390.5"/>
<text text-anchor="start" x="520" y="-399.3" font-family="Helvetica,sans-Serif" font-weight="bold" font-size="14.00">ConsumerRole</text>
<text text-anchor="start" x="418.5" y="-375.3" font-family="Helvetica,sans-Serif" font-size="14.00">consumerRoleID : Identifier</text>
<text text-anchor="start" x="418.5" y="-352.3" font-family="Helvetica,sans-Serif" font-size="14.00">consumerOperationalState : OperationalState</text>
<text text-anchor="start" x="418.5" y="-329.3" font-family="Helvetica,sans-Serif" font-size="14.00">preferenceState : OperationalState</text>
<text text-anchor="start" x="418.5" y="-306.3" font-family="Helvetica,sans-Serif" font-size="14.00">participationCount : Count</text>
<polygon fill="none" stroke="black" points="413,-298 413,-415 740,-415 740,-298 413,-298"/>
</g>
<!-- ServingVesselRole -->
<g id="node10" class="node">
<title>ServingVesselRole</title>
<polygon fill="lightgray" stroke="transparent" points="426.5,-688.5 426.5,-711.5 726.5,-711.5 726.5,-688.5 426.5,-688.5"/>
<text text-anchor="start" x="504" y="-697.3" font-family="Helvetica,sans-Serif" font-weight="bold" font-size="14.00">ServingVesselRole</text>
<text text-anchor="start" x="430.5" y="-673.3" font-family="Helvetica,sans-Serif" font-size="14.00">servingVesselRoleID : Identifier</text>
<text text-anchor="start" x="430.5" y="-650.3" font-family="Helvetica,sans-Serif" font-size="14.00">vesselOperationalState : OperationalState</text>
<text text-anchor="start" x="430.5" y="-627.3" font-family="Helvetica,sans-Serif" font-size="14.00">vesselCapacity : ScalarVolume</text>
<text text-anchor="start" x="430.5" y="-604.3" font-family="Helvetica,sans-Serif" font-size="14.00">vesselTemperature : Temperature</text>
<polygon fill="none" stroke="black" points="425.5,-596 425.5,-713 727.5,-713 727.5,-596 425.5,-596"/>
</g>
<!-- AccessoryRole -->
<g id="node11" class="node">
<title>AccessoryRole</title>
<polygon fill="lightgray" stroke="transparent" points="414.5,-986.5 414.5,-1009.5 739.5,-1009.5 739.5,-986.5 414.5,-986.5"/>
<text text-anchor="start" x="520" y="-995.3" font-family="Helvetica,sans-Serif" font-weight="bold" font-size="14.00">AccessoryRole</text>
<text text-anchor="start" x="418.5" y="-971.3" font-family="Helvetica,sans-Serif" font-size="14.00">accessoryRoleID : Identifier</text>
<text text-anchor="start" x="418.5" y="-948.3" font-family="Helvetica,sans-Serif" font-size="14.00">accessoryOperationalState : OperationalState</text>
<text text-anchor="start" x="418.5" y="-925.3" font-family="Helvetica,sans-Serif" font-size="14.00">accessoryCount : Count</text>
<text text-anchor="start" x="418.5" y="-902.3" font-family="Helvetica,sans-Serif" font-size="14.00">accessoryExtent : Extent</text>
<polygon fill="none" stroke="black" points="413,-894 413,-1011 740,-1011 740,-894 413,-894"/>
</g>
<!-- SupplyRole -->
<g id="node12" class="node">
<title>SupplyRole</title>
<polygon fill="lightgray" stroke="transparent" points="425.5,-1433.5 425.5,-1456.5 728.5,-1456.5 728.5,-1433.5 425.5,-1433.5"/>
<text text-anchor="start" x="533" y="-1442.3" font-family="Helvetica,sans-Serif" font-weight="bold" font-size="14.00">SupplyRole</text>
<text text-anchor="start" x="429.5" y="-1418.3" font-family="Helvetica,sans-Serif" font-size="14.00">supplyRoleID : Identifier</text>
<text text-anchor="start" x="429.5" y="-1395.3" font-family="Helvetica,sans-Serif" font-size="14.00">supplyOperationalState : OperationalState</text>
<text text-anchor="start" x="429.5" y="-1372.3" font-family="Helvetica,sans-Serif" font-size="14.00">supplyVolume : ScalarVolume</text>
<text text-anchor="start" x="429.5" y="-1349.3" font-family="Helvetica,sans-Serif" font-size="14.00">supplyMass : Mass</text>
<polygon fill="none" stroke="black" points="424,-1341 424,-1458 729,-1458 729,-1341 424,-1341"/>
</g>
<!-- A_CoffeeSettingContainsPreparationZone -->
<g id="node13" class="node">
<title>A_CoffeeSettingContainsPreparationZone</title>
<polygon fill="lightblue" stroke="transparent" points="10,-717.5 10,-740.5 329,-740.5 329,-717.5 10,-717.5"/>
<text text-anchor="start" x="14" y="-726.3" font-family="Helvetica,sans-Serif" font-weight="bold" font-size="14.00">CoffeeSettingContainsPreparationZone</text>
<text text-anchor="start" x="14" y="-702.3" font-family="Helvetica,sans-Serif" font-size="14.00">relativePosition : Position</text>
<polygon fill="none" stroke="black" points="8.5,-693.5 8.5,-741.5 329.5,-741.5 329.5,-693.5 8.5,-693.5"/>
</g>
<!-- A_CoffeeSettingContainsPreparationZone&#45;&gt;CoffeeSetting -->
<g id="edge1" class="edge">
<title>A_CoffeeSettingContainsPreparationZone&#45;&gt;CoffeeSetting</title>
<path fill="none" stroke="#555555" d="M289.26,-693.36C306.39,-687.11 323.2,-679.29 338,-669.5 380.43,-641.43 369.75,-611.62 410,-580.5 417.49,-574.71 425.49,-569.25 433.79,-564.12"/>
</g>
<!-- A_CoffeeSettingContainsPreparationZone&#45;&gt;PreparationZone -->
<g id="edge2" class="edge">
<title>A_CoffeeSettingContainsPreparationZone&#45;&gt;PreparationZone</title>
<path fill="none" stroke="#555555" d="M310.7,-741.54C320.69,-746.96 329.97,-753.54 338,-761.5 424.96,-847.75 330.41,-934.41 410,-1027.5 416.14,-1034.68 423.11,-1041.19 430.63,-1047.09"/>
</g>
<!-- A_PreparationZoneIncludesEquipmentRole -->
<g id="node14" class="node">
<title>A_PreparationZoneIncludesEquipmentRole</title>
<polygon fill="lightblue" stroke="transparent" points="6,-1485.5 6,-1508.5 332,-1508.5 332,-1485.5 6,-1485.5"/>
<text text-anchor="start" x="10" y="-1494.3" font-family="Helvetica,sans-Serif" font-weight="bold" font-size="14.00">PreparationZoneIncludesEquipmentRole</text>
<text text-anchor="start" x="10" y="-1470.3" font-family="Helvetica,sans-Serif" font-size="14.00">equipmentPlacementState : OperationalState</text>
<polygon fill="none" stroke="black" points="5,-1461.5 5,-1509.5 333,-1509.5 333,-1461.5 5,-1461.5"/>
</g>
<!-- A_PreparationZoneIncludesEquipmentRole&#45;&gt;PreparationZone -->
<g id="edge3" class="edge">
<title>A_PreparationZoneIncludesEquipmentRole&#45;&gt;PreparationZone</title>
<path fill="none" stroke="#555555" d="M246.24,-1461.37C278.46,-1447.76 314.01,-1427.7 338,-1399.5 405.49,-1320.18 340.64,-1254.19 410,-1176.5 416.2,-1169.56 423.16,-1163.22 430.64,-1157.44"/>
</g>
<!-- A_PreparationZoneIncludesEquipmentRole&#45;&gt;EquipmentRole -->
<g id="edge4" class="edge">
<title>A_PreparationZoneIncludesEquipmentRole&#45;&gt;EquipmentRole</title>
<path fill="none" stroke="#555555" d="M324.75,-1509.54C352.6,-1513.87 381.73,-1518.4 409.88,-1522.77"/>
</g>
<!-- A_EquipmentRoleIncludesMachineRole -->
<g id="node15" class="node">
<title>A_EquipmentRoleIncludesMachineRole</title>
<polygon fill="lightblue" stroke="transparent" points="15,-1588.5 15,-1611.5 324,-1611.5 324,-1588.5 15,-1588.5"/>
<text text-anchor="start" x="27" y="-1597.3" font-family="Helvetica,sans-Serif" font-weight="bold" font-size="14.00">EquipmentRoleIncludesMachineRole</text>
<text text-anchor="start" x="19" y="-1573.3" font-family="Helvetica,sans-Serif" font-size="14.00">machineAvailabilityState : OperationalState</text>
<polygon fill="none" stroke="black" points="13.5,-1564.5 13.5,-1612.5 324.5,-1612.5 324.5,-1564.5 13.5,-1564.5"/>
</g>
<!-- A_EquipmentRoleIncludesMachineRole&#45;&gt;EquipmentRole -->
<g id="edge5" class="edge">
<title>A_EquipmentRoleIncludesMachineRole&#45;&gt;EquipmentRole</title>
<path fill="none" stroke="#555555" d="M324.75,-1573.24C352.6,-1570.49 381.73,-1567.61 409.88,-1564.84"/>
</g>
<!-- A_EquipmentRoleIncludesMachineRole&#45;&gt;MachineRole -->
<g id="edge6" class="edge">
<title>A_EquipmentRoleIncludesMachineRole&#45;&gt;MachineRole</title>
<path fill="none" stroke="#555555" d="M259.49,-1612.56C305.9,-1625.03 363.98,-1640.64 417.63,-1655.06"/>
</g>
<!-- A_PreparationZoneIncludesStorageRole -->
<g id="node16" class="node">
<title>A_PreparationZoneIncludesStorageRole</title>
<polygon fill="lightblue" stroke="transparent" points="17,-1216.5 17,-1239.5 321,-1239.5 321,-1216.5 17,-1216.5"/>
<text text-anchor="start" x="21" y="-1225.3" font-family="Helvetica,sans-Serif" font-weight="bold" font-size="14.00">PreparationZoneIncludesStorageRole</text>
<text text-anchor="start" x="21" y="-1201.3" font-family="Helvetica,sans-Serif" font-size="14.00">storagePlacementState : OperationalState</text>
<polygon fill="none" stroke="black" points="16,-1192.5 16,-1240.5 322,-1240.5 322,-1192.5 16,-1192.5"/>
</g>
<!-- A_PreparationZoneIncludesStorageRole&#45;&gt;PreparationZone -->
<g id="edge7" class="edge">
<title>A_PreparationZoneIncludesStorageRole&#45;&gt;PreparationZone</title>
<path fill="none" stroke="#555555" d="M255.01,-1192.39C305.87,-1177.97 371.85,-1159.25 430.72,-1142.56"/>
</g>
<!-- A_PreparationZoneIncludesStorageRole&#45;&gt;StorageRole -->
<g id="edge8" class="edge">
<title>A_PreparationZoneIncludesStorageRole&#45;&gt;StorageRole</title>
<path fill="none" stroke="#555555" d="M322.15,-1229.26C354.4,-1231.96 388.47,-1234.82 420.81,-1237.53"/>
</g>
<!-- A_PreparationZoneIncludesAccessoryRole -->
<g id="node17" class="node">
<title>A_PreparationZoneIncludesAccessoryRole</title>
<polygon fill="lightblue" stroke="transparent" points="9,-1027.5 9,-1050.5 330,-1050.5 330,-1027.5 9,-1027.5"/>
<text text-anchor="start" x="13" y="-1036.3" font-family="Helvetica,sans-Serif" font-weight="bold" font-size="14.00">PreparationZoneIncludesAccessoryRole</text>
<text text-anchor="start" x="13" y="-1012.3" font-family="Helvetica,sans-Serif" font-size="14.00">accessoryPlacementState : OperationalState</text>
<polygon fill="none" stroke="black" points="7.5,-1003.5 7.5,-1051.5 330.5,-1051.5 330.5,-1003.5 7.5,-1003.5"/>
</g>
<!-- A_PreparationZoneIncludesAccessoryRole&#45;&gt;PreparationZone -->
<g id="edge9" class="edge">
<title>A_PreparationZoneIncludesAccessoryRole&#45;&gt;PreparationZone</title>
<path fill="none" stroke="#555555" d="M301.65,-1051.53C342.93,-1059.06 388.71,-1067.41 430.84,-1075.1"/>
</g>
<!-- A_PreparationZoneIncludesAccessoryRole&#45;&gt;AccessoryRole -->
<g id="edge10" class="edge">
<title>A_PreparationZoneIncludesAccessoryRole&#45;&gt;AccessoryRole</title>
<path fill="none" stroke="#555555" d="M299.98,-1003.46C335.88,-996.82 375.3,-989.53 412.81,-982.59"/>
</g>
<!-- A_StorageRoleHoldsSupplyRole -->
<g id="node18" class="node">
<title>A_StorageRoleHoldsSupplyRole</title>
<polygon fill="lightblue" stroke="transparent" points="30,-1359.5 30,-1382.5 309,-1382.5 309,-1359.5 30,-1359.5"/>
<text text-anchor="start" x="55" y="-1368.3" font-family="Helvetica,sans-Serif" font-weight="bold" font-size="14.00">StorageRoleHoldsSupplyRole</text>
<text text-anchor="start" x="34" y="-1344.3" font-family="Helvetica,sans-Serif" font-size="14.00">storedQuantityState : OperationalState</text>
<polygon fill="none" stroke="black" points="28.5,-1335.5 28.5,-1383.5 309.5,-1383.5 309.5,-1335.5 28.5,-1335.5"/>
</g>
<!-- A_StorageRoleHoldsSupplyRole&#45;&gt;StorageRole -->
<g id="edge11" class="edge">
<title>A_StorageRoleHoldsSupplyRole&#45;&gt;StorageRole</title>
<path fill="none" stroke="#555555" d="M259.49,-1335.44C306.84,-1322.72 366.32,-1306.73 420.86,-1292.07"/>
</g>
<!-- A_StorageRoleHoldsSupplyRole&#45;&gt;SupplyRole -->
<g id="edge12" class="edge">
<title>A_StorageRoleHoldsSupplyRole&#45;&gt;SupplyRole</title>
<path fill="none" stroke="#555555" d="M309.55,-1373.27C346.43,-1376.9 386.42,-1380.85 423.91,-1384.55"/>
</g>
<!-- A_CoffeeSettingIncludesServiceRole -->
<g id="node19" class="node">
<title>A_CoffeeSettingIncludesServiceRole</title>
<polygon fill="lightblue" stroke="transparent" points="21,-629.5 21,-652.5 318,-652.5 318,-629.5 21,-629.5"/>
<text text-anchor="start" x="36.5" y="-638.3" font-family="Helvetica,sans-Serif" font-weight="bold" font-size="14.00">CoffeeSettingIncludesServiceRole</text>
<text text-anchor="start" x="25" y="-614.3" font-family="Helvetica,sans-Serif" font-size="14.00">servicePlacementState : OperationalState</text>
<polygon fill="none" stroke="black" points="19.5,-605.5 19.5,-653.5 318.5,-653.5 318.5,-605.5 19.5,-605.5"/>
</g>
<!-- A_CoffeeSettingIncludesServiceRole&#45;&gt;CoffeeSetting -->
<g id="edge13" class="edge">
<title>A_CoffeeSettingIncludesServiceRole&#45;&gt;CoffeeSetting</title>
<path fill="none" stroke="#555555" d="M248.67,-605.44C298.18,-590.3 363.75,-570.25 423.15,-552.09"/>
</g>
<!-- A_CoffeeSettingIncludesServiceRole&#45;&gt;ServiceRole -->
<g id="edge14" class="edge">
<title>A_CoffeeSettingIncludesServiceRole&#45;&gt;ServiceRole</title>
<path fill="none" stroke="#555555" d="M275.6,-653.6C296.77,-660.1 318.49,-668.03 338,-677.5 373.51,-694.74 375.8,-709.78 410,-729.5 419.13,-734.77 428.71,-739.92 438.46,-744.9"/>
</g>
<!-- A_ServiceRoleIncludesServingVesselRole -->
<g id="node20" class="node">
<title>A_ServiceRoleIncludesServingVesselRole</title>
<polygon fill="lightblue" stroke="transparent" points="14,-801.5 14,-824.5 324,-824.5 324,-801.5 14,-801.5"/>
<text text-anchor="start" x="18" y="-810.3" font-family="Helvetica,sans-Serif" font-weight="bold" font-size="14.00">ServiceRoleIncludesServingVesselRole</text>
<text text-anchor="start" x="18" y="-786.3" font-family="Helvetica,sans-Serif" font-size="14.00">vesselAvailabilityState : OperationalState</text>
<polygon fill="none" stroke="black" points="13,-777.5 13,-825.5 325,-825.5 325,-777.5 13,-777.5"/>
</g>
<!-- A_ServiceRoleIncludesServingVesselRole&#45;&gt;ServiceRole -->
<g id="edge15" class="edge">
<title>A_ServiceRoleIncludesServingVesselRole&#45;&gt;ServiceRole</title>
<path fill="none" stroke="#555555" d="M325.04,-802.26C356.9,-802.42 390.43,-802.59 422.22,-802.74"/>
</g>
<!-- A_ServiceRoleIncludesServingVesselRole&#45;&gt;ServingVesselRole -->
<g id="edge16" class="edge">
<title>A_ServiceRoleIncludesServingVesselRole&#45;&gt;ServingVesselRole</title>
<path fill="none" stroke="#555555" d="M272.03,-777.45C293.98,-771.54 316.91,-764.79 338,-757.5 359.77,-749.98 402.18,-731.97 445.22,-713.07"/>
</g>
<!-- A_CoffeeSettingIncludesAmbientRole -->
<g id="node21" class="node">
<title>A_CoffeeSettingIncludesAmbientRole</title>
<polygon fill="lightblue" stroke="transparent" points="28,-419.5 28,-442.5 310,-442.5 310,-419.5 28,-419.5"/>
<text text-anchor="start" x="32" y="-428.3" font-family="Helvetica,sans-Serif" font-weight="bold" font-size="14.00">CoffeeSettingIncludesAmbientRole</text>
<text text-anchor="start" x="32" y="-404.3" font-family="Helvetica,sans-Serif" font-size="14.00">ambientState : OperationalState</text>
<polygon fill="none" stroke="black" points="27,-395.5 27,-443.5 311,-443.5 311,-395.5 27,-395.5"/>
</g>
<!-- A_CoffeeSettingIncludesAmbientRole&#45;&gt;CoffeeSetting -->
<g id="edge17" class="edge">
<title>A_CoffeeSettingIncludesAmbientRole&#45;&gt;CoffeeSetting</title>
<path fill="none" stroke="#555555" d="M283.22,-443.51C326.57,-452.71 376.76,-463.35 423.17,-473.19"/>
</g>
<!-- A_CoffeeSettingIncludesAmbientRole&#45;&gt;AmbientRole -->
<g id="edge18" class="edge">
<title>A_CoffeeSettingIncludesAmbientRole&#45;&gt;AmbientRole</title>
<path fill="none" stroke="#555555" d="M209.71,-395.31C256.81,-366.98 338,-319.26 410,-282.5 420.68,-277.05 431.83,-271.56 443.08,-266.17"/>
</g>
<!-- A_CoffeeSettingIncludesSeatingRole -->
<g id="node22" class="node">
<title>A_CoffeeSettingIncludesSeatingRole</title>
<polygon fill="lightblue" stroke="transparent" points="20,-273.5 20,-296.5 318,-296.5 318,-273.5 20,-273.5"/>
<text text-anchor="start" x="35" y="-282.3" font-family="Helvetica,sans-Serif" font-weight="bold" font-size="14.00">CoffeeSettingIncludesSeatingRole</text>
<text text-anchor="start" x="24" y="-258.3" font-family="Helvetica,sans-Serif" font-size="14.00">seatingPlacementState : OperationalState</text>
<polygon fill="none" stroke="black" points="19,-249.5 19,-297.5 319,-297.5 319,-249.5 19,-249.5"/>
</g>
<!-- A_CoffeeSettingIncludesSeatingRole&#45;&gt;CoffeeSetting -->
<g id="edge19" class="edge">
<title>A_CoffeeSettingIncludesSeatingRole&#45;&gt;CoffeeSetting</title>
<path fill="none" stroke="#555555" d="M209.83,-297.66C244.15,-318.71 294.85,-350.35 338,-379.5 370.71,-401.6 375.8,-411.78 410,-431.5 419.13,-436.77 428.71,-441.92 438.46,-446.9"/>
</g>
<!-- A_CoffeeSettingIncludesSeatingRole&#45;&gt;SeatingRole -->
<g id="edge20" class="edge">
<title>A_CoffeeSettingIncludesSeatingRole&#45;&gt;SeatingRole</title>
<path fill="none" stroke="#555555" d="M208.39,-249.46C255.21,-220.52 337.14,-171.13 410,-133.5 420.65,-128 431.79,-122.48 443.03,-117.07"/>
</g>
<!-- A_SeatingRoleAccommodatesConsumerRole -->
<g id="node23" class="node">
<title>A_SeatingRoleAccommodatesConsumerRole</title>
<polygon fill="lightblue" stroke="transparent" points="1,-61.5 1,-84.5 337,-84.5 337,-61.5 1,-61.5"/>
<text text-anchor="start" x="5" y="-70.3" font-family="Helvetica,sans-Serif" font-weight="bold" font-size="14.00">SeatingRoleAccommodatesConsumerRole</text>
<text text-anchor="start" x="5" y="-46.3" font-family="Helvetica,sans-Serif" font-size="14.00">occupancyState : OperationalState</text>
<polygon fill="none" stroke="black" points="0,-37.5 0,-85.5 338,-85.5 338,-37.5 0,-37.5"/>
</g>
<!-- A_SeatingRoleAccommodatesConsumerRole&#45;&gt;SeatingRole -->
<g id="edge21" class="edge">
<title>A_SeatingRoleAccommodatesConsumerRole&#45;&gt;SeatingRole</title>
<path fill="none" stroke="#555555" d="M338.15,-60.26C365.91,-60.05 394.57,-59.84 421.95,-59.64"/>
</g>
<!-- A_SeatingRoleAccommodatesConsumerRole&#45;&gt;ConsumerRole -->
<g id="edge22" class="edge">
<title>A_SeatingRoleAccommodatesConsumerRole&#45;&gt;ConsumerRole</title>
<path fill="none" stroke="#555555" d="M191.09,-85.5C230.52,-129.26 319.65,-223 410,-282.5 418.15,-287.87 426.75,-293.02 435.58,-297.93"/>
</g>
<!-- A_ConsumerRoleUsesServingVesselRole -->
<g id="node24" class="node">
<title>A_ConsumerRoleUsesServingVesselRole</title>
<polygon fill="lightblue" stroke="transparent" points="18,-532.5 18,-555.5 321,-555.5 321,-532.5 18,-532.5"/>
<text text-anchor="start" x="22" y="-541.3" font-family="Helvetica,sans-Serif" font-weight="bold" font-size="14.00">ConsumerRoleUsesServingVesselRole</text>
<text text-anchor="start" x="22" y="-517.3" font-family="Helvetica,sans-Serif" font-size="14.00">useState : OperationalState</text>
<polygon fill="none" stroke="black" points="16.5,-508.5 16.5,-556.5 321.5,-556.5 321.5,-508.5 16.5,-508.5"/>
</g>
<!-- A_ConsumerRoleUsesServingVesselRole&#45;&gt;ConsumerRole -->
<g id="edge23" class="edge">
<title>A_ConsumerRoleUsesServingVesselRole&#45;&gt;ConsumerRole</title>
<path fill="none" stroke="#555555" d="M225.53,-508.4C280.63,-484.48 367.19,-446.91 440.43,-415.12"/>
</g>
<!-- A_ConsumerRoleUsesServingVesselRole&#45;&gt;ServingVesselRole -->
<g id="edge24" class="edge">
<title>A_ConsumerRoleUsesServingVesselRole&#45;&gt;ServingVesselRole</title>
<path fill="none" stroke="#555555" d="M250.11,-556.6C300.08,-571.64 365.97,-591.46 425.39,-609.34"/>
</g>
</g>
</svg>
