<?xml version="1.0" encoding="UTF-8" standalone="no"?>
<!DOCTYPE svg PUBLIC "-//W3C//DTD SVG 1.1//EN"
 "http://www.w3.org/Graphics/SVG/1.1/DTD/svg11.dtd">
<!-- Generated by graphviz version 2.42.4 (0)
 -->
<!-- Title: ERD Pages: 1 -->
<svg width="788pt" height="2125pt"
 viewBox="0.00 0.00 788.20 2125.20" xmlns="http://www.w3.org/2000/svg" xmlns:xlink="http://www.w3.org/1999/xlink">
<g id="graph0" class="graph" transform="scale(1 1) rotate(0) translate(21.6 2103.6)">
<title>ERD</title>
<polygon fill="white" stroke="transparent" points="-21.6,21.6 -21.6,-2103.6 766.6,-2103.6 766.6,21.6 -21.6,21.6"/>
<text text-anchor="middle" x="372.5" y="-2063.6" font-family="Times,serif" font-size="18.00">Coffee Environment Component Connectivity Network Model</text>
<!-- BrewArea -->
<g id="node1" class="node">
<title>BrewArea</title>
<polygon fill="lightgray" stroke="transparent" points="421.5,-539.5 421.5,-562.5 742.5,-562.5 742.5,-539.5 421.5,-539.5"/>
<text text-anchor="start" x="543.5" y="-548.3" font-family="Helvetica,sans-Serif" font-weight="bold" font-size="14.00">BrewArea</text>
<text text-anchor="start" x="425.5" y="-524.3" font-family="Helvetica,sans-Serif" font-size="14.00">brewAreaID : Identifier</text>
<text text-anchor="start" x="425.5" y="-501.3" font-family="Helvetica,sans-Serif" font-size="14.00">brewAreaOperationalState : OperationalState</text>
<text text-anchor="start" x="425.5" y="-478.3" font-family="Helvetica,sans-Serif" font-size="14.00">brewAreaPosition : Position</text>
<text text-anchor="start" x="425.5" y="-455.3" font-family="Helvetica,sans-Serif" font-size="14.00">brewAreaExtent : Extent</text>
<polygon fill="none" stroke="black" points="420,-447 420,-564 743,-564 743,-447 420,-447"/>
</g>
<!-- CounterSurface -->
<g id="node2" class="node">
<title>CounterSurface</title>
<polygon fill="lightgray" stroke="transparent" points="427.5,-837.5 427.5,-860.5 735.5,-860.5 735.5,-837.5 427.5,-837.5"/>
<text text-anchor="start" x="519.5" y="-846.3" font-family="Helvetica,sans-Serif" font-weight="bold" font-size="14.00">CounterSurface</text>
<text text-anchor="start" x="431.5" y="-822.3" font-family="Helvetica,sans-Serif" font-size="14.00">counterSurfaceID : Identifier</text>
<text text-anchor="start" x="431.5" y="-799.3" font-family="Helvetica,sans-Serif" font-size="14.00">surfaceOperationalState : OperationalState</text>
<text text-anchor="start" x="431.5" y="-776.3" font-family="Helvetica,sans-Serif" font-size="14.00">surfaceExtent : Extent</text>
<text text-anchor="start" x="431.5" y="-753.3" font-family="Helvetica,sans-Serif" font-size="14.00">surfaceCapacityCount : Count</text>
<polygon fill="none" stroke="black" points="426.5,-745 426.5,-862 736.5,-862 736.5,-745 426.5,-745"/>
</g>
<!-- ElectricalOutlet -->
<g id="node3" class="node">
<title>ElectricalOutlet</title>
<polygon fill="lightgray" stroke="transparent" points="433.5,-2029.5 433.5,-2052.5 729.5,-2052.5 729.5,-2029.5 433.5,-2029.5"/>
<text text-anchor="start" x="520" y="-2038.3" font-family="Helvetica,sans-Serif" font-weight="bold" font-size="14.00">ElectricalOutlet</text>
<text text-anchor="start" x="437.5" y="-2014.3" font-family="Helvetica,sans-Serif" font-size="14.00">electricalOutletID : Identifier</text>
<text text-anchor="start" x="437.5" y="-1991.3" font-family="Helvetica,sans-Serif" font-size="14.00">outletOperationalState : OperationalState</text>
<text text-anchor="start" x="437.5" y="-1968.3" font-family="Helvetica,sans-Serif" font-size="14.00">availablePower : Power</text>
<text text-anchor="start" x="437.5" y="-1945.3" font-family="Helvetica,sans-Serif" font-size="14.00">outletPosition : Position</text>
<polygon fill="none" stroke="black" points="432.5,-1937 432.5,-2054 730.5,-2054 730.5,-1937 432.5,-1937"/>
</g>
<!-- CoffeeMaker -->
<g id="node4" class="node">
<title>CoffeeMaker</title>
<polygon fill="lightgray" stroke="transparent" points="424.5,-1582.5 424.5,-1605.5 739.5,-1605.5 739.5,-1582.5 424.5,-1582.5"/>
<text text-anchor="start" x="531.5" y="-1591.3" font-family="Helvetica,sans-Serif" font-weight="bold" font-size="14.00">CoffeeMaker</text>
<text text-anchor="start" x="428.5" y="-1567.3" font-family="Helvetica,sans-Serif" font-size="14.00">coffeeMakerID : Identifier</text>
<text text-anchor="start" x="428.5" y="-1544.3" font-family="Helvetica,sans-Serif" font-size="14.00">machineOperationalState : OperationalState</text>
<text text-anchor="start" x="428.5" y="-1521.3" font-family="Helvetica,sans-Serif" font-size="14.00">machinePowerState : OperationalState</text>
<text text-anchor="start" x="428.5" y="-1498.3" font-family="Helvetica,sans-Serif" font-size="14.00">machineExtent : Extent</text>
<polygon fill="none" stroke="black" points="423,-1490 423,-1607 740,-1607 740,-1490 423,-1490"/>
</g>
<!-- Reservoir -->
<g id="node5" class="node">
<title>Reservoir</title>
<polygon fill="lightgray" stroke="transparent" points="422.5,-1880.5 422.5,-1903.5 740.5,-1903.5 740.5,-1880.5 422.5,-1880.5"/>
<text text-anchor="start" x="543.5" y="-1889.3" font-family="Helvetica,sans-Serif" font-weight="bold" font-size="14.00">Reservoir</text>
<text text-anchor="start" x="426.5" y="-1865.3" font-family="Helvetica,sans-Serif" font-size="14.00">reservoirID : Identifier</text>
<text text-anchor="start" x="426.5" y="-1842.3" font-family="Helvetica,sans-Serif" font-size="14.00">reservoirVolume : ScalarVolume</text>
<text text-anchor="start" x="426.5" y="-1819.3" font-family="Helvetica,sans-Serif" font-size="14.00">reservoirTemperature : Temperature</text>
<text text-anchor="start" x="426.5" y="-1796.3" font-family="Helvetica,sans-Serif" font-size="14.00">reservoirOperationalState : OperationalState</text>
<polygon fill="none" stroke="black" points="421.5,-1788 421.5,-1905 741.5,-1905 741.5,-1788 421.5,-1788"/>
</g>
<!-- HeatingElement -->
<g id="node6" class="node">
<title>HeatingElement</title>
<polygon fill="lightgray" stroke="transparent" points="425.5,-1731.5 425.5,-1754.5 737.5,-1754.5 737.5,-1731.5 425.5,-1731.5"/>
<text text-anchor="start" x="518" y="-1740.3" font-family="Helvetica,sans-Serif" font-weight="bold" font-size="14.00">HeatingElement</text>
<text text-anchor="start" x="429.5" y="-1716.3" font-family="Helvetica,sans-Serif" font-size="14.00">heatingElementID : Identifier</text>
<text text-anchor="start" x="429.5" y="-1693.3" font-family="Helvetica,sans-Serif" font-size="14.00">elementTemperature : Temperature</text>
<text text-anchor="start" x="429.5" y="-1670.3" font-family="Helvetica,sans-Serif" font-size="14.00">elementPower : Power</text>
<text text-anchor="start" x="429.5" y="-1647.3" font-family="Helvetica,sans-Serif" font-size="14.00">elementOperationalState : OperationalState</text>
<polygon fill="none" stroke="black" points="424.5,-1639 424.5,-1756 738.5,-1756 738.5,-1639 424.5,-1639"/>
</g>
<!-- BrewBasket -->
<g id="node7" class="node">
<title>BrewBasket</title>
<polygon fill="lightgray" stroke="transparent" points="430.5,-1433.5 430.5,-1456.5 732.5,-1456.5 732.5,-1433.5 430.5,-1433.5"/>
<text text-anchor="start" x="534.5" y="-1442.3" font-family="Helvetica,sans-Serif" font-weight="bold" font-size="14.00">BrewBasket</text>
<text text-anchor="start" x="434.5" y="-1418.3" font-family="Helvetica,sans-Serif" font-size="14.00">brewBasketID : Identifier</text>
<text text-anchor="start" x="434.5" y="-1395.3" font-family="Helvetica,sans-Serif" font-size="14.00">basketOperationalState : OperationalState</text>
<text text-anchor="start" x="434.5" y="-1372.3" font-family="Helvetica,sans-Serif" font-size="14.00">basketCapacityCount : Count</text>
<text text-anchor="start" x="434.5" y="-1349.3" font-family="Helvetica,sans-Serif" font-size="14.00">basketPosition : Position</text>
<polygon fill="none" stroke="black" points="429.5,-1341 429.5,-1458 733.5,-1458 733.5,-1341 429.5,-1341"/>
</g>
<!-- WarmingPlate -->
<g id="node8" class="node">
<title>WarmingPlate</title>
<polygon fill="lightgray" stroke="transparent" points="436.5,-1284.5 436.5,-1307.5 727.5,-1307.5 727.5,-1284.5 436.5,-1284.5"/>
<text text-anchor="start" x="526" y="-1293.3" font-family="Helvetica,sans-Serif" font-weight="bold" font-size="14.00">WarmingPlate</text>
<text text-anchor="start" x="440.5" y="-1269.3" font-family="Helvetica,sans-Serif" font-size="14.00">warmingPlateID : Identifier</text>
<text text-anchor="start" x="440.5" y="-1246.3" font-family="Helvetica,sans-Serif" font-size="14.00">plateTemperature : Temperature</text>
<text text-anchor="start" x="440.5" y="-1223.3" font-family="Helvetica,sans-Serif" font-size="14.00">plateOperationalState : OperationalState</text>
<text text-anchor="start" x="440.5" y="-1200.3" font-family="Helvetica,sans-Serif" font-size="14.00">platePower : Power</text>
<polygon fill="none" stroke="black" points="435,-1192 435,-1309 728,-1309 728,-1192 435,-1192"/>
</g>
<!-- Grinder -->
<g id="node9" class="node">
<title>Grinder</title>
<polygon fill="lightgray" stroke="transparent" points="428.5,-1135.5 428.5,-1158.5 735.5,-1158.5 735.5,-1135.5 428.5,-1135.5"/>
<text text-anchor="start" x="552.5" y="-1144.3" font-family="Helvetica,sans-Serif" font-weight="bold" font-size="14.00">Grinder</text>
<text text-anchor="start" x="432.5" y="-1120.3" font-family="Helvetica,sans-Serif" font-size="14.00">grinderID : Identifier</text>
<text text-anchor="start" x="432.5" y="-1097.3" font-family="Helvetica,sans-Serif" font-size="14.00">grinderOperationalState : OperationalState</text>
<text text-anchor="start" x="432.5" y="-1074.3" font-family="Helvetica,sans-Serif" font-size="14.00">grindState : OperationalState</text>
<text text-anchor="start" x="432.5" y="-1051.3" font-family="Helvetica,sans-Serif" font-size="14.00">grinderExtent : Extent</text>
<polygon fill="none" stroke="black" points="427,-1043 427,-1160 736,-1160 736,-1043 427,-1043"/>
</g>
<!-- StorageCanister -->
<g id="node10" class="node">
<title>StorageCanister</title>
<polygon fill="lightgray" stroke="transparent" points="425.5,-986.5 425.5,-1009.5 737.5,-1009.5 737.5,-986.5 425.5,-986.5"/>
<text text-anchor="start" x="517" y="-995.3" font-family="Helvetica,sans-Serif" font-weight="bold" font-size="14.00">StorageCanister</text>
<text text-anchor="start" x="429.5" y="-971.3" font-family="Helvetica,sans-Serif" font-size="14.00">storageCanisterID : Identifier</text>
<text text-anchor="start" x="429.5" y="-948.3" font-family="Helvetica,sans-Serif" font-size="14.00">canisterOperationalState : OperationalState</text>
<text text-anchor="start" x="429.5" y="-925.3" font-family="Helvetica,sans-Serif" font-size="14.00">storedMass : Mass</text>
<text text-anchor="start" x="429.5" y="-902.3" font-family="Helvetica,sans-Serif" font-size="14.00">canisterExtent : Extent</text>
<polygon fill="none" stroke="black" points="424.5,-894 424.5,-1011 738.5,-1011 738.5,-894 424.5,-894"/>
</g>
<!-- Cup -->
<g id="node11" class="node">
<title>Cup</title>
<polygon fill="lightgray" stroke="transparent" points="440.5,-390.5 440.5,-413.5 722.5,-413.5 722.5,-390.5 440.5,-390.5"/>
<text text-anchor="start" x="566" y="-399.3" font-family="Helvetica,sans-Serif" font-weight="bold" font-size="14.00">Cup</text>
<text text-anchor="start" x="444.5" y="-375.3" font-family="Helvetica,sans-Serif" font-size="14.00">cupID : Identifier</text>
<text text-anchor="start" x="444.5" y="-352.3" font-family="Helvetica,sans-Serif" font-size="14.00">cupOperationalState : OperationalState</text>
<text text-anchor="start" x="444.5" y="-329.3" font-family="Helvetica,sans-Serif" font-size="14.00">cupVolume : ScalarVolume</text>
<text text-anchor="start" x="444.5" y="-306.3" font-family="Helvetica,sans-Serif" font-size="14.00">cupPosition : Position</text>
<polygon fill="none" stroke="black" points="439.5,-298 439.5,-415 723.5,-415 723.5,-298 439.5,-298"/>
</g>
<!-- SeatingArea -->
<g id="node12" class="node">
<title>SeatingArea</title>
<polygon fill="lightgray" stroke="transparent" points="428.5,-241.5 428.5,-264.5 735.5,-264.5 735.5,-241.5 428.5,-241.5"/>
<text text-anchor="start" x="533.5" y="-250.3" font-family="Helvetica,sans-Serif" font-weight="bold" font-size="14.00">SeatingArea</text>
<text text-anchor="start" x="432.5" y="-226.3" font-family="Helvetica,sans-Serif" font-size="14.00">seatingAreaID : Identifier</text>
<text text-anchor="start" x="432.5" y="-203.3" font-family="Helvetica,sans-Serif" font-size="14.00">seatingOperationalState : OperationalState</text>
<text text-anchor="start" x="432.5" y="-180.3" font-family="Helvetica,sans-Serif" font-size="14.00">seatingCapacityCount : Count</text>
<text text-anchor="start" x="432.5" y="-157.3" font-family="Helvetica,sans-Serif" font-size="14.00">seatingExtent : Extent</text>
<polygon fill="none" stroke="black" points="427,-149 427,-266 736,-266 736,-149 427,-149"/>
</g>
<!-- Consumer -->
<g id="node13" class="node">
<title>Consumer</title>
<polygon fill="lightgray" stroke="transparent" points="419.5,-92.5 419.5,-115.5 744.5,-115.5 744.5,-92.5 419.5,-92.5"/>
<text text-anchor="start" x="542.5" y="-101.3" font-family="Helvetica,sans-Serif" font-weight="bold" font-size="14.00">Consumer</text>
<text text-anchor="start" x="423.5" y="-77.3" font-family="Helvetica,sans-Serif" font-size="14.00">consumerID : Identifier</text>
<text text-anchor="start" x="423.5" y="-54.3" font-family="Helvetica,sans-Serif" font-size="14.00">consumerOperationalState : OperationalState</text>
<text text-anchor="start" x="423.5" y="-31.3" font-family="Helvetica,sans-Serif" font-size="14.00">preferenceState : OperationalState</text>
<text text-anchor="start" x="423.5" y="-8.3" font-family="Helvetica,sans-Serif" font-size="14.00">occupancyState : OperationalState</text>
<polygon fill="none" stroke="black" points="418,0 418,-117 745,-117 745,0 418,0"/>
</g>
<!-- AdditiveContainer -->
<g id="node14" class="node">
<title>AdditiveContainer</title>
<polygon fill="lightgray" stroke="transparent" points="421.5,-688.5 421.5,-711.5 742.5,-711.5 742.5,-688.5 421.5,-688.5"/>
<text text-anchor="start" x="511" y="-697.3" font-family="Helvetica,sans-Serif" font-weight="bold" font-size="14.00">AdditiveContainer</text>
<text text-anchor="start" x="425.5" y="-673.3" font-family="Helvetica,sans-Serif" font-size="14.00">additiveContainerID : Identifier</text>
<text text-anchor="start" x="425.5" y="-650.3" font-family="Helvetica,sans-Serif" font-size="14.00">containerOperationalState : OperationalState</text>
<text text-anchor="start" x="425.5" y="-627.3" font-family="Helvetica,sans-Serif" font-size="14.00">storedVolume : ScalarVolume</text>
<text text-anchor="start" x="425.5" y="-604.3" font-family="Helvetica,sans-Serif" font-size="14.00">containerExtent : Extent</text>
<polygon fill="none" stroke="black" points="420,-596 420,-713 743,-713 743,-596 420,-596"/>
</g>
<!-- A_BrewAreaContainsCounterSurface -->
<g id="node15" class="node">
<title>A_BrewAreaContainsCounterSurface</title>
<polygon fill="lightblue" stroke="transparent" points="35,-687.5 35,-710.5 312,-710.5 312,-687.5 35,-687.5"/>
<text text-anchor="start" x="39" y="-696.3" font-family="Helvetica,sans-Serif" font-weight="bold" font-size="14.00">BrewAreaContainsCounterSurface</text>
<text text-anchor="start" x="39" y="-672.3" font-family="Helvetica,sans-Serif" font-size="14.00">relativePosition : Position</text>
<polygon fill="none" stroke="black" points="33.5,-663.5 33.5,-711.5 312.5,-711.5 312.5,-663.5 33.5,-663.5"/>
</g>
<!-- A_BrewAreaContainsCounterSurface&#45;&gt;BrewArea -->
<g id="edge1" class="edge">
<title>A_BrewAreaContainsCounterSurface&#45;&gt;BrewArea</title>
<path fill="none" stroke="#555555" d="M270.4,-663.37C295.66,-655.41 322.41,-645.46 346,-633.5 381.44,-615.53 383.79,-600.71 418,-580.5 427.5,-574.89 437.49,-569.39 447.65,-564.09"/>
</g>
<!-- A_BrewAreaContainsCounterSurface&#45;&gt;CounterSurface -->
<g id="edge2" class="edge">
<title>A_BrewAreaContainsCounterSurface&#45;&gt;CounterSurface</title>
<path fill="none" stroke="#555555" d="M263.36,-711.57C289.98,-718.83 319.2,-726.9 346,-734.5 372.03,-741.88 399.63,-749.87 426.42,-757.7"/>
</g>
<!-- A_CounterSurfaceSupportsCoffeeMaker -->
<g id="node16" class="node">
<title>A_CounterSurfaceSupportsCoffeeMaker</title>
<polygon fill="lightblue" stroke="transparent" points="22,-1208.5 22,-1231.5 325,-1231.5 325,-1208.5 22,-1208.5"/>
<text text-anchor="start" x="26" y="-1217.3" font-family="Helvetica,sans-Serif" font-weight="bold" font-size="14.00">CounterSurfaceSupportsCoffeeMaker</text>
<text text-anchor="start" x="26" y="-1193.3" font-family="Helvetica,sans-Serif" font-size="14.00">supportPosition : Position</text>
<polygon fill="none" stroke="black" points="20.5,-1184.5 20.5,-1232.5 325.5,-1232.5 325.5,-1184.5 20.5,-1184.5"/>
</g>
<!-- A_CounterSurfaceSupportsCoffeeMaker&#45;&gt;CounterSurface -->
<g id="edge3" class="edge">
<title>A_CounterSurfaceSupportsCoffeeMaker&#45;&gt;CounterSurface</title>
<path fill="none" stroke="#555555" d="M221.4,-1184.29C259.88,-1162.43 313,-1126.92 346,-1082.5 403.34,-1005.32 353.25,-949.58 418,-878.5 423.34,-872.64 429.22,-867.21 435.49,-862.17"/>
</g>
<!-- A_CounterSurfaceSupportsCoffeeMaker&#45;&gt;CoffeeMaker -->
<g id="edge4" class="edge">
<title>A_CounterSurfaceSupportsCoffeeMaker&#45;&gt;CoffeeMaker</title>
<path fill="none" stroke="#555555" d="M232.92,-1232.57C269.44,-1249.96 315.12,-1276.55 346,-1311.5 398.43,-1370.85 362.32,-1418.18 418,-1474.5 423.45,-1480.01 429.38,-1485.15 435.66,-1489.94"/>
</g>
<!-- A_CounterSurfaceSupportsGrinder -->
<g id="node17" class="node">
<title>A_CounterSurfaceSupportsGrinder</title>
<polygon fill="lightblue" stroke="transparent" points="43,-1042.5 43,-1065.5 304,-1065.5 304,-1042.5 43,-1042.5"/>
<text text-anchor="start" x="47" y="-1051.3" font-family="Helvetica,sans-Serif" font-weight="bold" font-size="14.00">CounterSurfaceSupportsGrinder</text>
<text text-anchor="start" x="47" y="-1027.3" font-family="Helvetica,sans-Serif" font-size="14.00">supportPosition : Position</text>
<polygon fill="none" stroke="black" points="41.5,-1018.5 41.5,-1066.5 304.5,-1066.5 304.5,-1018.5 41.5,-1018.5"/>
</g>
<!-- A_CounterSurfaceSupportsGrinder&#45;&gt;CounterSurface -->
<g id="edge5" class="edge">
<title>A_CounterSurfaceSupportsGrinder&#45;&gt;CounterSurface</title>
<path fill="none" stroke="#555555" d="M222.03,-1018.39C257.48,-999.76 306.28,-972.36 346,-943.5 380.88,-918.16 382.02,-902.25 418,-878.5 426.56,-872.85 435.61,-867.41 444.89,-862.22"/>
</g>
<!-- A_CounterSurfaceSupportsGrinder&#45;&gt;Grinder -->
<g id="edge6" class="edge">
<title>A_CounterSurfaceSupportsGrinder&#45;&gt;Grinder</title>
<path fill="none" stroke="#555555" d="M304.58,-1061.45C343.46,-1067.1 386.44,-1073.33 426.66,-1079.17"/>
</g>
<!-- A_CounterSurfaceSupportsStorageCanister -->
<g id="node18" class="node">
<title>A_CounterSurfaceSupportsStorageCanister</title>
<polygon fill="lightblue" stroke="transparent" points="8,-903.5 8,-926.5 338,-926.5 338,-903.5 8,-903.5"/>
<text text-anchor="start" x="12" y="-912.3" font-family="Helvetica,sans-Serif" font-weight="bold" font-size="14.00">CounterSurfaceSupportsStorageCanister</text>
<text text-anchor="start" x="12" y="-888.3" font-family="Helvetica,sans-Serif" font-size="14.00">supportPosition : Position</text>
<polygon fill="none" stroke="black" points="7,-879.5 7,-927.5 339,-927.5 339,-879.5 7,-879.5"/>
</g>
<!-- A_CounterSurfaceSupportsStorageCanister&#45;&gt;CounterSurface -->
<g id="edge7" class="edge">
<title>A_CounterSurfaceSupportsStorageCanister&#45;&gt;CounterSurface</title>
<path fill="none" stroke="#555555" d="M271.63,-879.48C317.9,-868.1 374.29,-854.23 426.17,-841.47"/>
</g>
<!-- A_CounterSurfaceSupportsStorageCanister&#45;&gt;StorageCanister -->
<g id="edge8" class="edge">
<title>A_CounterSurfaceSupportsStorageCanister&#45;&gt;StorageCanister</title>
<path fill="none" stroke="#555555" d="M339.05,-923.39C367.2,-926.79 396.37,-930.3 424.28,-933.67"/>
</g>
<!-- A_CounterSurfaceSupportsAdditiveContainer -->
<g id="node19" class="node">
<title>A_CounterSurfaceSupportsAdditiveContainer</title>
<polygon fill="lightblue" stroke="transparent" points="1,-774.5 1,-797.5 345,-797.5 345,-774.5 1,-774.5"/>
<text text-anchor="start" x="5" y="-783.3" font-family="Helvetica,sans-Serif" font-weight="bold" font-size="14.00">CounterSurfaceSupportsAdditiveContainer</text>
<text text-anchor="start" x="5" y="-759.3" font-family="Helvetica,sans-Serif" font-size="14.00">supportPosition : Position</text>
<polygon fill="none" stroke="black" points="0,-750.5 0,-798.5 346,-798.5 346,-750.5 0,-750.5"/>
</g>
<!-- A_CounterSurfaceSupportsAdditiveContainer&#45;&gt;CounterSurface -->
<g id="edge9" class="edge">
<title>A_CounterSurfaceSupportsAdditiveContainer&#45;&gt;CounterSurface</title>
<path fill="none" stroke="#555555" d="M346.1,-786.78C372.73,-788.68 400.1,-790.63 426.31,-792.5"/>
</g>
<!-- A_CounterSurfaceSupportsAdditiveContainer&#45;&gt;AdditiveContainer -->
<g id="edge10" class="edge">
<title>A_CounterSurfaceSupportsAdditiveContainer&#45;&gt;AdditiveContainer</title>
<path fill="none" stroke="#555555" d="M264.33,-750.46C290.71,-743.26 319.55,-735.23 346,-727.5 369.94,-720.5 395.19,-712.89 419.89,-705.32"/>
</g>
<!-- A_ElectricalOutletPowersCoffeeMaker -->
<g id="node20" class="node">
<title>A_ElectricalOutletPowersCoffeeMaker</title>
<polygon fill="lightblue" stroke="transparent" points="29,-1919.5 29,-1942.5 318,-1942.5 318,-1919.5 29,-1919.5"/>
<text text-anchor="start" x="33" y="-1928.3" font-family="Helvetica,sans-Serif" font-weight="bold" font-size="14.00">ElectricalOutletPowersCoffeeMaker</text>
<text text-anchor="start" x="33" y="-1904.3" font-family="Helvetica,sans-Serif" font-size="14.00">suppliedPower : Power</text>
<polygon fill="none" stroke="black" points="27.5,-1895.5 27.5,-1943.5 318.5,-1943.5 318.5,-1895.5 27.5,-1895.5"/>
</g>
<!-- A_ElectricalOutletPowersCoffeeMaker&#45;&gt;ElectricalOutlet -->
<g id="edge11" class="edge">
<title>A_ElectricalOutletPowersCoffeeMaker&#45;&gt;ElectricalOutlet</title>
<path fill="none" stroke="#555555" d="M302.62,-1943.55C343.79,-1951.24 389.7,-1959.83 432.16,-1967.77"/>
</g>
<!-- A_ElectricalOutletPowersCoffeeMaker&#45;&gt;CoffeeMaker -->
<g id="edge12" class="edge">
<title>A_ElectricalOutletPowersCoffeeMaker&#45;&gt;CoffeeMaker</title>
<path fill="none" stroke="#555555" d="M226.07,-1895.41C263.82,-1875.64 313.7,-1844.44 346,-1804.5 400.44,-1737.18 358.45,-1686.34 418,-1623.5 423.56,-1617.64 429.66,-1612.19 436.14,-1607.14"/>
</g>
<!-- A_CoffeeMakerContainsReservoir -->
<g id="node21" class="node">
<title>A_CoffeeMakerContainsReservoir</title>
<polygon fill="lightblue" stroke="transparent" points="47,-1764.5 47,-1787.5 300,-1787.5 300,-1764.5 47,-1764.5"/>
<text text-anchor="start" x="51" y="-1773.3" font-family="Helvetica,sans-Serif" font-weight="bold" font-size="14.00">CoffeeMakerContainsReservoir</text>
<text text-anchor="start" x="51" y="-1749.3" font-family="Helvetica,sans-Serif" font-size="14.00">componentPosition : Position</text>
<polygon fill="none" stroke="black" points="45.5,-1740.5 45.5,-1788.5 300.5,-1788.5 300.5,-1740.5 45.5,-1740.5"/>
</g>
<!-- A_CoffeeMakerContainsReservoir&#45;&gt;CoffeeMaker -->
<g id="edge13" class="edge">
<title>A_CoffeeMakerContainsReservoir&#45;&gt;CoffeeMaker</title>
<path fill="none" stroke="#555555" d="M213.11,-1740.41C260.79,-1711.39 344.16,-1661.77 418,-1623.5 428.62,-1618 439.72,-1612.45 450.92,-1607"/>
</g>
<!-- A_CoffeeMakerContainsReservoir&#45;&gt;Reservoir -->
<g id="edge14" class="edge">
<title>A_CoffeeMakerContainsReservoir&#45;&gt;Reservoir</title>
<path fill="none" stroke="#555555" d="M293.22,-1788.55C333.28,-1796.63 378.62,-1805.78 421.26,-1814.38"/>
</g>
<!-- A_CoffeeMakerContainsHeatingElement -->
<g id="node22" class="node">
<title>A_CoffeeMakerContainsHeatingElement</title>
<polygon fill="lightblue" stroke="transparent" points="21,-1603.5 21,-1626.5 326,-1626.5 326,-1603.5 21,-1603.5"/>
<text text-anchor="start" x="25" y="-1612.3" font-family="Helvetica,sans-Serif" font-weight="bold" font-size="14.00">CoffeeMakerContainsHeatingElement</text>
<text text-anchor="start" x="25" y="-1588.3" font-family="Helvetica,sans-Serif" font-size="14.00">componentPosition : Position</text>
<polygon fill="none" stroke="black" points="19.5,-1579.5 19.5,-1627.5 326.5,-1627.5 326.5,-1579.5 19.5,-1579.5"/>
</g>
<!-- A_CoffeeMakerContainsHeatingElement&#45;&gt;CoffeeMaker -->
<g id="edge15" class="edge">
<title>A_CoffeeMakerContainsHeatingElement&#45;&gt;CoffeeMaker</title>
<path fill="none" stroke="#555555" d="M326.52,-1582.86C357.95,-1578.61 391.11,-1574.13 422.71,-1569.85"/>
</g>
<!-- A_CoffeeMakerContainsHeatingElement&#45;&gt;HeatingElement -->
<g id="edge16" class="edge">
<title>A_CoffeeMakerContainsHeatingElement&#45;&gt;HeatingElement</title>
<path fill="none" stroke="#555555" d="M277.89,-1627.52C322.35,-1637.81 375.22,-1650.03 424.24,-1661.36"/>
</g>
<!-- A_CoffeeMakerContainsBrewBasket -->
<g id="node23" class="node">
<title>A_CoffeeMakerContainsBrewBasket</title>
<polygon fill="lightblue" stroke="transparent" points="37,-1492.5 37,-1515.5 309,-1515.5 309,-1492.5 37,-1492.5"/>
<text text-anchor="start" x="41" y="-1501.3" font-family="Helvetica,sans-Serif" font-weight="bold" font-size="14.00">CoffeeMakerContainsBrewBasket</text>
<text text-anchor="start" x="41" y="-1477.3" font-family="Helvetica,sans-Serif" font-size="14.00">componentPosition : Position</text>
<polygon fill="none" stroke="black" points="36,-1468.5 36,-1516.5 310,-1516.5 310,-1468.5 36,-1468.5"/>
</g>
<!-- A_CoffeeMakerContainsBrewBasket&#45;&gt;CoffeeMaker -->
<g id="edge17" class="edge">
<title>A_CoffeeMakerContainsBrewBasket&#45;&gt;CoffeeMaker</title>
<path fill="none" stroke="#555555" d="M310.21,-1511.26C346.32,-1516.24 385.6,-1521.65 422.75,-1526.77"/>
</g>
<!-- A_CoffeeMakerContainsBrewBasket&#45;&gt;BrewBasket -->
<g id="edge18" class="edge">
<title>A_CoffeeMakerContainsBrewBasket&#45;&gt;BrewBasket</title>
<path fill="none" stroke="#555555" d="M278.95,-1468.49C324.7,-1458.02 379.21,-1445.55 429.22,-1434.11"/>
</g>
<!-- A_CoffeeMakerContainsWarmingPlate -->
<g id="node24" class="node">
<title>A_CoffeeMakerContainsWarmingPlate</title>
<polygon fill="lightblue" stroke="transparent" points="29,-1351.5 29,-1374.5 318,-1374.5 318,-1351.5 29,-1351.5"/>
<text text-anchor="start" x="33" y="-1360.3" font-family="Helvetica,sans-Serif" font-weight="bold" font-size="14.00">CoffeeMakerContainsWarmingPlate</text>
<text text-anchor="start" x="33" y="-1336.3" font-family="Helvetica,sans-Serif" font-size="14.00">componentPosition : Position</text>
<polygon fill="none" stroke="black" points="27.5,-1327.5 27.5,-1375.5 318.5,-1375.5 318.5,-1327.5 27.5,-1327.5"/>
</g>
<!-- A_CoffeeMakerContainsWarmingPlate&#45;&gt;CoffeeMaker -->
<g id="edge19" class="edge">
<title>A_CoffeeMakerContainsWarmingPlate&#45;&gt;CoffeeMaker</title>
<path fill="none" stroke="#555555" d="M220.5,-1375.63C269.4,-1400.84 348.7,-1441.27 418,-1474.5 428.62,-1479.59 439.67,-1484.8 450.79,-1489.99"/>
</g>
<!-- A_CoffeeMakerContainsWarmingPlate&#45;&gt;WarmingPlate -->
<g id="edge20" class="edge">
<title>A_CoffeeMakerContainsWarmingPlate&#45;&gt;WarmingPlate</title>
<path fill="none" stroke="#555555" d="M270.85,-1327.44C319.81,-1315.27 380.25,-1300.26 434.69,-1286.73"/>
</g>
<!-- A_CounterSurfaceSupportsCup -->
<g id="node25" class="node">
<title>A_CounterSurfaceSupportsCup</title>
<polygon fill="lightblue" stroke="transparent" points="57,-593.5 57,-616.5 289,-616.5 289,-593.5 57,-593.5"/>
<text text-anchor="start" x="61" y="-602.3" font-family="Helvetica,sans-Serif" font-weight="bold" font-size="14.00">CounterSurfaceSupportsCup</text>
<text text-anchor="start" x="61" y="-578.3" font-family="Helvetica,sans-Serif" font-size="14.00">supportPosition : Position</text>
<polygon fill="none" stroke="black" points="56,-569.5 56,-617.5 290,-617.5 290,-569.5 56,-569.5"/>
</g>
<!-- A_CounterSurfaceSupportsCup&#45;&gt;CounterSurface -->
<g id="edge21" class="edge">
<title>A_CounterSurfaceSupportsCup&#45;&gt;CounterSurface</title>
<path fill="none" stroke="#555555" d="M282.22,-617.56C304.34,-625.15 326.72,-634.95 346,-647.5 386.64,-673.97 379.06,-700.58 418,-729.5 425.22,-734.86 432.88,-739.96 440.81,-744.78"/>
</g>
<!-- A_CounterSurfaceSupportsCup&#45;&gt;Cup -->
<g id="edge22" class="edge">
<title>A_CounterSurfaceSupportsCup&#45;&gt;Cup</title>
<path fill="none" stroke="#555555" d="M209.03,-569.27C266.02,-530.03 376.6,-454.62 418,-431.5 427.9,-425.97 438.28,-420.49 448.81,-415.17"/>
</g>
<!-- A_BrewAreaAdjacentToSeatingArea -->
<g id="node26" class="node">
<title>A_BrewAreaAdjacentToSeatingArea</title>
<polygon fill="lightblue" stroke="transparent" points="39,-435.5 39,-458.5 307,-458.5 307,-435.5 39,-435.5"/>
<text text-anchor="start" x="43" y="-444.3" font-family="Helvetica,sans-Serif" font-weight="bold" font-size="14.00">BrewAreaAdjacentToSeatingArea</text>
<text text-anchor="start" x="43" y="-420.3" font-family="Helvetica,sans-Serif" font-size="14.00">adjacencyState : OperationalState</text>
<polygon fill="none" stroke="black" points="38,-411.5 38,-459.5 308,-459.5 308,-411.5 38,-411.5"/>
</g>
<!-- A_BrewAreaAdjacentToSeatingArea&#45;&gt;BrewArea -->
<g id="edge23" class="edge">
<title>A_BrewAreaAdjacentToSeatingArea&#45;&gt;BrewArea</title>
<path fill="none" stroke="#555555" d="M308.23,-458.61C343.96,-464.77 382.92,-471.48 419.9,-477.84"/>
</g>
<!-- A_BrewAreaAdjacentToSeatingArea&#45;&gt;SeatingArea -->
<g id="edge24" class="edge">
<title>A_BrewAreaAdjacentToSeatingArea&#45;&gt;SeatingArea</title>
<path fill="none" stroke="#555555" d="M211.45,-411.2C269.2,-373.86 377.55,-304.4 418,-282.5 428.25,-276.95 438.98,-271.42 449.83,-266.02"/>
</g>
<!-- A_SeatingAreaAccommodatesConsumer -->
<g id="node27" class="node">
<title>A_SeatingAreaAccommodatesConsumer</title>
<polygon fill="lightblue" stroke="transparent" points="22,-133.5 22,-156.5 325,-156.5 325,-133.5 22,-133.5"/>
<text text-anchor="start" x="26" y="-142.3" font-family="Helvetica,sans-Serif" font-weight="bold" font-size="14.00">SeatingAreaAccommodatesConsumer</text>
<text text-anchor="start" x="26" y="-118.3" font-family="Helvetica,sans-Serif" font-size="14.00">occupancyState : OperationalState</text>
<polygon fill="none" stroke="black" points="20.5,-109.5 20.5,-157.5 325.5,-157.5 325.5,-109.5 20.5,-109.5"/>
</g>
<!-- A_SeatingAreaAccommodatesConsumer&#45;&gt;SeatingArea -->
<g id="edge25" class="edge">
<title>A_SeatingAreaAccommodatesConsumer&#45;&gt;SeatingArea</title>
<path fill="none" stroke="#555555" d="M305.98,-157.53C344.58,-164.55 387.1,-172.29 426.92,-179.54"/>
</g>
<!-- A_SeatingAreaAccommodatesConsumer&#45;&gt;Consumer -->
<g id="edge26" class="edge">
<title>A_SeatingAreaAccommodatesConsumer&#45;&gt;Consumer</title>
<path fill="none" stroke="#555555" d="M304.3,-109.46C340.41,-102.8 380.06,-95.48 417.77,-88.52"/>
</g>
<!-- A_ConsumerUsesCup -->
<g id="node28" class="node">
<title>A_ConsumerUsesCup</title>
<polygon fill="lightblue" stroke="transparent" points="73,-285.5 73,-308.5 273,-308.5 273,-285.5 73,-285.5"/>
<text text-anchor="start" x="99.5" y="-294.3" font-family="Helvetica,sans-Serif" font-weight="bold" font-size="14.00">ConsumerUsesCup</text>
<text text-anchor="start" x="77" y="-270.3" font-family="Helvetica,sans-Serif" font-size="14.00">useState : OperationalState</text>
<polygon fill="none" stroke="black" points="72,-261.5 72,-309.5 274,-309.5 274,-261.5 72,-261.5"/>
</g>
<!-- A_ConsumerUsesCup&#45;&gt;Cup -->
<g id="edge28" class="edge">
<title>A_ConsumerUsesCup&#45;&gt;Cup</title>
<path fill="none" stroke="#555555" d="M274.22,-303.01C323.94,-311.69 384.85,-322.33 439.22,-331.82"/>
</g>
<!-- A_ConsumerUsesCup&#45;&gt;Consumer -->
<g id="edge27" class="edge">
<title>A_ConsumerUsesCup&#45;&gt;Consumer</title>
<path fill="none" stroke="#555555" d="M209.54,-261.4C256.32,-230.14 341.57,-174.73 418,-133.5 428.25,-127.97 438.99,-122.45 449.85,-117.05"/>
</g>
</g>
</svg>
