<?xml version="1.0" encoding="UTF-8" standalone="no"?>
<!DOCTYPE svg PUBLIC "-//W3C//DTD SVG 1.1//EN"
 "http://www.w3.org/Graphics/SVG/1.1/DTD/svg11.dtd">
<!-- Generated by graphviz version 2.42.4 (0)
 -->
<!-- Title: ERD Pages: 1 -->
<svg width="785pt" height="2125pt"
 viewBox="0.00 0.00 785.20 2125.20" xmlns="http://www.w3.org/2000/svg" xmlns:xlink="http://www.w3.org/1999/xlink">
<g id="graph0" class="graph" transform="scale(1 1) rotate(0) translate(21.6 2103.6)">
<title>ERD</title>
<polygon fill="white" stroke="transparent" points="-21.6,21.6 -21.6,-2103.6 763.6,-2103.6 763.6,21.6 -21.6,21.6"/>
<text text-anchor="middle" x="371" y="-2063.6" font-family="Times,serif" font-size="18.00">Hospital Facility Resource Network Model &#45; Spatial Infrastructure Network</text>
<!-- HospitalCampus -->
<g id="node1" class="node">
<title>HospitalCampus</title>
<polygon fill="lightgray" stroke="transparent" points="430,-2029.5 430,-2052.5 741,-2052.5 741,-2029.5 430,-2029.5"/>
<text text-anchor="start" x="521.5" y="-2038.3" font-family="Helvetica,sans-Serif" font-weight="bold" font-size="14.00">HospitalCampus</text>
<text text-anchor="start" x="434" y="-2014.3" font-family="Helvetica,sans-Serif" font-size="14.00">hospitalCampusID : Identifier</text>
<text text-anchor="start" x="434" y="-1991.3" font-family="Helvetica,sans-Serif" font-size="14.00">campusPosition : Position</text>
<text text-anchor="start" x="434" y="-1968.3" font-family="Helvetica,sans-Serif" font-size="14.00">campusExtent : Extent</text>
<text text-anchor="start" x="434" y="-1945.3" font-family="Helvetica,sans-Serif" font-size="14.00">campusOperationalState : OperationalState</text>
<polygon fill="none" stroke="black" points="428.5,-1937 428.5,-2054 741.5,-2054 741.5,-1937 428.5,-1937"/>
</g>
<!-- Building -->
<g id="node2" class="node">
<title>Building</title>
<polygon fill="lightgray" stroke="transparent" points="429,-1880.5 429,-1903.5 741,-1903.5 741,-1880.5 429,-1880.5"/>
<text text-anchor="start" x="553" y="-1889.3" font-family="Helvetica,sans-Serif" font-weight="bold" font-size="14.00">Building</text>
<text text-anchor="start" x="433" y="-1865.3" font-family="Helvetica,sans-Serif" font-size="14.00">buildingID : Identifier</text>
<text text-anchor="start" x="433" y="-1842.3" font-family="Helvetica,sans-Serif" font-size="14.00">buildingName : Name</text>
<text text-anchor="start" x="433" y="-1819.3" font-family="Helvetica,sans-Serif" font-size="14.00">buildingExtent : Extent</text>
<text text-anchor="start" x="433" y="-1796.3" font-family="Helvetica,sans-Serif" font-size="14.00">buildingOperationalState : OperationalState</text>
<polygon fill="none" stroke="black" points="428,-1788 428,-1905 742,-1905 742,-1788 428,-1788"/>
</g>
<!-- Floor -->
<g id="node3" class="node">
<title>Floor</title>
<polygon fill="lightgray" stroke="transparent" points="441,-1284.5 441,-1307.5 729,-1307.5 729,-1284.5 441,-1284.5"/>
<text text-anchor="start" x="564.5" y="-1293.3" font-family="Helvetica,sans-Serif" font-weight="bold" font-size="14.00">Floor</text>
<text text-anchor="start" x="445" y="-1269.3" font-family="Helvetica,sans-Serif" font-size="14.00">floorID : Identifier</text>
<text text-anchor="start" x="445" y="-1246.3" font-family="Helvetica,sans-Serif" font-size="14.00">floorLevel : Order</text>
<text text-anchor="start" x="445" y="-1223.3" font-family="Helvetica,sans-Serif" font-size="14.00">floorExtent : Extent</text>
<text text-anchor="start" x="445" y="-1200.3" font-family="Helvetica,sans-Serif" font-size="14.00">floorOperationalState : OperationalState</text>
<polygon fill="none" stroke="black" points="440,-1192 440,-1309 730,-1309 730,-1192 440,-1192"/>
</g>
<!-- Corridor -->
<g id="node4" class="node">
<title>Corridor</title>
<polygon fill="lightgray" stroke="transparent" points="430,-1731.5 430,-1754.5 740,-1754.5 740,-1731.5 430,-1731.5"/>
<text text-anchor="start" x="552.5" y="-1740.3" font-family="Helvetica,sans-Serif" font-weight="bold" font-size="14.00">Corridor</text>
<text text-anchor="start" x="434" y="-1716.3" font-family="Helvetica,sans-Serif" font-size="14.00">corridorID : Identifier</text>
<text text-anchor="start" x="434" y="-1693.3" font-family="Helvetica,sans-Serif" font-size="14.00">corridorExtent : Extent</text>
<text text-anchor="start" x="434" y="-1670.3" font-family="Helvetica,sans-Serif" font-size="14.00">corridorPosition : Position</text>
<text text-anchor="start" x="434" y="-1647.3" font-family="Helvetica,sans-Serif" font-size="14.00">corridorOperationalState : OperationalState</text>
<polygon fill="none" stroke="black" points="429,-1639 429,-1756 741,-1756 741,-1639 429,-1639"/>
</g>
<!-- PatientRoom -->
<g id="node5" class="node">
<title>PatientRoom</title>
<polygon fill="lightgray" stroke="transparent" points="440,-837.5 440,-860.5 731,-860.5 731,-837.5 440,-837.5"/>
<text text-anchor="start" x="534.5" y="-846.3" font-family="Helvetica,sans-Serif" font-weight="bold" font-size="14.00">PatientRoom</text>
<text text-anchor="start" x="444" y="-822.3" font-family="Helvetica,sans-Serif" font-size="14.00">patientRoomID : Identifier</text>
<text text-anchor="start" x="444" y="-799.3" font-family="Helvetica,sans-Serif" font-size="14.00">roomExtent : Extent</text>
<text text-anchor="start" x="444" y="-776.3" font-family="Helvetica,sans-Serif" font-size="14.00">roomCapacityCount : Count</text>
<text text-anchor="start" x="444" y="-753.3" font-family="Helvetica,sans-Serif" font-size="14.00">roomOperationalState : OperationalState</text>
<polygon fill="none" stroke="black" points="438.5,-745 438.5,-862 731.5,-862 731.5,-745 438.5,-745"/>
</g>
<!-- OperatingRoom -->
<g id="node6" class="node">
<title>OperatingRoom</title>
<polygon fill="lightgray" stroke="transparent" points="440,-241.5 440,-264.5 731,-264.5 731,-241.5 440,-241.5"/>
<text text-anchor="start" x="523.5" y="-250.3" font-family="Helvetica,sans-Serif" font-weight="bold" font-size="14.00">OperatingRoom</text>
<text text-anchor="start" x="444" y="-226.3" font-family="Helvetica,sans-Serif" font-size="14.00">operatingRoomID : Identifier</text>
<text text-anchor="start" x="444" y="-203.3" font-family="Helvetica,sans-Serif" font-size="14.00">roomExtent : Extent</text>
<text text-anchor="start" x="444" y="-180.3" font-family="Helvetica,sans-Serif" font-size="14.00">sterilityState : OperationalState</text>
<text text-anchor="start" x="444" y="-157.3" font-family="Helvetica,sans-Serif" font-size="14.00">roomOperationalState : OperationalState</text>
<polygon fill="none" stroke="black" points="438.5,-149 438.5,-266 731.5,-266 731.5,-149 438.5,-149"/>
</g>
<!-- ImagingRoom -->
<g id="node7" class="node">
<title>ImagingRoom</title>
<polygon fill="lightgray" stroke="transparent" points="440,-539.5 440,-562.5 731,-562.5 731,-539.5 440,-539.5"/>
<text text-anchor="start" x="531.5" y="-548.3" font-family="Helvetica,sans-Serif" font-weight="bold" font-size="14.00">ImagingRoom</text>
<text text-anchor="start" x="444" y="-524.3" font-family="Helvetica,sans-Serif" font-size="14.00">imagingRoomID : Identifier</text>
<text text-anchor="start" x="444" y="-501.3" font-family="Helvetica,sans-Serif" font-size="14.00">roomExtent : Extent</text>
<text text-anchor="start" x="444" y="-478.3" font-family="Helvetica,sans-Serif" font-size="14.00">shieldingState : OperationalState</text>
<text text-anchor="start" x="444" y="-455.3" font-family="Helvetica,sans-Serif" font-size="14.00">roomOperationalState : OperationalState</text>
<polygon fill="none" stroke="black" points="438.5,-447 438.5,-564 731.5,-564 731.5,-447 438.5,-447"/>
</g>
<!-- SupplyRoom -->
<g id="node8" class="node">
<title>SupplyRoom</title>
<polygon fill="lightgray" stroke="transparent" points="440,-1582.5 440,-1605.5 731,-1605.5 731,-1582.5 440,-1582.5"/>
<text text-anchor="start" x="537" y="-1591.3" font-family="Helvetica,sans-Serif" font-weight="bold" font-size="14.00">SupplyRoom</text>
<text text-anchor="start" x="444" y="-1567.3" font-family="Helvetica,sans-Serif" font-size="14.00">supplyRoomID : Identifier</text>
<text text-anchor="start" x="444" y="-1544.3" font-family="Helvetica,sans-Serif" font-size="14.00">roomExtent : Extent</text>
<text text-anchor="start" x="444" y="-1521.3" font-family="Helvetica,sans-Serif" font-size="14.00">storageCapacityCount : Count</text>
<text text-anchor="start" x="444" y="-1498.3" font-family="Helvetica,sans-Serif" font-size="14.00">roomOperationalState : OperationalState</text>
<polygon fill="none" stroke="black" points="438.5,-1490 438.5,-1607 731.5,-1607 731.5,-1490 438.5,-1490"/>
</g>
<!-- Bed -->
<g id="node9" class="node">
<title>Bed</title>
<polygon fill="lightgray" stroke="transparent" points="444,-986.5 444,-1009.5 726,-1009.5 726,-986.5 444,-986.5"/>
<text text-anchor="start" x="569.5" y="-995.3" font-family="Helvetica,sans-Serif" font-weight="bold" font-size="14.00">Bed</text>
<text text-anchor="start" x="448" y="-971.3" font-family="Helvetica,sans-Serif" font-size="14.00">bedID : Identifier</text>
<text text-anchor="start" x="448" y="-948.3" font-family="Helvetica,sans-Serif" font-size="14.00">bedPosition : Position</text>
<text text-anchor="start" x="448" y="-925.3" font-family="Helvetica,sans-Serif" font-size="14.00">occupancyState : OperationalState</text>
<text text-anchor="start" x="448" y="-902.3" font-family="Helvetica,sans-Serif" font-size="14.00">bedOperationalState : OperationalState</text>
<polygon fill="none" stroke="black" points="443,-894 443,-1011 727,-1011 727,-894 443,-894"/>
</g>
<!-- NurseStation -->
<g id="node10" class="node">
<title>NurseStation</title>
<polygon fill="lightgray" stroke="transparent" points="434,-1433.5 434,-1456.5 737,-1456.5 737,-1433.5 434,-1433.5"/>
<text text-anchor="start" x="533.5" y="-1442.3" font-family="Helvetica,sans-Serif" font-weight="bold" font-size="14.00">NurseStation</text>
<text text-anchor="start" x="438" y="-1418.3" font-family="Helvetica,sans-Serif" font-size="14.00">nurseStationID : Identifier</text>
<text text-anchor="start" x="438" y="-1395.3" font-family="Helvetica,sans-Serif" font-size="14.00">stationPosition : Position</text>
<text text-anchor="start" x="438" y="-1372.3" font-family="Helvetica,sans-Serif" font-size="14.00">stationExtent : Extent</text>
<text text-anchor="start" x="438" y="-1349.3" font-family="Helvetica,sans-Serif" font-size="14.00">stationOperationalState : OperationalState</text>
<polygon fill="none" stroke="black" points="432.5,-1341 432.5,-1458 737.5,-1458 737.5,-1341 432.5,-1341"/>
</g>
<!-- HVACUnit -->
<g id="node11" class="node">
<title>HVACUnit</title>
<polygon fill="lightgray" stroke="transparent" points="444,-688.5 444,-711.5 727,-711.5 727,-688.5 444,-688.5"/>
<text text-anchor="start" x="547.5" y="-697.3" font-family="Helvetica,sans-Serif" font-weight="bold" font-size="14.00">HVACUnit</text>
<text text-anchor="start" x="448" y="-673.3" font-family="Helvetica,sans-Serif" font-size="14.00">hvacUnitID : Identifier</text>
<text text-anchor="start" x="448" y="-650.3" font-family="Helvetica,sans-Serif" font-size="14.00">airFlowRate : MassFlowRate</text>
<text text-anchor="start" x="448" y="-627.3" font-family="Helvetica,sans-Serif" font-size="14.00">temperatureState : OperationalState</text>
<text text-anchor="start" x="448" y="-604.3" font-family="Helvetica,sans-Serif" font-size="14.00">unitOperationalState : OperationalState</text>
<polygon fill="none" stroke="black" points="442.5,-596 442.5,-713 727.5,-713 727.5,-596 442.5,-596"/>
</g>
<!-- PowerPanel -->
<g id="node12" class="node">
<title>PowerPanel</title>
<polygon fill="lightgray" stroke="transparent" points="438,-92.5 438,-115.5 732,-115.5 732,-92.5 438,-92.5"/>
<text text-anchor="start" x="538" y="-101.3" font-family="Helvetica,sans-Serif" font-weight="bold" font-size="14.00">PowerPanel</text>
<text text-anchor="start" x="442" y="-77.3" font-family="Helvetica,sans-Serif" font-size="14.00">powerPanelID : Identifier</text>
<text text-anchor="start" x="442" y="-54.3" font-family="Helvetica,sans-Serif" font-size="14.00">suppliedPower : Power</text>
<text text-anchor="start" x="442" y="-31.3" font-family="Helvetica,sans-Serif" font-size="14.00">panelPosition : Position</text>
<text text-anchor="start" x="442" y="-8.3" font-family="Helvetica,sans-Serif" font-size="14.00">panelOperationalState : OperationalState</text>
<polygon fill="none" stroke="black" points="437,0 437,-117 733,-117 733,0 437,0"/>
</g>
<!-- MedicalGasOutlet -->
<g id="node13" class="node">
<title>MedicalGasOutlet</title>
<polygon fill="lightgray" stroke="transparent" points="437,-390.5 437,-413.5 733,-413.5 733,-390.5 437,-390.5"/>
<text text-anchor="start" x="515" y="-399.3" font-family="Helvetica,sans-Serif" font-weight="bold" font-size="14.00">MedicalGasOutlet</text>
<text text-anchor="start" x="441" y="-375.3" font-family="Helvetica,sans-Serif" font-size="14.00">medicalGasOutletID : Identifier</text>
<text text-anchor="start" x="441" y="-352.3" font-family="Helvetica,sans-Serif" font-size="14.00">gasFlowState : OperationalState</text>
<text text-anchor="start" x="441" y="-329.3" font-family="Helvetica,sans-Serif" font-size="14.00">outletPosition : Position</text>
<text text-anchor="start" x="441" y="-306.3" font-family="Helvetica,sans-Serif" font-size="14.00">outletOperationalState : OperationalState</text>
<polygon fill="none" stroke="black" points="436,-298 436,-415 734,-415 734,-298 436,-298"/>
</g>
<!-- WasteHandlingUnit -->
<g id="node14" class="node">
<title>WasteHandlingUnit</title>
<polygon fill="lightgray" stroke="transparent" points="444,-1135.5 444,-1158.5 727,-1158.5 727,-1135.5 444,-1135.5"/>
<text text-anchor="start" x="509.5" y="-1144.3" font-family="Helvetica,sans-Serif" font-weight="bold" font-size="14.00">WasteHandlingUnit</text>
<text text-anchor="start" x="448" y="-1120.3" font-family="Helvetica,sans-Serif" font-size="14.00">wasteHandlingUnitID : Identifier</text>
<text text-anchor="start" x="448" y="-1097.3" font-family="Helvetica,sans-Serif" font-size="14.00">capacityCount : Count</text>
<text text-anchor="start" x="448" y="-1074.3" font-family="Helvetica,sans-Serif" font-size="14.00">containmentState : OperationalState</text>
<text text-anchor="start" x="448" y="-1051.3" font-family="Helvetica,sans-Serif" font-size="14.00">unitOperationalState : OperationalState</text>
<polygon fill="none" stroke="black" points="442.5,-1043 442.5,-1160 727.5,-1160 727.5,-1043 442.5,-1043"/>
</g>
<!-- A_HospitalCampusContainsBuilding -->
<g id="node15" class="node">
<title>A_HospitalCampusContainsBuilding</title>
<polygon fill="lightblue" stroke="transparent" points="44,-1892.5 44,-1915.5 312,-1915.5 312,-1892.5 44,-1892.5"/>
<text text-anchor="start" x="48" y="-1901.3" font-family="Helvetica,sans-Serif" font-weight="bold" font-size="14.00">HospitalCampusContainsBuilding</text>
<text text-anchor="start" x="48" y="-1877.3" font-family="Helvetica,sans-Serif" font-size="14.00">relativePosition : Position</text>
<polygon fill="none" stroke="black" points="43,-1868.5 43,-1916.5 313,-1916.5 313,-1868.5 43,-1868.5"/>
</g>
<!-- A_HospitalCampusContainsBuilding&#45;&gt;HospitalCampus -->
<g id="edge1" class="edge">
<title>A_HospitalCampusContainsBuilding&#45;&gt;HospitalCampus</title>
<path fill="none" stroke="#555555" d="M273.44,-1916.52C319.49,-1928.23 376.08,-1942.62 428.28,-1955.9"/>
</g>
<!-- A_HospitalCampusContainsBuilding&#45;&gt;Building -->
<g id="edge2" class="edge">
<title>A_HospitalCampusContainsBuilding&#45;&gt;Building</title>
<path fill="none" stroke="#555555" d="M313.02,-1877.28C349.75,-1873.11 389.9,-1868.55 427.77,-1864.25"/>
</g>
<!-- A_BuildingContainsFloor -->
<g id="node16" class="node">
<title>A_BuildingContainsFloor</title>
<polygon fill="lightblue" stroke="transparent" points="88,-1785.5 88,-1808.5 269,-1808.5 269,-1785.5 88,-1785.5"/>
<text text-anchor="start" x="92" y="-1794.3" font-family="Helvetica,sans-Serif" font-weight="bold" font-size="14.00">BuildingContainsFloor</text>
<text text-anchor="start" x="92" y="-1770.3" font-family="Helvetica,sans-Serif" font-size="14.00">relativeLevel : Order</text>
<polygon fill="none" stroke="black" points="86.5,-1761.5 86.5,-1809.5 269.5,-1809.5 269.5,-1761.5 86.5,-1761.5"/>
</g>
<!-- A_BuildingContainsFloor&#45;&gt;Building -->
<g id="edge3" class="edge">
<title>A_BuildingContainsFloor&#45;&gt;Building</title>
<path fill="none" stroke="#555555" d="M269.64,-1799.15C316.16,-1806.16 374.15,-1814.89 427.62,-1822.95"/>
</g>
<!-- A_BuildingContainsFloor&#45;&gt;Floor -->
<g id="edge4" class="edge">
<title>A_BuildingContainsFloor&#45;&gt;Floor</title>
<path fill="none" stroke="#555555" d="M257.42,-1761.37C292.68,-1746.63 331.74,-1724.19 356,-1691.5 454.8,-1558.37 326.56,-1456.63 428,-1325.5 432.5,-1319.68 437.58,-1314.28 443.06,-1309.28"/>
</g>
<!-- A_FloorContainsCorridor -->
<g id="node17" class="node">
<title>A_FloorContainsCorridor</title>
<polygon fill="lightblue" stroke="transparent" points="87,-1651.5 87,-1674.5 270,-1674.5 270,-1651.5 87,-1651.5"/>
<text text-anchor="start" x="91" y="-1660.3" font-family="Helvetica,sans-Serif" font-weight="bold" font-size="14.00">FloorContainsCorridor</text>
<text text-anchor="start" x="91" y="-1636.3" font-family="Helvetica,sans-Serif" font-size="14.00">relativePosition : Position</text>
<polygon fill="none" stroke="black" points="85.5,-1627.5 85.5,-1675.5 270.5,-1675.5 270.5,-1627.5 85.5,-1627.5"/>
</g>
<!-- A_FloorContainsCorridor&#45;&gt;Floor -->
<g id="edge5" class="edge">
<title>A_FloorContainsCorridor&#45;&gt;Floor</title>
<path fill="none" stroke="#555555" d="M235.69,-1627.33C274.52,-1608.14 324.5,-1577.83 356,-1537.5 417.25,-1459.07 362.01,-1399.98 428,-1325.5 433.18,-1319.65 438.92,-1314.22 445.05,-1309.17"/>
</g>
<!-- A_FloorContainsCorridor&#45;&gt;Corridor -->
<g id="edge6" class="edge">
<title>A_FloorContainsCorridor&#45;&gt;Corridor</title>
<path fill="none" stroke="#555555" d="M270.65,-1661.91C317.32,-1667.21 375.34,-1673.8 428.72,-1679.86"/>
</g>
<!-- A_FloorContainsPatientRoom -->
<g id="node18" class="node">
<title>A_FloorContainsPatientRoom</title>
<polygon fill="lightblue" stroke="transparent" points="69,-1125.5 69,-1148.5 288,-1148.5 288,-1125.5 69,-1125.5"/>
<text text-anchor="start" x="73" y="-1134.3" font-family="Helvetica,sans-Serif" font-weight="bold" font-size="14.00">FloorContainsPatientRoom</text>
<text text-anchor="start" x="73" y="-1110.3" font-family="Helvetica,sans-Serif" font-size="14.00">roomPosition : Position</text>
<polygon fill="none" stroke="black" points="67.5,-1101.5 67.5,-1149.5 288.5,-1149.5 288.5,-1101.5 67.5,-1101.5"/>
</g>
<!-- A_FloorContainsPatientRoom&#45;&gt;Floor -->
<g id="edge7" class="edge">
<title>A_FloorContainsPatientRoom&#45;&gt;Floor</title>
<path fill="none" stroke="#555555" d="M257.09,-1149.6C308.81,-1165.56 378.2,-1186.98 439.75,-1205.98"/>
</g>
<!-- A_FloorContainsPatientRoom&#45;&gt;PatientRoom -->
<g id="edge8" class="edge">
<title>A_FloorContainsPatientRoom&#45;&gt;PatientRoom</title>
<path fill="none" stroke="#555555" d="M209.61,-1101.36C246.12,-1071.93 308.23,-1019.88 356,-969.5 391.49,-932.08 387.73,-910.72 428,-878.5 435.16,-872.77 442.82,-867.35 450.77,-862.23"/>
</g>
<!-- A_FloorContainsOperatingRoom -->
<g id="node19" class="node">
<title>A_FloorContainsOperatingRoom</title>
<polygon fill="lightblue" stroke="transparent" points="58,-541.5 58,-564.5 299,-564.5 299,-541.5 58,-541.5"/>
<text text-anchor="start" x="62" y="-550.3" font-family="Helvetica,sans-Serif" font-weight="bold" font-size="14.00">FloorContainsOperatingRoom</text>
<text text-anchor="start" x="62" y="-526.3" font-family="Helvetica,sans-Serif" font-size="14.00">roomPosition : Position</text>
<polygon fill="none" stroke="black" points="56.5,-517.5 56.5,-565.5 299.5,-565.5 299.5,-517.5 56.5,-517.5"/>
</g>
<!-- A_FloorContainsOperatingRoom&#45;&gt;Floor -->
<g id="edge9" class="edge">
<title>A_FloorContainsOperatingRoom&#45;&gt;Floor</title>
<path fill="none" stroke="#555555" d="M299.79,-550.27C321.11,-557.09 341.19,-567.84 356,-584.5 532.11,-782.58 273.04,-961.47 428,-1176.5 431.94,-1181.97 436.4,-1187.05 441.24,-1191.77"/>
</g>
<!-- A_FloorContainsOperatingRoom&#45;&gt;OperatingRoom -->
<g id="edge10" class="edge">
<title>A_FloorContainsOperatingRoom&#45;&gt;OperatingRoom</title>
<path fill="none" stroke="#555555" d="M299.55,-530.29C320.25,-523.77 340.17,-514.01 356,-499.5 430.92,-430.85 360.88,-358.79 428,-282.5 433.16,-276.63 438.88,-271.19 445,-266.13"/>
</g>
<!-- A_FloorContainsImagingRoom -->
<g id="node20" class="node">
<title>A_FloorContainsImagingRoom</title>
<polygon fill="lightblue" stroke="transparent" points="66,-710.5 66,-733.5 291,-733.5 291,-710.5 66,-710.5"/>
<text text-anchor="start" x="70" y="-719.3" font-family="Helvetica,sans-Serif" font-weight="bold" font-size="14.00">FloorContainsImagingRoom</text>
<text text-anchor="start" x="70" y="-695.3" font-family="Helvetica,sans-Serif" font-size="14.00">roomPosition : Position</text>
<polygon fill="none" stroke="black" points="64.5,-686.5 64.5,-734.5 291.5,-734.5 291.5,-686.5 64.5,-686.5"/>
</g>
<!-- A_FloorContainsImagingRoom&#45;&gt;Floor -->
<g id="edge11" class="edge">
<title>A_FloorContainsImagingRoom&#45;&gt;Floor</title>
<path fill="none" stroke="#555555" d="M291.68,-723.63C315.85,-731.44 339.15,-743.62 356,-762.5 480.35,-901.84 314.97,-1027.83 428,-1176.5 432.17,-1181.99 436.85,-1187.09 441.92,-1191.82"/>
</g>
<!-- A_FloorContainsImagingRoom&#45;&gt;ImagingRoom -->
<g id="edge12" class="edge">
<title>A_FloorContainsImagingRoom&#45;&gt;ImagingRoom</title>
<path fill="none" stroke="#555555" d="M291.82,-692.13C314.13,-685.54 336.61,-676.61 356,-664.5 397.71,-638.46 389.01,-610.46 428,-580.5 435.51,-574.73 443.53,-569.25 451.82,-564.07"/>
</g>
<!-- A_FloorContainsSupplyRoom -->
<g id="node21" class="node">
<title>A_FloorContainsSupplyRoom</title>
<polygon fill="lightblue" stroke="transparent" points="71,-1497.5 71,-1520.5 286,-1520.5 286,-1497.5 71,-1497.5"/>
<text text-anchor="start" x="75" y="-1506.3" font-family="Helvetica,sans-Serif" font-weight="bold" font-size="14.00">FloorContainsSupplyRoom</text>
<text text-anchor="start" x="75" y="-1482.3" font-family="Helvetica,sans-Serif" font-size="14.00">roomPosition : Position</text>
<polygon fill="none" stroke="black" points="69.5,-1473.5 69.5,-1521.5 286.5,-1521.5 286.5,-1473.5 69.5,-1473.5"/>
</g>
<!-- A_FloorContainsSupplyRoom&#45;&gt;Floor -->
<g id="edge13" class="edge">
<title>A_FloorContainsSupplyRoom&#45;&gt;Floor</title>
<path fill="none" stroke="#555555" d="M237.91,-1473.35C273.92,-1457.07 319.85,-1433.48 356,-1405.5 393.83,-1376.22 389.72,-1354.18 428,-1325.5 435.7,-1319.73 443.9,-1314.24 452.38,-1309.03"/>
</g>
<!-- A_FloorContainsSupplyRoom&#45;&gt;SupplyRoom -->
<g id="edge14" class="edge">
<title>A_FloorContainsSupplyRoom&#45;&gt;SupplyRoom</title>
<path fill="none" stroke="#555555" d="M286.73,-1511.07C333.25,-1516.92 388.38,-1523.87 438.45,-1530.17"/>
</g>
<!-- A_PatientRoomContainsBed -->
<g id="node22" class="node">
<title>A_PatientRoomContainsBed</title>
<polygon fill="lightblue" stroke="transparent" points="74,-929.5 74,-952.5 283,-952.5 283,-929.5 74,-929.5"/>
<text text-anchor="start" x="78" y="-938.3" font-family="Helvetica,sans-Serif" font-weight="bold" font-size="14.00">PatientRoomContainsBed</text>
<text text-anchor="start" x="78" y="-914.3" font-family="Helvetica,sans-Serif" font-size="14.00">bedPosition : Position</text>
<polygon fill="none" stroke="black" points="72.5,-905.5 72.5,-953.5 283.5,-953.5 283.5,-905.5 72.5,-905.5"/>
</g>
<!-- A_PatientRoomContainsBed&#45;&gt;PatientRoom -->
<g id="edge15" class="edge">
<title>A_PatientRoomContainsBed&#45;&gt;PatientRoom</title>
<path fill="none" stroke="#555555" d="M256.61,-905.36C307.94,-889.38 376.85,-867.95 438.2,-848.86"/>
</g>
<!-- A_PatientRoomContainsBed&#45;&gt;Bed -->
<g id="edge16" class="edge">
<title>A_PatientRoomContainsBed&#45;&gt;Bed</title>
<path fill="none" stroke="#555555" d="M283.56,-935.44C332.08,-938.19 390.47,-941.51 442.83,-944.48"/>
</g>
<!-- A_FloorContainsNurseStation -->
<g id="node23" class="node">
<title>A_FloorContainsNurseStation</title>
<polygon fill="lightblue" stroke="transparent" points="67,-1365.5 67,-1388.5 289,-1388.5 289,-1365.5 67,-1365.5"/>
<text text-anchor="start" x="71" y="-1374.3" font-family="Helvetica,sans-Serif" font-weight="bold" font-size="14.00">FloorContainsNurseStation</text>
<text text-anchor="start" x="71" y="-1350.3" font-family="Helvetica,sans-Serif" font-size="14.00">stationPosition : Position</text>
<polygon fill="none" stroke="black" points="66,-1341.5 66,-1389.5 290,-1389.5 290,-1341.5 66,-1341.5"/>
</g>
<!-- A_FloorContainsNurseStation&#45;&gt;Floor -->
<g id="edge17" class="edge">
<title>A_FloorContainsNurseStation&#45;&gt;Floor</title>
<path fill="none" stroke="#555555" d="M263.9,-1341.39C314.81,-1326.94 380.91,-1308.17 439.8,-1291.44"/>
</g>
<!-- A_FloorContainsNurseStation&#45;&gt;NurseStation -->
<g id="edge18" class="edge">
<title>A_FloorContainsNurseStation&#45;&gt;NurseStation</title>
<path fill="none" stroke="#555555" d="M290.2,-1374.84C334.11,-1378.52 385.26,-1382.82 432.46,-1386.78"/>
</g>
<!-- A_HVACUnitConditionsPatientRoom -->
<g id="node24" class="node">
<title>A_HVACUnitConditionsPatientRoom</title>
<polygon fill="lightblue" stroke="transparent" points="44,-802.5 44,-825.5 312,-825.5 312,-802.5 44,-802.5"/>
<text text-anchor="start" x="48" y="-811.3" font-family="Helvetica,sans-Serif" font-weight="bold" font-size="14.00">HVACUnitConditionsPatientRoom</text>
<text text-anchor="start" x="48" y="-787.3" font-family="Helvetica,sans-Serif" font-size="14.00">airFlowRate : MassFlowRate</text>
<polygon fill="none" stroke="black" points="43,-778.5 43,-826.5 313,-826.5 313,-778.5 43,-778.5"/>
</g>
<!-- A_HVACUnitConditionsPatientRoom&#45;&gt;PatientRoom -->
<g id="edge20" class="edge">
<title>A_HVACUnitConditionsPatientRoom&#45;&gt;PatientRoom</title>
<path fill="none" stroke="#555555" d="M313.02,-802.83C353.21,-802.93 397.48,-803.04 438.38,-803.14"/>
</g>
<!-- A_HVACUnitConditionsPatientRoom&#45;&gt;HVACUnit -->
<g id="edge19" class="edge">
<title>A_HVACUnitConditionsPatientRoom&#45;&gt;HVACUnit</title>
<path fill="none" stroke="#555555" d="M268.31,-778.39C296.57,-770.19 327.79,-760.55 356,-750.5 387.46,-739.3 420.84,-726.04 452.07,-713.02"/>
</g>
<!-- A_HVACUnitConditionsOperatingRoom -->
<g id="node25" class="node">
<title>A_HVACUnitConditionsOperatingRoom</title>
<polygon fill="lightblue" stroke="transparent" points="33,-378.5 33,-401.5 323,-401.5 323,-378.5 33,-378.5"/>
<text text-anchor="start" x="37" y="-387.3" font-family="Helvetica,sans-Serif" font-weight="bold" font-size="14.00">HVACUnitConditionsOperatingRoom</text>
<text text-anchor="start" x="37" y="-363.3" font-family="Helvetica,sans-Serif" font-size="14.00">airFlowRate : MassFlowRate</text>
<polygon fill="none" stroke="black" points="32,-354.5 32,-402.5 324,-402.5 324,-354.5 32,-354.5"/>
</g>
<!-- A_HVACUnitConditionsOperatingRoom&#45;&gt;OperatingRoom -->
<g id="edge22" class="edge">
<title>A_HVACUnitConditionsOperatingRoom&#45;&gt;OperatingRoom</title>
<path fill="none" stroke="#555555" d="M314.46,-354.41C328.79,-349.95 342.9,-344.69 356,-338.5 392.65,-321.17 393.54,-303.85 428,-282.5 437.07,-276.88 446.62,-271.38 456.35,-266.07"/>
</g>
<!-- A_HVACUnitConditionsOperatingRoom&#45;&gt;HVACUnit -->
<g id="edge21" class="edge">
<title>A_HVACUnitConditionsOperatingRoom&#45;&gt;HVACUnit</title>
<path fill="none" stroke="#555555" d="M324.02,-399.88C335.52,-405.13 346.38,-411.58 356,-419.5 416.51,-469.33 373.2,-524.46 428,-580.5 433.34,-585.97 439.17,-591.08 445.33,-595.85"/>
</g>
<!-- A_HVACUnitConditionsImagingRoom -->
<g id="node26" class="node">
<title>A_HVACUnitConditionsImagingRoom</title>
<polygon fill="lightblue" stroke="transparent" points="41,-624.5 41,-647.5 315,-647.5 315,-624.5 41,-624.5"/>
<text text-anchor="start" x="45" y="-633.3" font-family="Helvetica,sans-Serif" font-weight="bold" font-size="14.00">HVACUnitConditionsImagingRoom</text>
<text text-anchor="start" x="45" y="-609.3" font-family="Helvetica,sans-Serif" font-size="14.00">airFlowRate : MassFlowRate</text>
<polygon fill="none" stroke="black" points="40,-600.5 40,-648.5 316,-648.5 316,-600.5 40,-600.5"/>
</g>
<!-- A_HVACUnitConditionsImagingRoom&#45;&gt;ImagingRoom -->
<g id="edge24" class="edge">
<title>A_HVACUnitConditionsImagingRoom&#45;&gt;ImagingRoom</title>
<path fill="none" stroke="#555555" d="M284.21,-600.47C307.92,-594.63 332.9,-588.14 356,-581.5 382.77,-573.8 411.08,-564.95 438.3,-556.07"/>
</g>
<!-- A_HVACUnitConditionsImagingRoom&#45;&gt;HVACUnit -->
<g id="edge23" class="edge">
<title>A_HVACUnitConditionsImagingRoom&#45;&gt;HVACUnit</title>
<path fill="none" stroke="#555555" d="M316.11,-634.66C356.73,-637.67 401.28,-640.97 442.19,-644"/>
</g>
<!-- A_PowerPanelSuppliesPatientRoom -->
<g id="node27" class="node">
<title>A_PowerPanelSuppliesPatientRoom</title>
<polygon fill="lightblue" stroke="transparent" points="44,-298.5 44,-321.5 313,-321.5 313,-298.5 44,-298.5"/>
<text text-anchor="start" x="48" y="-307.3" font-family="Helvetica,sans-Serif" font-weight="bold" font-size="14.00">PowerPanelSuppliesPatientRoom</text>
<text text-anchor="start" x="48" y="-283.3" font-family="Helvetica,sans-Serif" font-size="14.00">suppliedPower : Power</text>
<polygon fill="none" stroke="black" points="42.5,-274.5 42.5,-322.5 313.5,-322.5 313.5,-274.5 42.5,-274.5"/>
</g>
<!-- A_PowerPanelSuppliesPatientRoom&#45;&gt;PatientRoom -->
<g id="edge26" class="edge">
<title>A_PowerPanelSuppliesPatientRoom&#45;&gt;PatientRoom</title>
<path fill="none" stroke="#555555" d="M313.68,-311C329.53,-317.36 344.21,-326.23 356,-338.5 478.41,-465.93 320.36,-589.37 428,-729.5 432.2,-734.97 436.9,-740.05 441.99,-744.77"/>
</g>
<!-- A_PowerPanelSuppliesPatientRoom&#45;&gt;PowerPanel -->
<g id="edge25" class="edge">
<title>A_PowerPanelSuppliesPatientRoom&#45;&gt;PowerPanel</title>
<path fill="none" stroke="#555555" d="M313.78,-280.68C328.87,-275.1 343.34,-267.87 356,-258.5 407.85,-220.14 380.69,-176.34 428,-132.5 433.83,-127.1 440.12,-122.03 446.72,-117.27"/>
</g>
<!-- A_PowerPanelSuppliesOperatingRoom -->
<g id="node28" class="node">
<title>A_PowerPanelSuppliesOperatingRoom</title>
<polygon fill="lightblue" stroke="transparent" points="33,-58.5 33,-81.5 324,-81.5 324,-58.5 33,-58.5"/>
<text text-anchor="start" x="37" y="-67.3" font-family="Helvetica,sans-Serif" font-weight="bold" font-size="14.00">PowerPanelSuppliesOperatingRoom</text>
<text text-anchor="start" x="37" y="-43.3" font-family="Helvetica,sans-Serif" font-size="14.00">suppliedPower : Power</text>
<polygon fill="none" stroke="black" points="31.5,-34.5 31.5,-82.5 324.5,-82.5 324.5,-34.5 31.5,-34.5"/>
</g>
<!-- A_PowerPanelSuppliesOperatingRoom&#45;&gt;OperatingRoom -->
<g id="edge28" class="edge">
<title>A_PowerPanelSuppliesOperatingRoom&#45;&gt;OperatingRoom</title>
<path fill="none" stroke="#555555" d="M301.88,-82.52C320.21,-87.18 338.74,-92.51 356,-98.5 359.12,-99.58 409.61,-123.7 462.29,-148.97"/>
</g>
<!-- A_PowerPanelSuppliesOperatingRoom&#45;&gt;PowerPanel -->
<g id="edge27" class="edge">
<title>A_PowerPanelSuppliesOperatingRoom&#45;&gt;PowerPanel</title>
<path fill="none" stroke="#555555" d="M324.64,-58.5C361.15,-58.5 400.35,-58.5 436.93,-58.5"/>
</g>
<!-- A_PowerPanelSuppliesImagingRoom -->
<g id="node29" class="node">
<title>A_PowerPanelSuppliesImagingRoom</title>
<polygon fill="lightblue" stroke="transparent" points="41,-138.5 41,-161.5 316,-161.5 316,-138.5 41,-138.5"/>
<text text-anchor="start" x="45" y="-147.3" font-family="Helvetica,sans-Serif" font-weight="bold" font-size="14.00">PowerPanelSuppliesImagingRoom</text>
<text text-anchor="start" x="45" y="-123.3" font-family="Helvetica,sans-Serif" font-size="14.00">suppliedPower : Power</text>
<polygon fill="none" stroke="black" points="39.5,-114.5 39.5,-162.5 316.5,-162.5 316.5,-114.5 39.5,-114.5"/>
</g>
<!-- A_PowerPanelSuppliesImagingRoom&#45;&gt;ImagingRoom -->
<g id="edge30" class="edge">
<title>A_PowerPanelSuppliesImagingRoom&#45;&gt;ImagingRoom</title>
<path fill="none" stroke="#555555" d="M316.6,-153.67C331.11,-159.71 344.67,-167.78 356,-178.5 440.91,-258.86 352.46,-342.28 428,-431.5 432.65,-436.99 437.8,-442.1 443.31,-446.86"/>
</g>
<!-- A_PowerPanelSuppliesImagingRoom&#45;&gt;PowerPanel -->
<g id="edge29" class="edge">
<title>A_PowerPanelSuppliesImagingRoom&#45;&gt;PowerPanel</title>
<path fill="none" stroke="#555555" d="M300.51,-114.5C343.39,-106.03 392.06,-96.42 436.82,-87.57"/>
</g>
<!-- A_MedicalGasOutletInstalledInPatientRoom -->
<g id="node30" class="node">
<title>A_MedicalGasOutletInstalledInPatientRoom</title>
<polygon fill="lightblue" stroke="transparent" points="12,-459.5 12,-482.5 345,-482.5 345,-459.5 12,-459.5"/>
<text text-anchor="start" x="16" y="-468.3" font-family="Helvetica,sans-Serif" font-weight="bold" font-size="14.00">MedicalGasOutletInstalledInPatientRoom</text>
<text text-anchor="start" x="16" y="-444.3" font-family="Helvetica,sans-Serif" font-size="14.00">outletPosition : Position</text>
<polygon fill="none" stroke="black" points="10.5,-435.5 10.5,-483.5 345.5,-483.5 345.5,-435.5 10.5,-435.5"/>
</g>
<!-- A_MedicalGasOutletInstalledInPatientRoom&#45;&gt;PatientRoom -->
<g id="edge32" class="edge">
<title>A_MedicalGasOutletInstalledInPatientRoom&#45;&gt;PatientRoom</title>
<path fill="none" stroke="#555555" d="M330.98,-483.66C340.02,-488.62 348.48,-494.51 356,-501.5 433.83,-573.85 358.18,-649.39 428,-729.5 432.83,-735.04 438.16,-740.19 443.85,-744.99"/>
</g>
<!-- A_MedicalGasOutletInstalledInPatientRoom&#45;&gt;MedicalGasOutlet -->
<g id="edge31" class="edge">
<title>A_MedicalGasOutletInstalledInPatientRoom&#45;&gt;MedicalGasOutlet</title>
<path fill="none" stroke="#555555" d="M285.86,-435.44C309.03,-430.03 333.36,-424.2 356,-418.5 381.86,-411.99 409.28,-404.79 435.81,-397.67"/>
</g>
<!-- A_MedicalGasOutletInstalledInOperatingRoom -->
<g id="node31" class="node">
<title>A_MedicalGasOutletInstalledInOperatingRoom</title>
<polygon fill="lightblue" stroke="transparent" points="1,-218.5 1,-241.5 355,-241.5 355,-218.5 1,-218.5"/>
<text text-anchor="start" x="5" y="-227.3" font-family="Helvetica,sans-Serif" font-weight="bold" font-size="14.00">MedicalGasOutletInstalledInOperatingRoom</text>
<text text-anchor="start" x="5" y="-203.3" font-family="Helvetica,sans-Serif" font-size="14.00">outletPosition : Position</text>
<polygon fill="none" stroke="black" points="0,-194.5 0,-242.5 356,-242.5 356,-194.5 0,-194.5"/>
</g>
<!-- A_MedicalGasOutletInstalledInOperatingRoom&#45;&gt;OperatingRoom -->
<g id="edge34" class="edge">
<title>A_MedicalGasOutletInstalledInOperatingRoom&#45;&gt;OperatingRoom</title>
<path fill="none" stroke="#555555" d="M356.05,-213.69C383.51,-212.95 411.6,-212.18 438.26,-211.46"/>
</g>
<!-- A_MedicalGasOutletInstalledInOperatingRoom&#45;&gt;MedicalGasOutlet -->
<g id="edge33" class="edge">
<title>A_MedicalGasOutletInstalledInOperatingRoom&#45;&gt;MedicalGasOutlet</title>
<path fill="none" stroke="#555555" d="M299.3,-242.55C318.43,-247.27 337.87,-252.61 356,-258.5 390.11,-269.58 426.15,-283.82 459.25,-297.99"/>
</g>
<!-- A_WasteHandlingUnitServesFloor -->
<g id="node32" class="node">
<title>A_WasteHandlingUnitServesFloor</title>
<polygon fill="lightblue" stroke="transparent" points="51,-1228.5 51,-1251.5 305,-1251.5 305,-1228.5 51,-1228.5"/>
<text text-anchor="start" x="55" y="-1237.3" font-family="Helvetica,sans-Serif" font-weight="bold" font-size="14.00">WasteHandlingUnitServesFloor</text>
<text text-anchor="start" x="55" y="-1213.3" font-family="Helvetica,sans-Serif" font-size="14.00">serviceState : OperationalState</text>
<polygon fill="none" stroke="black" points="50,-1204.5 50,-1252.5 306,-1252.5 306,-1204.5 50,-1204.5"/>
</g>
<!-- A_WasteHandlingUnitServesFloor&#45;&gt;Floor -->
<g id="edge36" class="edge">
<title>A_WasteHandlingUnitServesFloor&#45;&gt;Floor</title>
<path fill="none" stroke="#555555" d="M306.03,-1235.4C348.49,-1237.71 396.1,-1240.29 439.77,-1242.67"/>
</g>
<!-- A_WasteHandlingUnitServesFloor&#45;&gt;WasteHandlingUnit -->
<g id="edge35" class="edge">
<title>A_WasteHandlingUnitServesFloor&#45;&gt;WasteHandlingUnit</title>
<path fill="none" stroke="#555555" d="M255.65,-1204.46C308.28,-1187.96 379.7,-1165.56 442.49,-1145.87"/>
</g>
</g>
</svg>
