<?xml version="1.0" encoding="UTF-8" standalone="no"?>
<!DOCTYPE svg PUBLIC "-//W3C//DTD SVG 1.1//EN"
 "http://www.w3.org/Graphics/SVG/1.1/DTD/svg11.dtd">
<!-- Generated by graphviz version 2.42.4 (0)
 -->
<!-- Title: ERD Pages: 1 -->
<svg width="929pt" height="2125pt"
 viewBox="0.00 0.00 929.20 2125.20" xmlns="http://www.w3.org/2000/svg" xmlns:xlink="http://www.w3.org/1999/xlink">
<g id="graph0" class="graph" transform="scale(1 1) rotate(0) translate(21.6 2103.6)">
<title>ERD</title>
<polygon fill="white" stroke="transparent" points="-21.6,21.6 -21.6,-2103.6 907.6,-2103.6 907.6,21.6 -21.6,21.6"/>
<text text-anchor="middle" x="443" y="-2063.6" font-family="Times,serif" font-size="18.00">Hospital Facility Resource Network Model &#45; Operational Resource Clusters</text>
<!-- HospitalSite -->
<g id="node1" class="node">
<title>HospitalSite</title>
<polygon fill="lightgray" stroke="transparent" points="583,-986.5 583,-1009.5 864,-1009.5 864,-986.5 583,-986.5"/>
<text text-anchor="start" x="675" y="-995.3" font-family="Helvetica,sans-Serif" font-weight="bold" font-size="14.00">HospitalSite</text>
<text text-anchor="start" x="587" y="-971.3" font-family="Helvetica,sans-Serif" font-size="14.00">hospitalSiteID : Identifier</text>
<text text-anchor="start" x="587" y="-948.3" font-family="Helvetica,sans-Serif" font-size="14.00">siteExtent : Extent</text>
<text text-anchor="start" x="587" y="-925.3" font-family="Helvetica,sans-Serif" font-size="14.00">sitePosition : Position</text>
<text text-anchor="start" x="587" y="-902.3" font-family="Helvetica,sans-Serif" font-size="14.00">siteOperationalState : OperationalState</text>
<polygon fill="none" stroke="black" points="581.5,-894 581.5,-1011 864.5,-1011 864.5,-894 581.5,-894"/>
</g>
<!-- InpatientCluster -->
<g id="node2" class="node">
<title>InpatientCluster</title>
<polygon fill="lightgray" stroke="transparent" points="572,-1582.5 572,-1605.5 875,-1605.5 875,-1582.5 572,-1582.5"/>
<text text-anchor="start" x="659" y="-1591.3" font-family="Helvetica,sans-Serif" font-weight="bold" font-size="14.00">InpatientCluster</text>
<text text-anchor="start" x="576" y="-1567.3" font-family="Helvetica,sans-Serif" font-size="14.00">inpatientClusterID : Identifier</text>
<text text-anchor="start" x="576" y="-1544.3" font-family="Helvetica,sans-Serif" font-size="14.00">clusterExtent : Extent</text>
<text text-anchor="start" x="576" y="-1521.3" font-family="Helvetica,sans-Serif" font-size="14.00">clusterCapacityCount : Count</text>
<text text-anchor="start" x="576" y="-1498.3" font-family="Helvetica,sans-Serif" font-size="14.00">clusterOperationalState : OperationalState</text>
<polygon fill="none" stroke="black" points="570.5,-1490 570.5,-1607 875.5,-1607 875.5,-1490 570.5,-1490"/>
</g>
<!-- ProceduralCluster -->
<g id="node3" class="node">
<title>ProceduralCluster</title>
<polygon fill="lightgray" stroke="transparent" points="572,-1433.5 572,-1456.5 875,-1456.5 875,-1433.5 572,-1433.5"/>
<text text-anchor="start" x="652.5" y="-1442.3" font-family="Helvetica,sans-Serif" font-weight="bold" font-size="14.00">ProceduralCluster</text>
<text text-anchor="start" x="576" y="-1418.3" font-family="Helvetica,sans-Serif" font-size="14.00">proceduralClusterID : Identifier</text>
<text text-anchor="start" x="576" y="-1395.3" font-family="Helvetica,sans-Serif" font-size="14.00">clusterExtent : Extent</text>
<text text-anchor="start" x="576" y="-1372.3" font-family="Helvetica,sans-Serif" font-size="14.00">clusterCapacityCount : Count</text>
<text text-anchor="start" x="576" y="-1349.3" font-family="Helvetica,sans-Serif" font-size="14.00">clusterOperationalState : OperationalState</text>
<polygon fill="none" stroke="black" points="570.5,-1341 570.5,-1458 875.5,-1458 875.5,-1341 570.5,-1341"/>
</g>
<!-- DiagnosticCluster -->
<g id="node4" class="node">
<title>DiagnosticCluster</title>
<polygon fill="lightgray" stroke="transparent" points="572,-390.5 572,-413.5 875,-413.5 875,-390.5 572,-390.5"/>
<text text-anchor="start" x="654" y="-399.3" font-family="Helvetica,sans-Serif" font-weight="bold" font-size="14.00">DiagnosticCluster</text>
<text text-anchor="start" x="576" y="-375.3" font-family="Helvetica,sans-Serif" font-size="14.00">diagnosticClusterID : Identifier</text>
<text text-anchor="start" x="576" y="-352.3" font-family="Helvetica,sans-Serif" font-size="14.00">clusterExtent : Extent</text>
<text text-anchor="start" x="576" y="-329.3" font-family="Helvetica,sans-Serif" font-size="14.00">clusterCapacityCount : Count</text>
<text text-anchor="start" x="576" y="-306.3" font-family="Helvetica,sans-Serif" font-size="14.00">clusterOperationalState : OperationalState</text>
<polygon fill="none" stroke="black" points="570.5,-298 570.5,-415 875.5,-415 875.5,-298 570.5,-298"/>
</g>
<!-- SupportCluster -->
<g id="node5" class="node">
<title>SupportCluster</title>
<polygon fill="lightgray" stroke="transparent" points="572,-837.5 572,-860.5 875,-860.5 875,-837.5 572,-837.5"/>
<text text-anchor="start" x="664" y="-846.3" font-family="Helvetica,sans-Serif" font-weight="bold" font-size="14.00">SupportCluster</text>
<text text-anchor="start" x="576" y="-822.3" font-family="Helvetica,sans-Serif" font-size="14.00">supportClusterID : Identifier</text>
<text text-anchor="start" x="576" y="-799.3" font-family="Helvetica,sans-Serif" font-size="14.00">clusterExtent : Extent</text>
<text text-anchor="start" x="576" y="-776.3" font-family="Helvetica,sans-Serif" font-size="14.00">clusterCapacityCount : Count</text>
<text text-anchor="start" x="576" y="-753.3" font-family="Helvetica,sans-Serif" font-size="14.00">clusterOperationalState : OperationalState</text>
<polygon fill="none" stroke="black" points="570.5,-745 570.5,-862 875.5,-862 875.5,-745 570.5,-745"/>
</g>
<!-- PatientBay -->
<g id="node6" class="node">
<title>PatientBay</title>
<polygon fill="lightgray" stroke="transparent" points="582,-2029.5 582,-2052.5 864,-2052.5 864,-2029.5 582,-2029.5"/>
<text text-anchor="start" x="680" y="-2038.3" font-family="Helvetica,sans-Serif" font-weight="bold" font-size="14.00">PatientBay</text>
<text text-anchor="start" x="586" y="-2014.3" font-family="Helvetica,sans-Serif" font-size="14.00">patientBayID : Identifier</text>
<text text-anchor="start" x="586" y="-1991.3" font-family="Helvetica,sans-Serif" font-size="14.00">bayExtent : Extent</text>
<text text-anchor="start" x="586" y="-1968.3" font-family="Helvetica,sans-Serif" font-size="14.00">bayCapacityCount : Count</text>
<text text-anchor="start" x="586" y="-1945.3" font-family="Helvetica,sans-Serif" font-size="14.00">bayOperationalState : OperationalState</text>
<polygon fill="none" stroke="black" points="581,-1937 581,-2054 865,-2054 865,-1937 581,-1937"/>
</g>
<!-- ProcedureSuite -->
<g id="node7" class="node">
<title>ProcedureSuite</title>
<polygon fill="lightgray" stroke="transparent" points="578,-1731.5 578,-1754.5 868,-1754.5 868,-1731.5 578,-1731.5"/>
<text text-anchor="start" x="662" y="-1740.3" font-family="Helvetica,sans-Serif" font-weight="bold" font-size="14.00">ProcedureSuite</text>
<text text-anchor="start" x="582" y="-1716.3" font-family="Helvetica,sans-Serif" font-size="14.00">procedureSuiteID : Identifier</text>
<text text-anchor="start" x="582" y="-1693.3" font-family="Helvetica,sans-Serif" font-size="14.00">suiteExtent : Extent</text>
<text text-anchor="start" x="582" y="-1670.3" font-family="Helvetica,sans-Serif" font-size="14.00">suiteCapacityCount : Count</text>
<text text-anchor="start" x="582" y="-1647.3" font-family="Helvetica,sans-Serif" font-size="14.00">suiteOperationalState : OperationalState</text>
<polygon fill="none" stroke="black" points="577,-1639 577,-1756 869,-1756 869,-1639 577,-1639"/>
</g>
<!-- ImagingSuite -->
<g id="node8" class="node">
<title>ImagingSuite</title>
<polygon fill="lightgray" stroke="transparent" points="578,-92.5 578,-115.5 868,-115.5 868,-92.5 578,-92.5"/>
<text text-anchor="start" x="671" y="-101.3" font-family="Helvetica,sans-Serif" font-weight="bold" font-size="14.00">ImagingSuite</text>
<text text-anchor="start" x="582" y="-77.3" font-family="Helvetica,sans-Serif" font-size="14.00">imagingSuiteID : Identifier</text>
<text text-anchor="start" x="582" y="-54.3" font-family="Helvetica,sans-Serif" font-size="14.00">suiteExtent : Extent</text>
<text text-anchor="start" x="582" y="-31.3" font-family="Helvetica,sans-Serif" font-size="14.00">shieldingState : OperationalState</text>
<text text-anchor="start" x="582" y="-8.3" font-family="Helvetica,sans-Serif" font-size="14.00">suiteOperationalState : OperationalState</text>
<polygon fill="none" stroke="black" points="577,0 577,-117 869,-117 869,0 577,0"/>
</g>
<!-- CentralSupplyArea -->
<g id="node9" class="node">
<title>CentralSupplyArea</title>
<polygon fill="lightgray" stroke="transparent" points="580,-1880.5 580,-1903.5 866,-1903.5 866,-1880.5 580,-1880.5"/>
<text text-anchor="start" x="649" y="-1889.3" font-family="Helvetica,sans-Serif" font-weight="bold" font-size="14.00">CentralSupplyArea</text>
<text text-anchor="start" x="584" y="-1865.3" font-family="Helvetica,sans-Serif" font-size="14.00">centralSupplyAreaID : Identifier</text>
<text text-anchor="start" x="584" y="-1842.3" font-family="Helvetica,sans-Serif" font-size="14.00">supplyCapacityCount : Count</text>
<text text-anchor="start" x="584" y="-1819.3" font-family="Helvetica,sans-Serif" font-size="14.00">areaExtent : Extent</text>
<text text-anchor="start" x="584" y="-1796.3" font-family="Helvetica,sans-Serif" font-size="14.00">areaOperationalState : OperationalState</text>
<polygon fill="none" stroke="black" points="579,-1788 579,-1905 867,-1905 867,-1788 579,-1788"/>
</g>
<!-- SterilizationUnit -->
<g id="node10" class="node">
<title>SterilizationUnit</title>
<polygon fill="lightgray" stroke="transparent" points="582,-1284.5 582,-1307.5 865,-1307.5 865,-1284.5 582,-1284.5"/>
<text text-anchor="start" x="659.5" y="-1293.3" font-family="Helvetica,sans-Serif" font-weight="bold" font-size="14.00">SterilizationUnit</text>
<text text-anchor="start" x="586" y="-1269.3" font-family="Helvetica,sans-Serif" font-size="14.00">sterilizationUnitID : Identifier</text>
<text text-anchor="start" x="586" y="-1246.3" font-family="Helvetica,sans-Serif" font-size="14.00">unitCapacityCount : Count</text>
<text text-anchor="start" x="586" y="-1223.3" font-family="Helvetica,sans-Serif" font-size="14.00">temperatureState : OperationalState</text>
<text text-anchor="start" x="586" y="-1200.3" font-family="Helvetica,sans-Serif" font-size="14.00">unitOperationalState : OperationalState</text>
<polygon fill="none" stroke="black" points="580.5,-1192 580.5,-1309 865.5,-1309 865.5,-1192 580.5,-1192"/>
</g>
<!-- ElevatorBank -->
<g id="node11" class="node">
<title>ElevatorBank</title>
<polygon fill="lightgray" stroke="transparent" points="578,-1135.5 578,-1158.5 869,-1158.5 869,-1135.5 578,-1135.5"/>
<text text-anchor="start" x="670.5" y="-1144.3" font-family="Helvetica,sans-Serif" font-weight="bold" font-size="14.00">ElevatorBank</text>
<text text-anchor="start" x="582" y="-1120.3" font-family="Helvetica,sans-Serif" font-size="14.00">elevatorBankID : Identifier</text>
<text text-anchor="start" x="582" y="-1097.3" font-family="Helvetica,sans-Serif" font-size="14.00">bankCapacityCount : Count</text>
<text text-anchor="start" x="582" y="-1074.3" font-family="Helvetica,sans-Serif" font-size="14.00">movementState : OperationalState</text>
<text text-anchor="start" x="582" y="-1051.3" font-family="Helvetica,sans-Serif" font-size="14.00">bankOperationalState : OperationalState</text>
<polygon fill="none" stroke="black" points="576.5,-1043 576.5,-1160 869.5,-1160 869.5,-1043 576.5,-1043"/>
</g>
<!-- BackupGenerator -->
<g id="node12" class="node">
<title>BackupGenerator</title>
<polygon fill="lightgray" stroke="transparent" points="561,-539.5 561,-562.5 885,-562.5 885,-539.5 561,-539.5"/>
<text text-anchor="start" x="654" y="-548.3" font-family="Helvetica,sans-Serif" font-weight="bold" font-size="14.00">BackupGenerator</text>
<text text-anchor="start" x="565" y="-524.3" font-family="Helvetica,sans-Serif" font-size="14.00">backupGeneratorID : Identifier</text>
<text text-anchor="start" x="565" y="-501.3" font-family="Helvetica,sans-Serif" font-size="14.00">generatorPower : Power</text>
<text text-anchor="start" x="565" y="-478.3" font-family="Helvetica,sans-Serif" font-size="14.00">fuelState : OperationalState</text>
<text text-anchor="start" x="565" y="-455.3" font-family="Helvetica,sans-Serif" font-size="14.00">generatorOperationalState : OperationalState</text>
<polygon fill="none" stroke="black" points="560,-447 560,-564 886,-564 886,-447 560,-447"/>
</g>
<!-- WaterTreatmentUnit -->
<g id="node13" class="node">
<title>WaterTreatmentUnit</title>
<polygon fill="lightgray" stroke="transparent" points="582,-688.5 582,-711.5 865,-711.5 865,-688.5 582,-688.5"/>
<text text-anchor="start" x="642" y="-697.3" font-family="Helvetica,sans-Serif" font-weight="bold" font-size="14.00">WaterTreatmentUnit</text>
<text text-anchor="start" x="586" y="-673.3" font-family="Helvetica,sans-Serif" font-size="14.00">waterTreatmentUnitID : Identifier</text>
<text text-anchor="start" x="586" y="-650.3" font-family="Helvetica,sans-Serif" font-size="14.00">flowRate : MassFlowRate</text>
<text text-anchor="start" x="586" y="-627.3" font-family="Helvetica,sans-Serif" font-size="14.00">treatmentState : OperationalState</text>
<text text-anchor="start" x="586" y="-604.3" font-family="Helvetica,sans-Serif" font-size="14.00">unitOperationalState : OperationalState</text>
<polygon fill="none" stroke="black" points="580.5,-596 580.5,-713 865.5,-713 865.5,-596 580.5,-596"/>
</g>
<!-- ITCloset -->
<g id="node14" class="node">
<title>ITCloset</title>
<polygon fill="lightgray" stroke="transparent" points="575,-241.5 575,-264.5 872,-264.5 872,-241.5 575,-241.5"/>
<text text-anchor="start" x="691" y="-250.3" font-family="Helvetica,sans-Serif" font-weight="bold" font-size="14.00">ITCloset</text>
<text text-anchor="start" x="579" y="-226.3" font-family="Helvetica,sans-Serif" font-size="14.00">itClosetID : Identifier</text>
<text text-anchor="start" x="579" y="-203.3" font-family="Helvetica,sans-Serif" font-size="14.00">deviceCount : Count</text>
<text text-anchor="start" x="579" y="-180.3" font-family="Helvetica,sans-Serif" font-size="14.00">coolingState : OperationalState</text>
<text text-anchor="start" x="579" y="-157.3" font-family="Helvetica,sans-Serif" font-size="14.00">closetOperationalState : OperationalState</text>
<polygon fill="none" stroke="black" points="573.5,-149 573.5,-266 872.5,-266 872.5,-149 573.5,-149"/>
</g>
<!-- A_HospitalSiteContainsInpatientCluster -->
<g id="node15" class="node">
<title>A_HospitalSiteContainsInpatientCluster</title>
<polygon fill="lightblue" stroke="transparent" points="93,-1319.5 93,-1342.5 395,-1342.5 395,-1319.5 93,-1319.5"/>
<text text-anchor="start" x="97" y="-1328.3" font-family="Helvetica,sans-Serif" font-weight="bold" font-size="14.00">HospitalSiteContainsInpatientCluster</text>
<text text-anchor="start" x="97" y="-1304.3" font-family="Helvetica,sans-Serif" font-size="14.00">clusterPosition : Position</text>
<polygon fill="none" stroke="black" points="92,-1295.5 92,-1343.5 396,-1343.5 396,-1295.5 92,-1295.5"/>
</g>
<!-- A_HospitalSiteContainsInpatientCluster&#45;&gt;HospitalSite -->
<g id="edge1" class="edge">
<title>A_HospitalSiteContainsInpatientCluster&#45;&gt;HospitalSite</title>
<path fill="none" stroke="#555555" d="M396.08,-1320.23C429.59,-1313.71 462.64,-1301.16 488,-1278.5 574.54,-1201.17 484.5,-1115.64 560,-1027.5 566.35,-1020.09 573.59,-1013.36 581.41,-1007.27"/>
</g>
<!-- A_HospitalSiteContainsInpatientCluster&#45;&gt;InpatientCluster -->
<g id="edge2" class="edge">
<title>A_HospitalSiteContainsInpatientCluster&#45;&gt;InpatientCluster</title>
<path fill="none" stroke="#555555" d="M396.03,-1324.25C428.33,-1330.58 460.86,-1341.44 488,-1359.5 538.2,-1392.91 514.66,-1434.74 560,-1474.5 566.16,-1479.9 572.78,-1484.98 579.7,-1489.74"/>
</g>
<!-- A_HospitalSiteContainsProceduralCluster -->
<g id="node16" class="node">
<title>A_HospitalSiteContainsProceduralCluster</title>
<polygon fill="lightblue" stroke="transparent" points="87,-1157.5 87,-1180.5 402,-1180.5 402,-1157.5 87,-1157.5"/>
<text text-anchor="start" x="91" y="-1166.3" font-family="Helvetica,sans-Serif" font-weight="bold" font-size="14.00">HospitalSiteContainsProceduralCluster</text>
<text text-anchor="start" x="91" y="-1142.3" font-family="Helvetica,sans-Serif" font-size="14.00">clusterPosition : Position</text>
<polygon fill="none" stroke="black" points="85.5,-1133.5 85.5,-1181.5 402.5,-1181.5 402.5,-1133.5 85.5,-1133.5"/>
</g>
<!-- A_HospitalSiteContainsProceduralCluster&#45;&gt;HospitalSite -->
<g id="edge3" class="edge">
<title>A_HospitalSiteContainsProceduralCluster&#45;&gt;HospitalSite</title>
<path fill="none" stroke="#555555" d="M402.71,-1146.21C432.39,-1139.57 462.18,-1129.54 488,-1114.5 531.37,-1089.24 520.24,-1058.13 560,-1027.5 567.49,-1021.73 575.49,-1016.27 583.78,-1011.13"/>
</g>
<!-- A_HospitalSiteContainsProceduralCluster&#45;&gt;ProceduralCluster -->
<g id="edge4" class="edge">
<title>A_HospitalSiteContainsProceduralCluster&#45;&gt;ProceduralCluster</title>
<path fill="none" stroke="#555555" d="M402.68,-1163.34C432.93,-1170 462.95,-1180.95 488,-1198.5 541.14,-1235.73 512.16,-1281.66 560,-1325.5 565.93,-1330.93 572.32,-1336.02 579.03,-1340.79"/>
</g>
<!-- A_HospitalSiteContainsDiagnosticCluster -->
<g id="node17" class="node">
<title>A_HospitalSiteContainsDiagnosticCluster</title>
<polygon fill="lightblue" stroke="transparent" points="88,-796.5 88,-819.5 400,-819.5 400,-796.5 88,-796.5"/>
<text text-anchor="start" x="92" y="-805.3" font-family="Helvetica,sans-Serif" font-weight="bold" font-size="14.00">HospitalSiteContainsDiagnosticCluster</text>
<text text-anchor="start" x="92" y="-781.3" font-family="Helvetica,sans-Serif" font-size="14.00">clusterPosition : Position</text>
<polygon fill="none" stroke="black" points="87,-772.5 87,-820.5 401,-820.5 401,-772.5 87,-772.5"/>
</g>
<!-- A_HospitalSiteContainsDiagnosticCluster&#45;&gt;HospitalSite -->
<g id="edge5" class="edge">
<title>A_HospitalSiteContainsDiagnosticCluster&#45;&gt;HospitalSite</title>
<path fill="none" stroke="#555555" d="M352.03,-820.57C394.7,-831.01 444.03,-844.13 488,-858.5 519.73,-868.87 553.32,-881.4 584.84,-893.89"/>
</g>
<!-- A_HospitalSiteContainsDiagnosticCluster&#45;&gt;DiagnosticCluster -->
<g id="edge6" class="edge">
<title>A_HospitalSiteContainsDiagnosticCluster&#45;&gt;DiagnosticCluster</title>
<path fill="none" stroke="#555555" d="M390.05,-772.46C426.23,-760.16 462.06,-741.58 488,-713.5 575.78,-618.49 477.3,-530.97 560,-431.5 564.85,-425.66 570.26,-420.25 576.08,-415.25"/>
</g>
<!-- A_HospitalSiteContainsSupportCluster -->
<g id="node18" class="node">
<title>A_HospitalSiteContainsSupportCluster</title>
<polygon fill="lightblue" stroke="transparent" points="98,-898.5 98,-921.5 390,-921.5 390,-898.5 98,-898.5"/>
<text text-anchor="start" x="102" y="-907.3" font-family="Helvetica,sans-Serif" font-weight="bold" font-size="14.00">HospitalSiteContainsSupportCluster</text>
<text text-anchor="start" x="102" y="-883.3" font-family="Helvetica,sans-Serif" font-size="14.00">clusterPosition : Position</text>
<polygon fill="none" stroke="black" points="97,-874.5 97,-922.5 391,-922.5 391,-874.5 97,-874.5"/>
</g>
<!-- A_HospitalSiteContainsSupportCluster&#45;&gt;HospitalSite -->
<g id="edge7" class="edge">
<title>A_HospitalSiteContainsSupportCluster&#45;&gt;HospitalSite</title>
<path fill="none" stroke="#555555" d="M391.03,-915.03C451.57,-921.89 521.51,-929.8 581.46,-936.59"/>
</g>
<!-- A_HospitalSiteContainsSupportCluster&#45;&gt;SupportCluster -->
<g id="edge8" class="edge">
<title>A_HospitalSiteContainsSupportCluster&#45;&gt;SupportCluster</title>
<path fill="none" stroke="#555555" d="M365.68,-874.47C427.78,-862.1 504.11,-846.9 570.17,-833.74"/>
</g>
<!-- A_InpatientClusterContainsPatientBay -->
<g id="node19" class="node">
<title>A_InpatientClusterContainsPatientBay</title>
<polygon fill="lightblue" stroke="transparent" points="99,-1718.5 99,-1741.5 390,-1741.5 390,-1718.5 99,-1718.5"/>
<text text-anchor="start" x="103" y="-1727.3" font-family="Helvetica,sans-Serif" font-weight="bold" font-size="14.00">InpatientClusterContainsPatientBay</text>
<text text-anchor="start" x="103" y="-1703.3" font-family="Helvetica,sans-Serif" font-size="14.00">bayPosition : Position</text>
<polygon fill="none" stroke="black" points="97.5,-1694.5 97.5,-1742.5 390.5,-1742.5 390.5,-1694.5 97.5,-1694.5"/>
</g>
<!-- A_InpatientClusterContainsPatientBay&#45;&gt;InpatientCluster -->
<g id="edge9" class="edge">
<title>A_InpatientClusterContainsPatientBay&#45;&gt;InpatientCluster</title>
<path fill="none" stroke="#555555" d="M390.57,-1695.47C423.23,-1688.08 457.28,-1678.58 488,-1666.5 522.69,-1652.86 527.04,-1640.91 560,-1623.5 570.41,-1618 581.31,-1612.48 592.3,-1607.07"/>
</g>
<!-- A_InpatientClusterContainsPatientBay&#45;&gt;PatientBay -->
<g id="edge10" class="edge">
<title>A_InpatientClusterContainsPatientBay&#45;&gt;PatientBay</title>
<path fill="none" stroke="#555555" d="M390.75,-1723.3C425.37,-1730.29 460.27,-1742.8 488,-1764.5 548.46,-1811.81 505.68,-1867.26 560,-1921.5 566.35,-1927.84 573.33,-1933.69 580.73,-1939.08"/>
</g>
<!-- A_ProceduralClusterContainsProcedureSuite -->
<g id="node20" class="node">
<title>A_ProceduralClusterContainsProcedureSuite</title>
<polygon fill="lightblue" stroke="transparent" points="74,-1626.5 74,-1649.5 415,-1649.5 415,-1626.5 74,-1626.5"/>
<text text-anchor="start" x="78" y="-1635.3" font-family="Helvetica,sans-Serif" font-weight="bold" font-size="14.00">ProceduralClusterContainsProcedureSuite</text>
<text text-anchor="start" x="78" y="-1611.3" font-family="Helvetica,sans-Serif" font-size="14.00">suitePosition : Position</text>
<polygon fill="none" stroke="black" points="72.5,-1602.5 72.5,-1650.5 415.5,-1650.5 415.5,-1602.5 72.5,-1602.5"/>
</g>
<!-- A_ProceduralClusterContainsProcedureSuite&#45;&gt;ProceduralCluster -->
<g id="edge11" class="edge">
<title>A_ProceduralClusterContainsProcedureSuite&#45;&gt;ProceduralCluster</title>
<path fill="none" stroke="#555555" d="M398.67,-1602.45C429.78,-1593.34 461.16,-1580.78 488,-1563.5 530.78,-1535.95 519.87,-1505.78 560,-1474.5 567.46,-1468.69 575.43,-1463.2 583.71,-1458.03"/>
</g>
<!-- A_ProceduralClusterContainsProcedureSuite&#45;&gt;ProcedureSuite -->
<g id="edge12" class="edge">
<title>A_ProceduralClusterContainsProcedureSuite&#45;&gt;ProcedureSuite</title>
<path fill="none" stroke="#555555" d="M406.49,-1650.54C461.63,-1658.74 522.91,-1667.87 576.7,-1675.87"/>
</g>
<!-- A_DiagnosticClusterContainsImagingSuite -->
<g id="node21" class="node">
<title>A_DiagnosticClusterContainsImagingSuite</title>
<polygon fill="lightblue" stroke="transparent" points="84,-159.5 84,-182.5 404,-182.5 404,-159.5 84,-159.5"/>
<text text-anchor="start" x="88" y="-168.3" font-family="Helvetica,sans-Serif" font-weight="bold" font-size="14.00">DiagnosticClusterContainsImagingSuite</text>
<text text-anchor="start" x="88" y="-144.3" font-family="Helvetica,sans-Serif" font-size="14.00">suitePosition : Position</text>
<polygon fill="none" stroke="black" points="83,-135.5 83,-183.5 405,-183.5 405,-135.5 83,-135.5"/>
</g>
<!-- A_DiagnosticClusterContainsImagingSuite&#45;&gt;DiagnosticCluster -->
<g id="edge13" class="edge">
<title>A_DiagnosticClusterContainsImagingSuite&#45;&gt;DiagnosticCluster</title>
<path fill="none" stroke="#555555" d="M362.26,-183.53C403.26,-194.31 448.8,-209.08 488,-228.5 523.84,-246.26 525.61,-262.07 560,-282.5 568.91,-287.79 578.25,-292.96 587.78,-297.96"/>
</g>
<!-- A_DiagnosticClusterContainsImagingSuite&#45;&gt;ImagingSuite -->
<g id="edge14" class="edge">
<title>A_DiagnosticClusterContainsImagingSuite&#45;&gt;ImagingSuite</title>
<path fill="none" stroke="#555555" d="M358.65,-135.44C423.96,-121.61 506.66,-104.1 576.66,-89.28"/>
</g>
<!-- A_SupportClusterContainsCentralSupplyArea -->
<g id="node22" class="node">
<title>A_SupportClusterContainsCentralSupplyArea</title>
<polygon fill="lightblue" stroke="transparent" points="73,-1238.5 73,-1261.5 416,-1261.5 416,-1238.5 73,-1238.5"/>
<text text-anchor="start" x="77" y="-1247.3" font-family="Helvetica,sans-Serif" font-weight="bold" font-size="14.00">SupportClusterContainsCentralSupplyArea</text>
<text text-anchor="start" x="77" y="-1223.3" font-family="Helvetica,sans-Serif" font-size="14.00">areaPosition : Position</text>
<polygon fill="none" stroke="black" points="71.5,-1214.5 71.5,-1262.5 416.5,-1262.5 416.5,-1214.5 71.5,-1214.5"/>
</g>
<!-- A_SupportClusterContainsCentralSupplyArea&#45;&gt;SupportCluster -->
<g id="edge15" class="edge">
<title>A_SupportClusterContainsCentralSupplyArea&#45;&gt;SupportCluster</title>
<path fill="none" stroke="#555555" d="M416.79,-1235.58C443.18,-1228.2 468.19,-1216.25 488,-1197.5 593.55,-1097.58 468.65,-991.55 560,-878.5 564.77,-872.59 570.11,-867.13 575.87,-862.08"/>
</g>
<!-- A_SupportClusterContainsCentralSupplyArea&#45;&gt;CentralSupplyArea -->
<g id="edge16" class="edge">
<title>A_SupportClusterContainsCentralSupplyArea&#45;&gt;CentralSupplyArea</title>
<path fill="none" stroke="#555555" d="M416.79,-1239.8C443.51,-1247.29 468.63,-1259.7 488,-1279.5 642.84,-1437.8 427.11,-1595.37 560,-1772.5 565.47,-1779.8 571.84,-1786.39 578.81,-1792.36"/>
</g>
<!-- A_SupportClusterContainsSterilizationUnit -->
<g id="node23" class="node">
<title>A_SupportClusterContainsSterilizationUnit</title>
<polygon fill="lightblue" stroke="transparent" points="82,-1074.5 82,-1097.5 406,-1097.5 406,-1074.5 82,-1074.5"/>
<text text-anchor="start" x="86" y="-1083.3" font-family="Helvetica,sans-Serif" font-weight="bold" font-size="14.00">SupportClusterContainsSterilizationUnit</text>
<text text-anchor="start" x="86" y="-1059.3" font-family="Helvetica,sans-Serif" font-size="14.00">unitPosition : Position</text>
<polygon fill="none" stroke="black" points="81,-1050.5 81,-1098.5 407,-1098.5 407,-1050.5 81,-1050.5"/>
</g>
<!-- A_SupportClusterContainsSterilizationUnit&#45;&gt;SupportCluster -->
<g id="edge17" class="edge">
<title>A_SupportClusterContainsSterilizationUnit&#45;&gt;SupportCluster</title>
<path fill="none" stroke="#555555" d="M407.28,-1066.31C436.24,-1059.01 464.6,-1047.46 488,-1029.5 546.99,-984.24 507.13,-930.77 560,-878.5 565.95,-872.62 572.45,-867.14 579.31,-862.05"/>
</g>
<!-- A_SupportClusterContainsSterilizationUnit&#45;&gt;SterilizationUnit -->
<g id="edge18" class="edge">
<title>A_SupportClusterContainsSterilizationUnit&#45;&gt;SterilizationUnit</title>
<path fill="none" stroke="#555555" d="M407.02,-1091.24C434.79,-1097.44 462.79,-1105.92 488,-1117.5 525.59,-1134.78 524.89,-1154.61 560,-1176.5 568.53,-1181.82 577.5,-1186.98 586.67,-1191.93"/>
</g>
<!-- A_SupportClusterContainsElevatorBank -->
<g id="node24" class="node">
<title>A_SupportClusterContainsElevatorBank</title>
<polygon fill="lightblue" stroke="transparent" points="94,-989.5 94,-1012.5 395,-1012.5 395,-989.5 94,-989.5"/>
<text text-anchor="start" x="98" y="-998.3" font-family="Helvetica,sans-Serif" font-weight="bold" font-size="14.00">SupportClusterContainsElevatorBank</text>
<text text-anchor="start" x="98" y="-974.3" font-family="Helvetica,sans-Serif" font-size="14.00">bankPosition : Position</text>
<polygon fill="none" stroke="black" points="92.5,-965.5 92.5,-1013.5 395.5,-1013.5 395.5,-965.5 92.5,-965.5"/>
</g>
<!-- A_SupportClusterContainsElevatorBank&#45;&gt;SupportCluster -->
<g id="edge19" class="edge">
<title>A_SupportClusterContainsElevatorBank&#45;&gt;SupportCluster</title>
<path fill="none" stroke="#555555" d="M395.61,-969.82C427.09,-962.45 459.38,-952.35 488,-938.5 525.49,-920.35 524.8,-900.77 560,-878.5 568.9,-872.87 578.3,-867.4 587.9,-862.17"/>
</g>
<!-- A_SupportClusterContainsElevatorBank&#45;&gt;ElevatorBank -->
<g id="edge20" class="edge">
<title>A_SupportClusterContainsElevatorBank&#45;&gt;ElevatorBank</title>
<path fill="none" stroke="#555555" d="M387.46,-1013.52C420.59,-1019.76 455.63,-1026.89 488,-1034.5 516.69,-1041.25 547.12,-1049.29 576.21,-1057.43"/>
</g>
<!-- A_SupportClusterContainsBackupGenerator -->
<g id="node25" class="node">
<title>A_SupportClusterContainsBackupGenerator</title>
<polygon fill="lightblue" stroke="transparent" points="78,-592.5 78,-615.5 411,-615.5 411,-592.5 78,-592.5"/>
<text text-anchor="start" x="82" y="-601.3" font-family="Helvetica,sans-Serif" font-weight="bold" font-size="14.00">SupportClusterContainsBackupGenerator</text>
<text text-anchor="start" x="82" y="-577.3" font-family="Helvetica,sans-Serif" font-size="14.00">unitPosition : Position</text>
<polygon fill="none" stroke="black" points="76.5,-568.5 76.5,-616.5 411.5,-616.5 411.5,-568.5 76.5,-568.5"/>
</g>
<!-- A_SupportClusterContainsBackupGenerator&#45;&gt;SupportCluster -->
<g id="edge21" class="edge">
<title>A_SupportClusterContainsBackupGenerator&#45;&gt;SupportCluster</title>
<path fill="none" stroke="#555555" d="M411.53,-603.28C438.37,-609.79 464.89,-619.42 488,-633.5 533.55,-661.25 518.46,-696.05 560,-729.5 566.74,-734.93 573.95,-740.06 581.44,-744.88"/>
</g>
<!-- A_SupportClusterContainsBackupGenerator&#45;&gt;BackupGenerator -->
<g id="edge22" class="edge">
<title>A_SupportClusterContainsBackupGenerator&#45;&gt;BackupGenerator</title>
<path fill="none" stroke="#555555" d="M376.61,-568.5C433.27,-558.16 500.09,-545.97 559.79,-535.09"/>
</g>
<!-- A_SupportClusterContainsWaterTreatmentUnit -->
<g id="node26" class="node">
<title>A_SupportClusterContainsWaterTreatmentUnit</title>
<polygon fill="lightblue" stroke="transparent" points="65,-673.5 65,-696.5 423,-696.5 423,-673.5 65,-673.5"/>
<text text-anchor="start" x="69" y="-682.3" font-family="Helvetica,sans-Serif" font-weight="bold" font-size="14.00">SupportClusterContainsWaterTreatmentUnit</text>
<text text-anchor="start" x="69" y="-658.3" font-family="Helvetica,sans-Serif" font-size="14.00">unitPosition : Position</text>
<polygon fill="none" stroke="black" points="64,-649.5 64,-697.5 424,-697.5 424,-649.5 64,-649.5"/>
</g>
<!-- A_SupportClusterContainsWaterTreatmentUnit&#45;&gt;SupportCluster -->
<g id="edge23" class="edge">
<title>A_SupportClusterContainsWaterTreatmentUnit&#45;&gt;SupportCluster</title>
<path fill="none" stroke="#555555" d="M333.32,-697.57C399.71,-715.66 492.26,-740.89 570.4,-762.18"/>
</g>
<!-- A_SupportClusterContainsWaterTreatmentUnit&#45;&gt;WaterTreatmentUnit -->
<g id="edge24" class="edge">
<title>A_SupportClusterContainsWaterTreatmentUnit&#45;&gt;WaterTreatmentUnit</title>
<path fill="none" stroke="#555555" d="M424.31,-666.36C475.84,-664.31 531.3,-662.1 580.22,-660.15"/>
</g>
<!-- A_SupportClusterContainsITCloset -->
<g id="node27" class="node">
<title>A_SupportClusterContainsITCloset</title>
<polygon fill="lightblue" stroke="transparent" points="114,-268.5 114,-291.5 375,-291.5 375,-268.5 114,-268.5"/>
<text text-anchor="start" x="118" y="-277.3" font-family="Helvetica,sans-Serif" font-weight="bold" font-size="14.00">SupportClusterContainsITCloset</text>
<text text-anchor="start" x="118" y="-253.3" font-family="Helvetica,sans-Serif" font-size="14.00">closetPosition : Position</text>
<polygon fill="none" stroke="black" points="112.5,-244.5 112.5,-292.5 375.5,-292.5 375.5,-244.5 112.5,-244.5"/>
</g>
<!-- A_SupportClusterContainsITCloset&#45;&gt;SupportCluster -->
<g id="edge25" class="edge">
<title>A_SupportClusterContainsITCloset&#45;&gt;SupportCluster</title>
<path fill="none" stroke="#555555" d="M375.68,-286.05C417.01,-297.87 459.34,-317.6 488,-350.5 600.61,-479.79 454.2,-594.58 560,-729.5 564.29,-734.97 569.08,-740.06 574.25,-744.78"/>
</g>
<!-- A_SupportClusterContainsITCloset&#45;&gt;ITCloset -->
<g id="edge26" class="edge">
<title>A_SupportClusterContainsITCloset&#45;&gt;ITCloset</title>
<path fill="none" stroke="#555555" d="M375.66,-251.79C436.89,-243.96 510.14,-234.59 573.47,-226.49"/>
</g>
<!-- A_CentralSupplyAreaSupportsPatientBay -->
<g id="node28" class="node">
<title>A_CentralSupplyAreaSupportsPatientBay</title>
<polygon fill="lightblue" stroke="transparent" points="88,-1887.5 88,-1910.5 400,-1910.5 400,-1887.5 88,-1887.5"/>
<text text-anchor="start" x="92" y="-1896.3" font-family="Helvetica,sans-Serif" font-weight="bold" font-size="14.00">CentralSupplyAreaSupportsPatientBay</text>
<text text-anchor="start" x="92" y="-1872.3" font-family="Helvetica,sans-Serif" font-size="14.00">supportState : OperationalState</text>
<polygon fill="none" stroke="black" points="87,-1863.5 87,-1911.5 401,-1911.5 401,-1863.5 87,-1863.5"/>
</g>
<!-- A_CentralSupplyAreaSupportsPatientBay&#45;&gt;PatientBay -->
<g id="edge28" class="edge">
<title>A_CentralSupplyAreaSupportsPatientBay&#45;&gt;PatientBay</title>
<path fill="none" stroke="#555555" d="M351.16,-1911.54C418.83,-1926.86 507.3,-1946.89 580.85,-1963.54"/>
</g>
<!-- A_CentralSupplyAreaSupportsPatientBay&#45;&gt;CentralSupplyArea -->
<g id="edge27" class="edge">
<title>A_CentralSupplyAreaSupportsPatientBay&#45;&gt;CentralSupplyArea</title>
<path fill="none" stroke="#555555" d="M401.19,-1874.08C458.38,-1869.16 522.77,-1863.62 578.78,-1858.81"/>
</g>
<!-- A_CentralSupplyAreaSupportsProcedureSuite -->
<g id="node29" class="node">
<title>A_CentralSupplyAreaSupportsProcedureSuite</title>
<polygon fill="lightblue" stroke="transparent" points="70,-1804.5 70,-1827.5 418,-1827.5 418,-1804.5 70,-1804.5"/>
<text text-anchor="start" x="74" y="-1813.3" font-family="Helvetica,sans-Serif" font-weight="bold" font-size="14.00">CentralSupplyAreaSupportsProcedureSuite</text>
<text text-anchor="start" x="74" y="-1789.3" font-family="Helvetica,sans-Serif" font-size="14.00">supportState : OperationalState</text>
<polygon fill="none" stroke="black" points="69,-1780.5 69,-1828.5 419,-1828.5 419,-1780.5 69,-1780.5"/>
</g>
<!-- A_CentralSupplyAreaSupportsProcedureSuite&#45;&gt;ProcedureSuite -->
<g id="edge30" class="edge">
<title>A_CentralSupplyAreaSupportsProcedureSuite&#45;&gt;ProcedureSuite</title>
<path fill="none" stroke="#555555" d="M380.93,-1780.45C415.92,-1773.8 453.44,-1766.27 488,-1758.5 516.88,-1752.01 547.6,-1744.47 576.95,-1736.95"/>
</g>
<!-- A_CentralSupplyAreaSupportsProcedureSuite&#45;&gt;CentralSupplyArea -->
<g id="edge29" class="edge">
<title>A_CentralSupplyAreaSupportsProcedureSuite&#45;&gt;CentralSupplyArea</title>
<path fill="none" stroke="#555555" d="M419.23,-1819.84C471.66,-1824.46 528.57,-1829.47 578.74,-1833.89"/>
</g>
<!-- A_SterilizationUnitSupportsProcedureSuite -->
<g id="node30" class="node">
<title>A_SterilizationUnitSupportsProcedureSuite</title>
<polygon fill="lightblue" stroke="transparent" points="80,-1523.5 80,-1546.5 408,-1546.5 408,-1523.5 80,-1523.5"/>
<text text-anchor="start" x="84" y="-1532.3" font-family="Helvetica,sans-Serif" font-weight="bold" font-size="14.00">SterilizationUnitSupportsProcedureSuite</text>
<text text-anchor="start" x="84" y="-1508.3" font-family="Helvetica,sans-Serif" font-size="14.00">sterileSupplyState : OperationalState</text>
<polygon fill="none" stroke="black" points="79,-1499.5 79,-1547.5 409,-1547.5 409,-1499.5 79,-1499.5"/>
</g>
<!-- A_SterilizationUnitSupportsProcedureSuite&#45;&gt;ProcedureSuite -->
<g id="edge32" class="edge">
<title>A_SterilizationUnitSupportsProcedureSuite&#45;&gt;ProcedureSuite</title>
<path fill="none" stroke="#555555" d="M358.83,-1547.5C400.14,-1557.64 446.77,-1570.78 488,-1586.5 521.62,-1599.31 527.63,-1607.8 560,-1623.5 570.43,-1628.56 581.29,-1633.73 592.21,-1638.86"/>
</g>
<!-- A_SterilizationUnitSupportsProcedureSuite&#45;&gt;SterilizationUnit -->
<g id="edge31" class="edge">
<title>A_SterilizationUnitSupportsProcedureSuite&#45;&gt;SterilizationUnit</title>
<path fill="none" stroke="#555555" d="M364.58,-1499.49C406.72,-1486.76 452.4,-1467.71 488,-1439.5 534.97,-1402.28 514.97,-1365.04 560,-1325.5 566.64,-1319.67 573.81,-1314.21 581.3,-1309.11"/>
</g>
<!-- A_BackupGeneratorSupportsDiagnosticCluster -->
<g id="node31" class="node">
<title>A_BackupGeneratorSupportsDiagnosticCluster</title>
<polygon fill="lightblue" stroke="transparent" points="67,-390.5 67,-413.5 422,-413.5 422,-390.5 67,-390.5"/>
<text text-anchor="start" x="71" y="-399.3" font-family="Helvetica,sans-Serif" font-weight="bold" font-size="14.00">BackupGeneratorSupportsDiagnosticCluster</text>
<text text-anchor="start" x="71" y="-375.3" font-family="Helvetica,sans-Serif" font-size="14.00">suppliedPower : Power</text>
<polygon fill="none" stroke="black" points="65.5,-366.5 65.5,-414.5 422.5,-414.5 422.5,-366.5 65.5,-366.5"/>
</g>
<!-- A_BackupGeneratorSupportsDiagnosticCluster&#45;&gt;DiagnosticCluster -->
<g id="edge34" class="edge">
<title>A_BackupGeneratorSupportsDiagnosticCluster&#45;&gt;DiagnosticCluster</title>
<path fill="none" stroke="#555555" d="M422.62,-377.84C471.22,-374.38 523.44,-370.65 570.44,-367.3"/>
</g>
<!-- A_BackupGeneratorSupportsDiagnosticCluster&#45;&gt;BackupGenerator -->
<g id="edge33" class="edge">
<title>A_BackupGeneratorSupportsDiagnosticCluster&#45;&gt;BackupGenerator</title>
<path fill="none" stroke="#555555" d="M344.7,-414.54C406.84,-429.52 488.25,-449.14 559.53,-466.33"/>
</g>
<!-- A_ITClosetSupportsImagingSuite -->
<g id="node32" class="node">
<title>A_ITClosetSupportsImagingSuite</title>
<polygon fill="lightblue" stroke="transparent" points="115,-65.5 115,-88.5 374,-88.5 374,-65.5 115,-65.5"/>
<text text-anchor="start" x="125" y="-74.3" font-family="Helvetica,sans-Serif" font-weight="bold" font-size="14.00">ITClosetSupportsImagingSuite</text>
<text text-anchor="start" x="119" y="-50.3" font-family="Helvetica,sans-Serif" font-size="14.00">connectivityState : OperationalState</text>
<polygon fill="none" stroke="black" points="113.5,-41.5 113.5,-89.5 374.5,-89.5 374.5,-41.5 113.5,-41.5"/>
</g>
<!-- A_ITClosetSupportsImagingSuite&#45;&gt;ImagingSuite -->
<g id="edge36" class="edge">
<title>A_ITClosetSupportsImagingSuite&#45;&gt;ImagingSuite</title>
<path fill="none" stroke="#555555" d="M374.71,-63.6C437.2,-62.68 512.36,-61.58 576.76,-60.63"/>
</g>
<!-- A_ITClosetSupportsImagingSuite&#45;&gt;ITCloset -->
<g id="edge35" class="edge">
<title>A_ITClosetSupportsImagingSuite&#45;&gt;ITCloset</title>
<path fill="none" stroke="#555555" d="M369.18,-89.56C407.56,-97.94 449.79,-108.13 488,-119.5 516.7,-128.04 546.93,-138.37 575.78,-148.9"/>
</g>
<!-- A_ElevatorBankConnectsInpatientClusterAndProceduralCluster -->
<g id="node33" class="node">
<title>A_ElevatorBankConnectsInpatientClusterAndProceduralCluster</title>
<polygon fill="lightblue" stroke="transparent" points="1,-1399.5 1,-1422.5 487,-1422.5 487,-1399.5 1,-1399.5"/>
<text text-anchor="start" x="5" y="-1408.3" font-family="Helvetica,sans-Serif" font-weight="bold" font-size="14.00">ElevatorBankConnectsInpatientClusterAndProceduralCluster</text>
<text text-anchor="start" x="5" y="-1384.3" font-family="Helvetica,sans-Serif" font-size="14.00">transportState : OperationalState</text>
<polygon fill="none" stroke="black" points="0,-1375.5 0,-1423.5 488,-1423.5 488,-1375.5 0,-1375.5"/>
</g>
<!-- A_ElevatorBankConnectsInpatientClusterAndProceduralCluster&#45;&gt;InpatientCluster -->
<g id="edge38" class="edge">
<title>A_ElevatorBankConnectsInpatientClusterAndProceduralCluster&#45;&gt;InpatientCluster</title>
<path fill="none" stroke="#555555" d="M321.9,-1423.52C388.7,-1444.39 487.44,-1475.23 570.11,-1501.05"/>
</g>
<!-- A_ElevatorBankConnectsInpatientClusterAndProceduralCluster&#45;&gt;ProceduralCluster -->
<g id="edge39" class="edge">
<title>A_ElevatorBankConnectsInpatientClusterAndProceduralCluster&#45;&gt;ProceduralCluster</title>
<path fill="none" stroke="#555555" d="M488.04,-1399.5C516.09,-1399.5 544.06,-1399.5 570.39,-1399.5"/>
</g>
<!-- A_ElevatorBankConnectsInpatientClusterAndProceduralCluster&#45;&gt;ElevatorBank -->
<g id="edge37" class="edge">
<title>A_ElevatorBankConnectsInpatientClusterAndProceduralCluster&#45;&gt;ElevatorBank</title>
<path fill="none" stroke="#555555" d="M464.02,-1375.46C472.47,-1370.84 480.52,-1365.55 488,-1359.5 555.99,-1304.57 500.04,-1240.09 560,-1176.5 565.53,-1170.64 571.6,-1165.19 578.06,-1160.14"/>
</g>
</g>
</svg>
