<?xml version="1.0" encoding="UTF-8" standalone="no"?>
<!DOCTYPE svg PUBLIC "-//W3C//DTD SVG 1.1//EN"
 "http://www.w3.org/Graphics/SVG/1.1/DTD/svg11.dtd">
<!-- Generated by graphviz version 2.42.4 (0)
 -->
<!-- Title: ERD Pages: 1 -->
<svg width="791pt" height="2125pt"
 viewBox="0.00 0.00 791.20 2125.20" xmlns="http://www.w3.org/2000/svg" xmlns:xlink="http://www.w3.org/1999/xlink">
<g id="graph0" class="graph" transform="scale(1 1) rotate(0) translate(21.6 2103.6)">
<title>ERD</title>
<polygon fill="white" stroke="transparent" points="-21.6,21.6 -21.6,-2103.6 769.6,-2103.6 769.6,21.6 -21.6,21.6"/>
<text text-anchor="middle" x="374" y="-2063.6" font-family="Times,serif" font-size="18.00">Hospital Facility Resource Network Model &#45; Serviceable Facility Parts Network</text>
<!-- StructuralBay -->
<g id="node1" class="node">
<title>StructuralBay</title>
<polygon fill="lightgray" stroke="transparent" points="448.5,-1135.5 448.5,-1158.5 730.5,-1158.5 730.5,-1135.5 448.5,-1135.5"/>
<text text-anchor="start" x="535.5" y="-1144.3" font-family="Helvetica,sans-Serif" font-weight="bold" font-size="14.00">StructuralBay</text>
<text text-anchor="start" x="452.5" y="-1120.3" font-family="Helvetica,sans-Serif" font-size="14.00">structuralBayID : Identifier</text>
<text text-anchor="start" x="452.5" y="-1097.3" font-family="Helvetica,sans-Serif" font-size="14.00">bayExtent : Extent</text>
<text text-anchor="start" x="452.5" y="-1074.3" font-family="Helvetica,sans-Serif" font-size="14.00">bayPosition : Position</text>
<text text-anchor="start" x="452.5" y="-1051.3" font-family="Helvetica,sans-Serif" font-size="14.00">bayOperationalState : OperationalState</text>
<polygon fill="none" stroke="black" points="447.5,-1043 447.5,-1160 731.5,-1160 731.5,-1043 447.5,-1043"/>
</g>
<!-- DoorAssembly -->
<g id="node2" class="node">
<title>DoorAssembly</title>
<polygon fill="lightgray" stroke="transparent" points="445.5,-1731.5 445.5,-1754.5 733.5,-1754.5 733.5,-1731.5 445.5,-1731.5"/>
<text text-anchor="start" x="533.5" y="-1740.3" font-family="Helvetica,sans-Serif" font-weight="bold" font-size="14.00">DoorAssembly</text>
<text text-anchor="start" x="449.5" y="-1716.3" font-family="Helvetica,sans-Serif" font-size="14.00">doorAssemblyID : Identifier</text>
<text text-anchor="start" x="449.5" y="-1693.3" font-family="Helvetica,sans-Serif" font-size="14.00">doorPosition : Position</text>
<text text-anchor="start" x="449.5" y="-1670.3" font-family="Helvetica,sans-Serif" font-size="14.00">accessState : OperationalState</text>
<text text-anchor="start" x="449.5" y="-1647.3" font-family="Helvetica,sans-Serif" font-size="14.00">doorOperationalState : OperationalState</text>
<polygon fill="none" stroke="black" points="444.5,-1639 444.5,-1756 734.5,-1756 734.5,-1639 444.5,-1639"/>
</g>
<!-- NurseCallPanel -->
<g id="node3" class="node">
<title>NurseCallPanel</title>
<polygon fill="lightgray" stroke="transparent" points="442.5,-2029.5 442.5,-2052.5 736.5,-2052.5 736.5,-2029.5 442.5,-2029.5"/>
<text text-anchor="start" x="529.5" y="-2038.3" font-family="Helvetica,sans-Serif" font-weight="bold" font-size="14.00">NurseCallPanel</text>
<text text-anchor="start" x="446.5" y="-2014.3" font-family="Helvetica,sans-Serif" font-size="14.00">nurseCallPanelID : Identifier</text>
<text text-anchor="start" x="446.5" y="-1991.3" font-family="Helvetica,sans-Serif" font-size="14.00">panelPosition : Position</text>
<text text-anchor="start" x="446.5" y="-1968.3" font-family="Helvetica,sans-Serif" font-size="14.00">signalState : OperationalState</text>
<text text-anchor="start" x="446.5" y="-1945.3" font-family="Helvetica,sans-Serif" font-size="14.00">panelOperationalState : OperationalState</text>
<polygon fill="none" stroke="black" points="441.5,-1937 441.5,-2054 737.5,-2054 737.5,-1937 441.5,-1937"/>
</g>
<!-- PatientMonitorMount -->
<g id="node4" class="node">
<title>PatientMonitorMount</title>
<polygon fill="lightgray" stroke="transparent" points="439.5,-1582.5 439.5,-1605.5 740.5,-1605.5 740.5,-1582.5 439.5,-1582.5"/>
<text text-anchor="start" x="505.5" y="-1591.3" font-family="Helvetica,sans-Serif" font-weight="bold" font-size="14.00">PatientMonitorMount</text>
<text text-anchor="start" x="443.5" y="-1567.3" font-family="Helvetica,sans-Serif" font-size="14.00">patientMonitorMountID : Identifier</text>
<text text-anchor="start" x="443.5" y="-1544.3" font-family="Helvetica,sans-Serif" font-size="14.00">mountPosition : Position</text>
<text text-anchor="start" x="443.5" y="-1521.3" font-family="Helvetica,sans-Serif" font-size="14.00">mountForce : Force</text>
<text text-anchor="start" x="443.5" y="-1498.3" font-family="Helvetica,sans-Serif" font-size="14.00">mountOperationalState : OperationalState</text>
<polygon fill="none" stroke="black" points="438,-1490 438,-1607 741,-1607 741,-1490 438,-1490"/>
</g>
<!-- ImagingMachine -->
<g id="node5" class="node">
<title>ImagingMachine</title>
<polygon fill="lightgray" stroke="transparent" points="432.5,-688.5 432.5,-711.5 747.5,-711.5 747.5,-688.5 432.5,-688.5"/>
<text text-anchor="start" x="525" y="-697.3" font-family="Helvetica,sans-Serif" font-weight="bold" font-size="14.00">ImagingMachine</text>
<text text-anchor="start" x="436.5" y="-673.3" font-family="Helvetica,sans-Serif" font-size="14.00">imagingMachineID : Identifier</text>
<text text-anchor="start" x="436.5" y="-650.3" font-family="Helvetica,sans-Serif" font-size="14.00">machinePosition : Position</text>
<text text-anchor="start" x="436.5" y="-627.3" font-family="Helvetica,sans-Serif" font-size="14.00">machinePower : Power</text>
<text text-anchor="start" x="436.5" y="-604.3" font-family="Helvetica,sans-Serif" font-size="14.00">machineOperationalState : OperationalState</text>
<polygon fill="none" stroke="black" points="431,-596 431,-713 748,-713 748,-596 431,-596"/>
</g>
<!-- SurgicalLight -->
<g id="node6" class="node">
<title>SurgicalLight</title>
<polygon fill="lightgray" stroke="transparent" points="446.5,-539.5 446.5,-562.5 733.5,-562.5 733.5,-539.5 446.5,-539.5"/>
<text text-anchor="start" x="538.5" y="-548.3" font-family="Helvetica,sans-Serif" font-weight="bold" font-size="14.00">SurgicalLight</text>
<text text-anchor="start" x="450.5" y="-524.3" font-family="Helvetica,sans-Serif" font-size="14.00">surgicalLightID : Identifier</text>
<text text-anchor="start" x="450.5" y="-501.3" font-family="Helvetica,sans-Serif" font-size="14.00">lightPosition : Position</text>
<text text-anchor="start" x="450.5" y="-478.3" font-family="Helvetica,sans-Serif" font-size="14.00">lightPower : Power</text>
<text text-anchor="start" x="450.5" y="-455.3" font-family="Helvetica,sans-Serif" font-size="14.00">lightOperationalState : OperationalState</text>
<polygon fill="none" stroke="black" points="445,-447 445,-564 734,-564 734,-447 445,-447"/>
</g>
<!-- EquipmentBoom -->
<g id="node7" class="node">
<title>EquipmentBoom</title>
<polygon fill="lightgray" stroke="transparent" points="442.5,-241.5 442.5,-264.5 737.5,-264.5 737.5,-241.5 442.5,-241.5"/>
<text text-anchor="start" x="525.5" y="-250.3" font-family="Helvetica,sans-Serif" font-weight="bold" font-size="14.00">EquipmentBoom</text>
<text text-anchor="start" x="446.5" y="-226.3" font-family="Helvetica,sans-Serif" font-size="14.00">equipmentBoomID : Identifier</text>
<text text-anchor="start" x="446.5" y="-203.3" font-family="Helvetica,sans-Serif" font-size="14.00">boomPosition : Position</text>
<text text-anchor="start" x="446.5" y="-180.3" font-family="Helvetica,sans-Serif" font-size="14.00">boomLoadForce : Force</text>
<text text-anchor="start" x="446.5" y="-157.3" font-family="Helvetica,sans-Serif" font-size="14.00">boomOperationalState : OperationalState</text>
<polygon fill="none" stroke="black" points="441,-149 441,-266 738,-266 738,-149 441,-149"/>
</g>
<!-- HandwashSink -->
<g id="node8" class="node">
<title>HandwashSink</title>
<polygon fill="lightgray" stroke="transparent" points="447.5,-1433.5 447.5,-1456.5 732.5,-1456.5 732.5,-1433.5 447.5,-1433.5"/>
<text text-anchor="start" x="532.5" y="-1442.3" font-family="Helvetica,sans-Serif" font-weight="bold" font-size="14.00">HandwashSink</text>
<text text-anchor="start" x="451.5" y="-1418.3" font-family="Helvetica,sans-Serif" font-size="14.00">handwashSinkID : Identifier</text>
<text text-anchor="start" x="451.5" y="-1395.3" font-family="Helvetica,sans-Serif" font-size="14.00">sinkPosition : Position</text>
<text text-anchor="start" x="451.5" y="-1372.3" font-family="Helvetica,sans-Serif" font-size="14.00">waterFlowState : OperationalState</text>
<text text-anchor="start" x="451.5" y="-1349.3" font-family="Helvetica,sans-Serif" font-size="14.00">sinkOperationalState : OperationalState</text>
<polygon fill="none" stroke="black" points="446,-1341 446,-1458 733,-1458 733,-1341 446,-1341"/>
</g>
<!-- AirHandlingTerminal -->
<g id="node9" class="node">
<title>AirHandlingTerminal</title>
<polygon fill="lightgray" stroke="transparent" points="433.5,-1284.5 433.5,-1307.5 746.5,-1307.5 746.5,-1284.5 433.5,-1284.5"/>
<text text-anchor="start" x="510.5" y="-1293.3" font-family="Helvetica,sans-Serif" font-weight="bold" font-size="14.00">AirHandlingTerminal</text>
<text text-anchor="start" x="437.5" y="-1269.3" font-family="Helvetica,sans-Serif" font-size="14.00">airHandlingTerminalID : Identifier</text>
<text text-anchor="start" x="437.5" y="-1246.3" font-family="Helvetica,sans-Serif" font-size="14.00">terminalPosition : Position</text>
<text text-anchor="start" x="437.5" y="-1223.3" font-family="Helvetica,sans-Serif" font-size="14.00">airFlowRate : MassFlowRate</text>
<text text-anchor="start" x="437.5" y="-1200.3" font-family="Helvetica,sans-Serif" font-size="14.00">terminalOperationalState : OperationalState</text>
<polygon fill="none" stroke="black" points="432,-1192 432,-1309 747,-1309 747,-1192 432,-1192"/>
</g>
<!-- MedicalGasPanel -->
<g id="node10" class="node">
<title>MedicalGasPanel</title>
<polygon fill="lightgray" stroke="transparent" points="442.5,-92.5 442.5,-115.5 736.5,-115.5 736.5,-92.5 442.5,-92.5"/>
<text text-anchor="start" x="522.5" y="-101.3" font-family="Helvetica,sans-Serif" font-weight="bold" font-size="14.00">MedicalGasPanel</text>
<text text-anchor="start" x="446.5" y="-77.3" font-family="Helvetica,sans-Serif" font-size="14.00">medicalGasPanelID : Identifier</text>
<text text-anchor="start" x="446.5" y="-54.3" font-family="Helvetica,sans-Serif" font-size="14.00">panelPosition : Position</text>
<text text-anchor="start" x="446.5" y="-31.3" font-family="Helvetica,sans-Serif" font-size="14.00">gasFlowState : OperationalState</text>
<text text-anchor="start" x="446.5" y="-8.3" font-family="Helvetica,sans-Serif" font-size="14.00">panelOperationalState : OperationalState</text>
<polygon fill="none" stroke="black" points="441.5,0 441.5,-117 737.5,-117 737.5,0 441.5,0"/>
</g>
<!-- CircuitBreakerPanel -->
<g id="node11" class="node">
<title>CircuitBreakerPanel</title>
<polygon fill="lightgray" stroke="transparent" points="442.5,-390.5 442.5,-413.5 736.5,-413.5 736.5,-390.5 442.5,-390.5"/>
<text text-anchor="start" x="511" y="-399.3" font-family="Helvetica,sans-Serif" font-weight="bold" font-size="14.00">CircuitBreakerPanel</text>
<text text-anchor="start" x="446.5" y="-375.3" font-family="Helvetica,sans-Serif" font-size="14.00">circuitBreakerPanelID : Identifier</text>
<text text-anchor="start" x="446.5" y="-352.3" font-family="Helvetica,sans-Serif" font-size="14.00">panelPosition : Position</text>
<text text-anchor="start" x="446.5" y="-329.3" font-family="Helvetica,sans-Serif" font-size="14.00">suppliedPower : Power</text>
<text text-anchor="start" x="446.5" y="-306.3" font-family="Helvetica,sans-Serif" font-size="14.00">panelOperationalState : OperationalState</text>
<polygon fill="none" stroke="black" points="441.5,-298 441.5,-415 737.5,-415 737.5,-298 441.5,-298"/>
</g>
<!-- ServerRack -->
<g id="node12" class="node">
<title>ServerRack</title>
<polygon fill="lightgray" stroke="transparent" points="446.5,-1880.5 446.5,-1903.5 732.5,-1903.5 732.5,-1880.5 446.5,-1880.5"/>
<text text-anchor="start" x="544.5" y="-1889.3" font-family="Helvetica,sans-Serif" font-weight="bold" font-size="14.00">ServerRack</text>
<text text-anchor="start" x="450.5" y="-1865.3" font-family="Helvetica,sans-Serif" font-size="14.00">serverRackID : Identifier</text>
<text text-anchor="start" x="450.5" y="-1842.3" font-family="Helvetica,sans-Serif" font-size="14.00">rackPosition : Position</text>
<text text-anchor="start" x="450.5" y="-1819.3" font-family="Helvetica,sans-Serif" font-size="14.00">deviceCount : Count</text>
<text text-anchor="start" x="450.5" y="-1796.3" font-family="Helvetica,sans-Serif" font-size="14.00">rackOperationalState : OperationalState</text>
<polygon fill="none" stroke="black" points="445.5,-1788 445.5,-1905 733.5,-1905 733.5,-1788 445.5,-1788"/>
</g>
<!-- SterileCabinet -->
<g id="node13" class="node">
<title>SterileCabinet</title>
<polygon fill="lightgray" stroke="transparent" points="436.5,-986.5 436.5,-1009.5 743.5,-1009.5 743.5,-986.5 436.5,-986.5"/>
<text text-anchor="start" x="533.5" y="-995.3" font-family="Helvetica,sans-Serif" font-weight="bold" font-size="14.00">SterileCabinet</text>
<text text-anchor="start" x="440.5" y="-971.3" font-family="Helvetica,sans-Serif" font-size="14.00">sterileCabinetID : Identifier</text>
<text text-anchor="start" x="440.5" y="-948.3" font-family="Helvetica,sans-Serif" font-size="14.00">cabinetPosition : Position</text>
<text text-anchor="start" x="440.5" y="-925.3" font-family="Helvetica,sans-Serif" font-size="14.00">storageCount : Count</text>
<text text-anchor="start" x="440.5" y="-902.3" font-family="Helvetica,sans-Serif" font-size="14.00">cabinetOperationalState : OperationalState</text>
<polygon fill="none" stroke="black" points="435,-894 435,-1011 744,-1011 744,-894 435,-894"/>
</g>
<!-- WasteBin -->
<g id="node14" class="node">
<title>WasteBin</title>
<polygon fill="lightgray" stroke="transparent" points="450.5,-837.5 450.5,-860.5 728.5,-860.5 728.5,-837.5 450.5,-837.5"/>
<text text-anchor="start" x="552" y="-846.3" font-family="Helvetica,sans-Serif" font-weight="bold" font-size="14.00">WasteBin</text>
<text text-anchor="start" x="454.5" y="-822.3" font-family="Helvetica,sans-Serif" font-size="14.00">wasteBinID : Identifier</text>
<text text-anchor="start" x="454.5" y="-799.3" font-family="Helvetica,sans-Serif" font-size="14.00">binPosition : Position</text>
<text text-anchor="start" x="454.5" y="-776.3" font-family="Helvetica,sans-Serif" font-size="14.00">capacityCount : Count</text>
<text text-anchor="start" x="454.5" y="-753.3" font-family="Helvetica,sans-Serif" font-size="14.00">binOperationalState : OperationalState</text>
<polygon fill="none" stroke="black" points="449.5,-745 449.5,-862 729.5,-862 729.5,-745 449.5,-745"/>
</g>
<!-- A_StructuralBaySupportsDoorAssembly -->
<g id="node15" class="node">
<title>A_StructuralBaySupportsDoorAssembly</title>
<polygon fill="lightblue" stroke="transparent" points="30.5,-1619.5 30.5,-1642.5 328.5,-1642.5 328.5,-1619.5 30.5,-1619.5"/>
<text text-anchor="start" x="34.5" y="-1628.3" font-family="Helvetica,sans-Serif" font-weight="bold" font-size="14.00">StructuralBaySupportsDoorAssembly</text>
<text text-anchor="start" x="34.5" y="-1604.3" font-family="Helvetica,sans-Serif" font-size="14.00">supportPosition : Position</text>
<polygon fill="none" stroke="black" points="29.5,-1595.5 29.5,-1643.5 329.5,-1643.5 329.5,-1595.5 29.5,-1595.5"/>
</g>
<!-- A_StructuralBaySupportsDoorAssembly&#45;&gt;StructuralBay -->
<g id="edge1" class="edge">
<title>A_StructuralBaySupportsDoorAssembly&#45;&gt;StructuralBay</title>
<path fill="none" stroke="#555555" d="M276.86,-1595.44C307.25,-1583.36 338.26,-1565.53 359,-1539.5 461.48,-1410.85 330.02,-1306.32 431,-1176.5 435.83,-1170.28 441.31,-1164.56 447.25,-1159.29"/>
</g>
<!-- A_StructuralBaySupportsDoorAssembly&#45;&gt;DoorAssembly -->
<g id="edge2" class="edge">
<title>A_StructuralBaySupportsDoorAssembly&#45;&gt;DoorAssembly</title>
<path fill="none" stroke="#555555" d="M306.24,-1643.54C349.91,-1651.89 399.22,-1661.31 444.26,-1669.92"/>
</g>
<!-- A_StructuralBaySupportsNurseCallPanel -->
<g id="node16" class="node">
<title>A_StructuralBaySupportsNurseCallPanel</title>
<polygon fill="lightblue" stroke="transparent" points="26.5,-1809.5 26.5,-1832.5 332.5,-1832.5 332.5,-1809.5 26.5,-1809.5"/>
<text text-anchor="start" x="30.5" y="-1818.3" font-family="Helvetica,sans-Serif" font-weight="bold" font-size="14.00">StructuralBaySupportsNurseCallPanel</text>
<text text-anchor="start" x="30.5" y="-1794.3" font-family="Helvetica,sans-Serif" font-size="14.00">supportPosition : Position</text>
<polygon fill="none" stroke="black" points="25.5,-1785.5 25.5,-1833.5 333.5,-1833.5 333.5,-1785.5 25.5,-1785.5"/>
</g>
<!-- A_StructuralBaySupportsNurseCallPanel&#45;&gt;StructuralBay -->
<g id="edge3" class="edge">
<title>A_StructuralBaySupportsNurseCallPanel&#45;&gt;StructuralBay</title>
<path fill="none" stroke="#555555" d="M326.42,-1785.28C338.69,-1778.56 349.87,-1770.11 359,-1759.5 529.24,-1561.55 278.32,-1388.28 431,-1176.5 435.78,-1169.87 441.31,-1163.8 447.37,-1158.25"/>
</g>
<!-- A_StructuralBaySupportsNurseCallPanel&#45;&gt;NurseCallPanel -->
<g id="edge4" class="edge">
<title>A_StructuralBaySupportsNurseCallPanel&#45;&gt;NurseCallPanel</title>
<path fill="none" stroke="#555555" d="M309.27,-1833.63C326.51,-1839.23 343.56,-1846.1 359,-1854.5 397.4,-1875.39 394.78,-1897.02 431,-1921.5 438.88,-1926.83 447.21,-1931.97 455.76,-1936.88"/>
</g>
<!-- A_StructuralBaySupportsPatientMonitorMount -->
<g id="node17" class="node">
<title>A_StructuralBaySupportsPatientMonitorMount</title>
<polygon fill="lightblue" stroke="transparent" points="2.5,-1499.5 2.5,-1522.5 357.5,-1522.5 357.5,-1499.5 2.5,-1499.5"/>
<text text-anchor="start" x="6.5" y="-1508.3" font-family="Helvetica,sans-Serif" font-weight="bold" font-size="14.00">StructuralBaySupportsPatientMonitorMount</text>
<text text-anchor="start" x="6.5" y="-1484.3" font-family="Helvetica,sans-Serif" font-size="14.00">supportPosition : Position</text>
<polygon fill="none" stroke="black" points="1,-1475.5 1,-1523.5 358,-1523.5 358,-1475.5 1,-1475.5"/>
</g>
<!-- A_StructuralBaySupportsPatientMonitorMount&#45;&gt;StructuralBay -->
<g id="edge5" class="edge">
<title>A_StructuralBaySupportsPatientMonitorMount&#45;&gt;StructuralBay</title>
<path fill="none" stroke="#555555" d="M255.31,-1475.42C291.17,-1460.44 332.07,-1437.77 359,-1405.5 427.35,-1323.58 361.01,-1257.03 431,-1176.5 436.07,-1170.67 441.69,-1165.26 447.7,-1160.24"/>
</g>
<!-- A_StructuralBaySupportsPatientMonitorMount&#45;&gt;PatientMonitorMount -->
<g id="edge6" class="edge">
<title>A_StructuralBaySupportsPatientMonitorMount&#45;&gt;PatientMonitorMount</title>
<path fill="none" stroke="#555555" d="M358.27,-1520.85C384.79,-1524.03 411.91,-1527.29 437.8,-1530.4"/>
</g>
<!-- A_StructuralBaySupportsImagingMachine -->
<g id="node18" class="node">
<title>A_StructuralBaySupportsImagingMachine</title>
<polygon fill="lightblue" stroke="transparent" points="22.5,-929.5 22.5,-952.5 337.5,-952.5 337.5,-929.5 22.5,-929.5"/>
<text text-anchor="start" x="26.5" y="-938.3" font-family="Helvetica,sans-Serif" font-weight="bold" font-size="14.00">StructuralBaySupportsImagingMachine</text>
<text text-anchor="start" x="26.5" y="-914.3" font-family="Helvetica,sans-Serif" font-size="14.00">supportPosition : Position</text>
<polygon fill="none" stroke="black" points="21,-905.5 21,-953.5 338,-953.5 338,-905.5 21,-905.5"/>
</g>
<!-- A_StructuralBaySupportsImagingMachine&#45;&gt;StructuralBay -->
<g id="edge7" class="edge">
<title>A_StructuralBaySupportsImagingMachine&#45;&gt;StructuralBay</title>
<path fill="none" stroke="#555555" d="M315.28,-953.63C330.37,-958.32 345.24,-963.89 359,-970.5 395.79,-988.17 396.3,-1006.01 431,-1027.5 439.48,-1032.75 448.38,-1037.87 457.47,-1042.82"/>
</g>
<!-- A_StructuralBaySupportsImagingMachine&#45;&gt;ImagingMachine -->
<g id="edge8" class="edge">
<title>A_StructuralBaySupportsImagingMachine&#45;&gt;ImagingMachine</title>
<path fill="none" stroke="#555555" d="M251.53,-905.43C286.64,-891.05 328,-870.16 359,-842.5 403.43,-802.85 386.39,-768.94 431,-729.5 437.58,-723.68 444.69,-718.22 452.13,-713.11"/>
</g>
<!-- A_StructuralBaySupportsSurgicalLight -->
<g id="node19" class="node">
<title>A_StructuralBaySupportsSurgicalLight</title>
<polygon fill="lightblue" stroke="transparent" points="35.5,-802.5 35.5,-825.5 324.5,-825.5 324.5,-802.5 35.5,-802.5"/>
<text text-anchor="start" x="39.5" y="-811.3" font-family="Helvetica,sans-Serif" font-weight="bold" font-size="14.00">StructuralBaySupportsSurgicalLight</text>
<text text-anchor="start" x="39.5" y="-787.3" font-family="Helvetica,sans-Serif" font-size="14.00">supportPosition : Position</text>
<polygon fill="none" stroke="black" points="34,-778.5 34,-826.5 325,-826.5 325,-778.5 34,-778.5"/>
</g>
<!-- A_StructuralBaySupportsSurgicalLight&#45;&gt;StructuralBay -->
<g id="edge9" class="edge">
<title>A_StructuralBaySupportsSurgicalLight&#45;&gt;StructuralBay</title>
<path fill="none" stroke="#555555" d="M255.21,-826.54C289.98,-840.61 329.97,-861.25 359,-889.5 408.58,-937.74 381.07,-979.61 431,-1027.5 436.67,-1032.94 442.81,-1038.03 449.27,-1042.8"/>
</g>
<!-- A_StructuralBaySupportsSurgicalLight&#45;&gt;SurgicalLight -->
<g id="edge10" class="edge">
<title>A_StructuralBaySupportsSurgicalLight&#45;&gt;SurgicalLight</title>
<path fill="none" stroke="#555555" d="M292.46,-778.44C316.47,-769.29 340.23,-756.72 359,-739.5 416.16,-687.05 376.68,-635.88 431,-580.5 436.73,-574.66 443,-569.22 449.63,-564.16"/>
</g>
<!-- A_StructuralBaySupportsEquipmentBoom -->
<g id="node20" class="node">
<title>A_StructuralBaySupportsEquipmentBoom</title>
<polygon fill="lightblue" stroke="transparent" points="22.5,-521.5 22.5,-544.5 337.5,-544.5 337.5,-521.5 22.5,-521.5"/>
<text text-anchor="start" x="26.5" y="-530.3" font-family="Helvetica,sans-Serif" font-weight="bold" font-size="14.00">StructuralBaySupportsEquipmentBoom</text>
<text text-anchor="start" x="26.5" y="-506.3" font-family="Helvetica,sans-Serif" font-size="14.00">supportPosition : Position</text>
<polygon fill="none" stroke="black" points="21,-497.5 21,-545.5 338,-545.5 338,-497.5 21,-497.5"/>
</g>
<!-- A_StructuralBaySupportsEquipmentBoom&#45;&gt;StructuralBay -->
<g id="edge11" class="edge">
<title>A_StructuralBaySupportsEquipmentBoom&#45;&gt;StructuralBay</title>
<path fill="none" stroke="#555555" d="M331.42,-545.64C341.66,-551.54 351.04,-558.73 359,-567.5 498.06,-720.74 306.85,-861.94 431,-1027.5 435.8,-1033.91 441.3,-1039.78 447.29,-1045.16"/>
</g>
<!-- A_StructuralBaySupportsEquipmentBoom&#45;&gt;EquipmentBoom -->
<g id="edge12" class="edge">
<title>A_StructuralBaySupportsEquipmentBoom&#45;&gt;EquipmentBoom</title>
<path fill="none" stroke="#555555" d="M331.28,-497.28C341.28,-492.11 350.67,-485.92 359,-478.5 428.3,-416.78 368.48,-351.08 431,-282.5 436.3,-276.68 442.16,-271.27 448.39,-266.24"/>
</g>
<!-- A_StructuralBaySupportsHandwashSink -->
<g id="node21" class="node">
<title>A_StructuralBaySupportsHandwashSink</title>
<polygon fill="lightblue" stroke="transparent" points="29.5,-1365.5 29.5,-1388.5 330.5,-1388.5 330.5,-1365.5 29.5,-1365.5"/>
<text text-anchor="start" x="33.5" y="-1374.3" font-family="Helvetica,sans-Serif" font-weight="bold" font-size="14.00">StructuralBaySupportsHandwashSink</text>
<text text-anchor="start" x="33.5" y="-1350.3" font-family="Helvetica,sans-Serif" font-size="14.00">supportPosition : Position</text>
<polygon fill="none" stroke="black" points="28,-1341.5 28,-1389.5 331,-1389.5 331,-1341.5 28,-1341.5"/>
</g>
<!-- A_StructuralBaySupportsHandwashSink&#45;&gt;StructuralBay -->
<g id="edge13" class="edge">
<title>A_StructuralBaySupportsHandwashSink&#45;&gt;StructuralBay</title>
<path fill="none" stroke="#555555" d="M266.34,-1341.47C297.86,-1329.7 332.32,-1313.09 359,-1290.5 404.73,-1251.77 386.18,-1216.28 431,-1176.5 437.57,-1170.67 444.67,-1165.2 452.1,-1160.08"/>
</g>
<!-- A_StructuralBaySupportsHandwashSink&#45;&gt;HandwashSink -->
<g id="edge14" class="edge">
<title>A_StructuralBaySupportsHandwashSink&#45;&gt;HandwashSink</title>
<path fill="none" stroke="#555555" d="M331.26,-1378.06C368.72,-1381.18 408.75,-1384.52 445.8,-1387.61"/>
</g>
<!-- A_StructuralBaySupportsAirHandlingTerminal -->
<g id="node22" class="node">
<title>A_StructuralBaySupportsAirHandlingTerminal</title>
<polygon fill="lightblue" stroke="transparent" points="7.5,-1250.5 7.5,-1273.5 352.5,-1273.5 352.5,-1250.5 7.5,-1250.5"/>
<text text-anchor="start" x="11.5" y="-1259.3" font-family="Helvetica,sans-Serif" font-weight="bold" font-size="14.00">StructuralBaySupportsAirHandlingTerminal</text>
<text text-anchor="start" x="11.5" y="-1235.3" font-family="Helvetica,sans-Serif" font-size="14.00">supportPosition : Position</text>
<polygon fill="none" stroke="black" points="6,-1226.5 6,-1274.5 353,-1274.5 353,-1226.5 6,-1226.5"/>
</g>
<!-- A_StructuralBaySupportsAirHandlingTerminal&#45;&gt;StructuralBay -->
<g id="edge15" class="edge">
<title>A_StructuralBaySupportsAirHandlingTerminal&#45;&gt;StructuralBay</title>
<path fill="none" stroke="#555555" d="M304.89,-1226.38C323.22,-1221.75 341.74,-1216.45 359,-1210.5 360.58,-1209.96 411.93,-1185.58 465.66,-1160.01"/>
</g>
<!-- A_StructuralBaySupportsAirHandlingTerminal&#45;&gt;AirHandlingTerminal -->
<g id="edge16" class="edge">
<title>A_StructuralBaySupportsAirHandlingTerminal&#45;&gt;AirHandlingTerminal</title>
<path fill="none" stroke="#555555" d="M353.23,-1250.5C379.31,-1250.5 406.09,-1250.5 431.81,-1250.5"/>
</g>
<!-- A_StructuralBaySupportsMedicalGasPanel -->
<g id="node23" class="node">
<title>A_StructuralBaySupportsMedicalGasPanel</title>
<polygon fill="lightblue" stroke="transparent" points="19.5,-438.5 19.5,-461.5 339.5,-461.5 339.5,-438.5 19.5,-438.5"/>
<text text-anchor="start" x="23.5" y="-447.3" font-family="Helvetica,sans-Serif" font-weight="bold" font-size="14.00">StructuralBaySupportsMedicalGasPanel</text>
<text text-anchor="start" x="23.5" y="-423.3" font-family="Helvetica,sans-Serif" font-size="14.00">supportPosition : Position</text>
<polygon fill="none" stroke="black" points="18.5,-414.5 18.5,-462.5 340.5,-462.5 340.5,-414.5 18.5,-414.5"/>
</g>
<!-- A_StructuralBaySupportsMedicalGasPanel&#45;&gt;StructuralBay -->
<g id="edge17" class="edge">
<title>A_StructuralBaySupportsMedicalGasPanel&#45;&gt;StructuralBay</title>
<path fill="none" stroke="#555555" d="M336.46,-462.74C344.76,-467.96 352.39,-474.15 359,-481.5 522.73,-663.44 286.53,-829.91 431,-1027.5 435.81,-1034.08 441.37,-1040.1 447.44,-1045.6"/>
</g>
<!-- A_StructuralBaySupportsMedicalGasPanel&#45;&gt;MedicalGasPanel -->
<g id="edge18" class="edge">
<title>A_StructuralBaySupportsMedicalGasPanel&#45;&gt;MedicalGasPanel</title>
<path fill="none" stroke="#555555" d="M336.55,-414.27C344.66,-409.55 352.24,-404 359,-397.5 446.99,-312.92 352.52,-225.97 431,-132.5 435.57,-127.06 440.62,-122 446.03,-117.29"/>
</g>
<!-- A_StructuralBaySupportsCircuitBreakerPanel -->
<g id="node24" class="node">
<title>A_StructuralBaySupportsCircuitBreakerPanel</title>
<polygon fill="lightblue" stroke="transparent" points="8.5,-699.5 8.5,-722.5 351.5,-722.5 351.5,-699.5 8.5,-699.5"/>
<text text-anchor="start" x="12.5" y="-708.3" font-family="Helvetica,sans-Serif" font-weight="bold" font-size="14.00">StructuralBaySupportsCircuitBreakerPanel</text>
<text text-anchor="start" x="12.5" y="-684.3" font-family="Helvetica,sans-Serif" font-size="14.00">supportPosition : Position</text>
<polygon fill="none" stroke="black" points="7,-675.5 7,-723.5 352,-723.5 352,-675.5 7,-675.5"/>
</g>
<!-- A_StructuralBaySupportsCircuitBreakerPanel&#45;&gt;StructuralBay -->
<g id="edge19" class="edge">
<title>A_StructuralBaySupportsCircuitBreakerPanel&#45;&gt;StructuralBay</title>
<path fill="none" stroke="#555555" d="M300.09,-723.67C322.03,-732.77 343.01,-745.28 359,-762.5 442.05,-851.93 352.52,-934.03 431,-1027.5 435.95,-1033.4 441.48,-1038.86 447.42,-1043.91"/>
</g>
<!-- A_StructuralBaySupportsCircuitBreakerPanel&#45;&gt;CircuitBreakerPanel -->
<g id="edge20" class="edge">
<title>A_StructuralBaySupportsCircuitBreakerPanel&#45;&gt;CircuitBreakerPanel</title>
<path fill="none" stroke="#555555" d="M316.41,-675.44C332.08,-668.37 346.79,-659.25 359,-647.5 431.91,-577.33 363.97,-507.31 431,-431.5 436.22,-425.6 442,-420.13 448.18,-415.05"/>
</g>
<!-- A_StructuralBaySupportsServerRack -->
<g id="node25" class="node">
<title>A_StructuralBaySupportsServerRack</title>
<polygon fill="lightblue" stroke="transparent" points="41.5,-1719.5 41.5,-1742.5 317.5,-1742.5 317.5,-1719.5 41.5,-1719.5"/>
<text text-anchor="start" x="45.5" y="-1728.3" font-family="Helvetica,sans-Serif" font-weight="bold" font-size="14.00">StructuralBaySupportsServerRack</text>
<text text-anchor="start" x="45.5" y="-1704.3" font-family="Helvetica,sans-Serif" font-size="14.00">supportPosition : Position</text>
<polygon fill="none" stroke="black" points="40.5,-1695.5 40.5,-1743.5 318.5,-1743.5 318.5,-1695.5 40.5,-1695.5"/>
</g>
<!-- A_StructuralBaySupportsServerRack&#45;&gt;StructuralBay -->
<g id="edge21" class="edge">
<title>A_StructuralBaySupportsServerRack&#45;&gt;StructuralBay</title>
<path fill="none" stroke="#555555" d="M309.79,-1695.33C328.53,-1686.76 345.88,-1675.16 359,-1659.5 498.36,-1493.12 301.88,-1350.95 431,-1176.5 435.77,-1170.05 441.25,-1164.13 447.23,-1158.7"/>
</g>
<!-- A_StructuralBaySupportsServerRack&#45;&gt;ServerRack -->
<g id="edge22" class="edge">
<title>A_StructuralBaySupportsServerRack&#45;&gt;ServerRack</title>
<path fill="none" stroke="#555555" d="M269.74,-1743.54C298.34,-1751.5 330.09,-1760.61 359,-1769.5 387.02,-1778.12 416.81,-1787.76 445.32,-1797.22"/>
</g>
<!-- A_StructuralBaySupportsSterileCabinet -->
<g id="node26" class="node">
<title>A_StructuralBaySupportsSterileCabinet</title>
<polygon fill="lightblue" stroke="transparent" points="30.5,-1090.5 30.5,-1113.5 329.5,-1113.5 329.5,-1090.5 30.5,-1090.5"/>
<text text-anchor="start" x="34.5" y="-1099.3" font-family="Helvetica,sans-Serif" font-weight="bold" font-size="14.00">StructuralBaySupportsSterileCabinet</text>
<text text-anchor="start" x="34.5" y="-1075.3" font-family="Helvetica,sans-Serif" font-size="14.00">supportPosition : Position</text>
<polygon fill="none" stroke="black" points="29,-1066.5 29,-1114.5 330,-1114.5 330,-1066.5 29,-1066.5"/>
</g>
<!-- A_StructuralBaySupportsSterileCabinet&#45;&gt;StructuralBay -->
<g id="edge23" class="edge">
<title>A_StructuralBaySupportsSterileCabinet&#45;&gt;StructuralBay</title>
<path fill="none" stroke="#555555" d="M330.11,-1094.53C368.43,-1095.57 409.51,-1096.67 447.39,-1097.7"/>
</g>
<!-- A_StructuralBaySupportsSterileCabinet&#45;&gt;SterileCabinet -->
<g id="edge24" class="edge">
<title>A_StructuralBaySupportsSterileCabinet&#45;&gt;SterileCabinet</title>
<path fill="none" stroke="#555555" d="M301.81,-1066.47C321.1,-1061.74 340.71,-1056.4 359,-1050.5 393.33,-1039.43 429.6,-1025.19 462.92,-1011.02"/>
</g>
<!-- A_StructuralBaySupportsWasteBin -->
<g id="node27" class="node">
<title>A_StructuralBaySupportsWasteBin</title>
<polygon fill="lightblue" stroke="transparent" points="49.5,-1010.5 49.5,-1033.5 310.5,-1033.5 310.5,-1010.5 49.5,-1010.5"/>
<text text-anchor="start" x="53.5" y="-1019.3" font-family="Helvetica,sans-Serif" font-weight="bold" font-size="14.00">StructuralBaySupportsWasteBin</text>
<text text-anchor="start" x="53.5" y="-995.3" font-family="Helvetica,sans-Serif" font-size="14.00">supportPosition : Position</text>
<polygon fill="none" stroke="black" points="48,-986.5 48,-1034.5 311,-1034.5 311,-986.5 48,-986.5"/>
</g>
<!-- A_StructuralBaySupportsWasteBin&#45;&gt;StructuralBay -->
<g id="edge25" class="edge">
<title>A_StructuralBaySupportsWasteBin&#45;&gt;StructuralBay</title>
<path fill="none" stroke="#555555" d="M288.23,-1034.53C336.98,-1045.4 395.25,-1058.4 447.44,-1070.04"/>
</g>
<!-- A_StructuralBaySupportsWasteBin&#45;&gt;WasteBin -->
<g id="edge26" class="edge">
<title>A_StructuralBaySupportsWasteBin&#45;&gt;WasteBin</title>
<path fill="none" stroke="#555555" d="M311.41,-991.34C328.15,-985.8 344.49,-978.67 359,-969.5 402.6,-941.95 390.67,-910.64 431,-878.5 438.22,-872.74 445.96,-867.29 453.99,-862.16"/>
</g>
<!-- A_CircuitBreakerPanelPowersImagingMachine -->
<g id="node28" class="node">
<title>A_CircuitBreakerPanelPowersImagingMachine</title>
<polygon fill="lightblue" stroke="transparent" points="3.5,-607.5 3.5,-630.5 355.5,-630.5 355.5,-607.5 3.5,-607.5"/>
<text text-anchor="start" x="7.5" y="-616.3" font-family="Helvetica,sans-Serif" font-weight="bold" font-size="14.00">CircuitBreakerPanelPowersImagingMachine</text>
<text text-anchor="start" x="7.5" y="-592.3" font-family="Helvetica,sans-Serif" font-size="14.00">suppliedPower : Power</text>
<polygon fill="none" stroke="black" points="2.5,-583.5 2.5,-631.5 356.5,-631.5 356.5,-583.5 2.5,-583.5"/>
</g>
<!-- A_CircuitBreakerPanelPowersImagingMachine&#45;&gt;ImagingMachine -->
<g id="edge28" class="edge">
<title>A_CircuitBreakerPanelPowersImagingMachine&#45;&gt;ImagingMachine</title>
<path fill="none" stroke="#555555" d="M356.79,-627.81C381.46,-630.65 406.69,-633.56 430.99,-636.36"/>
</g>
<!-- A_CircuitBreakerPanelPowersImagingMachine&#45;&gt;CircuitBreakerPanel -->
<g id="edge27" class="edge">
<title>A_CircuitBreakerPanelPowersImagingMachine&#45;&gt;CircuitBreakerPanel</title>
<path fill="none" stroke="#555555" d="M320.73,-583.42C334.42,-577.61 347.48,-570.41 359,-561.5 411.23,-521.08 382.89,-476.75 431,-431.5 437.18,-425.69 443.89,-420.25 450.94,-415.18"/>
</g>
<!-- A_CircuitBreakerPanelPowersSurgicalLight -->
<g id="node29" class="node">
<title>A_CircuitBreakerPanelPowersSurgicalLight</title>
<polygon fill="lightblue" stroke="transparent" points="16.5,-357.5 16.5,-380.5 342.5,-380.5 342.5,-357.5 16.5,-357.5"/>
<text text-anchor="start" x="20.5" y="-366.3" font-family="Helvetica,sans-Serif" font-weight="bold" font-size="14.00">CircuitBreakerPanelPowersSurgicalLight</text>
<text text-anchor="start" x="20.5" y="-342.3" font-family="Helvetica,sans-Serif" font-size="14.00">suppliedPower : Power</text>
<polygon fill="none" stroke="black" points="15.5,-333.5 15.5,-381.5 343.5,-381.5 343.5,-333.5 15.5,-333.5"/>
</g>
<!-- A_CircuitBreakerPanelPowersSurgicalLight&#45;&gt;SurgicalLight -->
<g id="edge30" class="edge">
<title>A_CircuitBreakerPanelPowersSurgicalLight&#45;&gt;SurgicalLight</title>
<path fill="none" stroke="#555555" d="M301.02,-381.53C320.6,-386.48 340.51,-392.14 359,-398.5 362.08,-399.56 411.48,-422.56 463.66,-446.97"/>
</g>
<!-- A_CircuitBreakerPanelPowersSurgicalLight&#45;&gt;CircuitBreakerPanel -->
<g id="edge29" class="edge">
<title>A_CircuitBreakerPanelPowersSurgicalLight&#45;&gt;CircuitBreakerPanel</title>
<path fill="none" stroke="#555555" d="M343.51,-357.1C375.81,-357.02 409.53,-356.94 441.27,-356.86"/>
</g>
<!-- A_MedicalGasPanelServesEquipmentBoom -->
<g id="node30" class="node">
<title>A_MedicalGasPanelServesEquipmentBoom</title>
<polygon fill="lightblue" stroke="transparent" points="17.5,-132.5 17.5,-155.5 341.5,-155.5 341.5,-132.5 17.5,-132.5"/>
<text text-anchor="start" x="21.5" y="-141.3" font-family="Helvetica,sans-Serif" font-weight="bold" font-size="14.00">MedicalGasPanelServesEquipmentBoom</text>
<text text-anchor="start" x="21.5" y="-117.3" font-family="Helvetica,sans-Serif" font-size="14.00">gasFlowState : OperationalState</text>
<polygon fill="none" stroke="black" points="16.5,-108.5 16.5,-156.5 342.5,-156.5 342.5,-108.5 16.5,-108.5"/>
</g>
<!-- A_MedicalGasPanelServesEquipmentBoom&#45;&gt;EquipmentBoom -->
<g id="edge32" class="edge">
<title>A_MedicalGasPanelServesEquipmentBoom&#45;&gt;EquipmentBoom</title>
<path fill="none" stroke="#555555" d="M311.28,-156.54C352.53,-164.12 398.4,-172.55 440.75,-180.34"/>
</g>
<!-- A_MedicalGasPanelServesEquipmentBoom&#45;&gt;MedicalGasPanel -->
<g id="edge31" class="edge">
<title>A_MedicalGasPanelServesEquipmentBoom&#45;&gt;MedicalGasPanel</title>
<path fill="none" stroke="#555555" d="M312.97,-108.47C353.92,-101.05 399.27,-92.82 441.17,-85.22"/>
</g>
<!-- A_AirHandlingTerminalConditionsStructuralBay -->
<g id="node31" class="node">
<title>A_AirHandlingTerminalConditionsStructuralBay</title>
<polygon fill="lightblue" stroke="transparent" points="1.5,-1170.5 1.5,-1193.5 358.5,-1193.5 358.5,-1170.5 1.5,-1170.5"/>
<text text-anchor="start" x="5.5" y="-1179.3" font-family="Helvetica,sans-Serif" font-weight="bold" font-size="14.00">AirHandlingTerminalConditionsStructuralBay</text>
<text text-anchor="start" x="5.5" y="-1155.3" font-family="Helvetica,sans-Serif" font-size="14.00">airFlowRate : MassFlowRate</text>
<polygon fill="none" stroke="black" points="0,-1146.5 0,-1194.5 359,-1194.5 359,-1146.5 0,-1146.5"/>
</g>
<!-- A_AirHandlingTerminalConditionsStructuralBay&#45;&gt;StructuralBay -->
<g id="edge34" class="edge">
<title>A_AirHandlingTerminalConditionsStructuralBay&#45;&gt;StructuralBay</title>
<path fill="none" stroke="#555555" d="M322.63,-1146.46C362.99,-1139.64 406.92,-1132.21 447.23,-1125.39"/>
</g>
<!-- A_AirHandlingTerminalConditionsStructuralBay&#45;&gt;AirHandlingTerminal -->
<g id="edge33" class="edge">
<title>A_AirHandlingTerminalConditionsStructuralBay&#45;&gt;AirHandlingTerminal</title>
<path fill="none" stroke="#555555" d="M302.91,-1194.5C343.4,-1202.44 389.03,-1211.39 431.73,-1219.76"/>
</g>
<!-- A_ServerRackSupportsNurseCallPanel -->
<g id="node32" class="node">
<title>A_ServerRackSupportsNurseCallPanel</title>
<polygon fill="lightblue" stroke="transparent" points="35.5,-1894.5 35.5,-1917.5 323.5,-1917.5 323.5,-1894.5 35.5,-1894.5"/>
<text text-anchor="start" x="39.5" y="-1903.3" font-family="Helvetica,sans-Serif" font-weight="bold" font-size="14.00">ServerRackSupportsNurseCallPanel</text>
<text text-anchor="start" x="39.5" y="-1879.3" font-family="Helvetica,sans-Serif" font-size="14.00">connectivityState : OperationalState</text>
<polygon fill="none" stroke="black" points="34.5,-1870.5 34.5,-1918.5 324.5,-1918.5 324.5,-1870.5 34.5,-1870.5"/>
</g>
<!-- A_ServerRackSupportsNurseCallPanel&#45;&gt;NurseCallPanel -->
<g id="edge36" class="edge">
<title>A_ServerRackSupportsNurseCallPanel&#45;&gt;NurseCallPanel</title>
<path fill="none" stroke="#555555" d="M277.71,-1918.56C326.62,-1930.67 386.93,-1945.6 441.37,-1959.08"/>
</g>
<!-- A_ServerRackSupportsNurseCallPanel&#45;&gt;ServerRack -->
<g id="edge35" class="edge">
<title>A_ServerRackSupportsNurseCallPanel&#45;&gt;ServerRack</title>
<path fill="none" stroke="#555555" d="M324.63,-1877.54C363.85,-1872.93 406.3,-1867.94 445.46,-1863.33"/>
</g>
</g>
</svg>
