<?xml version="1.0" encoding="UTF-8" standalone="no"?>
<!DOCTYPE svg PUBLIC "-//W3C//DTD SVG 1.1//EN"
 "http://www.w3.org/Graphics/SVG/1.1/DTD/svg11.dtd">
<!-- Generated by graphviz version 14.1.3 (20260303.0454)
 -->
<!-- Title: ontology Pages: 1 -->
<svg width="1471pt" height="1032pt"
 viewBox="0.00 0.00 1471.00 1032.00" xmlns="http://www.w3.org/2000/svg" xmlns:xlink="http://www.w3.org/1999/xlink">
<g id="graph0" class="graph" transform="scale(1 1) rotate(0) translate(4 1027.88)">
<title>ontology</title>
<polygon fill="white" stroke="none" points="-4,4 -4,-1027.88 1467,-1027.88 1467,4 -4,4"/>
<g id="clust1" class="cluster">
<title>cluster_legend</title>
<polygon fill="white" stroke="#bbbbbb" points="8,-399.88 8,-1015.88 204.25,-1015.88 204.25,-399.88 8,-399.88"/>
<text xml:space="preserve" text-anchor="middle" x="106.12" y="-998.58" font-family="Helvetica,sans-Serif" font-size="14.00">Legend</text>
</g>
<!-- entity_E001__in__message_101 -->
<g id="node1" class="node">
<title>entity_E001__in__message_101</title>
<path fill="#72b7b2" stroke="#333333" d="M576.75,-389.75C576.75,-389.75 299.75,-389.75 299.75,-389.75 293.75,-389.75 287.75,-383.75 287.75,-377.75 287.75,-377.75 287.75,-324 287.75,-324 287.75,-318 293.75,-312 299.75,-312 299.75,-312 576.75,-312 576.75,-312 582.75,-312 588.75,-318 588.75,-324 588.75,-324 588.75,-377.75 588.75,-377.75 588.75,-383.75 582.75,-389.75 576.75,-389.75"/>
<polygon fill="#72b7b2" stroke="none" points="296.75,-365 296.75,-384.75 579.75,-384.75 579.75,-365 296.75,-365"/>
<text xml:space="preserve" text-anchor="start" x="335.5" y="-370.45" font-family="Helvetica,sans-Serif" font-weight="bold" font-size="14.00" fill="#111111">entity_E001__in__message_101</text>
<text xml:space="preserve" text-anchor="start" x="298.75" y="-353.25" font-family="Helvetica,sans-Serif" font-size="10.00" fill="#111111">type: ConceptualEntity</text>
<text xml:space="preserve" text-anchor="start" x="298.75" y="-337.25" font-family="Helvetica,sans-Serif" font-size="10.00" fill="#111111">hasEntityId: E001</text>
<text xml:space="preserve" text-anchor="start" x="298.75" y="-321.25" font-family="Helvetica,sans-Serif" font-size="10.00" fill="#111111">hasUsageContext: Reports vehicle inertial state inclu[truncated]</text>
<polygon fill="none" stroke="#333333" points="295.75,-316 295.75,-385.75 580.75,-385.75 580.75,-316 295.75,-316"/>
</g>
<!-- field_0101_01__Time_Stamp__in__entity_E001_in_message_101 -->
<g id="node2" class="node">
<title>field_0101_01__Time_Stamp__in__entity_E001_in_message_101</title>
<path fill="#f58518" stroke="#333333" d="M1102.75,-629.75C1102.75,-629.75 687.75,-629.75 687.75,-629.75 681.75,-629.75 675.75,-623.75 675.75,-617.75 675.75,-617.75 675.75,-532 675.75,-532 675.75,-526 681.75,-520 687.75,-520 687.75,-520 1102.75,-520 1102.75,-520 1108.75,-520 1114.75,-526 1114.75,-532 1114.75,-532 1114.75,-617.75 1114.75,-617.75 1114.75,-623.75 1108.75,-629.75 1102.75,-629.75"/>
<polygon fill="#f58518" stroke="none" points="684.75,-605 684.75,-624.75 1105.75,-624.75 1105.75,-605 684.75,-605"/>
<text xml:space="preserve" text-anchor="start" x="686.75" y="-610.45" font-family="Helvetica,sans-Serif" font-weight="bold" font-size="14.00" fill="#111111">field_0101_01__Time_Stamp__in__entity_E001_in_message_101</text>
<text xml:space="preserve" text-anchor="start" x="686.75" y="-593.25" font-family="Helvetica,sans-Serif" font-size="10.00" fill="#111111">type: Field</text>
<text xml:space="preserve" text-anchor="start" x="686.75" y="-577.25" font-family="Helvetica,sans-Serif" font-size="10.00" fill="#111111">hasFieldId: 0101.01</text>
<text xml:space="preserve" text-anchor="start" x="686.75" y="-561.25" font-family="Helvetica,sans-Serif" font-size="10.00" fill="#111111">hasFieldName: Time Stamp</text>
<text xml:space="preserve" text-anchor="start" x="686.75" y="-545.25" font-family="Helvetica,sans-Serif" font-size="10.00" fill="#111111">referencesEntityId: E001</text>
<text xml:space="preserve" text-anchor="start" x="686.75" y="-529.25" font-family="Helvetica,sans-Serif" font-size="10.00" fill="#111111">isRequired: true</text>
<polygon fill="none" stroke="#333333" points="683.75,-524 683.75,-625.75 1106.75,-625.75 1106.75,-524 683.75,-524"/>
</g>
<!-- entity_E001__in__message_101&#45;&gt;field_0101_01__Time_Stamp__in__entity_E001_in_message_101 -->
<g id="edge2" class="edge">
<title>entity_E001__in__message_101&#45;&gt;field_0101_01__Time_Stamp__in__entity_E001_in_message_101</title>
<path fill="none" stroke="#ff7f0e" stroke-width="1.8" d="M519.03,-390.15C589.21,-424.7 692.45,-475.53 772.88,-515.12"/>
<polygon fill="#ff7f0e" stroke="#ff7f0e" stroke-width="1.8" points="771.21,-517.42 779.63,-518.45 773.69,-512.4 771.21,-517.42"/>
<text xml:space="preserve" text-anchor="middle" x="632.25" y="-458.61" font-family="Helvetica,sans-Serif" font-size="14.00" fill="#ff7f0e">hasField</text>
</g>
<!-- field_0101_02__Speed__in__entity_E001_in_message_101 -->
<g id="node3" class="node">
<title>field_0101_02__Speed__in__entity_E001_in_message_101</title>
<path fill="#f58518" stroke="#333333" d="M1082.12,-397.75C1082.12,-397.75 708.38,-397.75 708.38,-397.75 702.38,-397.75 696.38,-391.75 696.38,-385.75 696.38,-385.75 696.38,-316 696.38,-316 696.38,-310 702.38,-304 708.38,-304 708.38,-304 1082.12,-304 1082.12,-304 1088.12,-304 1094.12,-310 1094.12,-316 1094.12,-316 1094.12,-385.75 1094.12,-385.75 1094.12,-391.75 1088.12,-397.75 1082.12,-397.75"/>
<polygon fill="#f58518" stroke="none" points="705.38,-373 705.38,-392.75 1085.12,-392.75 1085.12,-373 705.38,-373"/>
<text xml:space="preserve" text-anchor="start" x="707.38" y="-378.45" font-family="Helvetica,sans-Serif" font-weight="bold" font-size="14.00" fill="#111111">field_0101_02__Speed__in__entity_E001_in_message_101</text>
<text xml:space="preserve" text-anchor="start" x="707.38" y="-361.25" font-family="Helvetica,sans-Serif" font-size="10.00" fill="#111111">type: Field</text>
<text xml:space="preserve" text-anchor="start" x="707.38" y="-345.25" font-family="Helvetica,sans-Serif" font-size="10.00" fill="#111111">hasFieldId: 0101.02</text>
<text xml:space="preserve" text-anchor="start" x="707.38" y="-329.25" font-family="Helvetica,sans-Serif" font-size="10.00" fill="#111111">hasFieldName: Speed</text>
<text xml:space="preserve" text-anchor="start" x="707.38" y="-313.25" font-family="Helvetica,sans-Serif" font-size="10.00" fill="#111111">referencesEntityId: E001</text>
<polygon fill="none" stroke="#333333" points="704.38,-308 704.38,-393.75 1086.12,-393.75 1086.12,-308 704.38,-308"/>
</g>
<!-- entity_E001__in__message_101&#45;&gt;field_0101_02__Speed__in__entity_E001_in_message_101 -->
<g id="edge8" class="edge">
<title>entity_E001__in__message_101&#45;&gt;field_0101_02__Speed__in__entity_E001_in_message_101</title>
<path fill="none" stroke="#ff7f0e" stroke-width="1.8" d="M589.18,-350.88C620.02,-350.88 653.02,-350.88 685.51,-350.88"/>
<polygon fill="#ff7f0e" stroke="#ff7f0e" stroke-width="1.8" points="685.31,-353.68 693.31,-350.88 685.31,-348.08 685.31,-353.68"/>
<text xml:space="preserve" text-anchor="middle" x="632.25" y="-353.32" font-family="Helvetica,sans-Serif" font-size="14.00" fill="#ff7f0e">hasField</text>
</g>
<!-- field_0101_03__Mode__in__entity_E001_in_message_101 -->
<g id="node4" class="node">
<title>field_0101_03__Mode__in__entity_E001_in_message_101</title>
<path fill="#f58518" stroke="#333333" d="M1079.88,-197.75C1079.88,-197.75 710.62,-197.75 710.62,-197.75 704.62,-197.75 698.62,-191.75 698.62,-185.75 698.62,-185.75 698.62,-116 698.62,-116 698.62,-110 704.62,-104 710.62,-104 710.62,-104 1079.88,-104 1079.88,-104 1085.88,-104 1091.88,-110 1091.88,-116 1091.88,-116 1091.88,-185.75 1091.88,-185.75 1091.88,-191.75 1085.88,-197.75 1079.88,-197.75"/>
<polygon fill="#f58518" stroke="none" points="707.62,-173 707.62,-192.75 1082.88,-192.75 1082.88,-173 707.62,-173"/>
<text xml:space="preserve" text-anchor="start" x="709.62" y="-178.45" font-family="Helvetica,sans-Serif" font-weight="bold" font-size="14.00" fill="#111111">field_0101_03__Mode__in__entity_E001_in_message_101</text>
<text xml:space="preserve" text-anchor="start" x="709.62" y="-161.25" font-family="Helvetica,sans-Serif" font-size="10.00" fill="#111111">type: Field</text>
<text xml:space="preserve" text-anchor="start" x="709.62" y="-145.25" font-family="Helvetica,sans-Serif" font-size="10.00" fill="#111111">hasFieldId: 0101.03</text>
<text xml:space="preserve" text-anchor="start" x="709.62" y="-129.25" font-family="Helvetica,sans-Serif" font-size="10.00" fill="#111111">hasFieldName: Mode</text>
<text xml:space="preserve" text-anchor="start" x="709.62" y="-113.25" font-family="Helvetica,sans-Serif" font-size="10.00" fill="#111111">referencesEntityId: E001</text>
<polygon fill="none" stroke="#333333" points="706.62,-108 706.62,-193.75 1083.88,-193.75 1083.88,-108 706.62,-108"/>
</g>
<!-- entity_E001__in__message_101&#45;&gt;field_0101_03__Mode__in__entity_E001_in_message_101 -->
<g id="edge12" class="edge">
<title>entity_E001__in__message_101&#45;&gt;field_0101_03__Mode__in__entity_E001_in_message_101</title>
<path fill="none" stroke="#ff7f0e" stroke-width="1.8" d="M528.6,-311.6C599.58,-280.4 699.44,-236.5 776.87,-202.47"/>
<polygon fill="#ff7f0e" stroke="#ff7f0e" stroke-width="1.8" points="777.99,-205.04 784.19,-199.25 775.74,-199.91 777.99,-205.04"/>
<text xml:space="preserve" text-anchor="middle" x="632.25" y="-277.12" font-family="Helvetica,sans-Serif" font-size="14.00" fill="#ff7f0e">hasField</text>
</g>
<!-- measurement_M045 -->
<g id="node5" class="node">
<title>measurement_M045</title>
<path fill="#e45756" stroke="#333333" d="M1424.38,-733.75C1424.38,-733.75 1295.12,-733.75 1295.12,-733.75 1289.12,-733.75 1283.12,-727.75 1283.12,-721.75 1283.12,-721.75 1283.12,-684 1283.12,-684 1283.12,-678 1289.12,-672 1295.12,-672 1295.12,-672 1424.38,-672 1424.38,-672 1430.38,-672 1436.38,-678 1436.38,-684 1436.38,-684 1436.38,-721.75 1436.38,-721.75 1436.38,-727.75 1430.38,-733.75 1424.38,-733.75"/>
<polygon fill="#e45756" stroke="none" points="1292.12,-709 1292.12,-728.75 1427.38,-728.75 1427.38,-709 1292.12,-709"/>
<text xml:space="preserve" text-anchor="start" x="1294.12" y="-714.45" font-family="Helvetica,sans-Serif" font-weight="bold" font-size="14.00" fill="#111111">measurement_M045</text>
<text xml:space="preserve" text-anchor="start" x="1294.12" y="-697.25" font-family="Helvetica,sans-Serif" font-size="10.00" fill="#111111">type: Measurement</text>
<text xml:space="preserve" text-anchor="start" x="1294.12" y="-681.25" font-family="Helvetica,sans-Serif" font-size="10.00" fill="#111111">hasMeasurementId: M045</text>
<polygon fill="none" stroke="#333333" points="1291.12,-676 1291.12,-729.75 1428.38,-729.75 1428.38,-676 1291.12,-676"/>
</g>
<!-- field_0101_01__Time_Stamp__in__entity_E001_in_message_101&#45;&gt;measurement_M045 -->
<g id="edge4" class="edge">
<title>field_0101_01__Time_Stamp__in__entity_E001_in_message_101&#45;&gt;measurement_M045</title>
<path fill="none" stroke="#d62728" stroke-width="1.8" d="M1096.08,-630.18C1157.91,-647.29 1222.79,-665.25 1272.6,-679.03"/>
<polygon fill="#d62728" stroke="#d62728" stroke-width="1.8" points="1271.59,-681.66 1280.05,-681.09 1273.08,-676.26 1271.59,-681.66"/>
<text xml:space="preserve" text-anchor="middle" x="1185.62" y="-671" font-family="Helvetica,sans-Serif" font-size="14.00" fill="#d62728">hasMeasurement</text>
</g>
<!-- observable_0008 -->
<g id="node7" class="node">
<title>observable_0008</title>
<path fill="#54a24b" stroke="#333333" d="M1413.12,-653.75C1413.12,-653.75 1306.38,-653.75 1306.38,-653.75 1300.38,-653.75 1294.38,-647.75 1294.38,-641.75 1294.38,-641.75 1294.38,-604 1294.38,-604 1294.38,-598 1300.38,-592 1306.38,-592 1306.38,-592 1413.12,-592 1413.12,-592 1419.12,-592 1425.12,-598 1425.12,-604 1425.12,-604 1425.12,-641.75 1425.12,-641.75 1425.12,-647.75 1419.12,-653.75 1413.12,-653.75"/>
<polygon fill="#54a24b" stroke="none" points="1303.38,-629 1303.38,-648.75 1416.12,-648.75 1416.12,-629 1303.38,-629"/>
<text xml:space="preserve" text-anchor="start" x="1305.38" y="-634.45" font-family="Helvetica,sans-Serif" font-weight="bold" font-size="14.00" fill="#111111">observable_0008</text>
<text xml:space="preserve" text-anchor="start" x="1305.38" y="-617.25" font-family="Helvetica,sans-Serif" font-size="10.00" fill="#111111">type: Observable</text>
<text xml:space="preserve" text-anchor="start" x="1305.38" y="-601.25" font-family="Helvetica,sans-Serif" font-size="10.00" fill="#111111">hasObservableId: 0008</text>
<polygon fill="none" stroke="#333333" points="1302.38,-596 1302.38,-649.75 1417.12,-649.75 1417.12,-596 1302.38,-596"/>
</g>
<!-- field_0101_01__Time_Stamp__in__entity_E001_in_message_101&#45;&gt;observable_0008 -->
<g id="edge3" class="edge">
<title>field_0101_01__Time_Stamp__in__entity_E001_in_message_101&#45;&gt;observable_0008</title>
<path fill="none" stroke="#2ca02c" stroke-width="1.8" d="M1114.97,-597.57C1175.57,-603.86 1237.31,-610.27 1283.5,-615.07"/>
<polygon fill="#2ca02c" stroke="#2ca02c" stroke-width="1.8" points="1283.05,-617.83 1291.29,-615.87 1283.62,-612.26 1283.05,-617.83"/>
<text xml:space="preserve" text-anchor="middle" x="1185.62" y="-612.45" font-family="Helvetica,sans-Serif" font-size="14.00" fill="#2ca02c">hasObservable</text>
</g>
<!-- platform_type_Double -->
<g id="node8" class="node">
<title>platform_type_Double</title>
<path fill="#9d755d" stroke="#333333" d="M1430.38,-461.75C1430.38,-461.75 1289.12,-461.75 1289.12,-461.75 1283.12,-461.75 1277.12,-455.75 1277.12,-449.75 1277.12,-449.75 1277.12,-412 1277.12,-412 1277.12,-406 1283.12,-400 1289.12,-400 1289.12,-400 1430.38,-400 1430.38,-400 1436.38,-400 1442.38,-406 1442.38,-412 1442.38,-412 1442.38,-449.75 1442.38,-449.75 1442.38,-455.75 1436.38,-461.75 1430.38,-461.75"/>
<polygon fill="#9d755d" stroke="none" points="1286.12,-437 1286.12,-456.75 1433.38,-456.75 1433.38,-437 1286.12,-437"/>
<text xml:space="preserve" text-anchor="start" x="1288.12" y="-442.45" font-family="Helvetica,sans-Serif" font-weight="bold" font-size="14.00" fill="#111111">platform_type_Double</text>
<text xml:space="preserve" text-anchor="start" x="1288.12" y="-425.25" font-family="Helvetica,sans-Serif" font-size="10.00" fill="#111111">type: PlatformType</text>
<text xml:space="preserve" text-anchor="start" x="1288.12" y="-409.25" font-family="Helvetica,sans-Serif" font-size="10.00" fill="#111111">hasPlatformTypeName: Double</text>
<polygon fill="none" stroke="#333333" points="1285.12,-404 1285.12,-457.75 1434.38,-457.75 1434.38,-404 1285.12,-404"/>
</g>
<!-- field_0101_01__Time_Stamp__in__entity_E001_in_message_101&#45;&gt;platform_type_Double -->
<g id="edge6" class="edge">
<title>field_0101_01__Time_Stamp__in__entity_E001_in_message_101&#45;&gt;platform_type_Double</title>
<path fill="none" stroke="#8c564b" stroke-width="1.8" d="M1074.07,-519.51C1139.87,-499.02 1211.76,-476.64 1266.84,-459.49"/>
<polygon fill="#8c564b" stroke="#8c564b" stroke-width="1.8" points="1267.52,-462.21 1274.33,-457.16 1265.86,-456.87 1267.52,-462.21"/>
<text xml:space="preserve" text-anchor="middle" x="1185.62" y="-501.01" font-family="Helvetica,sans-Serif" font-size="14.00" fill="#8c564b">hasPlatformType</text>
</g>
<!-- range_doc_0101_01 -->
<g id="node9" class="node">
<title>range_doc_0101_01</title>
<path fill="#8cd17d" stroke="#333333" d="M1442.38,-573.75C1442.38,-573.75 1277.12,-573.75 1277.12,-573.75 1271.12,-573.75 1265.12,-567.75 1265.12,-561.75 1265.12,-561.75 1265.12,-492 1265.12,-492 1265.12,-486 1271.12,-480 1277.12,-480 1277.12,-480 1442.38,-480 1442.38,-480 1448.38,-480 1454.38,-486 1454.38,-492 1454.38,-492 1454.38,-561.75 1454.38,-561.75 1454.38,-567.75 1448.38,-573.75 1442.38,-573.75"/>
<polygon fill="#8cd17d" stroke="none" points="1274.12,-549 1274.12,-568.75 1445.38,-568.75 1445.38,-549 1274.12,-549"/>
<text xml:space="preserve" text-anchor="start" x="1295.62" y="-554.45" font-family="Helvetica,sans-Serif" font-weight="bold" font-size="14.00" fill="#111111">range_doc_0101_01</text>
<text xml:space="preserve" text-anchor="start" x="1276.12" y="-537.25" font-family="Helvetica,sans-Serif" font-size="10.00" fill="#111111">type: DocumentReferenceRange</text>
<text xml:space="preserve" text-anchor="start" x="1276.12" y="-521.25" font-family="Helvetica,sans-Serif" font-size="10.00" fill="#111111">also: RangeSpec</text>
<text xml:space="preserve" text-anchor="start" x="1276.12" y="-505.25" font-family="Helvetica,sans-Serif" font-size="10.00" fill="#111111">hasRawRangeText: See Section 1.7.2</text>
<text xml:space="preserve" text-anchor="start" x="1276.12" y="-489.25" font-family="Helvetica,sans-Serif" font-size="10.00" fill="#111111">hasReferenceText: See Section 1.7.2</text>
<polygon fill="none" stroke="#333333" points="1273.12,-484 1273.12,-569.75 1446.38,-569.75 1446.38,-484 1273.12,-484"/>
</g>
<!-- field_0101_01__Time_Stamp__in__entity_E001_in_message_101&#45;&gt;range_doc_0101_01 -->
<g id="edge7" class="edge">
<title>field_0101_01__Time_Stamp__in__entity_E001_in_message_101&#45;&gt;range_doc_0101_01</title>
<path fill="none" stroke="#7f7f7f" stroke-width="1.8" d="M1114.97,-552.18C1163.45,-547.14 1212.66,-542.04 1254.05,-537.74"/>
<polygon fill="#7f7f7f" stroke="#7f7f7f" stroke-width="1.8" points="1254.3,-540.53 1261.97,-536.92 1253.73,-534.96 1254.3,-540.53"/>
<text xml:space="preserve" text-anchor="middle" x="1185.62" y="-551.89" font-family="Helvetica,sans-Serif" font-size="14.00" fill="#7f7f7f">hasRangeSpec</text>
</g>
<!-- unit_Seconds -->
<g id="node12" class="node">
<title>unit_Seconds</title>
<path fill="#b279a2" stroke="#333333" d="M1410.88,-813.75C1410.88,-813.75 1308.62,-813.75 1308.62,-813.75 1302.62,-813.75 1296.62,-807.75 1296.62,-801.75 1296.62,-801.75 1296.62,-764 1296.62,-764 1296.62,-758 1302.62,-752 1308.62,-752 1308.62,-752 1410.88,-752 1410.88,-752 1416.88,-752 1422.88,-758 1422.88,-764 1422.88,-764 1422.88,-801.75 1422.88,-801.75 1422.88,-807.75 1416.88,-813.75 1410.88,-813.75"/>
<polygon fill="#b279a2" stroke="none" points="1305.62,-789 1305.62,-808.75 1413.88,-808.75 1413.88,-789 1305.62,-789"/>
<text xml:space="preserve" text-anchor="start" x="1315.5" y="-794.45" font-family="Helvetica,sans-Serif" font-weight="bold" font-size="14.00" fill="#111111">unit_Seconds</text>
<text xml:space="preserve" text-anchor="start" x="1307.62" y="-777.25" font-family="Helvetica,sans-Serif" font-size="10.00" fill="#111111">type: Unit</text>
<text xml:space="preserve" text-anchor="start" x="1307.62" y="-761.25" font-family="Helvetica,sans-Serif" font-size="10.00" fill="#111111">hasUnitName: Seconds</text>
<polygon fill="none" stroke="#333333" points="1304.62,-756 1304.62,-809.75 1414.88,-809.75 1414.88,-756 1304.62,-756"/>
</g>
<!-- field_0101_01__Time_Stamp__in__entity_E001_in_message_101&#45;&gt;unit_Seconds -->
<g id="edge5" class="edge">
<title>field_0101_01__Time_Stamp__in__entity_E001_in_message_101&#45;&gt;unit_Seconds</title>
<path fill="none" stroke="#9467bd" stroke-width="1.8" d="M1008.77,-630.23C1079.29,-664.21 1172.44,-707.77 1256.5,-742.88 1266.23,-746.94 1276.53,-751.11 1286.7,-755.16"/>
<polygon fill="#9467bd" stroke="#9467bd" stroke-width="1.8" points="1285.38,-757.65 1293.85,-757.99 1287.45,-752.45 1285.38,-757.65"/>
<text xml:space="preserve" text-anchor="middle" x="1185.62" y="-737.01" font-family="Helvetica,sans-Serif" font-size="14.00" fill="#9467bd">hasUnit</text>
</g>
<!-- field_0101_02__Speed__in__entity_E001_in_message_101&#45;&gt;platform_type_Double -->
<g id="edge10" class="edge">
<title>field_0101_02__Speed__in__entity_E001_in_message_101&#45;&gt;platform_type_Double</title>
<path fill="none" stroke="#8c564b" stroke-width="1.8" d="M1094.4,-385.15C1154.26,-395.5 1217.14,-406.38 1266.54,-414.93"/>
<polygon fill="#8c564b" stroke="#8c564b" stroke-width="1.8" points="1265.83,-417.64 1274.19,-416.25 1266.79,-412.13 1265.83,-417.64"/>
<text xml:space="preserve" text-anchor="middle" x="1185.62" y="-411.87" font-family="Helvetica,sans-Serif" font-size="14.00" fill="#8c564b">hasPlatformType</text>
</g>
<!-- range_interval_0101_02 -->
<g id="node11" class="node">
<title>range_interval_0101_02</title>
<path fill="#ff9da6" stroke="#333333" d="M1434.88,-301.75C1434.88,-301.75 1284.62,-301.75 1284.62,-301.75 1278.62,-301.75 1272.62,-295.75 1272.62,-289.75 1272.62,-289.75 1272.62,-156 1272.62,-156 1272.62,-150 1278.62,-144 1284.62,-144 1284.62,-144 1434.88,-144 1434.88,-144 1440.88,-144 1446.88,-150 1446.88,-156 1446.88,-156 1446.88,-289.75 1446.88,-289.75 1446.88,-295.75 1440.88,-301.75 1434.88,-301.75"/>
<polygon fill="#ff9da6" stroke="none" points="1281.62,-277 1281.62,-296.75 1437.88,-296.75 1437.88,-277 1281.62,-277"/>
<text xml:space="preserve" text-anchor="start" x="1283.62" y="-282.45" font-family="Helvetica,sans-Serif" font-weight="bold" font-size="14.00" fill="#111111">range_interval_0101_02</text>
<text xml:space="preserve" text-anchor="start" x="1283.62" y="-265.25" font-family="Helvetica,sans-Serif" font-size="10.00" fill="#111111">type: IntervalRange</text>
<text xml:space="preserve" text-anchor="start" x="1283.62" y="-249.25" font-family="Helvetica,sans-Serif" font-size="10.00" fill="#111111">also: RangeSpec</text>
<text xml:space="preserve" text-anchor="start" x="1283.62" y="-233.25" font-family="Helvetica,sans-Serif" font-size="10.00" fill="#111111">hasRawRangeText: x ∈ [0, 100]</text>
<text xml:space="preserve" text-anchor="start" x="1283.62" y="-217.25" font-family="Helvetica,sans-Serif" font-size="10.00" fill="#111111">hasIntervalVariable: x</text>
<text xml:space="preserve" text-anchor="start" x="1283.62" y="-201.25" font-family="Helvetica,sans-Serif" font-size="10.00" fill="#111111">hasLowerBoundText: 0</text>
<text xml:space="preserve" text-anchor="start" x="1283.62" y="-185.25" font-family="Helvetica,sans-Serif" font-size="10.00" fill="#111111">hasUpperBoundText: 100</text>
<text xml:space="preserve" text-anchor="start" x="1283.62" y="-169.25" font-family="Helvetica,sans-Serif" font-size="10.00" fill="#111111">isLowerInclusive: true</text>
<text xml:space="preserve" text-anchor="start" x="1283.62" y="-153.25" font-family="Helvetica,sans-Serif" font-size="10.00" fill="#111111">isUpperInclusive: true</text>
<polygon fill="none" stroke="#333333" points="1280.62,-148 1280.62,-297.75 1438.88,-297.75 1438.88,-148 1280.62,-148"/>
</g>
<!-- field_0101_02__Speed__in__entity_E001_in_message_101&#45;&gt;range_interval_0101_02 -->
<g id="edge11" class="edge">
<title>field_0101_02__Speed__in__entity_E001_in_message_101&#45;&gt;range_interval_0101_02</title>
<path fill="none" stroke="#7f7f7f" stroke-width="1.8" d="M1067.15,-303.58C1132.92,-285.37 1205.69,-265.23 1262.09,-249.63"/>
<polygon fill="#7f7f7f" stroke="#7f7f7f" stroke-width="1.8" points="1262.83,-252.33 1269.8,-247.49 1261.34,-246.93 1262.83,-252.33"/>
<text xml:space="preserve" text-anchor="middle" x="1185.62" y="-285.49" font-family="Helvetica,sans-Serif" font-size="14.00" fill="#7f7f7f">hasRangeSpec</text>
</g>
<!-- unit_m_s -->
<g id="node13" class="node">
<title>unit_m_s</title>
<path fill="#b279a2" stroke="#333333" d="M1400,-381.75C1400,-381.75 1319.5,-381.75 1319.5,-381.75 1313.5,-381.75 1307.5,-375.75 1307.5,-369.75 1307.5,-369.75 1307.5,-332 1307.5,-332 1307.5,-326 1313.5,-320 1319.5,-320 1319.5,-320 1400,-320 1400,-320 1406,-320 1412,-326 1412,-332 1412,-332 1412,-369.75 1412,-369.75 1412,-375.75 1406,-381.75 1400,-381.75"/>
<polygon fill="#b279a2" stroke="none" points="1316.5,-357 1316.5,-376.75 1403,-376.75 1403,-357 1316.5,-357"/>
<text xml:space="preserve" text-anchor="start" x="1329.75" y="-362.45" font-family="Helvetica,sans-Serif" font-weight="bold" font-size="14.00" fill="#111111">unit_m_s</text>
<text xml:space="preserve" text-anchor="start" x="1318.5" y="-345.25" font-family="Helvetica,sans-Serif" font-size="10.00" fill="#111111">type: Unit</text>
<text xml:space="preserve" text-anchor="start" x="1318.5" y="-329.25" font-family="Helvetica,sans-Serif" font-size="10.00" fill="#111111">hasUnitName: m/s</text>
<polygon fill="none" stroke="#333333" points="1315.5,-324 1315.5,-377.75 1404,-377.75 1404,-324 1315.5,-324"/>
</g>
<!-- field_0101_02__Speed__in__entity_E001_in_message_101&#45;&gt;unit_m_s -->
<g id="edge9" class="edge">
<title>field_0101_02__Speed__in__entity_E001_in_message_101&#45;&gt;unit_m_s</title>
<path fill="none" stroke="#9467bd" stroke-width="1.8" d="M1094.4,-350.88C1167.19,-350.88 1244.45,-350.88 1296.52,-350.88"/>
<polygon fill="#9467bd" stroke="#9467bd" stroke-width="1.8" points="1296.51,-353.68 1304.51,-350.88 1296.51,-348.08 1296.51,-353.68"/>
<text xml:space="preserve" text-anchor="middle" x="1185.62" y="-353.32" font-family="Helvetica,sans-Serif" font-size="14.00" fill="#9467bd">hasUnit</text>
</g>
<!-- range_enum_0101_03 -->
<g id="node10" class="node">
<title>range_enum_0101_03</title>
<path fill="#edc948" stroke="#333333" d="M1451,-125.75C1451,-125.75 1268.5,-125.75 1268.5,-125.75 1262.5,-125.75 1256.5,-119.75 1256.5,-113.75 1256.5,-113.75 1256.5,-12 1256.5,-12 1256.5,-6 1262.5,0 1268.5,0 1268.5,0 1451,0 1451,0 1457,0 1463,-6 1463,-12 1463,-12 1463,-113.75 1463,-113.75 1463,-119.75 1457,-125.75 1451,-125.75"/>
<polygon fill="#edc948" stroke="none" points="1265.5,-101 1265.5,-120.75 1454,-120.75 1454,-101 1265.5,-101"/>
<text xml:space="preserve" text-anchor="start" x="1289.25" y="-106.45" font-family="Helvetica,sans-Serif" font-weight="bold" font-size="14.00" fill="#111111">range_enum_0101_03</text>
<text xml:space="preserve" text-anchor="start" x="1267.5" y="-89.25" font-family="Helvetica,sans-Serif" font-size="10.00" fill="#111111">type: EnumerationRange</text>
<text xml:space="preserve" text-anchor="start" x="1267.5" y="-73.25" font-family="Helvetica,sans-Serif" font-size="10.00" fill="#111111">also: RangeSpec</text>
<text xml:space="preserve" text-anchor="start" x="1267.5" y="-57.25" font-family="Helvetica,sans-Serif" font-size="10.00" fill="#111111">hasRawRangeText: {OFF, IDLE, ACTIVE}</text>
<text xml:space="preserve" text-anchor="start" x="1267.5" y="-41.25" font-family="Helvetica,sans-Serif" font-size="10.00" fill="#111111">hasAllowedLiteral: OFF</text>
<text xml:space="preserve" text-anchor="start" x="1267.5" y="-25.25" font-family="Helvetica,sans-Serif" font-size="10.00" fill="#111111">hasAllowedLiteral: IDLE</text>
<text xml:space="preserve" text-anchor="start" x="1267.5" y="-9.25" font-family="Helvetica,sans-Serif" font-size="10.00" fill="#111111">hasAllowedLiteral: ACTIVE</text>
<polygon fill="none" stroke="#333333" points="1264.5,-4 1264.5,-121.75 1455,-121.75 1455,-4 1264.5,-4"/>
</g>
<!-- field_0101_03__Mode__in__entity_E001_in_message_101&#45;&gt;range_enum_0101_03 -->
<g id="edge13" class="edge">
<title>field_0101_03__Mode__in__entity_E001_in_message_101&#45;&gt;range_enum_0101_03</title>
<path fill="none" stroke="#7f7f7f" stroke-width="1.8" d="M1092.06,-113.62C1144.51,-103.64 1199.45,-93.18 1245.75,-84.38"/>
<polygon fill="#7f7f7f" stroke="#7f7f7f" stroke-width="1.8" points="1246.08,-87.16 1253.42,-82.92 1245.04,-81.66 1246.08,-87.16"/>
<text xml:space="preserve" text-anchor="middle" x="1185.62" y="-106.69" font-family="Helvetica,sans-Serif" font-size="14.00" fill="#7f7f7f">hasRangeSpec</text>
</g>
<!-- message_101 -->
<g id="node6" class="node">
<title>message_101</title>
<path fill="#4c78a8" stroke="#333333" d="M179.38,-389.75C179.38,-389.75 32.88,-389.75 32.88,-389.75 26.88,-389.75 20.88,-383.75 20.88,-377.75 20.88,-377.75 20.88,-324 20.88,-324 20.88,-318 26.88,-312 32.88,-312 32.88,-312 179.38,-312 179.38,-312 185.38,-312 191.38,-318 191.38,-324 191.38,-324 191.38,-377.75 191.38,-377.75 191.38,-383.75 185.38,-389.75 179.38,-389.75"/>
<polygon fill="#4c78a8" stroke="none" points="29.88,-365 29.88,-384.75 182.38,-384.75 182.38,-365 29.88,-365"/>
<text xml:space="preserve" text-anchor="start" x="61.88" y="-370.45" font-family="Helvetica,sans-Serif" font-weight="bold" font-size="14.00" fill="#111111">message_101</text>
<text xml:space="preserve" text-anchor="start" x="31.88" y="-353.25" font-family="Helvetica,sans-Serif" font-size="10.00" fill="#111111">type: Message</text>
<text xml:space="preserve" text-anchor="start" x="31.88" y="-337.25" font-family="Helvetica,sans-Serif" font-size="10.00" fill="#111111">hasMessageId: 101</text>
<text xml:space="preserve" text-anchor="start" x="31.88" y="-321.25" font-family="Helvetica,sans-Serif" font-size="10.00" fill="#111111">hasMessageName: Inertial States</text>
<polygon fill="none" stroke="#333333" points="28.88,-316 28.88,-385.75 183.38,-385.75 183.38,-316 28.88,-316"/>
</g>
<!-- message_101&#45;&gt;entity_E001__in__message_101 -->
<g id="edge1" class="edge">
<title>message_101&#45;&gt;entity_E001__in__message_101</title>
<path fill="none" stroke="#1f77b4" stroke-width="1.8" d="M191.71,-350.88C217.86,-350.88 247.57,-350.88 277.07,-350.88"/>
<polygon fill="#1f77b4" stroke="#1f77b4" stroke-width="1.8" points="276.77,-353.68 284.77,-350.88 276.77,-348.08 276.77,-353.68"/>
<text xml:space="preserve" text-anchor="middle" x="242" y="-353.32" font-family="Helvetica,sans-Serif" font-size="14.00" fill="#1f77b4">hasEntity</text>
</g>
<!-- legend_Message -->
<g id="node14" class="node">
<title>legend_Message</title>
<path fill="#4c78a8" stroke="#555555" d="M129.88,-443.88C129.88,-443.88 82.38,-443.88 82.38,-443.88 76.38,-443.88 70.38,-437.88 70.38,-431.88 70.38,-431.88 70.38,-419.88 70.38,-419.88 70.38,-413.88 76.38,-407.88 82.38,-407.88 82.38,-407.88 129.88,-407.88 129.88,-407.88 135.88,-407.88 141.88,-413.88 141.88,-419.88 141.88,-419.88 141.88,-431.88 141.88,-431.88 141.88,-437.88 135.88,-443.88 129.88,-443.88"/>
<text xml:space="preserve" text-anchor="middle" x="106.12" y="-420.45" font-family="Helvetica,sans-Serif" font-size="14.00" fill="#111111">Message</text>
</g>
<!-- legend_ConceptualEntity -->
<g id="node15" class="node">
<title>legend_ConceptualEntity</title>
<path fill="#72b7b2" stroke="#555555" d="M153.12,-497.88C153.12,-497.88 59.12,-497.88 59.12,-497.88 53.12,-497.88 47.12,-491.88 47.12,-485.88 47.12,-485.88 47.12,-473.88 47.12,-473.88 47.12,-467.88 53.12,-461.88 59.12,-461.88 59.12,-461.88 153.12,-461.88 153.12,-461.88 159.12,-461.88 165.12,-467.88 165.12,-473.88 165.12,-473.88 165.12,-485.88 165.12,-485.88 165.12,-491.88 159.12,-497.88 153.12,-497.88"/>
<text xml:space="preserve" text-anchor="middle" x="106.12" y="-474.45" font-family="Helvetica,sans-Serif" font-size="14.00" fill="#111111">ConceptualEntity</text>
</g>
<!-- legend_Field -->
<g id="node16" class="node">
<title>legend_Field</title>
<path fill="#f58518" stroke="#555555" d="M121.12,-551.88C121.12,-551.88 91.12,-551.88 91.12,-551.88 85.12,-551.88 79.12,-545.88 79.12,-539.88 79.12,-539.88 79.12,-527.88 79.12,-527.88 79.12,-521.88 85.12,-515.88 91.12,-515.88 91.12,-515.88 121.12,-515.88 121.12,-515.88 127.12,-515.88 133.12,-521.88 133.12,-527.88 133.12,-527.88 133.12,-539.88 133.12,-539.88 133.12,-545.88 127.12,-551.88 121.12,-551.88"/>
<text xml:space="preserve" text-anchor="middle" x="106.12" y="-528.45" font-family="Helvetica,sans-Serif" font-size="14.00" fill="#111111">Field</text>
</g>
<!-- legend_Observable -->
<g id="node17" class="node">
<title>legend_Observable</title>
<path fill="#54a24b" stroke="#555555" d="M137,-605.88C137,-605.88 75.25,-605.88 75.25,-605.88 69.25,-605.88 63.25,-599.88 63.25,-593.88 63.25,-593.88 63.25,-581.88 63.25,-581.88 63.25,-575.88 69.25,-569.88 75.25,-569.88 75.25,-569.88 137,-569.88 137,-569.88 143,-569.88 149,-575.88 149,-581.88 149,-581.88 149,-593.88 149,-593.88 149,-599.88 143,-605.88 137,-605.88"/>
<text xml:space="preserve" text-anchor="middle" x="106.12" y="-582.45" font-family="Helvetica,sans-Serif" font-size="14.00" fill="#111111">Observable</text>
</g>
<!-- legend_Measurement -->
<g id="node18" class="node">
<title>legend_Measurement</title>
<path fill="#e45756" stroke="#555555" d="M144.12,-659.88C144.12,-659.88 68.12,-659.88 68.12,-659.88 62.12,-659.88 56.12,-653.88 56.12,-647.88 56.12,-647.88 56.12,-635.88 56.12,-635.88 56.12,-629.88 62.12,-623.88 68.12,-623.88 68.12,-623.88 144.12,-623.88 144.12,-623.88 150.12,-623.88 156.12,-629.88 156.12,-635.88 156.12,-635.88 156.12,-647.88 156.12,-647.88 156.12,-653.88 150.12,-659.88 144.12,-659.88"/>
<text xml:space="preserve" text-anchor="middle" x="106.12" y="-636.45" font-family="Helvetica,sans-Serif" font-size="14.00" fill="#111111">Measurement</text>
</g>
<!-- legend_Unit -->
<g id="node19" class="node">
<title>legend_Unit</title>
<path fill="#b279a2" stroke="#555555" d="M121.12,-713.88C121.12,-713.88 91.12,-713.88 91.12,-713.88 85.12,-713.88 79.12,-707.88 79.12,-701.88 79.12,-701.88 79.12,-689.88 79.12,-689.88 79.12,-683.88 85.12,-677.88 91.12,-677.88 91.12,-677.88 121.12,-677.88 121.12,-677.88 127.12,-677.88 133.12,-683.88 133.12,-689.88 133.12,-689.88 133.12,-701.88 133.12,-701.88 133.12,-707.88 127.12,-713.88 121.12,-713.88"/>
<text xml:space="preserve" text-anchor="middle" x="106.12" y="-690.45" font-family="Helvetica,sans-Serif" font-size="14.00" fill="#111111">Unit</text>
</g>
<!-- legend_PlatformType -->
<g id="node20" class="node">
<title>legend_PlatformType</title>
<path fill="#9d755d" stroke="#555555" d="M142.25,-767.88C142.25,-767.88 70,-767.88 70,-767.88 64,-767.88 58,-761.88 58,-755.88 58,-755.88 58,-743.88 58,-743.88 58,-737.88 64,-731.88 70,-731.88 70,-731.88 142.25,-731.88 142.25,-731.88 148.25,-731.88 154.25,-737.88 154.25,-743.88 154.25,-743.88 154.25,-755.88 154.25,-755.88 154.25,-761.88 148.25,-767.88 142.25,-767.88"/>
<text xml:space="preserve" text-anchor="middle" x="106.12" y="-744.45" font-family="Helvetica,sans-Serif" font-size="14.00" fill="#111111">PlatformType</text>
</g>
<!-- legend_RangeSpec -->
<g id="node21" class="node">
<title>legend_RangeSpec</title>
<path fill="#bab0ac" stroke="#555555" d="M137.38,-821.88C137.38,-821.88 74.88,-821.88 74.88,-821.88 68.88,-821.88 62.88,-815.88 62.88,-809.88 62.88,-809.88 62.88,-797.88 62.88,-797.88 62.88,-791.88 68.88,-785.88 74.88,-785.88 74.88,-785.88 137.38,-785.88 137.38,-785.88 143.38,-785.88 149.38,-791.88 149.38,-797.88 149.38,-797.88 149.38,-809.88 149.38,-809.88 149.38,-815.88 143.38,-821.88 137.38,-821.88"/>
<text xml:space="preserve" text-anchor="middle" x="106.12" y="-798.45" font-family="Helvetica,sans-Serif" font-size="14.00" fill="#111111">RangeSpec</text>
</g>
<!-- legend_DocumentReferenceRange -->
<g id="node22" class="node">
<title>legend_DocumentReferenceRange</title>
<path fill="#8cd17d" stroke="#555555" d="M184.25,-875.88C184.25,-875.88 28,-875.88 28,-875.88 22,-875.88 16,-869.88 16,-863.88 16,-863.88 16,-851.88 16,-851.88 16,-845.88 22,-839.88 28,-839.88 28,-839.88 184.25,-839.88 184.25,-839.88 190.25,-839.88 196.25,-845.88 196.25,-851.88 196.25,-851.88 196.25,-863.88 196.25,-863.88 196.25,-869.88 190.25,-875.88 184.25,-875.88"/>
<text xml:space="preserve" text-anchor="middle" x="106.12" y="-852.45" font-family="Helvetica,sans-Serif" font-size="14.00" fill="#111111">DocumentReferenceRange</text>
</g>
<!-- legend_IntervalRange -->
<g id="node23" class="node">
<title>legend_IntervalRange</title>
<path fill="#ff9da6" stroke="#555555" d="M144.12,-929.88C144.12,-929.88 68.12,-929.88 68.12,-929.88 62.12,-929.88 56.12,-923.88 56.12,-917.88 56.12,-917.88 56.12,-905.88 56.12,-905.88 56.12,-899.88 62.12,-893.88 68.12,-893.88 68.12,-893.88 144.12,-893.88 144.12,-893.88 150.12,-893.88 156.12,-899.88 156.12,-905.88 156.12,-905.88 156.12,-917.88 156.12,-917.88 156.12,-923.88 150.12,-929.88 144.12,-929.88"/>
<text xml:space="preserve" text-anchor="middle" x="106.12" y="-906.45" font-family="Helvetica,sans-Serif" font-size="14.00" fill="#111111">IntervalRange</text>
</g>
<!-- legend_EnumerationRange -->
<g id="node24" class="node">
<title>legend_EnumerationRange</title>
<path fill="#edc948" stroke="#555555" d="M160.62,-983.88C160.62,-983.88 51.62,-983.88 51.62,-983.88 45.62,-983.88 39.62,-977.88 39.62,-971.88 39.62,-971.88 39.62,-959.88 39.62,-959.88 39.62,-953.88 45.62,-947.88 51.62,-947.88 51.62,-947.88 160.62,-947.88 160.62,-947.88 166.62,-947.88 172.62,-953.88 172.62,-959.88 172.62,-959.88 172.62,-971.88 172.62,-971.88 172.62,-977.88 166.62,-983.88 160.62,-983.88"/>
<text xml:space="preserve" text-anchor="middle" x="106.12" y="-960.45" font-family="Helvetica,sans-Serif" font-size="14.00" fill="#111111">EnumerationRange</text>
</g>
</g>
</svg>
