<?xml version="1.0" encoding="UTF-8" standalone="no"?>
<!DOCTYPE svg PUBLIC "-//W3C//DTD SVG 1.1//EN"
 "http://www.w3.org/Graphics/SVG/1.1/DTD/svg11.dtd">
<!-- Generated by graphviz version 2.42.4 (0)
 -->
<!-- Title: ERD Pages: 1 -->
<svg width="833pt" height="2572pt"
 viewBox="0.00 0.00 833.20 2572.20" xmlns="http://www.w3.org/2000/svg" xmlns:xlink="http://www.w3.org/1999/xlink">
<g id="graph0" class="graph" transform="scale(1 1) rotate(0) translate(21.6 2550.6)">
<title>ERD</title>
<polygon fill="white" stroke="transparent" points="-21.6,21.6 -21.6,-2550.6 811.6,-2550.6 811.6,21.6 -21.6,21.6"/>
<text text-anchor="middle" x="395" y="-2510.6" font-family="Times,serif" font-size="18.00">Homebrewing Resource Model &#45; Packaged Resource Clusters</text>
<!-- HomebrewSite -->
<g id="node1" class="node">
<title>HomebrewSite</title>
<polygon fill="lightgray" stroke="transparent" points="497.5,-1284.5 497.5,-1307.5 778.5,-1307.5 778.5,-1284.5 497.5,-1284.5"/>
<text text-anchor="start" x="580" y="-1293.3" font-family="Helvetica,sans-Serif" font-weight="bold" font-size="14.00">HomebrewSite</text>
<text text-anchor="start" x="501.5" y="-1269.3" font-family="Helvetica,sans-Serif" font-size="14.00">homebrewSiteID : Identifier</text>
<text text-anchor="start" x="501.5" y="-1246.3" font-family="Helvetica,sans-Serif" font-size="14.00">siteExtent : Extent</text>
<text text-anchor="start" x="501.5" y="-1223.3" font-family="Helvetica,sans-Serif" font-size="14.00">sitePosition : Position</text>
<text text-anchor="start" x="501.5" y="-1200.3" font-family="Helvetica,sans-Serif" font-size="14.00">siteOperationalState : OperationalState</text>
<polygon fill="none" stroke="black" points="496,-1192 496,-1309 779,-1309 779,-1192 496,-1192"/>
</g>
<!-- HotSideCluster -->
<g id="node2" class="node">
<title>HotSideCluster</title>
<polygon fill="lightgray" stroke="transparent" points="486.5,-2178.5 486.5,-2201.5 789.5,-2201.5 789.5,-2178.5 486.5,-2178.5"/>
<text text-anchor="start" x="578.5" y="-2187.3" font-family="Helvetica,sans-Serif" font-weight="bold" font-size="14.00">HotSideCluster</text>
<text text-anchor="start" x="490.5" y="-2163.3" font-family="Helvetica,sans-Serif" font-size="14.00">hotSideClusterID : Identifier</text>
<text text-anchor="start" x="490.5" y="-2140.3" font-family="Helvetica,sans-Serif" font-size="14.00">clusterExtent : Extent</text>
<text text-anchor="start" x="490.5" y="-2117.3" font-family="Helvetica,sans-Serif" font-size="14.00">clusterCapacityCount : Count</text>
<text text-anchor="start" x="490.5" y="-2094.3" font-family="Helvetica,sans-Serif" font-size="14.00">clusterOperationalState : OperationalState</text>
<polygon fill="none" stroke="black" points="485,-2086 485,-2203 790,-2203 790,-2086 485,-2086"/>
</g>
<!-- ColdSideCluster -->
<g id="node3" class="node">
<title>ColdSideCluster</title>
<polygon fill="lightgray" stroke="transparent" points="486.5,-1582.5 486.5,-1605.5 789.5,-1605.5 789.5,-1582.5 486.5,-1582.5"/>
<text text-anchor="start" x="575.5" y="-1591.3" font-family="Helvetica,sans-Serif" font-weight="bold" font-size="14.00">ColdSideCluster</text>
<text text-anchor="start" x="490.5" y="-1567.3" font-family="Helvetica,sans-Serif" font-size="14.00">coldSideClusterID : Identifier</text>
<text text-anchor="start" x="490.5" y="-1544.3" font-family="Helvetica,sans-Serif" font-size="14.00">clusterExtent : Extent</text>
<text text-anchor="start" x="490.5" y="-1521.3" font-family="Helvetica,sans-Serif" font-size="14.00">clusterCapacityCount : Count</text>
<text text-anchor="start" x="490.5" y="-1498.3" font-family="Helvetica,sans-Serif" font-size="14.00">clusterOperationalState : OperationalState</text>
<polygon fill="none" stroke="black" points="485,-1490 485,-1607 790,-1607 790,-1490 485,-1490"/>
</g>
<!-- PackagingCluster -->
<g id="node4" class="node">
<title>PackagingCluster</title>
<polygon fill="lightgray" stroke="transparent" points="486.5,-1135.5 486.5,-1158.5 789.5,-1158.5 789.5,-1135.5 486.5,-1135.5"/>
<text text-anchor="start" x="569.5" y="-1144.3" font-family="Helvetica,sans-Serif" font-weight="bold" font-size="14.00">PackagingCluster</text>
<text text-anchor="start" x="490.5" y="-1120.3" font-family="Helvetica,sans-Serif" font-size="14.00">packagingClusterID : Identifier</text>
<text text-anchor="start" x="490.5" y="-1097.3" font-family="Helvetica,sans-Serif" font-size="14.00">clusterExtent : Extent</text>
<text text-anchor="start" x="490.5" y="-1074.3" font-family="Helvetica,sans-Serif" font-size="14.00">clusterCapacityCount : Count</text>
<text text-anchor="start" x="490.5" y="-1051.3" font-family="Helvetica,sans-Serif" font-size="14.00">clusterOperationalState : OperationalState</text>
<polygon fill="none" stroke="black" points="485,-1043 485,-1160 790,-1160 790,-1043 485,-1043"/>
</g>
<!-- IngredientStorageCluster -->
<g id="node5" class="node">
<title>IngredientStorageCluster</title>
<polygon fill="lightgray" stroke="transparent" points="486.5,-539.5 486.5,-562.5 789.5,-562.5 789.5,-539.5 486.5,-539.5"/>
<text text-anchor="start" x="537.5" y="-548.3" font-family="Helvetica,sans-Serif" font-weight="bold" font-size="14.00">IngredientStorageCluster</text>
<text text-anchor="start" x="490.5" y="-524.3" font-family="Helvetica,sans-Serif" font-size="14.00">ingredientStorageClusterID : Identifier</text>
<text text-anchor="start" x="490.5" y="-501.3" font-family="Helvetica,sans-Serif" font-size="14.00">clusterExtent : Extent</text>
<text text-anchor="start" x="490.5" y="-478.3" font-family="Helvetica,sans-Serif" font-size="14.00">storageCapacityCount : Count</text>
<text text-anchor="start" x="490.5" y="-455.3" font-family="Helvetica,sans-Serif" font-size="14.00">clusterOperationalState : OperationalState</text>
<polygon fill="none" stroke="black" points="485,-447 485,-564 790,-564 790,-447 485,-447"/>
</g>
<!-- HeatSource -->
<g id="node6" class="node">
<title>HeatSource</title>
<polygon fill="lightgray" stroke="transparent" points="494.5,-2327.5 494.5,-2350.5 781.5,-2350.5 781.5,-2327.5 494.5,-2327.5"/>
<text text-anchor="start" x="591.5" y="-2336.3" font-family="Helvetica,sans-Serif" font-weight="bold" font-size="14.00">HeatSource</text>
<text text-anchor="start" x="498.5" y="-2312.3" font-family="Helvetica,sans-Serif" font-size="14.00">heatSourceID : Identifier</text>
<text text-anchor="start" x="498.5" y="-2289.3" font-family="Helvetica,sans-Serif" font-size="14.00">heatPower : Power</text>
<text text-anchor="start" x="498.5" y="-2266.3" font-family="Helvetica,sans-Serif" font-size="14.00">heatOperationalState : OperationalState</text>
<text text-anchor="start" x="498.5" y="-2243.3" font-family="Helvetica,sans-Serif" font-size="14.00">fuelState : OperationalState</text>
<polygon fill="none" stroke="black" points="493,-2235 493,-2352 782,-2352 782,-2235 493,-2235"/>
</g>
<!-- MashVessel -->
<g id="node7" class="node">
<title>MashVessel</title>
<polygon fill="lightgray" stroke="transparent" points="487.5,-2476.5 487.5,-2499.5 787.5,-2499.5 787.5,-2476.5 487.5,-2476.5"/>
<text text-anchor="start" x="591" y="-2485.3" font-family="Helvetica,sans-Serif" font-weight="bold" font-size="14.00">MashVessel</text>
<text text-anchor="start" x="491.5" y="-2461.3" font-family="Helvetica,sans-Serif" font-size="14.00">mashVesselID : Identifier</text>
<text text-anchor="start" x="491.5" y="-2438.3" font-family="Helvetica,sans-Serif" font-size="14.00">vesselVolume : ScalarVolume</text>
<text text-anchor="start" x="491.5" y="-2415.3" font-family="Helvetica,sans-Serif" font-size="14.00">vesselTemperature : Temperature</text>
<text text-anchor="start" x="491.5" y="-2392.3" font-family="Helvetica,sans-Serif" font-size="14.00">vesselOperationalState : OperationalState</text>
<polygon fill="none" stroke="black" points="486.5,-2384 486.5,-2501 788.5,-2501 788.5,-2384 486.5,-2384"/>
</g>
<!-- BoilVessel -->
<g id="node8" class="node">
<title>BoilVessel</title>
<polygon fill="lightgray" stroke="transparent" points="487.5,-2029.5 487.5,-2052.5 787.5,-2052.5 787.5,-2029.5 487.5,-2029.5"/>
<text text-anchor="start" x="597.5" y="-2038.3" font-family="Helvetica,sans-Serif" font-weight="bold" font-size="14.00">BoilVessel</text>
<text text-anchor="start" x="491.5" y="-2014.3" font-family="Helvetica,sans-Serif" font-size="14.00">boilVesselID : Identifier</text>
<text text-anchor="start" x="491.5" y="-1991.3" font-family="Helvetica,sans-Serif" font-size="14.00">vesselVolume : ScalarVolume</text>
<text text-anchor="start" x="491.5" y="-1968.3" font-family="Helvetica,sans-Serif" font-size="14.00">vesselTemperature : Temperature</text>
<text text-anchor="start" x="491.5" y="-1945.3" font-family="Helvetica,sans-Serif" font-size="14.00">vesselOperationalState : OperationalState</text>
<polygon fill="none" stroke="black" points="486.5,-1937 486.5,-2054 788.5,-2054 788.5,-1937 486.5,-1937"/>
</g>
<!-- Chiller -->
<g id="node9" class="node">
<title>Chiller</title>
<polygon fill="lightgray" stroke="transparent" points="488.5,-1880.5 488.5,-1903.5 786.5,-1903.5 786.5,-1880.5 488.5,-1880.5"/>
<text text-anchor="start" x="612" y="-1889.3" font-family="Helvetica,sans-Serif" font-weight="bold" font-size="14.00">Chiller</text>
<text text-anchor="start" x="492.5" y="-1865.3" font-family="Helvetica,sans-Serif" font-size="14.00">chillerID : Identifier</text>
<text text-anchor="start" x="492.5" y="-1842.3" font-family="Helvetica,sans-Serif" font-size="14.00">coolingDuration : Duration</text>
<text text-anchor="start" x="492.5" y="-1819.3" font-family="Helvetica,sans-Serif" font-size="14.00">flowRate : MassFlowRate</text>
<text text-anchor="start" x="492.5" y="-1796.3" font-family="Helvetica,sans-Serif" font-size="14.00">chillerOperationalState : OperationalState</text>
<polygon fill="none" stroke="black" points="487.5,-1788 487.5,-1905 787.5,-1905 787.5,-1788 487.5,-1788"/>
</g>
<!-- FermentationVessel -->
<g id="node10" class="node">
<title>FermentationVessel</title>
<polygon fill="lightgray" stroke="transparent" points="487.5,-1731.5 487.5,-1754.5 787.5,-1754.5 787.5,-1731.5 487.5,-1731.5"/>
<text text-anchor="start" x="559" y="-1740.3" font-family="Helvetica,sans-Serif" font-weight="bold" font-size="14.00">FermentationVessel</text>
<text text-anchor="start" x="491.5" y="-1716.3" font-family="Helvetica,sans-Serif" font-size="14.00">fermentationVesselID : Identifier</text>
<text text-anchor="start" x="491.5" y="-1693.3" font-family="Helvetica,sans-Serif" font-size="14.00">vesselVolume : ScalarVolume</text>
<text text-anchor="start" x="491.5" y="-1670.3" font-family="Helvetica,sans-Serif" font-size="14.00">vesselTemperature : Temperature</text>
<text text-anchor="start" x="491.5" y="-1647.3" font-family="Helvetica,sans-Serif" font-size="14.00">vesselOperationalState : OperationalState</text>
<polygon fill="none" stroke="black" points="486.5,-1639 486.5,-1756 788.5,-1756 788.5,-1639 486.5,-1639"/>
</g>
<!-- Airlock -->
<g id="node11" class="node">
<title>Airlock</title>
<polygon fill="lightgray" stroke="transparent" points="486.5,-1433.5 486.5,-1456.5 788.5,-1456.5 788.5,-1433.5 486.5,-1433.5"/>
<text text-anchor="start" x="610.5" y="-1442.3" font-family="Helvetica,sans-Serif" font-weight="bold" font-size="14.00">Airlock</text>
<text text-anchor="start" x="490.5" y="-1418.3" font-family="Helvetica,sans-Serif" font-size="14.00">airlockID : Identifier</text>
<text text-anchor="start" x="490.5" y="-1395.3" font-family="Helvetica,sans-Serif" font-size="14.00">liquidVolume : ScalarVolume</text>
<text text-anchor="start" x="490.5" y="-1372.3" font-family="Helvetica,sans-Serif" font-size="14.00">pressureState : OperationalState</text>
<text text-anchor="start" x="490.5" y="-1349.3" font-family="Helvetica,sans-Serif" font-size="14.00">airlockOperationalState : OperationalState</text>
<polygon fill="none" stroke="black" points="485.5,-1341 485.5,-1458 789.5,-1458 789.5,-1341 485.5,-1341"/>
</g>
<!-- BottleOrKegSet -->
<g id="node12" class="node">
<title>BottleOrKegSet</title>
<polygon fill="lightgray" stroke="transparent" points="499.5,-986.5 499.5,-1009.5 776.5,-1009.5 776.5,-986.5 499.5,-986.5"/>
<text text-anchor="start" x="576" y="-995.3" font-family="Helvetica,sans-Serif" font-weight="bold" font-size="14.00">BottleOrKegSet</text>
<text text-anchor="start" x="503.5" y="-971.3" font-family="Helvetica,sans-Serif" font-size="14.00">bottleOrKegSetID : Identifier</text>
<text text-anchor="start" x="503.5" y="-948.3" font-family="Helvetica,sans-Serif" font-size="14.00">containerCount : Count</text>
<text text-anchor="start" x="503.5" y="-925.3" font-family="Helvetica,sans-Serif" font-size="14.00">containerVolume : ScalarVolume</text>
<text text-anchor="start" x="503.5" y="-902.3" font-family="Helvetica,sans-Serif" font-size="14.00">setOperationalState : OperationalState</text>
<polygon fill="none" stroke="black" points="498,-894 498,-1011 777,-1011 777,-894 498,-894"/>
</g>
<!-- CleaningKit -->
<g id="node13" class="node">
<title>CleaningKit</title>
<polygon fill="lightgray" stroke="transparent" points="501.5,-837.5 501.5,-860.5 774.5,-860.5 774.5,-837.5 501.5,-837.5"/>
<text text-anchor="start" x="592.5" y="-846.3" font-family="Helvetica,sans-Serif" font-weight="bold" font-size="14.00">CleaningKit</text>
<text text-anchor="start" x="505.5" y="-822.3" font-family="Helvetica,sans-Serif" font-size="14.00">cleaningKitID : Identifier</text>
<text text-anchor="start" x="505.5" y="-799.3" font-family="Helvetica,sans-Serif" font-size="14.00">kitCount : Count</text>
<text text-anchor="start" x="505.5" y="-776.3" font-family="Helvetica,sans-Serif" font-size="14.00">kitOperationalState : OperationalState</text>
<text text-anchor="start" x="505.5" y="-753.3" font-family="Helvetica,sans-Serif" font-size="14.00">solutionVolume : ScalarVolume</text>
<polygon fill="none" stroke="black" points="500,-745 500,-862 775,-862 775,-745 500,-745"/>
</g>
<!-- GrainSupply -->
<g id="node14" class="node">
<title>GrainSupply</title>
<polygon fill="lightgray" stroke="transparent" points="526.5,-688.5 526.5,-711.5 748.5,-711.5 748.5,-688.5 526.5,-688.5"/>
<text text-anchor="start" x="590" y="-697.3" font-family="Helvetica,sans-Serif" font-weight="bold" font-size="14.00">GrainSupply</text>
<text text-anchor="start" x="530.5" y="-673.3" font-family="Helvetica,sans-Serif" font-size="14.00">grainSupplyID : Identifier</text>
<text text-anchor="start" x="530.5" y="-650.3" font-family="Helvetica,sans-Serif" font-size="14.00">storedMass : Mass</text>
<text text-anchor="start" x="530.5" y="-627.3" font-family="Helvetica,sans-Serif" font-size="14.00">supplyState : OperationalState</text>
<text text-anchor="start" x="530.5" y="-604.3" font-family="Helvetica,sans-Serif" font-size="14.00">containerExtent : Extent</text>
<polygon fill="none" stroke="black" points="525.5,-596 525.5,-713 749.5,-713 749.5,-596 525.5,-596"/>
</g>
<!-- HopSupply -->
<g id="node15" class="node">
<title>HopSupply</title>
<polygon fill="lightgray" stroke="transparent" points="526.5,-390.5 526.5,-413.5 748.5,-413.5 748.5,-390.5 526.5,-390.5"/>
<text text-anchor="start" x="595" y="-399.3" font-family="Helvetica,sans-Serif" font-weight="bold" font-size="14.00">HopSupply</text>
<text text-anchor="start" x="530.5" y="-375.3" font-family="Helvetica,sans-Serif" font-size="14.00">hopSupplyID : Identifier</text>
<text text-anchor="start" x="530.5" y="-352.3" font-family="Helvetica,sans-Serif" font-size="14.00">storedMass : Mass</text>
<text text-anchor="start" x="530.5" y="-329.3" font-family="Helvetica,sans-Serif" font-size="14.00">supplyState : OperationalState</text>
<text text-anchor="start" x="530.5" y="-306.3" font-family="Helvetica,sans-Serif" font-size="14.00">containerExtent : Extent</text>
<polygon fill="none" stroke="black" points="525.5,-298 525.5,-415 749.5,-415 749.5,-298 525.5,-298"/>
</g>
<!-- YeastSupply -->
<g id="node16" class="node">
<title>YeastSupply</title>
<polygon fill="lightgray" stroke="transparent" points="526.5,-241.5 526.5,-264.5 748.5,-264.5 748.5,-241.5 526.5,-241.5"/>
<text text-anchor="start" x="589" y="-250.3" font-family="Helvetica,sans-Serif" font-weight="bold" font-size="14.00">YeastSupply</text>
<text text-anchor="start" x="530.5" y="-226.3" font-family="Helvetica,sans-Serif" font-size="14.00">yeastSupplyID : Identifier</text>
<text text-anchor="start" x="530.5" y="-203.3" font-family="Helvetica,sans-Serif" font-size="14.00">storedMass : Mass</text>
<text text-anchor="start" x="530.5" y="-180.3" font-family="Helvetica,sans-Serif" font-size="14.00">supplyState : OperationalState</text>
<text text-anchor="start" x="530.5" y="-157.3" font-family="Helvetica,sans-Serif" font-size="14.00">containerExtent : Extent</text>
<polygon fill="none" stroke="black" points="525.5,-149 525.5,-266 749.5,-266 749.5,-149 525.5,-149"/>
</g>
<!-- WaterSupply -->
<g id="node17" class="node">
<title>WaterSupply</title>
<polygon fill="lightgray" stroke="transparent" points="520.5,-92.5 520.5,-115.5 755.5,-115.5 755.5,-92.5 520.5,-92.5"/>
<text text-anchor="start" x="587.5" y="-101.3" font-family="Helvetica,sans-Serif" font-weight="bold" font-size="14.00">WaterSupply</text>
<text text-anchor="start" x="524.5" y="-77.3" font-family="Helvetica,sans-Serif" font-size="14.00">waterSupplyID : Identifier</text>
<text text-anchor="start" x="524.5" y="-54.3" font-family="Helvetica,sans-Serif" font-size="14.00">storedVolume : ScalarVolume</text>
<text text-anchor="start" x="524.5" y="-31.3" font-family="Helvetica,sans-Serif" font-size="14.00">waterTemperature : Temperature</text>
<text text-anchor="start" x="524.5" y="-8.3" font-family="Helvetica,sans-Serif" font-size="14.00">supplyState : OperationalState</text>
<polygon fill="none" stroke="black" points="519,0 519,-117 756,-117 756,0 519,0"/>
</g>
<!-- A_HomebrewSiteContainsHotSideCluster -->
<g id="node18" class="node">
<title>A_HomebrewSiteContainsHotSideCluster</title>
<polygon fill="lightblue" stroke="transparent" points="50.5,-1575.5 50.5,-1598.5 362.5,-1598.5 362.5,-1575.5 50.5,-1575.5"/>
<text text-anchor="start" x="54.5" y="-1584.3" font-family="Helvetica,sans-Serif" font-weight="bold" font-size="14.00">HomebrewSiteContainsHotSideCluster</text>
<text text-anchor="start" x="54.5" y="-1560.3" font-family="Helvetica,sans-Serif" font-size="14.00">clusterPosition : Position</text>
<polygon fill="none" stroke="black" points="49.5,-1551.5 49.5,-1599.5 363.5,-1599.5 363.5,-1551.5 49.5,-1551.5"/>
</g>
<!-- A_HomebrewSiteContainsHotSideCluster&#45;&gt;HomebrewSite -->
<g id="edge1" class="edge">
<title>A_HomebrewSiteContainsHotSideCluster&#45;&gt;HomebrewSite</title>
<path fill="none" stroke="#555555" d="M324.1,-1551.47C355.99,-1540.29 388.48,-1524.05 413,-1500.5 473.66,-1442.24 427.63,-1387 485,-1325.5 490.41,-1319.71 496.36,-1314.3 502.68,-1309.26"/>
</g>
<!-- A_HomebrewSiteContainsHotSideCluster&#45;&gt;HotSideCluster -->
<g id="edge2" class="edge">
<title>A_HomebrewSiteContainsHotSideCluster&#45;&gt;HotSideCluster</title>
<path fill="none" stroke="#555555" d="M363.74,-1598.62C382.33,-1607.06 399.47,-1618.37 413,-1633.5 544.19,-1780.25 367.47,-1912.6 485,-2070.5 489.11,-2076.02 493.74,-2081.15 498.76,-2085.91"/>
</g>
<!-- A_HomebrewSiteContainsColdSideCluster -->
<g id="node19" class="node">
<title>A_HomebrewSiteContainsColdSideCluster</title>
<polygon fill="lightblue" stroke="transparent" points="47.5,-1322.5 47.5,-1345.5 365.5,-1345.5 365.5,-1322.5 47.5,-1322.5"/>
<text text-anchor="start" x="51.5" y="-1331.3" font-family="Helvetica,sans-Serif" font-weight="bold" font-size="14.00">HomebrewSiteContainsColdSideCluster</text>
<text text-anchor="start" x="51.5" y="-1307.3" font-family="Helvetica,sans-Serif" font-size="14.00">clusterPosition : Position</text>
<polygon fill="none" stroke="black" points="46.5,-1298.5 46.5,-1346.5 366.5,-1346.5 366.5,-1298.5 46.5,-1298.5"/>
</g>
<!-- A_HomebrewSiteContainsColdSideCluster&#45;&gt;HomebrewSite -->
<g id="edge3" class="edge">
<title>A_HomebrewSiteContainsColdSideCluster&#45;&gt;HomebrewSite</title>
<path fill="none" stroke="#555555" d="M350.65,-1298.48C397.43,-1290.62 449.33,-1281.91 495.92,-1274.09"/>
</g>
<!-- A_HomebrewSiteContainsColdSideCluster&#45;&gt;ColdSideCluster -->
<g id="edge4" class="edge">
<title>A_HomebrewSiteContainsColdSideCluster&#45;&gt;ColdSideCluster</title>
<path fill="none" stroke="#555555" d="M265.79,-1346.59C307.82,-1364.85 365.32,-1391.64 413,-1420.5 447.22,-1441.21 450.88,-1453.63 485,-1474.5 493.49,-1479.69 502.4,-1484.81 511.46,-1489.78"/>
</g>
<!-- A_HomebrewSiteContainsPackagingCluster -->
<g id="node20" class="node">
<title>A_HomebrewSiteContainsPackagingCluster</title>
<polygon fill="lightblue" stroke="transparent" points="41.5,-1237.5 41.5,-1260.5 371.5,-1260.5 371.5,-1237.5 41.5,-1237.5"/>
<text text-anchor="start" x="45.5" y="-1246.3" font-family="Helvetica,sans-Serif" font-weight="bold" font-size="14.00">HomebrewSiteContainsPackagingCluster</text>
<text text-anchor="start" x="45.5" y="-1222.3" font-family="Helvetica,sans-Serif" font-size="14.00">clusterPosition : Position</text>
<polygon fill="none" stroke="black" points="40.5,-1213.5 40.5,-1261.5 372.5,-1261.5 372.5,-1213.5 40.5,-1213.5"/>
</g>
<!-- A_HomebrewSiteContainsPackagingCluster&#45;&gt;HomebrewSite -->
<g id="edge5" class="edge">
<title>A_HomebrewSiteContainsPackagingCluster&#45;&gt;HomebrewSite</title>
<path fill="none" stroke="#555555" d="M372.75,-1242.51C413.35,-1243.74 456.43,-1245.04 495.76,-1246.24"/>
</g>
<!-- A_HomebrewSiteContainsPackagingCluster&#45;&gt;PackagingCluster -->
<g id="edge6" class="edge">
<title>A_HomebrewSiteContainsPackagingCluster&#45;&gt;PackagingCluster</title>
<path fill="none" stroke="#555555" d="M283.21,-1213.5C338.89,-1195.85 416.45,-1171.26 484.71,-1149.62"/>
</g>
<!-- A_HomebrewSiteContainsIngredientStorageCluster -->
<g id="node21" class="node">
<title>A_HomebrewSiteContainsIngredientStorageCluster</title>
<polygon fill="lightblue" stroke="transparent" points="10.5,-1131.5 10.5,-1154.5 403.5,-1154.5 403.5,-1131.5 10.5,-1131.5"/>
<text text-anchor="start" x="14.5" y="-1140.3" font-family="Helvetica,sans-Serif" font-weight="bold" font-size="14.00">HomebrewSiteContainsIngredientStorageCluster</text>
<text text-anchor="start" x="14.5" y="-1116.3" font-family="Helvetica,sans-Serif" font-size="14.00">clusterPosition : Position</text>
<polygon fill="none" stroke="black" points="9,-1107.5 9,-1155.5 404,-1155.5 404,-1107.5 9,-1107.5"/>
</g>
<!-- A_HomebrewSiteContainsIngredientStorageCluster&#45;&gt;HomebrewSite -->
<g id="edge7" class="edge">
<title>A_HomebrewSiteContainsIngredientStorageCluster&#45;&gt;HomebrewSite</title>
<path fill="none" stroke="#555555" d="M294.06,-1155.51C351.82,-1171.53 429.09,-1192.97 495.61,-1211.42"/>
</g>
<!-- A_HomebrewSiteContainsIngredientStorageCluster&#45;&gt;IngredientStorageCluster -->
<g id="edge8" class="edge">
<title>A_HomebrewSiteContainsIngredientStorageCluster&#45;&gt;IngredientStorageCluster</title>
<path fill="none" stroke="#555555" d="M311.09,-1107.46C348.65,-1093.65 387.95,-1072.26 413,-1039.5 538.42,-875.45 362.79,-746.94 485,-580.5 489.34,-574.59 494.28,-569.11 499.66,-564.05"/>
</g>
<!-- A_HotSideClusterContainsHeatSource -->
<g id="node22" class="node">
<title>A_HotSideClusterContainsHeatSource</title>
<polygon fill="lightblue" stroke="transparent" points="62.5,-2266.5 62.5,-2289.5 350.5,-2289.5 350.5,-2266.5 62.5,-2266.5"/>
<text text-anchor="start" x="66.5" y="-2275.3" font-family="Helvetica,sans-Serif" font-weight="bold" font-size="14.00">HotSideClusterContainsHeatSource</text>
<text text-anchor="start" x="66.5" y="-2251.3" font-family="Helvetica,sans-Serif" font-size="14.00">resourcePosition : Position</text>
<polygon fill="none" stroke="black" points="61.5,-2242.5 61.5,-2290.5 351.5,-2290.5 351.5,-2242.5 61.5,-2242.5"/>
</g>
<!-- A_HotSideClusterContainsHeatSource&#45;&gt;HotSideCluster -->
<g id="edge9" class="edge">
<title>A_HotSideClusterContainsHeatSource&#45;&gt;HotSideCluster</title>
<path fill="none" stroke="#555555" d="M297.39,-2242.45C333.38,-2232.7 375.2,-2221.23 413,-2210.5 436.26,-2203.9 460.83,-2196.78 484.84,-2189.75"/>
</g>
<!-- A_HotSideClusterContainsHeatSource&#45;&gt;HeatSource -->
<g id="edge10" class="edge">
<title>A_HotSideClusterContainsHeatSource&#45;&gt;HeatSource</title>
<path fill="none" stroke="#555555" d="M351.54,-2275.57C397.06,-2278.43 447.34,-2281.6 492.84,-2284.46"/>
</g>
<!-- A_HotSideClusterContainsMashVessel -->
<g id="node23" class="node">
<title>A_HotSideClusterContainsMashVessel</title>
<polygon fill="lightblue" stroke="transparent" points="62.5,-2354.5 62.5,-2377.5 350.5,-2377.5 350.5,-2354.5 62.5,-2354.5"/>
<text text-anchor="start" x="66.5" y="-2363.3" font-family="Helvetica,sans-Serif" font-weight="bold" font-size="14.00">HotSideClusterContainsMashVessel</text>
<text text-anchor="start" x="66.5" y="-2339.3" font-family="Helvetica,sans-Serif" font-size="14.00">resourcePosition : Position</text>
<polygon fill="none" stroke="black" points="61.5,-2330.5 61.5,-2378.5 351.5,-2378.5 351.5,-2330.5 61.5,-2330.5"/>
</g>
<!-- A_HotSideClusterContainsMashVessel&#45;&gt;HotSideCluster -->
<g id="edge11" class="edge">
<title>A_HotSideClusterContainsMashVessel&#45;&gt;HotSideCluster</title>
<path fill="none" stroke="#555555" d="M351.56,-2333.53C373.09,-2326.86 394.31,-2318.07 413,-2306.5 455.67,-2280.08 445.65,-2250.65 485,-2219.5 492.25,-2213.76 500.01,-2208.3 508.04,-2203.13"/>
</g>
<!-- A_HotSideClusterContainsMashVessel&#45;&gt;MashVessel -->
<g id="edge12" class="edge">
<title>A_HotSideClusterContainsMashVessel&#45;&gt;MashVessel</title>
<path fill="none" stroke="#555555" d="M324.73,-2378.55C374.59,-2388.78 433.35,-2400.83 486.34,-2411.7"/>
</g>
<!-- A_HotSideClusterContainsBoilVessel -->
<g id="node24" class="node">
<title>A_HotSideClusterContainsBoilVessel</title>
<polygon fill="lightblue" stroke="transparent" points="68.5,-2058.5 68.5,-2081.5 344.5,-2081.5 344.5,-2058.5 68.5,-2058.5"/>
<text text-anchor="start" x="72.5" y="-2067.3" font-family="Helvetica,sans-Serif" font-weight="bold" font-size="14.00">HotSideClusterContainsBoilVessel</text>
<text text-anchor="start" x="72.5" y="-2043.3" font-family="Helvetica,sans-Serif" font-size="14.00">resourcePosition : Position</text>
<polygon fill="none" stroke="black" points="67.5,-2034.5 67.5,-2082.5 345.5,-2082.5 345.5,-2034.5 67.5,-2034.5"/>
</g>
<!-- A_HotSideClusterContainsBoilVessel&#45;&gt;HotSideCluster -->
<g id="edge13" class="edge">
<title>A_HotSideClusterContainsBoilVessel&#45;&gt;HotSideCluster</title>
<path fill="none" stroke="#555555" d="M327.29,-2082.51C376.12,-2092.3 433.16,-2103.74 484.85,-2114.1"/>
</g>
<!-- A_HotSideClusterContainsBoilVessel&#45;&gt;BoilVessel -->
<g id="edge14" class="edge">
<title>A_HotSideClusterContainsBoilVessel&#45;&gt;BoilVessel</title>
<path fill="none" stroke="#555555" d="M345.6,-2038.22C390.55,-2031.62 440.64,-2024.26 486.42,-2017.54"/>
</g>
<!-- A_ColdSideClusterContainsChiller -->
<g id="node25" class="node">
<title>A_ColdSideClusterContainsChiller</title>
<polygon fill="lightblue" stroke="transparent" points="80.5,-1762.5 80.5,-1785.5 332.5,-1785.5 332.5,-1762.5 80.5,-1762.5"/>
<text text-anchor="start" x="84.5" y="-1771.3" font-family="Helvetica,sans-Serif" font-weight="bold" font-size="14.00">ColdSideClusterContainsChiller</text>
<text text-anchor="start" x="84.5" y="-1747.3" font-family="Helvetica,sans-Serif" font-size="14.00">resourcePosition : Position</text>
<polygon fill="none" stroke="black" points="79.5,-1738.5 79.5,-1786.5 333.5,-1786.5 333.5,-1738.5 79.5,-1738.5"/>
</g>
<!-- A_ColdSideClusterContainsChiller&#45;&gt;ColdSideCluster -->
<g id="edge15" class="edge">
<title>A_ColdSideClusterContainsChiller&#45;&gt;ColdSideCluster</title>
<path fill="none" stroke="#555555" d="M333.7,-1746.24C361.24,-1739.01 389.23,-1728.57 413,-1713.5 456.26,-1686.07 445.1,-1655.62 485,-1623.5 492.09,-1617.79 499.68,-1612.37 507.55,-1607.24"/>
</g>
<!-- A_ColdSideClusterContainsChiller&#45;&gt;Chiller -->
<g id="edge16" class="edge">
<title>A_ColdSideClusterContainsChiller&#45;&gt;Chiller</title>
<path fill="none" stroke="#555555" d="M330.15,-1786.51C379.18,-1796.12 436.1,-1807.26 487.48,-1817.32"/>
</g>
<!-- A_ColdSideClusterContainsFermentationVessel -->
<g id="node26" class="node">
<title>A_ColdSideClusterContainsFermentationVessel</title>
<polygon fill="lightblue" stroke="transparent" points="27.5,-1673.5 27.5,-1696.5 386.5,-1696.5 386.5,-1673.5 27.5,-1673.5"/>
<text text-anchor="start" x="31.5" y="-1682.3" font-family="Helvetica,sans-Serif" font-weight="bold" font-size="14.00">ColdSideClusterContainsFermentationVessel</text>
<text text-anchor="start" x="31.5" y="-1658.3" font-family="Helvetica,sans-Serif" font-size="14.00">resourcePosition : Position</text>
<polygon fill="none" stroke="black" points="26,-1649.5 26,-1697.5 387,-1697.5 387,-1649.5 26,-1649.5"/>
</g>
<!-- A_ColdSideClusterContainsFermentationVessel&#45;&gt;ColdSideCluster -->
<g id="edge17" class="edge">
<title>A_ColdSideClusterContainsFermentationVessel&#45;&gt;ColdSideCluster</title>
<path fill="none" stroke="#555555" d="M293.83,-1649.47C330.6,-1639.15 373.94,-1626.87 413,-1615.5 436.24,-1608.74 460.81,-1601.48 484.81,-1594.33"/>
</g>
<!-- A_ColdSideClusterContainsFermentationVessel&#45;&gt;FermentationVessel -->
<g id="edge18" class="edge">
<title>A_ColdSideClusterContainsFermentationVessel&#45;&gt;FermentationVessel</title>
<path fill="none" stroke="#555555" d="M387.26,-1683.56C420.19,-1685.4 454.23,-1687.3 486.19,-1689.09"/>
</g>
<!-- A_ColdSideClusterContainsAirlock -->
<g id="node27" class="node">
<title>A_ColdSideClusterContainsAirlock</title>
<polygon fill="lightblue" stroke="transparent" points="79.5,-1460.5 79.5,-1483.5 334.5,-1483.5 334.5,-1460.5 79.5,-1460.5"/>
<text text-anchor="start" x="83.5" y="-1469.3" font-family="Helvetica,sans-Serif" font-weight="bold" font-size="14.00">ColdSideClusterContainsAirlock</text>
<text text-anchor="start" x="83.5" y="-1445.3" font-family="Helvetica,sans-Serif" font-size="14.00">resourcePosition : Position</text>
<polygon fill="none" stroke="black" points="78,-1436.5 78,-1484.5 335,-1484.5 335,-1436.5 78,-1436.5"/>
</g>
<!-- A_ColdSideClusterContainsAirlock&#45;&gt;ColdSideCluster -->
<g id="edge19" class="edge">
<title>A_ColdSideClusterContainsAirlock&#45;&gt;ColdSideCluster</title>
<path fill="none" stroke="#555555" d="M324.73,-1484.55C374.09,-1494.67 432.19,-1506.59 484.76,-1517.37"/>
</g>
<!-- A_ColdSideClusterContainsAirlock&#45;&gt;Airlock -->
<g id="edge20" class="edge">
<title>A_ColdSideClusterContainsAirlock&#45;&gt;Airlock</title>
<path fill="none" stroke="#555555" d="M335.05,-1442.36C382.23,-1435.66 436.16,-1427.99 485.23,-1421.01"/>
</g>
<!-- A_PackagingClusterContainsBottleOrKegSet -->
<g id="node28" class="node">
<title>A_PackagingClusterContainsBottleOrKegSet</title>
<polygon fill="lightblue" stroke="transparent" points="38.5,-999.5 38.5,-1022.5 375.5,-1022.5 375.5,-999.5 38.5,-999.5"/>
<text text-anchor="start" x="42.5" y="-1008.3" font-family="Helvetica,sans-Serif" font-weight="bold" font-size="14.00">PackagingClusterContainsBottleOrKegSet</text>
<text text-anchor="start" x="42.5" y="-984.3" font-family="Helvetica,sans-Serif" font-size="14.00">resourcePosition : Position</text>
<polygon fill="none" stroke="black" points="37,-975.5 37,-1023.5 376,-1023.5 376,-975.5 37,-975.5"/>
</g>
<!-- A_PackagingClusterContainsBottleOrKegSet&#45;&gt;PackagingCluster -->
<g id="edge21" class="edge">
<title>A_PackagingClusterContainsBottleOrKegSet&#45;&gt;PackagingCluster</title>
<path fill="none" stroke="#555555" d="M308.62,-1023.54C361.14,-1036.03 426.38,-1051.54 484.8,-1065.43"/>
</g>
<!-- A_PackagingClusterContainsBottleOrKegSet&#45;&gt;BottleOrKegSet -->
<g id="edge22" class="edge">
<title>A_PackagingClusterContainsBottleOrKegSet&#45;&gt;BottleOrKegSet</title>
<path fill="none" stroke="#555555" d="M376.13,-981.03C416.48,-976.6 459.11,-971.93 497.92,-967.68"/>
</g>
<!-- A_PackagingClusterContainsCleaningKit -->
<g id="node29" class="node">
<title>A_PackagingClusterContainsCleaningKit</title>
<polygon fill="lightblue" stroke="transparent" points="54.5,-816.5 54.5,-839.5 358.5,-839.5 358.5,-816.5 54.5,-816.5"/>
<text text-anchor="start" x="58.5" y="-825.3" font-family="Helvetica,sans-Serif" font-weight="bold" font-size="14.00">PackagingClusterContainsCleaningKit</text>
<text text-anchor="start" x="58.5" y="-801.3" font-family="Helvetica,sans-Serif" font-size="14.00">resourcePosition : Position</text>
<polygon fill="none" stroke="black" points="53.5,-792.5 53.5,-840.5 359.5,-840.5 359.5,-792.5 53.5,-792.5"/>
</g>
<!-- A_PackagingClusterContainsCleaningKit&#45;&gt;PackagingCluster -->
<g id="edge23" class="edge">
<title>A_PackagingClusterContainsCleaningKit&#45;&gt;PackagingCluster</title>
<path fill="none" stroke="#555555" d="M245.84,-840.72C288.06,-867.94 357.34,-914.27 413,-959.5 447.16,-987.26 448.81,-1002.44 485,-1027.5 492.7,-1032.83 500.84,-1037.99 509.2,-1042.93"/>
</g>
<!-- A_PackagingClusterContainsCleaningKit&#45;&gt;CleaningKit -->
<g id="edge24" class="edge">
<title>A_PackagingClusterContainsCleaningKit&#45;&gt;CleaningKit</title>
<path fill="none" stroke="#555555" d="M359.66,-811.89C405.31,-810.51 455.1,-809 499.7,-807.65"/>
</g>
<!-- A_IngredientStorageClusterContainsGrainSupply -->
<g id="node30" class="node">
<title>A_IngredientStorageClusterContainsGrainSupply</title>
<polygon fill="lightblue" stroke="transparent" points="20.5,-620.5 20.5,-643.5 392.5,-643.5 392.5,-620.5 20.5,-620.5"/>
<text text-anchor="start" x="24.5" y="-629.3" font-family="Helvetica,sans-Serif" font-weight="bold" font-size="14.00">IngredientStorageClusterContainsGrainSupply</text>
<text text-anchor="start" x="24.5" y="-605.3" font-family="Helvetica,sans-Serif" font-size="14.00">resourcePosition : Position</text>
<polygon fill="none" stroke="black" points="19.5,-596.5 19.5,-644.5 393.5,-644.5 393.5,-596.5 19.5,-596.5"/>
</g>
<!-- A_IngredientStorageClusterContainsGrainSupply&#45;&gt;IngredientStorageCluster -->
<g id="edge25" class="edge">
<title>A_IngredientStorageClusterContainsGrainSupply&#45;&gt;IngredientStorageCluster</title>
<path fill="none" stroke="#555555" d="M297.17,-596.46C351.46,-581.91 422.1,-562.97 484.86,-546.15"/>
</g>
<!-- A_IngredientStorageClusterContainsGrainSupply&#45;&gt;GrainSupply -->
<g id="edge26" class="edge">
<title>A_IngredientStorageClusterContainsGrainSupply&#45;&gt;GrainSupply</title>
<path fill="none" stroke="#555555" d="M393.79,-635.26C438.68,-638.82 485.24,-642.51 525.43,-645.7"/>
</g>
<!-- A_IngredientStorageClusterContainsHopSupply -->
<g id="node31" class="node">
<title>A_IngredientStorageClusterContainsHopSupply</title>
<polygon fill="lightblue" stroke="transparent" points="25.5,-469.5 25.5,-492.5 387.5,-492.5 387.5,-469.5 25.5,-469.5"/>
<text text-anchor="start" x="29.5" y="-478.3" font-family="Helvetica,sans-Serif" font-weight="bold" font-size="14.00">IngredientStorageClusterContainsHopSupply</text>
<text text-anchor="start" x="29.5" y="-454.3" font-family="Helvetica,sans-Serif" font-size="14.00">resourcePosition : Position</text>
<polygon fill="none" stroke="black" points="24.5,-445.5 24.5,-493.5 388.5,-493.5 388.5,-445.5 24.5,-445.5"/>
</g>
<!-- A_IngredientStorageClusterContainsHopSupply&#45;&gt;IngredientStorageCluster -->
<g id="edge27" class="edge">
<title>A_IngredientStorageClusterContainsHopSupply&#45;&gt;IngredientStorageCluster</title>
<path fill="none" stroke="#555555" d="M388.5,-484.69C420.54,-487.38 453.6,-490.15 484.72,-492.76"/>
</g>
<!-- A_IngredientStorageClusterContainsHopSupply&#45;&gt;HopSupply -->
<g id="edge28" class="edge">
<title>A_IngredientStorageClusterContainsHopSupply&#45;&gt;HopSupply</title>
<path fill="none" stroke="#555555" d="M298.74,-445.47C364.92,-428.03 454.79,-404.36 525.2,-385.82"/>
</g>
<!-- A_IngredientStorageClusterContainsYeastSupply -->
<g id="node32" class="node">
<title>A_IngredientStorageClusterContainsYeastSupply</title>
<polygon fill="lightblue" stroke="transparent" points="19.5,-317.5 19.5,-340.5 393.5,-340.5 393.5,-317.5 19.5,-317.5"/>
<text text-anchor="start" x="23.5" y="-326.3" font-family="Helvetica,sans-Serif" font-weight="bold" font-size="14.00">IngredientStorageClusterContainsYeastSupply</text>
<text text-anchor="start" x="23.5" y="-302.3" font-family="Helvetica,sans-Serif" font-size="14.00">resourcePosition : Position</text>
<polygon fill="none" stroke="black" points="18.5,-293.5 18.5,-341.5 394.5,-341.5 394.5,-293.5 18.5,-293.5"/>
</g>
<!-- A_IngredientStorageClusterContainsYeastSupply&#45;&gt;IngredientStorageCluster -->
<g id="edge29" class="edge">
<title>A_IngredientStorageClusterContainsYeastSupply&#45;&gt;IngredientStorageCluster</title>
<path fill="none" stroke="#555555" d="M262.27,-341.5C322.58,-367.93 421.76,-411.39 502.87,-446.94"/>
</g>
<!-- A_IngredientStorageClusterContainsYeastSupply&#45;&gt;YeastSupply -->
<g id="edge30" class="edge">
<title>A_IngredientStorageClusterContainsYeastSupply&#45;&gt;YeastSupply</title>
<path fill="none" stroke="#555555" d="M301.12,-293.5C367.07,-276.59 455.65,-253.87 525.22,-236.03"/>
</g>
<!-- A_IngredientStorageClusterContainsWaterSupply -->
<g id="node33" class="node">
<title>A_IngredientStorageClusterContainsWaterSupply</title>
<polygon fill="lightblue" stroke="transparent" points="17.5,-94.5 17.5,-117.5 395.5,-117.5 395.5,-94.5 17.5,-94.5"/>
<text text-anchor="start" x="21.5" y="-103.3" font-family="Helvetica,sans-Serif" font-weight="bold" font-size="14.00">IngredientStorageClusterContainsWaterSupply</text>
<text text-anchor="start" x="21.5" y="-79.3" font-family="Helvetica,sans-Serif" font-size="14.00">resourcePosition : Position</text>
<polygon fill="none" stroke="black" points="16.5,-70.5 16.5,-118.5 396.5,-118.5 396.5,-70.5 16.5,-70.5"/>
</g>
<!-- A_IngredientStorageClusterContainsWaterSupply&#45;&gt;IngredientStorageCluster -->
<g id="edge31" class="edge">
<title>A_IngredientStorageClusterContainsWaterSupply&#45;&gt;IngredientStorageCluster</title>
<path fill="none" stroke="#555555" d="M242.34,-118.56C286.69,-150.6 363.48,-211.03 413,-277.5 458.14,-338.09 432.03,-377.62 485,-431.5 490.34,-436.93 496.15,-442.02 502.29,-446.78"/>
</g>
<!-- A_IngredientStorageClusterContainsWaterSupply&#45;&gt;WaterSupply -->
<g id="edge32" class="edge">
<title>A_IngredientStorageClusterContainsWaterSupply&#45;&gt;WaterSupply</title>
<path fill="none" stroke="#555555" d="M396.6,-78.63C438.16,-75.14 481,-71.55 518.78,-68.38"/>
</g>
<!-- A_HeatSourceSupportsMashVessel -->
<g id="node34" class="node">
<title>A_HeatSourceSupportsMashVessel</title>
<polygon fill="lightblue" stroke="transparent" points="74.5,-2438.5 74.5,-2461.5 338.5,-2461.5 338.5,-2438.5 74.5,-2438.5"/>
<text text-anchor="start" x="78.5" y="-2447.3" font-family="Helvetica,sans-Serif" font-weight="bold" font-size="14.00">HeatSourceSupportsMashVessel</text>
<text text-anchor="start" x="78.5" y="-2423.3" font-family="Helvetica,sans-Serif" font-size="14.00">suppliedPower : Power</text>
<polygon fill="none" stroke="black" points="73.5,-2414.5 73.5,-2462.5 339.5,-2462.5 339.5,-2414.5 73.5,-2414.5"/>
</g>
<!-- A_HeatSourceSupportsMashVessel&#45;&gt;HeatSource -->
<g id="edge33" class="edge">
<title>A_HeatSourceSupportsMashVessel&#45;&gt;HeatSource</title>
<path fill="none" stroke="#555555" d="M339.62,-2414.58C364.26,-2408.89 389.6,-2402.19 413,-2394.5 448.39,-2382.86 485.7,-2367.38 519.48,-2352.04"/>
</g>
<!-- A_HeatSourceSupportsMashVessel&#45;&gt;MashVessel -->
<g id="edge34" class="edge">
<title>A_HeatSourceSupportsMashVessel&#45;&gt;MashVessel</title>
<path fill="none" stroke="#555555" d="M339.71,-2439.73C386.12,-2440.17 438.59,-2440.65 486.36,-2441.1"/>
</g>
<!-- A_HeatSourceSupportsBoilVessel -->
<g id="node35" class="node">
<title>A_HeatSourceSupportsBoilVessel</title>
<polygon fill="lightblue" stroke="transparent" points="81.5,-2170.5 81.5,-2193.5 332.5,-2193.5 332.5,-2170.5 81.5,-2170.5"/>
<text text-anchor="start" x="85.5" y="-2179.3" font-family="Helvetica,sans-Serif" font-weight="bold" font-size="14.00">HeatSourceSupportsBoilVessel</text>
<text text-anchor="start" x="85.5" y="-2155.3" font-family="Helvetica,sans-Serif" font-size="14.00">suppliedPower : Power</text>
<polygon fill="none" stroke="black" points="80,-2146.5 80,-2194.5 333,-2194.5 333,-2146.5 80,-2146.5"/>
</g>
<!-- A_HeatSourceSupportsBoilVessel&#45;&gt;HeatSource -->
<g id="edge35" class="edge">
<title>A_HeatSourceSupportsBoilVessel&#45;&gt;HeatSource</title>
<path fill="none" stroke="#555555" d="M297.67,-2194.54C333.61,-2204.26 375.32,-2215.72 413,-2226.5 438.9,-2233.91 466.42,-2241.99 492.98,-2249.89"/>
</g>
<!-- A_HeatSourceSupportsBoilVessel&#45;&gt;BoilVessel -->
<g id="edge36" class="edge">
<title>A_HeatSourceSupportsBoilVessel&#45;&gt;BoilVessel</title>
<path fill="none" stroke="#555555" d="M281.85,-2146.35C321.17,-2133.1 370.07,-2115.87 413,-2098.5 446.47,-2084.96 482.19,-2069.14 515.04,-2054.01"/>
</g>
<!-- A_ChillerAdjacentToBoilVesselAndFermentationVessel -->
<g id="node36" class="node">
<title>A_ChillerAdjacentToBoilVesselAndFermentationVessel</title>
<polygon fill="lightblue" stroke="transparent" points="1.5,-1846.5 1.5,-1869.5 412.5,-1869.5 412.5,-1846.5 1.5,-1846.5"/>
<text text-anchor="start" x="5.5" y="-1855.3" font-family="Helvetica,sans-Serif" font-weight="bold" font-size="14.00">ChillerAdjacentToBoilVesselAndFermentationVessel</text>
<text text-anchor="start" x="5.5" y="-1831.3" font-family="Helvetica,sans-Serif" font-size="14.00">adjacencyState : OperationalState</text>
<polygon fill="none" stroke="black" points="0,-1822.5 0,-1870.5 413,-1870.5 413,-1822.5 0,-1822.5"/>
</g>
<!-- A_ChillerAdjacentToBoilVesselAndFermentationVessel&#45;&gt;BoilVessel -->
<g id="edge38" class="edge">
<title>A_ChillerAdjacentToBoilVesselAndFermentationVessel&#45;&gt;BoilVessel</title>
<path fill="none" stroke="#555555" d="M276.9,-1870.61C333.34,-1890.21 415.01,-1918.57 486.26,-1943.32"/>
</g>
<!-- A_ChillerAdjacentToBoilVesselAndFermentationVessel&#45;&gt;Chiller -->
<g id="edge37" class="edge">
<title>A_ChillerAdjacentToBoilVesselAndFermentationVessel&#45;&gt;Chiller</title>
<path fill="none" stroke="#555555" d="M413.2,-1846.5C438.26,-1846.5 463.47,-1846.5 487.47,-1846.5"/>
</g>
<!-- A_ChillerAdjacentToBoilVesselAndFermentationVessel&#45;&gt;FermentationVessel -->
<g id="edge39" class="edge">
<title>A_ChillerAdjacentToBoilVesselAndFermentationVessel&#45;&gt;FermentationVessel</title>
<path fill="none" stroke="#555555" d="M341.36,-1822.47C365.47,-1816.84 390.18,-1810.19 413,-1802.5 434.48,-1795.26 476.35,-1776.09 518.1,-1756.07"/>
</g>
</g>
</svg>
