<?xml version="1.0" encoding="UTF-8" standalone="no"?>
<!DOCTYPE svg PUBLIC "-//W3C//DTD SVG 1.1//EN"
 "http://www.w3.org/Graphics/SVG/1.1/DTD/svg11.dtd">
<!-- Generated by graphviz version 2.42.4 (0)
 -->
<!-- Title: ERD Pages: 1 -->
<svg width="876pt" height="2721pt"
 viewBox="0.00 0.00 876.20 2721.20" xmlns="http://www.w3.org/2000/svg" xmlns:xlink="http://www.w3.org/1999/xlink">
<g id="graph0" class="graph" transform="scale(1 1) rotate(0) translate(21.6 2699.6)">
<title>ERD</title>
<polygon fill="white" stroke="transparent" points="-21.6,21.6 -21.6,-2699.6 854.6,-2699.6 854.6,21.6 -21.6,21.6"/>
<text text-anchor="middle" x="416.5" y="-2659.6" font-family="Times,serif" font-size="18.00">Homebrewing Resource Model &#45; Serviceable Equipment and Supplies Network</text>
<!-- BrewStand -->
<g id="node1" class="node">
<title>BrewStand</title>
<polygon fill="lightgray" stroke="transparent" points="509,-2178.5 509,-2201.5 804,-2201.5 804,-2178.5 509,-2178.5"/>
<text text-anchor="start" x="613.5" y="-2187.3" font-family="Helvetica,sans-Serif" font-weight="bold" font-size="14.00">BrewStand</text>
<text text-anchor="start" x="513" y="-2163.3" font-family="Helvetica,sans-Serif" font-size="14.00">brewStandID : Identifier</text>
<text text-anchor="start" x="513" y="-2140.3" font-family="Helvetica,sans-Serif" font-size="14.00">standPosition : Position</text>
<text text-anchor="start" x="513" y="-2117.3" font-family="Helvetica,sans-Serif" font-size="14.00">standExtent : Extent</text>
<text text-anchor="start" x="513" y="-2094.3" font-family="Helvetica,sans-Serif" font-size="14.00">standOperationalState : OperationalState</text>
<polygon fill="none" stroke="black" points="507.5,-2086 507.5,-2203 804.5,-2203 804.5,-2086 507.5,-2086"/>
</g>
<!-- Burner -->
<g id="node2" class="node">
<title>Burner</title>
<polygon fill="lightgray" stroke="transparent" points="505,-2029.5 505,-2052.5 808,-2052.5 808,-2029.5 505,-2029.5"/>
<text text-anchor="start" x="629.5" y="-2038.3" font-family="Helvetica,sans-Serif" font-weight="bold" font-size="14.00">Burner</text>
<text text-anchor="start" x="509" y="-2014.3" font-family="Helvetica,sans-Serif" font-size="14.00">burnerID : Identifier</text>
<text text-anchor="start" x="509" y="-1991.3" font-family="Helvetica,sans-Serif" font-size="14.00">burnerPower : Power</text>
<text text-anchor="start" x="509" y="-1968.3" font-family="Helvetica,sans-Serif" font-size="14.00">fuelState : OperationalState</text>
<text text-anchor="start" x="509" y="-1945.3" font-family="Helvetica,sans-Serif" font-size="14.00">burnerOperationalState : OperationalState</text>
<polygon fill="none" stroke="black" points="503.5,-1937 503.5,-2054 808.5,-2054 808.5,-1937 503.5,-1937"/>
</g>
<!-- Kettle -->
<g id="node3" class="node">
<title>Kettle</title>
<polygon fill="lightgray" stroke="transparent" points="509,-1582.5 509,-1605.5 803,-1605.5 803,-1582.5 509,-1582.5"/>
<text text-anchor="start" x="631.5" y="-1591.3" font-family="Helvetica,sans-Serif" font-weight="bold" font-size="14.00">Kettle</text>
<text text-anchor="start" x="513" y="-1567.3" font-family="Helvetica,sans-Serif" font-size="14.00">kettleID : Identifier</text>
<text text-anchor="start" x="513" y="-1544.3" font-family="Helvetica,sans-Serif" font-size="14.00">kettleVolume : ScalarVolume</text>
<text text-anchor="start" x="513" y="-1521.3" font-family="Helvetica,sans-Serif" font-size="14.00">kettleTemperature : Temperature</text>
<text text-anchor="start" x="513" y="-1498.3" font-family="Helvetica,sans-Serif" font-size="14.00">kettleOperationalState : OperationalState</text>
<polygon fill="none" stroke="black" points="508,-1490 508,-1607 804,-1607 804,-1490 508,-1490"/>
</g>
<!-- FalseBottom -->
<g id="node4" class="node">
<title>FalseBottom</title>
<polygon fill="lightgray" stroke="transparent" points="489,-1880.5 489,-1903.5 823,-1903.5 823,-1880.5 489,-1880.5"/>
<text text-anchor="start" x="606" y="-1889.3" font-family="Helvetica,sans-Serif" font-weight="bold" font-size="14.00">FalseBottom</text>
<text text-anchor="start" x="493" y="-1865.3" font-family="Helvetica,sans-Serif" font-size="14.00">falseBottomID : Identifier</text>
<text text-anchor="start" x="493" y="-1842.3" font-family="Helvetica,sans-Serif" font-size="14.00">componentPosition : Position</text>
<text text-anchor="start" x="493" y="-1819.3" font-family="Helvetica,sans-Serif" font-size="14.00">componentExtent : Extent</text>
<text text-anchor="start" x="493" y="-1796.3" font-family="Helvetica,sans-Serif" font-size="14.00">componentOperationalState : OperationalState</text>
<polygon fill="none" stroke="black" points="488,-1788 488,-1905 824,-1905 824,-1788 488,-1788"/>
</g>
<!-- ValveAssembly -->
<g id="node5" class="node">
<title>ValveAssembly</title>
<polygon fill="lightgray" stroke="transparent" points="495,-1135.5 495,-1158.5 817,-1158.5 817,-1135.5 495,-1135.5"/>
<text text-anchor="start" x="597" y="-1144.3" font-family="Helvetica,sans-Serif" font-weight="bold" font-size="14.00">ValveAssembly</text>
<text text-anchor="start" x="499" y="-1120.3" font-family="Helvetica,sans-Serif" font-size="14.00">valveAssemblyID : Identifier</text>
<text text-anchor="start" x="499" y="-1097.3" font-family="Helvetica,sans-Serif" font-size="14.00">flowState : OperationalState</text>
<text text-anchor="start" x="499" y="-1074.3" font-family="Helvetica,sans-Serif" font-size="14.00">flowRate : MassFlowRate</text>
<text text-anchor="start" x="499" y="-1051.3" font-family="Helvetica,sans-Serif" font-size="14.00">assemblyOperationalState : OperationalState</text>
<polygon fill="none" stroke="black" points="494,-1043 494,-1160 818,-1160 818,-1043 494,-1043"/>
</g>
<!-- TubingSet -->
<g id="node6" class="node">
<title>TubingSet</title>
<polygon fill="lightgray" stroke="transparent" points="518,-986.5 518,-1009.5 795,-1009.5 795,-986.5 518,-986.5"/>
<text text-anchor="start" x="617" y="-995.3" font-family="Helvetica,sans-Serif" font-weight="bold" font-size="14.00">TubingSet</text>
<text text-anchor="start" x="522" y="-971.3" font-family="Helvetica,sans-Serif" font-size="14.00">tubingSetID : Identifier</text>
<text text-anchor="start" x="522" y="-948.3" font-family="Helvetica,sans-Serif" font-size="14.00">lineVolume : ScalarVolume</text>
<text text-anchor="start" x="522" y="-925.3" font-family="Helvetica,sans-Serif" font-size="14.00">flowRate : MassFlowRate</text>
<text text-anchor="start" x="522" y="-902.3" font-family="Helvetica,sans-Serif" font-size="14.00">setOperationalState : OperationalState</text>
<polygon fill="none" stroke="black" points="516.5,-894 516.5,-1011 795.5,-1011 795.5,-894 516.5,-894"/>
</g>
<!-- FermentationBucket -->
<g id="node7" class="node">
<title>FermentationBucket</title>
<polygon fill="lightgray" stroke="transparent" points="505,-688.5 505,-711.5 808,-711.5 808,-688.5 505,-688.5"/>
<text text-anchor="start" x="576" y="-697.3" font-family="Helvetica,sans-Serif" font-weight="bold" font-size="14.00">FermentationBucket</text>
<text text-anchor="start" x="509" y="-673.3" font-family="Helvetica,sans-Serif" font-size="14.00">fermentationBucketID : Identifier</text>
<text text-anchor="start" x="509" y="-650.3" font-family="Helvetica,sans-Serif" font-size="14.00">bucketVolume : ScalarVolume</text>
<text text-anchor="start" x="509" y="-627.3" font-family="Helvetica,sans-Serif" font-size="14.00">bucketTemperature : Temperature</text>
<text text-anchor="start" x="509" y="-604.3" font-family="Helvetica,sans-Serif" font-size="14.00">bucketOperationalState : OperationalState</text>
<polygon fill="none" stroke="black" points="503.5,-596 503.5,-713 808.5,-713 808.5,-596 503.5,-596"/>
</g>
<!-- Stopper -->
<g id="node8" class="node">
<title>Stopper</title>
<polygon fill="lightgray" stroke="transparent" points="489,-241.5 489,-264.5 823,-264.5 823,-241.5 489,-241.5"/>
<text text-anchor="start" x="624.5" y="-250.3" font-family="Helvetica,sans-Serif" font-weight="bold" font-size="14.00">Stopper</text>
<text text-anchor="start" x="493" y="-226.3" font-family="Helvetica,sans-Serif" font-size="14.00">stopperID : Identifier</text>
<text text-anchor="start" x="493" y="-203.3" font-family="Helvetica,sans-Serif" font-size="14.00">sealState : OperationalState</text>
<text text-anchor="start" x="493" y="-180.3" font-family="Helvetica,sans-Serif" font-size="14.00">componentPosition : Position</text>
<text text-anchor="start" x="493" y="-157.3" font-family="Helvetica,sans-Serif" font-size="14.00">componentOperationalState : OperationalState</text>
<polygon fill="none" stroke="black" points="488,-149 488,-266 824,-266 824,-149 488,-149"/>
</g>
<!-- Airlock -->
<g id="node9" class="node">
<title>Airlock</title>
<polygon fill="lightgray" stroke="transparent" points="505,-92.5 505,-115.5 807,-115.5 807,-92.5 505,-92.5"/>
<text text-anchor="start" x="629" y="-101.3" font-family="Helvetica,sans-Serif" font-weight="bold" font-size="14.00">Airlock</text>
<text text-anchor="start" x="509" y="-77.3" font-family="Helvetica,sans-Serif" font-size="14.00">airlockID : Identifier</text>
<text text-anchor="start" x="509" y="-54.3" font-family="Helvetica,sans-Serif" font-size="14.00">liquidVolume : ScalarVolume</text>
<text text-anchor="start" x="509" y="-31.3" font-family="Helvetica,sans-Serif" font-size="14.00">pressureState : OperationalState</text>
<text text-anchor="start" x="509" y="-8.3" font-family="Helvetica,sans-Serif" font-size="14.00">airlockOperationalState : OperationalState</text>
<polygon fill="none" stroke="black" points="504,0 504,-117 808,-117 808,0 504,0"/>
</g>
<!-- Hydrometer -->
<g id="node10" class="node">
<title>Hydrometer</title>
<polygon fill="lightgray" stroke="transparent" points="480,-539.5 480,-562.5 832,-562.5 832,-539.5 480,-539.5"/>
<text text-anchor="start" x="608.5" y="-548.3" font-family="Helvetica,sans-Serif" font-weight="bold" font-size="14.00">Hydrometer</text>
<text text-anchor="start" x="484" y="-524.3" font-family="Helvetica,sans-Serif" font-size="14.00">hydrometerID : Identifier</text>
<text text-anchor="start" x="484" y="-501.3" font-family="Helvetica,sans-Serif" font-size="14.00">measurementCount : Count</text>
<text text-anchor="start" x="484" y="-478.3" font-family="Helvetica,sans-Serif" font-size="14.00">measurementOperationalState : OperationalState</text>
<text text-anchor="start" x="484" y="-455.3" font-family="Helvetica,sans-Serif" font-size="14.00">sampleTemperature : Temperature</text>
<polygon fill="none" stroke="black" points="479,-447 479,-564 833,-564 833,-447 479,-447"/>
</g>
<!-- Thermometer -->
<g id="node11" class="node">
<title>Thermometer</title>
<polygon fill="lightgray" stroke="transparent" points="480,-1731.5 480,-1754.5 832,-1754.5 832,-1731.5 480,-1731.5"/>
<text text-anchor="start" x="602" y="-1740.3" font-family="Helvetica,sans-Serif" font-weight="bold" font-size="14.00">Thermometer</text>
<text text-anchor="start" x="484" y="-1716.3" font-family="Helvetica,sans-Serif" font-size="14.00">thermometerID : Identifier</text>
<text text-anchor="start" x="484" y="-1693.3" font-family="Helvetica,sans-Serif" font-size="14.00">measurementCount : Count</text>
<text text-anchor="start" x="484" y="-1670.3" font-family="Helvetica,sans-Serif" font-size="14.00">measurementOperationalState : OperationalState</text>
<text text-anchor="start" x="484" y="-1647.3" font-family="Helvetica,sans-Serif" font-size="14.00">measuredTemperature : Temperature</text>
<polygon fill="none" stroke="black" points="479,-1639 479,-1756 833,-1756 833,-1639 479,-1639"/>
</g>
<!-- GrainBag -->
<g id="node12" class="node">
<title>GrainBag</title>
<polygon fill="lightgray" stroke="transparent" points="515,-1433.5 515,-1456.5 797,-1456.5 797,-1433.5 515,-1433.5"/>
<text text-anchor="start" x="619.5" y="-1442.3" font-family="Helvetica,sans-Serif" font-weight="bold" font-size="14.00">GrainBag</text>
<text text-anchor="start" x="519" y="-1418.3" font-family="Helvetica,sans-Serif" font-size="14.00">grainBagID : Identifier</text>
<text text-anchor="start" x="519" y="-1395.3" font-family="Helvetica,sans-Serif" font-size="14.00">storedMass : Mass</text>
<text text-anchor="start" x="519" y="-1372.3" font-family="Helvetica,sans-Serif" font-size="14.00">bagExtent : Extent</text>
<text text-anchor="start" x="519" y="-1349.3" font-family="Helvetica,sans-Serif" font-size="14.00">bagOperationalState : OperationalState</text>
<polygon fill="none" stroke="black" points="514,-1341 514,-1458 798,-1458 798,-1341 514,-1341"/>
</g>
<!-- HopPacket -->
<g id="node13" class="node">
<title>HopPacket</title>
<polygon fill="lightgray" stroke="transparent" points="505,-1284.5 505,-1307.5 807,-1307.5 807,-1284.5 505,-1284.5"/>
<text text-anchor="start" x="613.5" y="-1293.3" font-family="Helvetica,sans-Serif" font-weight="bold" font-size="14.00">HopPacket</text>
<text text-anchor="start" x="509" y="-1269.3" font-family="Helvetica,sans-Serif" font-size="14.00">hopPacketID : Identifier</text>
<text text-anchor="start" x="509" y="-1246.3" font-family="Helvetica,sans-Serif" font-size="14.00">storedMass : Mass</text>
<text text-anchor="start" x="509" y="-1223.3" font-family="Helvetica,sans-Serif" font-size="14.00">packetExtent : Extent</text>
<text text-anchor="start" x="509" y="-1200.3" font-family="Helvetica,sans-Serif" font-size="14.00">packetOperationalState : OperationalState</text>
<polygon fill="none" stroke="black" points="504,-1192 504,-1309 808,-1309 808,-1192 504,-1192"/>
</g>
<!-- YeastPacket -->
<g id="node14" class="node">
<title>YeastPacket</title>
<polygon fill="lightgray" stroke="transparent" points="505,-390.5 505,-413.5 807,-413.5 807,-390.5 505,-390.5"/>
<text text-anchor="start" x="607.5" y="-399.3" font-family="Helvetica,sans-Serif" font-weight="bold" font-size="14.00">YeastPacket</text>
<text text-anchor="start" x="509" y="-375.3" font-family="Helvetica,sans-Serif" font-size="14.00">yeastPacketID : Identifier</text>
<text text-anchor="start" x="509" y="-352.3" font-family="Helvetica,sans-Serif" font-size="14.00">storedMass : Mass</text>
<text text-anchor="start" x="509" y="-329.3" font-family="Helvetica,sans-Serif" font-size="14.00">packetExtent : Extent</text>
<text text-anchor="start" x="509" y="-306.3" font-family="Helvetica,sans-Serif" font-size="14.00">packetOperationalState : OperationalState</text>
<polygon fill="none" stroke="black" points="504,-298 504,-415 808,-415 808,-298 504,-298"/>
</g>
<!-- PrimingSugarContainer -->
<g id="node15" class="node">
<title>PrimingSugarContainer</title>
<polygon fill="lightgray" stroke="transparent" points="496,-2625.5 496,-2648.5 817,-2648.5 817,-2625.5 496,-2625.5"/>
<text text-anchor="start" x="564.5" y="-2634.3" font-family="Helvetica,sans-Serif" font-weight="bold" font-size="14.00">PrimingSugarContainer</text>
<text text-anchor="start" x="500" y="-2610.3" font-family="Helvetica,sans-Serif" font-size="14.00">primingSugarContainerID : Identifier</text>
<text text-anchor="start" x="500" y="-2587.3" font-family="Helvetica,sans-Serif" font-size="14.00">storedMass : Mass</text>
<text text-anchor="start" x="500" y="-2564.3" font-family="Helvetica,sans-Serif" font-size="14.00">containerExtent : Extent</text>
<text text-anchor="start" x="500" y="-2541.3" font-family="Helvetica,sans-Serif" font-size="14.00">containerOperationalState : OperationalState</text>
<polygon fill="none" stroke="black" points="494.5,-2533 494.5,-2650 817.5,-2650 817.5,-2533 494.5,-2533"/>
</g>
<!-- BottleSet -->
<g id="node16" class="node">
<title>BottleSet</title>
<polygon fill="lightgray" stroke="transparent" points="518,-2476.5 518,-2499.5 795,-2499.5 795,-2476.5 518,-2476.5"/>
<text text-anchor="start" x="619" y="-2485.3" font-family="Helvetica,sans-Serif" font-weight="bold" font-size="14.00">BottleSet</text>
<text text-anchor="start" x="522" y="-2461.3" font-family="Helvetica,sans-Serif" font-size="14.00">bottleSetID : Identifier</text>
<text text-anchor="start" x="522" y="-2438.3" font-family="Helvetica,sans-Serif" font-size="14.00">bottleCount : Count</text>
<text text-anchor="start" x="522" y="-2415.3" font-family="Helvetica,sans-Serif" font-size="14.00">bottleVolume : ScalarVolume</text>
<text text-anchor="start" x="522" y="-2392.3" font-family="Helvetica,sans-Serif" font-size="14.00">setOperationalState : OperationalState</text>
<polygon fill="none" stroke="black" points="516.5,-2384 516.5,-2501 795.5,-2501 795.5,-2384 516.5,-2384"/>
</g>
<!-- Capper -->
<g id="node17" class="node">
<title>Capper</title>
<polygon fill="lightgray" stroke="transparent" points="504,-2327.5 504,-2350.5 808,-2350.5 808,-2327.5 504,-2327.5"/>
<text text-anchor="start" x="627.5" y="-2336.3" font-family="Helvetica,sans-Serif" font-weight="bold" font-size="14.00">Capper</text>
<text text-anchor="start" x="508" y="-2312.3" font-family="Helvetica,sans-Serif" font-size="14.00">capperID : Identifier</text>
<text text-anchor="start" x="508" y="-2289.3" font-family="Helvetica,sans-Serif" font-size="14.00">capperForce : Force</text>
<text text-anchor="start" x="508" y="-2266.3" font-family="Helvetica,sans-Serif" font-size="14.00">capperOperationalState : OperationalState</text>
<text text-anchor="start" x="508" y="-2243.3" font-family="Helvetica,sans-Serif" font-size="14.00">useCount : Count</text>
<polygon fill="none" stroke="black" points="503,-2235 503,-2352 809,-2352 809,-2235 503,-2235"/>
</g>
<!-- SanitizerBottle -->
<g id="node18" class="node">
<title>SanitizerBottle</title>
<polygon fill="lightgray" stroke="transparent" points="508,-837.5 508,-860.5 804,-860.5 804,-837.5 508,-837.5"/>
<text text-anchor="start" x="597" y="-846.3" font-family="Helvetica,sans-Serif" font-weight="bold" font-size="14.00">SanitizerBottle</text>
<text text-anchor="start" x="512" y="-822.3" font-family="Helvetica,sans-Serif" font-size="14.00">sanitizerBottleID : Identifier</text>
<text text-anchor="start" x="512" y="-799.3" font-family="Helvetica,sans-Serif" font-size="14.00">solutionVolume : ScalarVolume</text>
<text text-anchor="start" x="512" y="-776.3" font-family="Helvetica,sans-Serif" font-size="14.00">sprayState : OperationalState</text>
<text text-anchor="start" x="512" y="-753.3" font-family="Helvetica,sans-Serif" font-size="14.00">bottleOperationalState : OperationalState</text>
<polygon fill="none" stroke="black" points="507,-745 507,-862 805,-862 805,-745 507,-745"/>
</g>
<!-- A_BrewStandSupportsBurner -->
<g id="node19" class="node">
<title>A_BrewStandSupportsBurner</title>
<polygon fill="lightblue" stroke="transparent" points="94.5,-2069.5 94.5,-2092.5 312.5,-2092.5 312.5,-2069.5 94.5,-2069.5"/>
<text text-anchor="start" x="98.5" y="-2078.3" font-family="Helvetica,sans-Serif" font-weight="bold" font-size="14.00">BrewStandSupportsBurner</text>
<text text-anchor="start" x="98.5" y="-2054.3" font-family="Helvetica,sans-Serif" font-size="14.00">supportPosition : Position</text>
<polygon fill="none" stroke="black" points="93.5,-2045.5 93.5,-2093.5 313.5,-2093.5 313.5,-2045.5 93.5,-2045.5"/>
</g>
<!-- A_BrewStandSupportsBurner&#45;&gt;BrewStand -->
<g id="edge1" class="edge">
<title>A_BrewStandSupportsBurner&#45;&gt;BrewStand</title>
<path fill="none" stroke="#555555" d="M313.55,-2087.66C371.75,-2097.34 444.21,-2109.41 507.38,-2119.92"/>
</g>
<!-- A_BrewStandSupportsBurner&#45;&gt;Burner -->
<g id="edge2" class="edge">
<title>A_BrewStandSupportsBurner&#45;&gt;Burner</title>
<path fill="none" stroke="#555555" d="M313.55,-2051.59C370.45,-2042.24 440.97,-2030.66 503.12,-2020.45"/>
</g>
<!-- A_BrewStandSupportsKettle -->
<g id="node20" class="node">
<title>A_BrewStandSupportsKettle</title>
<polygon fill="lightblue" stroke="transparent" points="97.5,-1907.5 97.5,-1930.5 310.5,-1930.5 310.5,-1907.5 97.5,-1907.5"/>
<text text-anchor="start" x="101.5" y="-1916.3" font-family="Helvetica,sans-Serif" font-weight="bold" font-size="14.00">BrewStandSupportsKettle</text>
<text text-anchor="start" x="101.5" y="-1892.3" font-family="Helvetica,sans-Serif" font-size="14.00">supportPosition : Position</text>
<polygon fill="none" stroke="black" points="96,-1883.5 96,-1931.5 311,-1931.5 311,-1883.5 96,-1883.5"/>
</g>
<!-- A_BrewStandSupportsKettle&#45;&gt;BrewStand -->
<g id="edge3" class="edge">
<title>A_BrewStandSupportsKettle&#45;&gt;BrewStand</title>
<path fill="none" stroke="#555555" d="M244.31,-1931.55C314.57,-1973.94 455.4,-2058.6 479,-2070.5 489.36,-2075.72 500.18,-2080.9 511.13,-2085.95"/>
</g>
<!-- A_BrewStandSupportsKettle&#45;&gt;Kettle -->
<g id="edge4" class="edge">
<title>A_BrewStandSupportsKettle&#45;&gt;Kettle</title>
<path fill="none" stroke="#555555" d="M281.72,-1883.4C323.54,-1866.95 373.38,-1841.37 407,-1804.5 465.34,-1740.53 418.53,-1685.46 479,-1623.5 487.58,-1614.71 497.36,-1606.89 507.81,-1599.94"/>
</g>
<!-- A_KettleContainsFalseBottom -->
<g id="node21" class="node">
<title>A_KettleContainsFalseBottom</title>
<polygon fill="lightblue" stroke="transparent" points="91.5,-1652.5 91.5,-1675.5 316.5,-1675.5 316.5,-1652.5 91.5,-1652.5"/>
<text text-anchor="start" x="95.5" y="-1661.3" font-family="Helvetica,sans-Serif" font-weight="bold" font-size="14.00">KettleContainsFalseBottom</text>
<text text-anchor="start" x="95.5" y="-1637.3" font-family="Helvetica,sans-Serif" font-size="14.00">componentPosition : Position</text>
<polygon fill="none" stroke="black" points="90,-1628.5 90,-1676.5 317,-1676.5 317,-1628.5 90,-1628.5"/>
</g>
<!-- A_KettleContainsFalseBottom&#45;&gt;Kettle -->
<g id="edge5" class="edge">
<title>A_KettleContainsFalseBottom&#45;&gt;Kettle</title>
<path fill="none" stroke="#555555" d="M308.7,-1628.44C367.83,-1614.8 442.78,-1597.49 507.82,-1582.48"/>
</g>
<!-- A_KettleContainsFalseBottom&#45;&gt;FalseBottom -->
<g id="edge6" class="edge">
<title>A_KettleContainsFalseBottom&#45;&gt;FalseBottom</title>
<path fill="none" stroke="#555555" d="M286.71,-1676.62C324.27,-1688.93 368.81,-1705.35 407,-1724.5 441.38,-1741.74 445.12,-1754.3 479,-1772.5 488.78,-1777.76 499.02,-1782.9 509.42,-1787.88"/>
</g>
<!-- A_KettleContainsValveAssembly -->
<g id="node22" class="node">
<title>A_KettleContainsValveAssembly</title>
<polygon fill="lightblue" stroke="transparent" points="82.5,-1195.5 82.5,-1218.5 325.5,-1218.5 325.5,-1195.5 82.5,-1195.5"/>
<text text-anchor="start" x="86.5" y="-1204.3" font-family="Helvetica,sans-Serif" font-weight="bold" font-size="14.00">KettleContainsValveAssembly</text>
<text text-anchor="start" x="86.5" y="-1180.3" font-family="Helvetica,sans-Serif" font-size="14.00">componentPosition : Position</text>
<polygon fill="none" stroke="black" points="81,-1171.5 81,-1219.5 326,-1219.5 326,-1171.5 81,-1171.5"/>
</g>
<!-- A_KettleContainsValveAssembly&#45;&gt;Kettle -->
<g id="edge7" class="edge">
<title>A_KettleContainsValveAssembly&#45;&gt;Kettle</title>
<path fill="none" stroke="#555555" d="M326.26,-1217.33C355.7,-1227.54 384.98,-1242.53 407,-1264.5 476.83,-1334.2 411.63,-1402.41 479,-1474.5 487.49,-1483.58 497.26,-1491.59 507.77,-1498.65"/>
</g>
<!-- A_KettleContainsValveAssembly&#45;&gt;ValveAssembly -->
<g id="edge8" class="edge">
<title>A_KettleContainsValveAssembly&#45;&gt;ValveAssembly</title>
<path fill="none" stroke="#555555" d="M319.64,-1171.48C372.56,-1160.43 436.23,-1147.15 493.82,-1135.13"/>
</g>
<!-- A_ValveAssemblyConnectsTubingSet -->
<g id="node23" class="node">
<title>A_ValveAssemblyConnectsTubingSet</title>
<polygon fill="lightblue" stroke="transparent" points="65.5,-1101.5 65.5,-1124.5 341.5,-1124.5 341.5,-1101.5 65.5,-1101.5"/>
<text text-anchor="start" x="69.5" y="-1110.3" font-family="Helvetica,sans-Serif" font-weight="bold" font-size="14.00">ValveAssemblyConnectsTubingSet</text>
<text text-anchor="start" x="69.5" y="-1086.3" font-family="Helvetica,sans-Serif" font-size="14.00">connectionState : OperationalState</text>
<polygon fill="none" stroke="black" points="64.5,-1077.5 64.5,-1125.5 342.5,-1125.5 342.5,-1077.5 64.5,-1077.5"/>
</g>
<!-- A_ValveAssemblyConnectsTubingSet&#45;&gt;ValveAssembly -->
<g id="edge9" class="edge">
<title>A_ValveAssemblyConnectsTubingSet&#45;&gt;ValveAssembly</title>
<path fill="none" stroke="#555555" d="M342.73,-1101.5C390.45,-1101.5 444.32,-1101.5 493.73,-1101.5"/>
</g>
<!-- A_ValveAssemblyConnectsTubingSet&#45;&gt;TubingSet -->
<g id="edge10" class="edge">
<title>A_ValveAssemblyConnectsTubingSet&#45;&gt;TubingSet</title>
<path fill="none" stroke="#555555" d="M342.66,-1078.95C364.42,-1074.04 386.49,-1068.25 407,-1061.5 440.61,-1050.43 446.72,-1041.99 479,-1027.5 491.12,-1022.06 503.75,-1016.49 516.43,-1010.96"/>
</g>
<!-- A_TubingSetConnectsKettleAndFermentationBucket -->
<g id="node24" class="node">
<title>A_TubingSetConnectsKettleAndFermentationBucket</title>
<polygon fill="lightblue" stroke="transparent" points="4.5,-941.5 4.5,-964.5 402.5,-964.5 402.5,-941.5 4.5,-941.5"/>
<text text-anchor="start" x="8.5" y="-950.3" font-family="Helvetica,sans-Serif" font-weight="bold" font-size="14.00">TubingSetConnectsKettleAndFermentationBucket</text>
<text text-anchor="start" x="8.5" y="-926.3" font-family="Helvetica,sans-Serif" font-size="14.00">connectionState : OperationalState</text>
<polygon fill="none" stroke="black" points="3.5,-917.5 3.5,-965.5 403.5,-965.5 403.5,-917.5 3.5,-917.5"/>
</g>
<!-- A_TubingSetConnectsKettleAndFermentationBucket&#45;&gt;Kettle -->
<g id="edge12" class="edge">
<title>A_TubingSetConnectsKettleAndFermentationBucket&#45;&gt;Kettle</title>
<path fill="none" stroke="#555555" d="M388.27,-965.75C395.02,-970.31 401.32,-975.53 407,-981.5 559.62,-1141.94 343.43,-1299.42 479,-1474.5 487.12,-1484.98 497,-1494 507.88,-1501.74"/>
</g>
<!-- A_TubingSetConnectsKettleAndFermentationBucket&#45;&gt;TubingSet -->
<g id="edge11" class="edge">
<title>A_TubingSetConnectsKettleAndFermentationBucket&#45;&gt;TubingSet</title>
<path fill="none" stroke="#555555" d="M403.74,-946.36C441.77,-947.29 480.81,-948.25 516.44,-949.12"/>
</g>
<!-- A_TubingSetConnectsKettleAndFermentationBucket&#45;&gt;FermentationBucket -->
<g id="edge13" class="edge">
<title>A_TubingSetConnectsKettleAndFermentationBucket&#45;&gt;FermentationBucket</title>
<path fill="none" stroke="#555555" d="M230.84,-917.19C277.86,-874.71 380.58,-786.03 479,-728.5 488.16,-723.15 497.78,-717.98 507.6,-713.03"/>
</g>
<!-- A_FermentationBucketContainsStopper -->
<g id="node25" class="node">
<title>A_FermentationBucketContainsStopper</title>
<polygon fill="lightblue" stroke="transparent" points="53.5,-241.5 53.5,-264.5 353.5,-264.5 353.5,-241.5 53.5,-241.5"/>
<text text-anchor="start" x="57.5" y="-250.3" font-family="Helvetica,sans-Serif" font-weight="bold" font-size="14.00">FermentationBucketContainsStopper</text>
<text text-anchor="start" x="57.5" y="-226.3" font-family="Helvetica,sans-Serif" font-size="14.00">componentPosition : Position</text>
<polygon fill="none" stroke="black" points="52.5,-217.5 52.5,-265.5 354.5,-265.5 354.5,-217.5 52.5,-217.5"/>
</g>
<!-- A_FermentationBucketContainsStopper&#45;&gt;FermentationBucket -->
<g id="edge14" class="edge">
<title>A_FermentationBucketContainsStopper&#45;&gt;FermentationBucket</title>
<path fill="none" stroke="#555555" d="M279.34,-265.65C322.23,-283.01 373.93,-310.5 407,-350.5 474.98,-432.73 407.35,-500.45 479,-579.5 486.25,-587.5 494.49,-594.67 503.37,-601.11"/>
</g>
<!-- A_FermentationBucketContainsStopper&#45;&gt;Stopper -->
<g id="edge15" class="edge">
<title>A_FermentationBucketContainsStopper&#45;&gt;Stopper</title>
<path fill="none" stroke="#555555" d="M354.51,-230.18C397.26,-226.95 444.08,-223.42 487.79,-220.12"/>
</g>
<!-- A_StopperContainsAirlock -->
<g id="node26" class="node">
<title>A_StopperContainsAirlock</title>
<polygon fill="lightblue" stroke="transparent" points="99.5,-92.5 99.5,-115.5 307.5,-115.5 307.5,-92.5 99.5,-92.5"/>
<text text-anchor="start" x="111" y="-101.3" font-family="Helvetica,sans-Serif" font-weight="bold" font-size="14.00">StopperContainsAirlock</text>
<text text-anchor="start" x="103.5" y="-77.3" font-family="Helvetica,sans-Serif" font-size="14.00">componentPosition : Position</text>
<polygon fill="none" stroke="black" points="98.5,-68.5 98.5,-116.5 308.5,-116.5 308.5,-68.5 98.5,-68.5"/>
</g>
<!-- A_StopperContainsAirlock&#45;&gt;Stopper -->
<g id="edge16" class="edge">
<title>A_StopperContainsAirlock&#45;&gt;Stopper</title>
<path fill="none" stroke="#555555" d="M298.67,-116.54C353.35,-130.5 423.84,-148.49 487.67,-164.79"/>
</g>
<!-- A_StopperContainsAirlock&#45;&gt;Airlock -->
<g id="edge17" class="edge">
<title>A_StopperContainsAirlock&#45;&gt;Airlock</title>
<path fill="none" stroke="#555555" d="M308.7,-84.64C366.66,-80.26 439.82,-74.74 503.95,-69.9"/>
</g>
<!-- A_HydrometerUsedWithFermentationBucket -->
<g id="node27" class="node">
<title>A_HydrometerUsedWithFermentationBucket</title>
<polygon fill="lightblue" stroke="transparent" points="34.5,-539.5 34.5,-562.5 373.5,-562.5 373.5,-539.5 34.5,-539.5"/>
<text text-anchor="start" x="38.5" y="-548.3" font-family="Helvetica,sans-Serif" font-weight="bold" font-size="14.00">HydrometerUsedWithFermentationBucket</text>
<text text-anchor="start" x="38.5" y="-524.3" font-family="Helvetica,sans-Serif" font-size="14.00">usageState : OperationalState</text>
<polygon fill="none" stroke="black" points="33,-515.5 33,-563.5 374,-563.5 374,-515.5 33,-515.5"/>
</g>
<!-- A_HydrometerUsedWithFermentationBucket&#45;&gt;FermentationBucket -->
<g id="edge19" class="edge">
<title>A_HydrometerUsedWithFermentationBucket&#45;&gt;FermentationBucket</title>
<path fill="none" stroke="#555555" d="M298.67,-563.54C357.86,-578.65 435.59,-598.49 503.33,-615.78"/>
</g>
<!-- A_HydrometerUsedWithFermentationBucket&#45;&gt;Hydrometer -->
<g id="edge18" class="edge">
<title>A_HydrometerUsedWithFermentationBucket&#45;&gt;Hydrometer</title>
<path fill="none" stroke="#555555" d="M374.17,-526.69C408.34,-524.12 444.33,-521.4 478.72,-518.8"/>
</g>
<!-- A_ThermometerUsedWithKettle -->
<g id="node28" class="node">
<title>A_ThermometerUsedWithKettle</title>
<polygon fill="lightblue" stroke="transparent" points="83.5,-1556.5 83.5,-1579.5 323.5,-1579.5 323.5,-1556.5 83.5,-1556.5"/>
<text text-anchor="start" x="87.5" y="-1565.3" font-family="Helvetica,sans-Serif" font-weight="bold" font-size="14.00">ThermometerUsedWithKettle</text>
<text text-anchor="start" x="87.5" y="-1541.3" font-family="Helvetica,sans-Serif" font-size="14.00">usageState : OperationalState</text>
<polygon fill="none" stroke="black" points="82.5,-1532.5 82.5,-1580.5 324.5,-1580.5 324.5,-1532.5 82.5,-1532.5"/>
</g>
<!-- A_ThermometerUsedWithKettle&#45;&gt;Kettle -->
<g id="edge21" class="edge">
<title>A_ThermometerUsedWithKettle&#45;&gt;Kettle</title>
<path fill="none" stroke="#555555" d="M324.63,-1554.37C380.93,-1553.37 448.53,-1552.17 507.87,-1551.11"/>
</g>
<!-- A_ThermometerUsedWithKettle&#45;&gt;Thermometer -->
<g id="edge20" class="edge">
<title>A_ThermometerUsedWithKettle&#45;&gt;Thermometer</title>
<path fill="none" stroke="#555555" d="M296.07,-1580.56C330.93,-1590.05 370.93,-1601.34 407,-1612.5 433.52,-1620.7 461.49,-1629.83 488.7,-1638.96"/>
</g>
<!-- A_GrainBagStoredAdjacentToKettle -->
<g id="node29" class="node">
<title>A_GrainBagStoredAdjacentToKettle</title>
<polygon fill="lightblue" stroke="transparent" points="70.5,-1433.5 70.5,-1456.5 337.5,-1456.5 337.5,-1433.5 70.5,-1433.5"/>
<text text-anchor="start" x="74.5" y="-1442.3" font-family="Helvetica,sans-Serif" font-weight="bold" font-size="14.00">GrainBagStoredAdjacentToKettle</text>
<text text-anchor="start" x="74.5" y="-1418.3" font-family="Helvetica,sans-Serif" font-size="14.00">adjacencyState : OperationalState</text>
<polygon fill="none" stroke="black" points="69,-1409.5 69,-1457.5 338,-1457.5 338,-1409.5 69,-1409.5"/>
</g>
<!-- A_GrainBagStoredAdjacentToKettle&#45;&gt;Kettle -->
<g id="edge23" class="edge">
<title>A_GrainBagStoredAdjacentToKettle&#45;&gt;Kettle</title>
<path fill="none" stroke="#555555" d="M298.67,-1457.54C359.15,-1472.98 438.98,-1493.36 507.75,-1510.91"/>
</g>
<!-- A_GrainBagStoredAdjacentToKettle&#45;&gt;GrainBag -->
<g id="edge22" class="edge">
<title>A_GrainBagStoredAdjacentToKettle&#45;&gt;GrainBag</title>
<path fill="none" stroke="#555555" d="M338.14,-1423.41C393.52,-1419.23 457.82,-1414.38 513.96,-1410.14"/>
</g>
<!-- A_HopPacketStoredAdjacentToKettle -->
<g id="node30" class="node">
<title>A_HopPacketStoredAdjacentToKettle</title>
<polygon fill="lightblue" stroke="transparent" points="63.5,-1304.5 63.5,-1327.5 343.5,-1327.5 343.5,-1304.5 63.5,-1304.5"/>
<text text-anchor="start" x="67.5" y="-1313.3" font-family="Helvetica,sans-Serif" font-weight="bold" font-size="14.00">HopPacketStoredAdjacentToKettle</text>
<text text-anchor="start" x="67.5" y="-1289.3" font-family="Helvetica,sans-Serif" font-size="14.00">adjacencyState : OperationalState</text>
<polygon fill="none" stroke="black" points="62.5,-1280.5 62.5,-1328.5 344.5,-1328.5 344.5,-1280.5 62.5,-1280.5"/>
</g>
<!-- A_HopPacketStoredAdjacentToKettle&#45;&gt;Kettle -->
<g id="edge25" class="edge">
<title>A_HopPacketStoredAdjacentToKettle&#45;&gt;Kettle</title>
<path fill="none" stroke="#555555" d="M279.3,-1328.56C319.39,-1343.55 368.34,-1365.37 407,-1393.5 445.94,-1421.84 439.83,-1446.47 479,-1474.5 488.03,-1480.96 497.71,-1487 507.72,-1492.61"/>
</g>
<!-- A_HopPacketStoredAdjacentToKettle&#45;&gt;HopPacket -->
<g id="edge24" class="edge">
<title>A_HopPacketStoredAdjacentToKettle&#45;&gt;HopPacket</title>
<path fill="none" stroke="#555555" d="M344.57,-1287.71C395.07,-1281.66 452.26,-1274.8 503.68,-1268.64"/>
</g>
<!-- A_YeastPacketStoredAdjacentToFermentationBucket -->
<g id="node31" class="node">
<title>A_YeastPacketStoredAdjacentToFermentationBucket</title>
<polygon fill="lightblue" stroke="transparent" points="1.5,-390.5 1.5,-413.5 406.5,-413.5 406.5,-390.5 1.5,-390.5"/>
<text text-anchor="start" x="5.5" y="-399.3" font-family="Helvetica,sans-Serif" font-weight="bold" font-size="14.00">YeastPacketStoredAdjacentToFermentationBucket</text>
<text text-anchor="start" x="5.5" y="-375.3" font-family="Helvetica,sans-Serif" font-size="14.00">adjacencyState : OperationalState</text>
<polygon fill="none" stroke="black" points="0,-366.5 0,-414.5 407,-414.5 407,-366.5 0,-366.5"/>
</g>
<!-- A_YeastPacketStoredAdjacentToFermentationBucket&#45;&gt;FermentationBucket -->
<g id="edge27" class="edge">
<title>A_YeastPacketStoredAdjacentToFermentationBucket&#45;&gt;FermentationBucket</title>
<path fill="none" stroke="#555555" d="M261.35,-414.64C303.77,-434.14 361.95,-464.11 407,-499.5 444.62,-529.05 440.08,-551.69 479,-579.5 487.11,-585.29 495.73,-590.76 504.64,-595.89"/>
</g>
<!-- A_YeastPacketStoredAdjacentToFermentationBucket&#45;&gt;YeastPacket -->
<g id="edge26" class="edge">
<title>A_YeastPacketStoredAdjacentToFermentationBucket&#45;&gt;YeastPacket</title>
<path fill="none" stroke="#555555" d="M407.02,-375.22C439.62,-372.75 472.87,-370.25 503.99,-367.9"/>
</g>
<!-- A_PrimingSugarContainerStoredAdjacentToBottleSet -->
<g id="node32" class="node">
<title>A_PrimingSugarContainerStoredAdjacentToBottleSet</title>
<polygon fill="lightblue" stroke="transparent" points="1.5,-2499.5 1.5,-2522.5 406.5,-2522.5 406.5,-2499.5 1.5,-2499.5"/>
<text text-anchor="start" x="5.5" y="-2508.3" font-family="Helvetica,sans-Serif" font-weight="bold" font-size="14.00">PrimingSugarContainerStoredAdjacentToBottleSet</text>
<text text-anchor="start" x="5.5" y="-2484.3" font-family="Helvetica,sans-Serif" font-size="14.00">adjacencyState : OperationalState</text>
<polygon fill="none" stroke="black" points="0,-2475.5 0,-2523.5 407,-2523.5 407,-2475.5 0,-2475.5"/>
</g>
<!-- A_PrimingSugarContainerStoredAdjacentToBottleSet&#45;&gt;PrimingSugarContainer -->
<g id="edge28" class="edge">
<title>A_PrimingSugarContainerStoredAdjacentToBottleSet&#45;&gt;PrimingSugarContainer</title>
<path fill="none" stroke="#555555" d="M322.28,-2523.55C374.81,-2534.28 437.52,-2547.09 494.27,-2558.68"/>
</g>
<!-- A_PrimingSugarContainerStoredAdjacentToBottleSet&#45;&gt;BottleSet -->
<g id="edge29" class="edge">
<title>A_PrimingSugarContainerStoredAdjacentToBottleSet&#45;&gt;BottleSet</title>
<path fill="none" stroke="#555555" d="M394.25,-2475.49C435.25,-2470.3 477.86,-2464.91 516.46,-2460.03"/>
</g>
<!-- A_CapperUsedWithBottleSet -->
<g id="node33" class="node">
<title>A_CapperUsedWithBottleSet</title>
<polygon fill="lightblue" stroke="transparent" points="95.5,-2385.5 95.5,-2408.5 312.5,-2408.5 312.5,-2385.5 95.5,-2385.5"/>
<text text-anchor="start" x="100.5" y="-2394.3" font-family="Helvetica,sans-Serif" font-weight="bold" font-size="14.00">CapperUsedWithBottleSet</text>
<text text-anchor="start" x="99.5" y="-2370.3" font-family="Helvetica,sans-Serif" font-size="14.00">usageState : OperationalState</text>
<polygon fill="none" stroke="black" points="94,-2361.5 94,-2409.5 313,-2409.5 313,-2361.5 94,-2361.5"/>
</g>
<!-- A_CapperUsedWithBottleSet&#45;&gt;BottleSet -->
<g id="edge31" class="edge">
<title>A_CapperUsedWithBottleSet&#45;&gt;BottleSet</title>
<path fill="none" stroke="#555555" d="M313.27,-2399.26C374.33,-2406.99 451.14,-2416.71 516.47,-2424.97"/>
</g>
<!-- A_CapperUsedWithBottleSet&#45;&gt;Capper -->
<g id="edge30" class="edge">
<title>A_CapperUsedWithBottleSet&#45;&gt;Capper</title>
<path fill="none" stroke="#555555" d="M313.27,-2363.29C370.16,-2351.67 440.73,-2337.26 502.94,-2324.55"/>
</g>
<!-- A_SanitizerBottleServesKettle -->
<g id="node34" class="node">
<title>A_SanitizerBottleServesKettle</title>
<polygon fill="lightblue" stroke="transparent" points="89.5,-1021.5 89.5,-1044.5 317.5,-1044.5 317.5,-1021.5 89.5,-1021.5"/>
<text text-anchor="start" x="93.5" y="-1030.3" font-family="Helvetica,sans-Serif" font-weight="bold" font-size="14.00">SanitizerBottleServesKettle</text>
<text text-anchor="start" x="93.5" y="-1006.3" font-family="Helvetica,sans-Serif" font-size="14.00">sprayState : OperationalState</text>
<polygon fill="none" stroke="black" points="88.5,-997.5 88.5,-1045.5 318.5,-1045.5 318.5,-997.5 88.5,-997.5"/>
</g>
<!-- A_SanitizerBottleServesKettle&#45;&gt;Kettle -->
<g id="edge33" class="edge">
<title>A_SanitizerBottleServesKettle&#45;&gt;Kettle</title>
<path fill="none" stroke="#555555" d="M318.7,-1020.65C351.14,-1026.07 383.89,-1037.86 407,-1061.5 537.27,-1194.72 362.9,-1328.77 479,-1474.5 487.16,-1484.74 496.99,-1493.58 507.78,-1501.21"/>
</g>
<!-- A_SanitizerBottleServesKettle&#45;&gt;SanitizerBottle -->
<g id="edge32" class="edge">
<title>A_SanitizerBottleServesKettle&#45;&gt;SanitizerBottle</title>
<path fill="none" stroke="#555555" d="M318.64,-1014.56C349.18,-1008.68 380.92,-998.59 407,-981.5 454.02,-950.68 435.34,-912.92 479,-877.5 487.62,-870.5 497,-864.07 506.79,-858.18"/>
</g>
<!-- A_SanitizerBottleServesFermentationBucket -->
<g id="node35" class="node">
<title>A_SanitizerBottleServesFermentationBucket</title>
<polygon fill="lightblue" stroke="transparent" points="33.5,-728.5 33.5,-751.5 373.5,-751.5 373.5,-728.5 33.5,-728.5"/>
<text text-anchor="start" x="37.5" y="-737.3" font-family="Helvetica,sans-Serif" font-weight="bold" font-size="14.00">SanitizerBottleServesFermentationBucket</text>
<text text-anchor="start" x="37.5" y="-713.3" font-family="Helvetica,sans-Serif" font-size="14.00">sprayState : OperationalState</text>
<polygon fill="none" stroke="black" points="32.5,-704.5 32.5,-752.5 374.5,-752.5 374.5,-704.5 32.5,-704.5"/>
</g>
<!-- A_SanitizerBottleServesFermentationBucket&#45;&gt;FermentationBucket -->
<g id="edge35" class="edge">
<title>A_SanitizerBottleServesFermentationBucket&#45;&gt;FermentationBucket</title>
<path fill="none" stroke="#555555" d="M350.76,-704.47C399.58,-696.46 454.06,-687.51 503.28,-679.42"/>
</g>
<!-- A_SanitizerBottleServesFermentationBucket&#45;&gt;SanitizerBottle -->
<g id="edge34" class="edge">
<title>A_SanitizerBottleServesFermentationBucket&#45;&gt;SanitizerBottle</title>
<path fill="none" stroke="#555555" d="M348.9,-752.54C399.34,-760.94 456.02,-770.37 506.77,-778.82"/>
</g>
<!-- A_BurnerHeatsKettle -->
<g id="node36" class="node">
<title>A_BurnerHeatsKettle</title>
<polygon fill="lightblue" stroke="transparent" points="121.5,-1764.5 121.5,-1787.5 286.5,-1787.5 286.5,-1764.5 121.5,-1764.5"/>
<text text-anchor="start" x="130" y="-1773.3" font-family="Helvetica,sans-Serif" font-weight="bold" font-size="14.00">BurnerHeatsKettle</text>
<text text-anchor="start" x="125.5" y="-1749.3" font-family="Helvetica,sans-Serif" font-size="14.00">suppliedPower : Power</text>
<polygon fill="none" stroke="black" points="120,-1740.5 120,-1788.5 287,-1788.5 287,-1740.5 120,-1740.5"/>
</g>
<!-- A_BurnerHeatsKettle&#45;&gt;Burner -->
<g id="edge36" class="edge">
<title>A_BurnerHeatsKettle&#45;&gt;Burner</title>
<path fill="none" stroke="#555555" d="M257.89,-1788.55C299.53,-1808.04 358.29,-1837.16 407,-1867.5 440.95,-1888.65 444.3,-1901.6 479,-1921.5 488.2,-1926.78 497.85,-1931.89 507.7,-1936.8"/>
</g>
<!-- A_BurnerHeatsKettle&#45;&gt;Kettle -->
<g id="edge37" class="edge">
<title>A_BurnerHeatsKettle&#45;&gt;Kettle</title>
<path fill="none" stroke="#555555" d="M287.39,-1743.69C325.52,-1732 370.32,-1715.13 407,-1692.5 444.72,-1669.23 442.01,-1647.92 479,-1623.5 488.15,-1617.46 497.86,-1611.73 507.84,-1606.34"/>
</g>
</g>
</svg>
