<?xml version="1.0" encoding="UTF-8" standalone="no"?>
<!DOCTYPE svg PUBLIC "-//W3C//DTD SVG 1.1//EN"
 "http://www.w3.org/Graphics/SVG/1.1/DTD/svg11.dtd">
<!-- Generated by graphviz version 2.42.4 (0)
 -->
<!-- Title: ERD Pages: 1 -->
<svg width="839pt" height="2274pt"
 viewBox="0.00 0.00 839.20 2274.20" xmlns="http://www.w3.org/2000/svg" xmlns:xlink="http://www.w3.org/1999/xlink">
<g id="graph0" class="graph" transform="scale(1 1) rotate(0) translate(21.6 2252.6)">
<title>ERD</title>
<polygon fill="white" stroke="transparent" points="-21.6,21.6 -21.6,-2252.6 817.6,-2252.6 817.6,21.6 -21.6,21.6"/>
<text text-anchor="middle" x="398" y="-2212.6" font-family="Times,serif" font-size="18.00">Homebrewing Resource Model &#45; Equipment and Ingredient Hierarchy</text>
<!-- HomebrewingSetup -->
<g id="node1" class="node">
<title>HomebrewingSetup</title>
<polygon fill="lightgray" stroke="transparent" points="472,-2178.5 472,-2201.5 767,-2201.5 767,-2178.5 472,-2178.5"/>
<text text-anchor="start" x="542" y="-2187.3" font-family="Helvetica,sans-Serif" font-weight="bold" font-size="14.00">HomebrewingSetup</text>
<text text-anchor="start" x="476" y="-2163.3" font-family="Helvetica,sans-Serif" font-size="14.00">homebrewingSetupID : Identifier</text>
<text text-anchor="start" x="476" y="-2140.3" font-family="Helvetica,sans-Serif" font-size="14.00">setupOperationalState : OperationalState</text>
<text text-anchor="start" x="476" y="-2117.3" font-family="Helvetica,sans-Serif" font-size="14.00">setupPosition : Position</text>
<text text-anchor="start" x="476" y="-2094.3" font-family="Helvetica,sans-Serif" font-size="14.00">setupExtent : Extent</text>
<polygon fill="none" stroke="black" points="470.5,-2086 470.5,-2203 767.5,-2203 767.5,-2086 470.5,-2086"/>
</g>
<!-- BrewingStation -->
<g id="node2" class="node">
<title>BrewingStation</title>
<polygon fill="lightgray" stroke="transparent" points="468,-1135.5 468,-1158.5 771,-1158.5 771,-1135.5 468,-1135.5"/>
<text text-anchor="start" x="559" y="-1144.3" font-family="Helvetica,sans-Serif" font-weight="bold" font-size="14.00">BrewingStation</text>
<text text-anchor="start" x="472" y="-1120.3" font-family="Helvetica,sans-Serif" font-size="14.00">brewingStationID : Identifier</text>
<text text-anchor="start" x="472" y="-1097.3" font-family="Helvetica,sans-Serif" font-size="14.00">stationOperationalState : OperationalState</text>
<text text-anchor="start" x="472" y="-1074.3" font-family="Helvetica,sans-Serif" font-size="14.00">stationPosition : Position</text>
<text text-anchor="start" x="472" y="-1051.3" font-family="Helvetica,sans-Serif" font-size="14.00">stationExtent : Extent</text>
<polygon fill="none" stroke="black" points="466.5,-1043 466.5,-1160 771.5,-1160 771.5,-1043 466.5,-1043"/>
</g>
<!-- HeatingEquipment -->
<g id="node3" class="node">
<title>HeatingEquipment</title>
<polygon fill="lightgray" stroke="transparent" points="465,-539.5 465,-562.5 774,-562.5 774,-539.5 465,-539.5"/>
<text text-anchor="start" x="546" y="-548.3" font-family="Helvetica,sans-Serif" font-weight="bold" font-size="14.00">HeatingEquipment</text>
<text text-anchor="start" x="469" y="-524.3" font-family="Helvetica,sans-Serif" font-size="14.00">heatingEquipmentID : Identifier</text>
<text text-anchor="start" x="469" y="-501.3" font-family="Helvetica,sans-Serif" font-size="14.00">heatingPower : Power</text>
<text text-anchor="start" x="469" y="-478.3" font-family="Helvetica,sans-Serif" font-size="14.00">heatingOperationalState : OperationalState</text>
<text text-anchor="start" x="469" y="-455.3" font-family="Helvetica,sans-Serif" font-size="14.00">fuelState : OperationalState</text>
<polygon fill="none" stroke="black" points="463.5,-447 463.5,-564 774.5,-564 774.5,-447 463.5,-447"/>
</g>
<!-- MashTun -->
<g id="node4" class="node">
<title>MashTun</title>
<polygon fill="lightgray" stroke="transparent" points="480,-837.5 480,-860.5 759,-860.5 759,-837.5 480,-837.5"/>
<text text-anchor="start" x="584.5" y="-846.3" font-family="Helvetica,sans-Serif" font-weight="bold" font-size="14.00">MashTun</text>
<text text-anchor="start" x="484" y="-822.3" font-family="Helvetica,sans-Serif" font-size="14.00">mashTunID : Identifier</text>
<text text-anchor="start" x="484" y="-799.3" font-family="Helvetica,sans-Serif" font-size="14.00">tunVolume : ScalarVolume</text>
<text text-anchor="start" x="484" y="-776.3" font-family="Helvetica,sans-Serif" font-size="14.00">tunTemperature : Temperature</text>
<text text-anchor="start" x="484" y="-753.3" font-family="Helvetica,sans-Serif" font-size="14.00">tunOperationalState : OperationalState</text>
<polygon fill="none" stroke="black" points="478.5,-745 478.5,-862 759.5,-862 759.5,-745 478.5,-745"/>
</g>
<!-- BoilKettle -->
<g id="node5" class="node">
<title>BoilKettle</title>
<polygon fill="lightgray" stroke="transparent" points="472,-92.5 472,-115.5 766,-115.5 766,-92.5 472,-92.5"/>
<text text-anchor="start" x="580" y="-101.3" font-family="Helvetica,sans-Serif" font-weight="bold" font-size="14.00">BoilKettle</text>
<text text-anchor="start" x="476" y="-77.3" font-family="Helvetica,sans-Serif" font-size="14.00">boilKettleID : Identifier</text>
<text text-anchor="start" x="476" y="-54.3" font-family="Helvetica,sans-Serif" font-size="14.00">kettleVolume : ScalarVolume</text>
<text text-anchor="start" x="476" y="-31.3" font-family="Helvetica,sans-Serif" font-size="14.00">kettleTemperature : Temperature</text>
<text text-anchor="start" x="476" y="-8.3" font-family="Helvetica,sans-Serif" font-size="14.00">kettleOperationalState : OperationalState</text>
<polygon fill="none" stroke="black" points="471,0 471,-117 767,-117 767,0 471,0"/>
</g>
<!-- Fermenter -->
<g id="node6" class="node">
<title>Fermenter</title>
<polygon fill="lightgray" stroke="transparent" points="457,-241.5 457,-264.5 782,-264.5 782,-241.5 457,-241.5"/>
<text text-anchor="start" x="578" y="-250.3" font-family="Helvetica,sans-Serif" font-weight="bold" font-size="14.00">Fermenter</text>
<text text-anchor="start" x="461" y="-226.3" font-family="Helvetica,sans-Serif" font-size="14.00">fermenterID : Identifier</text>
<text text-anchor="start" x="461" y="-203.3" font-family="Helvetica,sans-Serif" font-size="14.00">fermenterVolume : ScalarVolume</text>
<text text-anchor="start" x="461" y="-180.3" font-family="Helvetica,sans-Serif" font-size="14.00">fermenterTemperature : Temperature</text>
<text text-anchor="start" x="461" y="-157.3" font-family="Helvetica,sans-Serif" font-size="14.00">fermenterOperationalState : OperationalState</text>
<polygon fill="none" stroke="black" points="455.5,-149 455.5,-266 782.5,-266 782.5,-149 455.5,-149"/>
</g>
<!-- PackagingContainer -->
<g id="node7" class="node">
<title>PackagingContainer</title>
<polygon fill="lightgray" stroke="transparent" points="459,-2029.5 459,-2052.5 780,-2052.5 780,-2029.5 459,-2029.5"/>
<text text-anchor="start" x="540.5" y="-2038.3" font-family="Helvetica,sans-Serif" font-weight="bold" font-size="14.00">PackagingContainer</text>
<text text-anchor="start" x="463" y="-2014.3" font-family="Helvetica,sans-Serif" font-size="14.00">packagingContainerID : Identifier</text>
<text text-anchor="start" x="463" y="-1991.3" font-family="Helvetica,sans-Serif" font-size="14.00">containerVolume : ScalarVolume</text>
<text text-anchor="start" x="463" y="-1968.3" font-family="Helvetica,sans-Serif" font-size="14.00">containerCount : Count</text>
<text text-anchor="start" x="463" y="-1945.3" font-family="Helvetica,sans-Serif" font-size="14.00">containerOperationalState : OperationalState</text>
<polygon fill="none" stroke="black" points="457.5,-1937 457.5,-2054 780.5,-2054 780.5,-1937 457.5,-1937"/>
</g>
<!-- TransferTool -->
<g id="node8" class="node">
<title>TransferTool</title>
<polygon fill="lightgray" stroke="transparent" points="478,-390.5 478,-413.5 760,-413.5 760,-390.5 478,-390.5"/>
<text text-anchor="start" x="570.5" y="-399.3" font-family="Helvetica,sans-Serif" font-weight="bold" font-size="14.00">TransferTool</text>
<text text-anchor="start" x="482" y="-375.3" font-family="Helvetica,sans-Serif" font-size="14.00">transferToolID : Identifier</text>
<text text-anchor="start" x="482" y="-352.3" font-family="Helvetica,sans-Serif" font-size="14.00">toolFlowRate : MassFlowRate</text>
<text text-anchor="start" x="482" y="-329.3" font-family="Helvetica,sans-Serif" font-size="14.00">toolVolume : ScalarVolume</text>
<text text-anchor="start" x="482" y="-306.3" font-family="Helvetica,sans-Serif" font-size="14.00">toolOperationalState : OperationalState</text>
<polygon fill="none" stroke="black" points="477,-298 477,-415 761,-415 761,-298 477,-298"/>
</g>
<!-- MeasurementTool -->
<g id="node9" class="node">
<title>MeasurementTool</title>
<polygon fill="lightgray" stroke="transparent" points="443,-1880.5 443,-1903.5 795,-1903.5 795,-1880.5 443,-1880.5"/>
<text text-anchor="start" x="548.5" y="-1889.3" font-family="Helvetica,sans-Serif" font-weight="bold" font-size="14.00">MeasurementTool</text>
<text text-anchor="start" x="447" y="-1865.3" font-family="Helvetica,sans-Serif" font-size="14.00">measurementToolID : Identifier</text>
<text text-anchor="start" x="447" y="-1842.3" font-family="Helvetica,sans-Serif" font-size="14.00">measurementCount : Count</text>
<text text-anchor="start" x="447" y="-1819.3" font-family="Helvetica,sans-Serif" font-size="14.00">measurementOperationalState : OperationalState</text>
<text text-anchor="start" x="447" y="-1796.3" font-family="Helvetica,sans-Serif" font-size="14.00">sampleTemperature : Temperature</text>
<polygon fill="none" stroke="black" points="442,-1788 442,-1905 796,-1905 796,-1788 442,-1788"/>
</g>
<!-- SanitationSupply -->
<g id="node10" class="node">
<title>SanitationSupply</title>
<polygon fill="lightgray" stroke="transparent" points="468,-688.5 468,-711.5 771,-711.5 771,-688.5 468,-688.5"/>
<text text-anchor="start" x="552.5" y="-697.3" font-family="Helvetica,sans-Serif" font-weight="bold" font-size="14.00">SanitationSupply</text>
<text text-anchor="start" x="472" y="-673.3" font-family="Helvetica,sans-Serif" font-size="14.00">sanitationSupplyID : Identifier</text>
<text text-anchor="start" x="472" y="-650.3" font-family="Helvetica,sans-Serif" font-size="14.00">supplyVolume : ScalarVolume</text>
<text text-anchor="start" x="472" y="-627.3" font-family="Helvetica,sans-Serif" font-size="14.00">contactDuration : Duration</text>
<text text-anchor="start" x="472" y="-604.3" font-family="Helvetica,sans-Serif" font-size="14.00">supplyOperationalState : OperationalState</text>
<polygon fill="none" stroke="black" points="466.5,-596 466.5,-713 771.5,-713 771.5,-596 466.5,-596"/>
</g>
<!-- Water -->
<g id="node11" class="node">
<title>Water</title>
<polygon fill="lightgray" stroke="transparent" points="472,-1731.5 472,-1754.5 767,-1754.5 767,-1731.5 472,-1731.5"/>
<text text-anchor="start" x="595" y="-1740.3" font-family="Helvetica,sans-Serif" font-weight="bold" font-size="14.00">Water</text>
<text text-anchor="start" x="476" y="-1716.3" font-family="Helvetica,sans-Serif" font-size="14.00">waterID : Identifier</text>
<text text-anchor="start" x="476" y="-1693.3" font-family="Helvetica,sans-Serif" font-size="14.00">waterVolume : ScalarVolume</text>
<text text-anchor="start" x="476" y="-1670.3" font-family="Helvetica,sans-Serif" font-size="14.00">waterTemperature : Temperature</text>
<text text-anchor="start" x="476" y="-1647.3" font-family="Helvetica,sans-Serif" font-size="14.00">waterOperationalState : OperationalState</text>
<polygon fill="none" stroke="black" points="470.5,-1639 470.5,-1756 767.5,-1756 767.5,-1639 470.5,-1639"/>
</g>
<!-- MaltedGrain -->
<g id="node12" class="node">
<title>MaltedGrain</title>
<polygon fill="lightgray" stroke="transparent" points="473,-1582.5 473,-1605.5 765,-1605.5 765,-1582.5 473,-1582.5"/>
<text text-anchor="start" x="570.5" y="-1591.3" font-family="Helvetica,sans-Serif" font-weight="bold" font-size="14.00">MaltedGrain</text>
<text text-anchor="start" x="477" y="-1567.3" font-family="Helvetica,sans-Serif" font-size="14.00">maltedGrainID : Identifier</text>
<text text-anchor="start" x="477" y="-1544.3" font-family="Helvetica,sans-Serif" font-size="14.00">grainMass : Mass</text>
<text text-anchor="start" x="477" y="-1521.3" font-family="Helvetica,sans-Serif" font-size="14.00">grainState : OperationalState</text>
<text text-anchor="start" x="477" y="-1498.3" font-family="Helvetica,sans-Serif" font-size="14.00">grainOperationalState : OperationalState</text>
<polygon fill="none" stroke="black" points="472,-1490 472,-1607 766,-1607 766,-1490 472,-1490"/>
</g>
<!-- Hop -->
<g id="node13" class="node">
<title>Hop</title>
<polygon fill="lightgray" stroke="transparent" points="478,-1433.5 478,-1456.5 760,-1456.5 760,-1433.5 478,-1433.5"/>
<text text-anchor="start" x="603" y="-1442.3" font-family="Helvetica,sans-Serif" font-weight="bold" font-size="14.00">Hop</text>
<text text-anchor="start" x="482" y="-1418.3" font-family="Helvetica,sans-Serif" font-size="14.00">hopID : Identifier</text>
<text text-anchor="start" x="482" y="-1395.3" font-family="Helvetica,sans-Serif" font-size="14.00">hopMass : Mass</text>
<text text-anchor="start" x="482" y="-1372.3" font-family="Helvetica,sans-Serif" font-size="14.00">hopFormState : OperationalState</text>
<text text-anchor="start" x="482" y="-1349.3" font-family="Helvetica,sans-Serif" font-size="14.00">hopOperationalState : OperationalState</text>
<polygon fill="none" stroke="black" points="477,-1341 477,-1458 761,-1458 761,-1341 477,-1341"/>
</g>
<!-- Yeast -->
<g id="node14" class="node">
<title>Yeast</title>
<polygon fill="lightgray" stroke="transparent" points="472,-1284.5 472,-1307.5 766,-1307.5 766,-1284.5 472,-1284.5"/>
<text text-anchor="start" x="597" y="-1293.3" font-family="Helvetica,sans-Serif" font-weight="bold" font-size="14.00">Yeast</text>
<text text-anchor="start" x="476" y="-1269.3" font-family="Helvetica,sans-Serif" font-size="14.00">yeastID : Identifier</text>
<text text-anchor="start" x="476" y="-1246.3" font-family="Helvetica,sans-Serif" font-size="14.00">yeastMass : Mass</text>
<text text-anchor="start" x="476" y="-1223.3" font-family="Helvetica,sans-Serif" font-size="14.00">yeastState : OperationalState</text>
<text text-anchor="start" x="476" y="-1200.3" font-family="Helvetica,sans-Serif" font-size="14.00">yeastOperationalState : OperationalState</text>
<polygon fill="none" stroke="black" points="471,-1192 471,-1309 767,-1309 767,-1192 471,-1192"/>
</g>
<!-- Adjunct -->
<g id="node15" class="node">
<title>Adjunct</title>
<polygon fill="lightgray" stroke="transparent" points="465,-986.5 465,-1009.5 773,-1009.5 773,-986.5 465,-986.5"/>
<text text-anchor="start" x="589" y="-995.3" font-family="Helvetica,sans-Serif" font-weight="bold" font-size="14.00">Adjunct</text>
<text text-anchor="start" x="469" y="-971.3" font-family="Helvetica,sans-Serif" font-size="14.00">adjunctID : Identifier</text>
<text text-anchor="start" x="469" y="-948.3" font-family="Helvetica,sans-Serif" font-size="14.00">adjunctMass : Mass</text>
<text text-anchor="start" x="469" y="-925.3" font-family="Helvetica,sans-Serif" font-size="14.00">adjunctVolume : ScalarVolume</text>
<text text-anchor="start" x="469" y="-902.3" font-family="Helvetica,sans-Serif" font-size="14.00">adjunctOperationalState : OperationalState</text>
<polygon fill="none" stroke="black" points="464,-894 464,-1011 774,-1011 774,-894 464,-894"/>
</g>
<!-- A_HomebrewingSetupContainsBrewingStation -->
<g id="node16" class="node">
<title>A_HomebrewingSetupContainsBrewingStation</title>
<polygon fill="lightblue" stroke="transparent" points="9,-2074.5 9,-2097.5 362,-2097.5 362,-2074.5 9,-2074.5"/>
<text text-anchor="start" x="13" y="-2083.3" font-family="Helvetica,sans-Serif" font-weight="bold" font-size="14.00">HomebrewingSetupContainsBrewingStation</text>
<text text-anchor="start" x="13" y="-2059.3" font-family="Helvetica,sans-Serif" font-size="14.00">relativePosition : Position</text>
<polygon fill="none" stroke="black" points="7.5,-2050.5 7.5,-2098.5 362.5,-2098.5 362.5,-2050.5 7.5,-2050.5"/>
</g>
<!-- A_HomebrewingSetupContainsBrewingStation&#45;&gt;HomebrewingSetup -->
<g id="edge1" class="edge">
<title>A_HomebrewingSetupContainsBrewingStation&#45;&gt;HomebrewingSetup</title>
<path fill="none" stroke="#555555" d="M334.37,-2098.54C378.32,-2105.66 426.42,-2113.46 470.32,-2120.57"/>
</g>
<!-- A_HomebrewingSetupContainsBrewingStation&#45;&gt;BrewingStation -->
<g id="edge2" class="edge">
<title>A_HomebrewingSetupContainsBrewingStation&#45;&gt;BrewingStation</title>
<path fill="none" stroke="#555555" d="M257.58,-2050.35C297.55,-2032.97 344.34,-2005.3 370,-1964.5 463.63,-1815.66 338.47,-1318.63 442,-1176.5 448.84,-1167.1 457.11,-1158.87 466.27,-1151.67"/>
</g>
<!-- A_BrewingStationContainsHeatingEquipment -->
<g id="node17" class="node">
<title>A_BrewingStationContainsHeatingEquipment</title>
<polygon fill="lightblue" stroke="transparent" points="13,-770.5 13,-793.5 358,-793.5 358,-770.5 13,-770.5"/>
<text text-anchor="start" x="17" y="-779.3" font-family="Helvetica,sans-Serif" font-weight="bold" font-size="14.00">BrewingStationContainsHeatingEquipment</text>
<text text-anchor="start" x="17" y="-755.3" font-family="Helvetica,sans-Serif" font-size="14.00">equipmentPosition : Position</text>
<polygon fill="none" stroke="black" points="11.5,-746.5 11.5,-794.5 358.5,-794.5 358.5,-746.5 11.5,-746.5"/>
</g>
<!-- A_BrewingStationContainsHeatingEquipment&#45;&gt;BrewingStation -->
<g id="edge3" class="edge">
<title>A_BrewingStationContainsHeatingEquipment&#45;&gt;BrewingStation</title>
<path fill="none" stroke="#555555" d="M342.95,-794.73C352.72,-799.91 361.87,-806.11 370,-813.5 444.25,-881.01 373.7,-953.98 442,-1027.5 449.22,-1035.27 457.38,-1042.25 466.15,-1048.53"/>
</g>
<!-- A_BrewingStationContainsHeatingEquipment&#45;&gt;HeatingEquipment -->
<g id="edge4" class="edge">
<title>A_BrewingStationContainsHeatingEquipment&#45;&gt;HeatingEquipment</title>
<path fill="none" stroke="#555555" d="M340.99,-746.37C351.34,-741.43 361.15,-735.53 370,-728.5 427.28,-683.01 389,-630.92 442,-580.5 448.62,-574.2 455.84,-568.4 463.47,-563.04"/>
</g>
<!-- A_BrewingStationContainsMashTun -->
<g id="node18" class="node">
<title>A_BrewingStationContainsMashTun</title>
<polygon fill="lightblue" stroke="transparent" points="51,-940.5 51,-963.5 319,-963.5 319,-940.5 51,-940.5"/>
<text text-anchor="start" x="55" y="-949.3" font-family="Helvetica,sans-Serif" font-weight="bold" font-size="14.00">BrewingStationContainsMashTun</text>
<text text-anchor="start" x="55" y="-925.3" font-family="Helvetica,sans-Serif" font-size="14.00">equipmentPosition : Position</text>
<polygon fill="none" stroke="black" points="50,-916.5 50,-964.5 320,-964.5 320,-916.5 50,-916.5"/>
</g>
<!-- A_BrewingStationContainsMashTun&#45;&gt;BrewingStation -->
<g id="edge5" class="edge">
<title>A_BrewingStationContainsMashTun&#45;&gt;BrewingStation</title>
<path fill="none" stroke="#555555" d="M250.67,-964.6C307.52,-985.79 392.46,-1017.45 466.35,-1044.98"/>
</g>
<!-- A_BrewingStationContainsMashTun&#45;&gt;MashTun -->
<g id="edge6" class="edge">
<title>A_BrewingStationContainsMashTun&#45;&gt;MashTun</title>
<path fill="none" stroke="#555555" d="M287.73,-916.41C314.63,-909.53 343.53,-901.66 370,-893.5 405.45,-882.57 443.3,-869.54 478.47,-856.85"/>
</g>
<!-- A_BrewingStationContainsBoilKettle -->
<g id="node19" class="node">
<title>A_BrewingStationContainsBoilKettle</title>
<polygon fill="lightblue" stroke="transparent" points="47,-367.5 47,-390.5 323,-390.5 323,-367.5 47,-367.5"/>
<text text-anchor="start" x="51" y="-376.3" font-family="Helvetica,sans-Serif" font-weight="bold" font-size="14.00">BrewingStationContainsBoilKettle</text>
<text text-anchor="start" x="51" y="-352.3" font-family="Helvetica,sans-Serif" font-size="14.00">equipmentPosition : Position</text>
<polygon fill="none" stroke="black" points="46,-343.5 46,-391.5 324,-391.5 324,-343.5 46,-343.5"/>
</g>
<!-- A_BrewingStationContainsBoilKettle&#45;&gt;BrewingStation -->
<g id="edge7" class="edge">
<title>A_BrewingStationContainsBoilKettle&#45;&gt;BrewingStation</title>
<path fill="none" stroke="#555555" d="M324.02,-377.4C341.43,-384.05 357.49,-393.69 370,-407.5 556.27,-613.07 275.4,-805.69 442,-1027.5 448.87,-1036.64 457.08,-1044.67 466.15,-1051.71"/>
</g>
<!-- A_BrewingStationContainsBoilKettle&#45;&gt;BoilKettle -->
<g id="edge8" class="edge">
<title>A_BrewingStationContainsBoilKettle&#45;&gt;BoilKettle</title>
<path fill="none" stroke="#555555" d="M324.01,-353.72C340.79,-347.56 356.68,-339.08 370,-327.5 439.72,-266.89 378.14,-199.26 442,-132.5 450.48,-123.64 460.18,-115.79 470.58,-108.85"/>
</g>
<!-- A_BrewingStationContainsFermenter -->
<g id="node20" class="node">
<title>A_BrewingStationContainsFermenter</title>
<polygon fill="lightblue" stroke="transparent" points="45,-527.5 45,-550.5 326,-550.5 326,-527.5 45,-527.5"/>
<text text-anchor="start" x="49" y="-536.3" font-family="Helvetica,sans-Serif" font-weight="bold" font-size="14.00">BrewingStationContainsFermenter</text>
<text text-anchor="start" x="49" y="-512.3" font-family="Helvetica,sans-Serif" font-size="14.00">equipmentPosition : Position</text>
<polygon fill="none" stroke="black" points="43.5,-503.5 43.5,-551.5 326.5,-551.5 326.5,-503.5 43.5,-503.5"/>
</g>
<!-- A_BrewingStationContainsFermenter&#45;&gt;BrewingStation -->
<g id="edge9" class="edge">
<title>A_BrewingStationContainsFermenter&#45;&gt;BrewingStation</title>
<path fill="none" stroke="#555555" d="M326.73,-539.1C342.98,-545.62 358,-554.77 370,-567.5 511.96,-718.06 314.47,-864.54 442,-1027.5 448.95,-1036.38 457.15,-1044.2 466.16,-1051.09"/>
</g>
<!-- A_BrewingStationContainsFermenter&#45;&gt;Fermenter -->
<g id="edge10" class="edge">
<title>A_BrewingStationContainsFermenter&#45;&gt;Fermenter</title>
<path fill="none" stroke="#555555" d="M326.5,-513.04C342.39,-506.93 357.38,-498.65 370,-487.5 442.37,-423.57 375.97,-352.97 442,-282.5 447.56,-276.56 453.67,-271.07 460.18,-266"/>
</g>
<!-- A_BrewingStationContainsPackagingContainer -->
<g id="node21" class="node">
<title>A_BrewingStationContainsPackagingContainer</title>
<polygon fill="lightblue" stroke="transparent" points="7,-1924.5 7,-1947.5 363,-1947.5 363,-1924.5 7,-1924.5"/>
<text text-anchor="start" x="11" y="-1933.3" font-family="Helvetica,sans-Serif" font-weight="bold" font-size="14.00">BrewingStationContainsPackagingContainer</text>
<text text-anchor="start" x="11" y="-1909.3" font-family="Helvetica,sans-Serif" font-size="14.00">equipmentPosition : Position</text>
<polygon fill="none" stroke="black" points="6,-1900.5 6,-1948.5 364,-1948.5 364,-1900.5 6,-1900.5"/>
</g>
<!-- A_BrewingStationContainsPackagingContainer&#45;&gt;BrewingStation -->
<g id="edge11" class="edge">
<title>A_BrewingStationContainsPackagingContainer&#45;&gt;BrewingStation</title>
<path fill="none" stroke="#555555" d="M256.8,-1900.35C296.76,-1882.91 343.8,-1855.18 370,-1814.5 524.51,-1574.59 271.55,-1405.35 442,-1176.5 448.94,-1167.18 457.28,-1159 466.49,-1151.83"/>
</g>
<!-- A_BrewingStationContainsPackagingContainer&#45;&gt;PackagingContainer -->
<g id="edge12" class="edge">
<title>A_BrewingStationContainsPackagingContainer&#45;&gt;PackagingContainer</title>
<path fill="none" stroke="#555555" d="M332.26,-1948.54C372.52,-1955.16 416.41,-1962.37 457.44,-1969.11"/>
</g>
<!-- A_BrewingStationContainsTransferTool -->
<g id="node22" class="node">
<title>A_BrewingStationContainsTransferTool</title>
<polygon fill="lightblue" stroke="transparent" points="38,-607.5 38,-630.5 333,-630.5 333,-607.5 38,-607.5"/>
<text text-anchor="start" x="42" y="-616.3" font-family="Helvetica,sans-Serif" font-weight="bold" font-size="14.00">BrewingStationContainsTransferTool</text>
<text text-anchor="start" x="42" y="-592.3" font-family="Helvetica,sans-Serif" font-size="14.00">toolPosition : Position</text>
<polygon fill="none" stroke="black" points="36.5,-583.5 36.5,-631.5 333.5,-631.5 333.5,-583.5 36.5,-583.5"/>
</g>
<!-- A_BrewingStationContainsTransferTool&#45;&gt;BrewingStation -->
<g id="edge13" class="edge">
<title>A_BrewingStationContainsTransferTool&#45;&gt;BrewingStation</title>
<path fill="none" stroke="#555555" d="M333.61,-623.38C347.15,-629.62 359.64,-637.81 370,-648.5 489.31,-771.63 334.15,-894.21 442,-1027.5 449.09,-1036.26 457.4,-1044 466.48,-1050.83"/>
</g>
<!-- A_BrewingStationContainsTransferTool&#45;&gt;TransferTool -->
<g id="edge14" class="edge">
<title>A_BrewingStationContainsTransferTool&#45;&gt;TransferTool</title>
<path fill="none" stroke="#555555" d="M333.84,-587.77C346.76,-582.45 359.06,-575.8 370,-567.5 424.49,-526.17 391.65,-477.79 442,-431.5 452.39,-421.95 464.18,-413.5 476.63,-406.05"/>
</g>
<!-- A_BrewingStationContainsMeasurementTool -->
<g id="node23" class="node">
<title>A_BrewingStationContainsMeasurementTool</title>
<polygon fill="lightblue" stroke="transparent" points="16,-1774.5 16,-1797.5 355,-1797.5 355,-1774.5 16,-1774.5"/>
<text text-anchor="start" x="20" y="-1783.3" font-family="Helvetica,sans-Serif" font-weight="bold" font-size="14.00">BrewingStationContainsMeasurementTool</text>
<text text-anchor="start" x="20" y="-1759.3" font-family="Helvetica,sans-Serif" font-size="14.00">toolPosition : Position</text>
<polygon fill="none" stroke="black" points="14.5,-1750.5 14.5,-1798.5 355.5,-1798.5 355.5,-1750.5 14.5,-1750.5"/>
</g>
<!-- A_BrewingStationContainsMeasurementTool&#45;&gt;BrewingStation -->
<g id="edge15" class="edge">
<title>A_BrewingStationContainsMeasurementTool&#45;&gt;BrewingStation</title>
<path fill="none" stroke="#555555" d="M254.48,-1750.45C294.64,-1732.72 342.71,-1704.49 370,-1663.5 491.25,-1481.37 308.31,-1349.7 442,-1176.5 449,-1167.43 457.31,-1159.44 466.45,-1152.41"/>
</g>
<!-- A_BrewingStationContainsMeasurementTool&#45;&gt;MeasurementTool -->
<g id="edge16" class="edge">
<title>A_BrewingStationContainsMeasurementTool&#45;&gt;MeasurementTool</title>
<path fill="none" stroke="#555555" d="M330.15,-1798.52C365.97,-1804.5 404.77,-1810.96 441.94,-1817.16"/>
</g>
<!-- A_BrewingStationContainsSanitationSupply -->
<g id="node24" class="node">
<title>A_BrewingStationContainsSanitationSupply</title>
<polygon fill="lightblue" stroke="transparent" points="19,-853.5 19,-876.5 351,-876.5 351,-853.5 19,-853.5"/>
<text text-anchor="start" x="23" y="-862.3" font-family="Helvetica,sans-Serif" font-weight="bold" font-size="14.00">BrewingStationContainsSanitationSupply</text>
<text text-anchor="start" x="23" y="-838.3" font-family="Helvetica,sans-Serif" font-size="14.00">supplyPosition : Position</text>
<polygon fill="none" stroke="black" points="18,-829.5 18,-877.5 352,-877.5 352,-829.5 18,-829.5"/>
</g>
<!-- A_BrewingStationContainsSanitationSupply&#45;&gt;BrewingStation -->
<g id="edge17" class="edge">
<title>A_BrewingStationContainsSanitationSupply&#45;&gt;BrewingStation</title>
<path fill="none" stroke="#555555" d="M329.05,-877.51C343.69,-883.55 357.69,-891.09 370,-900.5 421.55,-939.9 393.5,-984.4 442,-1027.5 449.56,-1034.22 457.81,-1040.38 466.49,-1046.03"/>
</g>
<!-- A_BrewingStationContainsSanitationSupply&#45;&gt;SanitationSupply -->
<g id="edge18" class="edge">
<title>A_BrewingStationContainsSanitationSupply&#45;&gt;SanitationSupply</title>
<path fill="none" stroke="#555555" d="M329.09,-829.41C343.4,-824.27 357.31,-818.05 370,-810.5 411.39,-785.87 402.9,-757.62 442,-729.5 450.09,-723.68 458.7,-718.2 467.6,-713.05"/>
</g>
<!-- A_BrewingStationStoresWater -->
<g id="node25" class="node">
<title>A_BrewingStationStoresWater</title>
<polygon fill="lightblue" stroke="transparent" points="71,-1623.5 71,-1646.5 299,-1646.5 299,-1623.5 71,-1623.5"/>
<text text-anchor="start" x="75" y="-1632.3" font-family="Helvetica,sans-Serif" font-weight="bold" font-size="14.00">BrewingStationStoresWater</text>
<text text-anchor="start" x="75" y="-1608.3" font-family="Helvetica,sans-Serif" font-size="14.00">storedVolume : ScalarVolume</text>
<polygon fill="none" stroke="black" points="70,-1599.5 70,-1647.5 300,-1647.5 300,-1599.5 70,-1599.5"/>
</g>
<!-- A_BrewingStationStoresWater&#45;&gt;BrewingStation -->
<g id="edge19" class="edge">
<title>A_BrewingStationStoresWater&#45;&gt;BrewingStation</title>
<path fill="none" stroke="#555555" d="M249.96,-1599.36C290.45,-1580.82 340.53,-1551.26 370,-1509.5 457.3,-1385.78 345.56,-1293.24 442,-1176.5 449.09,-1167.92 457.33,-1160.3 466.31,-1153.54"/>
</g>
<!-- A_BrewingStationStoresWater&#45;&gt;Water -->
<g id="edge20" class="edge">
<title>A_BrewingStationStoresWater&#45;&gt;Water</title>
<path fill="none" stroke="#555555" d="M300.07,-1643.04C352.19,-1651.97 414.58,-1662.66 470.24,-1672.19"/>
</g>
<!-- A_BrewingStationStoresMaltedGrain -->
<g id="node26" class="node">
<title>A_BrewingStationStoresMaltedGrain</title>
<polygon fill="lightblue" stroke="transparent" points="47,-1469.5 47,-1492.5 324,-1492.5 324,-1469.5 47,-1469.5"/>
<text text-anchor="start" x="51" y="-1478.3" font-family="Helvetica,sans-Serif" font-weight="bold" font-size="14.00">BrewingStationStoresMaltedGrain</text>
<text text-anchor="start" x="51" y="-1454.3" font-family="Helvetica,sans-Serif" font-size="14.00">storedMass : Mass</text>
<polygon fill="none" stroke="black" points="45.5,-1445.5 45.5,-1493.5 324.5,-1493.5 324.5,-1445.5 45.5,-1445.5"/>
</g>
<!-- A_BrewingStationStoresMaltedGrain&#45;&gt;BrewingStation -->
<g id="edge21" class="edge">
<title>A_BrewingStationStoresMaltedGrain&#45;&gt;BrewingStation</title>
<path fill="none" stroke="#555555" d="M240.29,-1445.48C280.73,-1425.21 334.82,-1392.74 370,-1350.5 423.57,-1286.19 383.13,-1235.99 442,-1176.5 449.36,-1169.06 457.57,-1162.32 466.32,-1156.22"/>
</g>
<!-- A_BrewingStationStoresMaltedGrain&#45;&gt;MaltedGrain -->
<g id="edge22" class="edge">
<title>A_BrewingStationStoresMaltedGrain&#45;&gt;MaltedGrain</title>
<path fill="none" stroke="#555555" d="M317.37,-1493.52C366.15,-1502.44 421.77,-1512.62 471.79,-1521.76"/>
</g>
<!-- A_BrewingStationStoresHop -->
<g id="node27" class="node">
<title>A_BrewingStationStoresHop</title>
<polygon fill="lightblue" stroke="transparent" points="79,-1310.5 79,-1333.5 291,-1333.5 291,-1310.5 79,-1310.5"/>
<text text-anchor="start" x="83" y="-1319.3" font-family="Helvetica,sans-Serif" font-weight="bold" font-size="14.00">BrewingStationStoresHop</text>
<text text-anchor="start" x="83" y="-1295.3" font-family="Helvetica,sans-Serif" font-size="14.00">storedMass : Mass</text>
<polygon fill="none" stroke="black" points="78,-1286.5 78,-1334.5 292,-1334.5 292,-1286.5 78,-1286.5"/>
</g>
<!-- A_BrewingStationStoresHop&#45;&gt;BrewingStation -->
<g id="edge23" class="edge">
<title>A_BrewingStationStoresHop&#45;&gt;BrewingStation</title>
<path fill="none" stroke="#555555" d="M229.41,-1286.43C279.91,-1258.74 366.07,-1212.48 442,-1176.5 453.56,-1171.02 465.62,-1165.5 477.77,-1160.06"/>
</g>
<!-- A_BrewingStationStoresHop&#45;&gt;Hop -->
<g id="edge24" class="edge">
<title>A_BrewingStationStoresHop&#45;&gt;Hop</title>
<path fill="none" stroke="#555555" d="M292.23,-1332.39C347.82,-1343.84 416.61,-1358.01 476.64,-1370.38"/>
</g>
<!-- A_BrewingStationStoresYeast -->
<g id="node28" class="node">
<title>A_BrewingStationStoresYeast</title>
<polygon fill="lightblue" stroke="transparent" points="73,-1141.5 73,-1164.5 297,-1164.5 297,-1141.5 73,-1141.5"/>
<text text-anchor="start" x="77" y="-1150.3" font-family="Helvetica,sans-Serif" font-weight="bold" font-size="14.00">BrewingStationStoresYeast</text>
<text text-anchor="start" x="77" y="-1126.3" font-family="Helvetica,sans-Serif" font-size="14.00">storedMass : Mass</text>
<polygon fill="none" stroke="black" points="72,-1117.5 72,-1165.5 298,-1165.5 298,-1117.5 72,-1117.5"/>
</g>
<!-- A_BrewingStationStoresYeast&#45;&gt;BrewingStation -->
<g id="edge25" class="edge">
<title>A_BrewingStationStoresYeast&#45;&gt;BrewingStation</title>
<path fill="none" stroke="#555555" d="M298.09,-1131.12C349.34,-1126.38 410.84,-1120.68 466.16,-1115.56"/>
</g>
<!-- A_BrewingStationStoresYeast&#45;&gt;Yeast -->
<g id="edge26" class="edge">
<title>A_BrewingStationStoresYeast&#45;&gt;Yeast</title>
<path fill="none" stroke="#555555" d="M281.34,-1165.56C336.87,-1179.57 408.08,-1197.53 470.68,-1213.33"/>
</g>
<!-- A_BrewingStationStoresAdjunct -->
<g id="node29" class="node">
<title>A_BrewingStationStoresAdjunct</title>
<polygon fill="lightblue" stroke="transparent" points="46,-1061.5 46,-1084.5 325,-1084.5 325,-1061.5 46,-1061.5"/>
<text text-anchor="start" x="69.5" y="-1070.3" font-family="Helvetica,sans-Serif" font-weight="bold" font-size="14.00">BrewingStationStoresAdjunct</text>
<text text-anchor="start" x="50" y="-1046.3" font-family="Helvetica,sans-Serif" font-size="14.00">storedQuantityState : OperationalState</text>
<polygon fill="none" stroke="black" points="44.5,-1037.5 44.5,-1085.5 325.5,-1085.5 325.5,-1037.5 44.5,-1037.5"/>
</g>
<!-- A_BrewingStationStoresAdjunct&#45;&gt;BrewingStation -->
<g id="edge27" class="edge">
<title>A_BrewingStationStoresAdjunct&#45;&gt;BrewingStation</title>
<path fill="none" stroke="#555555" d="M325.66,-1074.43C370.53,-1078.59 420.44,-1083.21 466.13,-1087.44"/>
</g>
<!-- A_BrewingStationStoresAdjunct&#45;&gt;Adjunct -->
<g id="edge28" class="edge">
<title>A_BrewingStationStoresAdjunct&#45;&gt;Adjunct</title>
<path fill="none" stroke="#555555" d="M281.34,-1037.44C334.89,-1023.93 403,-1006.75 463.93,-991.37"/>
</g>
<!-- A_HeatingEquipmentSupportsBoilKettle -->
<g id="node30" class="node">
<title>A_HeatingEquipmentSupportsBoilKettle</title>
<polygon fill="lightblue" stroke="transparent" points="34,-287.5 34,-310.5 337,-310.5 337,-287.5 34,-287.5"/>
<text text-anchor="start" x="38" y="-296.3" font-family="Helvetica,sans-Serif" font-weight="bold" font-size="14.00">HeatingEquipmentSupportsBoilKettle</text>
<text text-anchor="start" x="38" y="-272.3" font-family="Helvetica,sans-Serif" font-size="14.00">suppliedPower : Power</text>
<polygon fill="none" stroke="black" points="32.5,-263.5 32.5,-311.5 337.5,-311.5 337.5,-263.5 32.5,-263.5"/>
</g>
<!-- A_HeatingEquipmentSupportsBoilKettle&#45;&gt;HeatingEquipment -->
<g id="edge29" class="edge">
<title>A_HeatingEquipmentSupportsBoilKettle&#45;&gt;HeatingEquipment</title>
<path fill="none" stroke="#555555" d="M337.51,-310.47C348.96,-315.16 359.95,-320.77 370,-327.5 416.72,-358.76 398.34,-396.08 442,-431.5 448.69,-436.93 455.84,-442.02 463.28,-446.78"/>
</g>
<!-- A_HeatingEquipmentSupportsBoilKettle&#45;&gt;BoilKettle -->
<g id="edge30" class="edge">
<title>A_HeatingEquipmentSupportsBoilKettle&#45;&gt;BoilKettle</title>
<path fill="none" stroke="#555555" d="M337.86,-265.04C349.23,-260.24 360.1,-254.46 370,-247.5 419.33,-212.82 396.06,-171.56 442,-132.5 450.84,-124.98 460.55,-118.14 470.73,-111.93"/>
</g>
<!-- A_HeatingEquipmentSupportsMashTun -->
<g id="node31" class="node">
<title>A_HeatingEquipmentSupportsMashTun</title>
<polygon fill="lightblue" stroke="transparent" points="38,-688.5 38,-711.5 333,-711.5 333,-688.5 38,-688.5"/>
<text text-anchor="start" x="42" y="-697.3" font-family="Helvetica,sans-Serif" font-weight="bold" font-size="14.00">HeatingEquipmentSupportsMashTun</text>
<text text-anchor="start" x="42" y="-673.3" font-family="Helvetica,sans-Serif" font-size="14.00">suppliedPower : Power</text>
<polygon fill="none" stroke="black" points="36.5,-664.5 36.5,-712.5 333.5,-712.5 333.5,-664.5 36.5,-664.5"/>
</g>
<!-- A_HeatingEquipmentSupportsMashTun&#45;&gt;HeatingEquipment -->
<g id="edge31" class="edge">
<title>A_HeatingEquipmentSupportsMashTun&#45;&gt;HeatingEquipment</title>
<path fill="none" stroke="#555555" d="M329.82,-664.35C343.77,-659.69 357.4,-654.13 370,-647.5 408.68,-627.15 405.34,-604.31 442,-580.5 450.77,-574.8 460.05,-569.37 469.58,-564.22"/>
</g>
<!-- A_HeatingEquipmentSupportsMashTun&#45;&gt;MashTun -->
<g id="edge32" class="edge">
<title>A_HeatingEquipmentSupportsMashTun&#45;&gt;MashTun</title>
<path fill="none" stroke="#555555" d="M296.7,-712.6C320.93,-718.2 346.38,-724.33 370,-730.5 405.28,-739.71 443.15,-750.43 478.41,-760.77"/>
</g>
<!-- A_SanitationSupplyServesFermenter -->
<g id="node32" class="node">
<title>A_SanitationSupplyServesFermenter</title>
<polygon fill="lightblue" stroke="transparent" points="46,-447.5 46,-470.5 324,-470.5 324,-447.5 46,-447.5"/>
<text text-anchor="start" x="50" y="-456.3" font-family="Helvetica,sans-Serif" font-weight="bold" font-size="14.00">SanitationSupplyServesFermenter</text>
<text text-anchor="start" x="50" y="-432.3" font-family="Helvetica,sans-Serif" font-size="14.00">contactDuration : Duration</text>
<polygon fill="none" stroke="black" points="45,-423.5 45,-471.5 325,-471.5 325,-423.5 45,-423.5"/>
</g>
<!-- A_SanitationSupplyServesFermenter&#45;&gt;Fermenter -->
<g id="edge34" class="edge">
<title>A_SanitationSupplyServesFermenter&#45;&gt;Fermenter</title>
<path fill="none" stroke="#555555" d="M325.11,-430.56C341.14,-424.84 356.54,-417.34 370,-407.5 421.76,-369.67 394.03,-325.04 442,-282.5 448.59,-276.66 455.69,-271.23 463.14,-266.17"/>
</g>
<!-- A_SanitationSupplyServesFermenter&#45;&gt;SanitationSupply -->
<g id="edge33" class="edge">
<title>A_SanitationSupplyServesFermenter&#45;&gt;SanitationSupply</title>
<path fill="none" stroke="#555555" d="M325.31,-466.73C341.04,-472.07 356.32,-478.86 370,-487.5 414.2,-515.4 400.55,-548.66 442,-580.5 449.62,-586.36 457.78,-591.83 466.25,-596.95"/>
</g>
<!-- A_TransferToolConnectsBoilKettleAndFermenter -->
<g id="node33" class="node">
<title>A_TransferToolConnectsBoilKettleAndFermenter</title>
<polygon fill="lightblue" stroke="transparent" points="1,-207.5 1,-230.5 369,-230.5 369,-207.5 1,-207.5"/>
<text text-anchor="start" x="5" y="-216.3" font-family="Helvetica,sans-Serif" font-weight="bold" font-size="14.00">TransferToolConnectsBoilKettleAndFermenter</text>
<text text-anchor="start" x="5" y="-192.3" font-family="Helvetica,sans-Serif" font-size="14.00">transferState : OperationalState</text>
<polygon fill="none" stroke="black" points="0,-183.5 0,-231.5 370,-231.5 370,-183.5 0,-183.5"/>
</g>
<!-- A_TransferToolConnectsBoilKettleAndFermenter&#45;&gt;BoilKettle -->
<g id="edge36" class="edge">
<title>A_TransferToolConnectsBoilKettleAndFermenter&#45;&gt;BoilKettle</title>
<path fill="none" stroke="#555555" d="M255.89,-183.39C313.8,-163.42 398.08,-134.35 470.77,-109.28"/>
</g>
<!-- A_TransferToolConnectsBoilKettleAndFermenter&#45;&gt;Fermenter -->
<g id="edge37" class="edge">
<title>A_TransferToolConnectsBoilKettleAndFermenter&#45;&gt;Fermenter</title>
<path fill="none" stroke="#555555" d="M370.15,-207.5C398.49,-207.5 427.58,-207.5 455.41,-207.5"/>
</g>
<!-- A_TransferToolConnectsBoilKettleAndFermenter&#45;&gt;TransferTool -->
<g id="edge35" class="edge">
<title>A_TransferToolConnectsBoilKettleAndFermenter&#45;&gt;TransferTool</title>
<path fill="none" stroke="#555555" d="M315.27,-231.51C333.83,-236.13 352.55,-241.46 370,-247.5 403.62,-259.14 409.59,-267.82 442,-282.5 453.32,-287.63 465.11,-292.84 476.97,-298.01"/>
</g>
</g>
</svg>
