<?xml version="1.0" encoding="UTF-8" standalone="no"?>
<!DOCTYPE svg PUBLIC "-//W3C//DTD SVG 1.1//EN"
 "http://www.w3.org/Graphics/SVG/1.1/DTD/svg11.dtd">
<!-- Generated by graphviz version 2.42.4 (0)
 -->
<!-- Title: ERD Pages: 1 -->
<svg width="798pt" height="2596pt"
 viewBox="0.00 0.00 798.20 2595.70" xmlns="http://www.w3.org/2000/svg" xmlns:xlink="http://www.w3.org/1999/xlink">
<g id="graph0" class="graph" transform="scale(1 1) rotate(0) translate(21.6 2574.1)">
<title>ERD</title>
<polygon fill="white" stroke="transparent" points="-21.6,21.6 -21.6,-2574.1 776.6,-2574.1 776.6,21.6 -21.6,21.6"/>
<text text-anchor="middle" x="377.5" y="-2534.1" font-family="Times,serif" font-size="18.00">Automobile Component Network Model &#45; Mechanical and Structural Network</text>
<!-- Automobile -->
<g id="node1" class="node">
<title>Automobile</title>
<polygon fill="lightgray" stroke="transparent" points="415.5,-2500.5 415.5,-2523.5 748.5,-2523.5 748.5,-2500.5 415.5,-2500.5"/>
<text text-anchor="start" x="537" y="-2509.3" font-family="Helvetica,sans-Serif" font-weight="bold" font-size="14.00">Automobile</text>
<text text-anchor="start" x="419.5" y="-2485.3" font-family="Helvetica,sans-Serif" font-size="14.00">automobileID : Identifier</text>
<text text-anchor="start" x="419.5" y="-2462.3" font-family="Helvetica,sans-Serif" font-size="14.00">automobileMass : Mass</text>
<text text-anchor="start" x="419.5" y="-2439.3" font-family="Helvetica,sans-Serif" font-size="14.00">automobilePosition : Position</text>
<text text-anchor="start" x="419.5" y="-2416.3" font-family="Helvetica,sans-Serif" font-size="14.00">automobileOrientation : Orientation</text>
<text text-anchor="start" x="419.5" y="-2393.3" font-family="Helvetica,sans-Serif" font-size="14.00">automobileOperationalState : OperationalState</text>
<polygon fill="none" stroke="black" points="414,-2384.5 414,-2524.5 749,-2524.5 749,-2384.5 414,-2384.5"/>
</g>
<!-- BodyFrame -->
<g id="node2" class="node">
<title>BodyFrame</title>
<polygon fill="lightgray" stroke="transparent" points="433.5,-2327.5 433.5,-2350.5 730.5,-2350.5 730.5,-2327.5 433.5,-2327.5"/>
<text text-anchor="start" x="537.5" y="-2336.3" font-family="Helvetica,sans-Serif" font-weight="bold" font-size="14.00">BodyFrame</text>
<text text-anchor="start" x="437.5" y="-2312.3" font-family="Helvetica,sans-Serif" font-size="14.00">bodyFrameID : Identifier</text>
<text text-anchor="start" x="437.5" y="-2289.3" font-family="Helvetica,sans-Serif" font-size="14.00">frameMass : Mass</text>
<text text-anchor="start" x="437.5" y="-2266.3" font-family="Helvetica,sans-Serif" font-size="14.00">frameExtent : Extent</text>
<text text-anchor="start" x="437.5" y="-2243.3" font-family="Helvetica,sans-Serif" font-size="14.00">frameOperationalState : OperationalState</text>
<polygon fill="none" stroke="black" points="432,-2235 432,-2352 731,-2352 731,-2235 432,-2235"/>
</g>
<!-- EngineBlock -->
<g id="node3" class="node">
<title>EngineBlock</title>
<polygon fill="lightgray" stroke="transparent" points="435.5,-2178.5 435.5,-2201.5 728.5,-2201.5 728.5,-2178.5 435.5,-2178.5"/>
<text text-anchor="start" x="534" y="-2187.3" font-family="Helvetica,sans-Serif" font-weight="bold" font-size="14.00">EngineBlock</text>
<text text-anchor="start" x="439.5" y="-2163.3" font-family="Helvetica,sans-Serif" font-size="14.00">engineBlockID : Identifier</text>
<text text-anchor="start" x="439.5" y="-2140.3" font-family="Helvetica,sans-Serif" font-size="14.00">blockTemperature : Temperature</text>
<text text-anchor="start" x="439.5" y="-2117.3" font-family="Helvetica,sans-Serif" font-size="14.00">blockMass : Mass</text>
<text text-anchor="start" x="439.5" y="-2094.3" font-family="Helvetica,sans-Serif" font-size="14.00">blockOperationalState : OperationalState</text>
<polygon fill="none" stroke="black" points="434,-2086 434,-2203 729,-2203 729,-2086 434,-2086"/>
</g>
<!-- CylinderHead -->
<g id="node4" class="node">
<title>CylinderHead</title>
<polygon fill="lightgray" stroke="transparent" points="436.5,-2029.5 436.5,-2052.5 727.5,-2052.5 727.5,-2029.5 436.5,-2029.5"/>
<text text-anchor="start" x="529" y="-2038.3" font-family="Helvetica,sans-Serif" font-weight="bold" font-size="14.00">CylinderHead</text>
<text text-anchor="start" x="440.5" y="-2014.3" font-family="Helvetica,sans-Serif" font-size="14.00">cylinderHeadID : Identifier</text>
<text text-anchor="start" x="440.5" y="-1991.3" font-family="Helvetica,sans-Serif" font-size="14.00">headTemperature : Temperature</text>
<text text-anchor="start" x="440.5" y="-1968.3" font-family="Helvetica,sans-Serif" font-size="14.00">headMass : Mass</text>
<text text-anchor="start" x="440.5" y="-1945.3" font-family="Helvetica,sans-Serif" font-size="14.00">headOperationalState : OperationalState</text>
<polygon fill="none" stroke="black" points="435,-1937 435,-2054 728,-2054 728,-1937 435,-1937"/>
</g>
<!-- PistonAssembly -->
<g id="node5" class="node">
<title>PistonAssembly</title>
<polygon fill="lightgray" stroke="transparent" points="420.5,-1880.5 420.5,-1903.5 742.5,-1903.5 742.5,-1880.5 420.5,-1880.5"/>
<text text-anchor="start" x="519.5" y="-1889.3" font-family="Helvetica,sans-Serif" font-weight="bold" font-size="14.00">PistonAssembly</text>
<text text-anchor="start" x="424.5" y="-1865.3" font-family="Helvetica,sans-Serif" font-size="14.00">pistonAssemblyID : Identifier</text>
<text text-anchor="start" x="424.5" y="-1842.3" font-family="Helvetica,sans-Serif" font-size="14.00">pistonCount : Count</text>
<text text-anchor="start" x="424.5" y="-1819.3" font-family="Helvetica,sans-Serif" font-size="14.00">assemblyTemperature : Temperature</text>
<text text-anchor="start" x="424.5" y="-1796.3" font-family="Helvetica,sans-Serif" font-size="14.00">assemblyOperationalState : OperationalState</text>
<polygon fill="none" stroke="black" points="419.5,-1788 419.5,-1905 743.5,-1905 743.5,-1788 419.5,-1788"/>
</g>
<!-- Crankshaft -->
<g id="node6" class="node">
<title>Crankshaft</title>
<polygon fill="lightgray" stroke="transparent" points="436.5,-1433.5 436.5,-1456.5 727.5,-1456.5 727.5,-1433.5 436.5,-1433.5"/>
<text text-anchor="start" x="538.5" y="-1442.3" font-family="Helvetica,sans-Serif" font-weight="bold" font-size="14.00">Crankshaft</text>
<text text-anchor="start" x="440.5" y="-1418.3" font-family="Helvetica,sans-Serif" font-size="14.00">crankshaftID : Identifier</text>
<text text-anchor="start" x="440.5" y="-1395.3" font-family="Helvetica,sans-Serif" font-size="14.00">shaftTorque : Torque</text>
<text text-anchor="start" x="440.5" y="-1372.3" font-family="Helvetica,sans-Serif" font-size="14.00">shaftSpeed : AngularVelocity</text>
<text text-anchor="start" x="440.5" y="-1349.3" font-family="Helvetica,sans-Serif" font-size="14.00">shaftOperationalState : OperationalState</text>
<polygon fill="none" stroke="black" points="435,-1341 435,-1458 728,-1458 728,-1341 435,-1341"/>
</g>
<!-- Camshaft -->
<g id="node7" class="node">
<title>Camshaft</title>
<polygon fill="lightgray" stroke="transparent" points="421.5,-1284.5 421.5,-1307.5 741.5,-1307.5 741.5,-1284.5 421.5,-1284.5"/>
<text text-anchor="start" x="543.5" y="-1293.3" font-family="Helvetica,sans-Serif" font-weight="bold" font-size="14.00">Camshaft</text>
<text text-anchor="start" x="425.5" y="-1269.3" font-family="Helvetica,sans-Serif" font-size="14.00">camshaftID : Identifier</text>
<text text-anchor="start" x="425.5" y="-1246.3" font-family="Helvetica,sans-Serif" font-size="14.00">camshaftSpeed : AngularVelocity</text>
<text text-anchor="start" x="425.5" y="-1223.3" font-family="Helvetica,sans-Serif" font-size="14.00">camshaftOrientation : Orientation</text>
<text text-anchor="start" x="425.5" y="-1200.3" font-family="Helvetica,sans-Serif" font-size="14.00">camshaftOperationalState : OperationalState</text>
<polygon fill="none" stroke="black" points="420.5,-1192 420.5,-1309 742.5,-1309 742.5,-1192 420.5,-1192"/>
</g>
<!-- ValveTrain -->
<g id="node8" class="node">
<title>ValveTrain</title>
<polygon fill="lightgray" stroke="transparent" points="435.5,-1135.5 435.5,-1158.5 728.5,-1158.5 728.5,-1135.5 435.5,-1135.5"/>
<text text-anchor="start" x="541" y="-1144.3" font-family="Helvetica,sans-Serif" font-weight="bold" font-size="14.00">ValveTrain</text>
<text text-anchor="start" x="439.5" y="-1120.3" font-family="Helvetica,sans-Serif" font-size="14.00">valveTrainID : Identifier</text>
<text text-anchor="start" x="439.5" y="-1097.3" font-family="Helvetica,sans-Serif" font-size="14.00">valveCount : Count</text>
<text text-anchor="start" x="439.5" y="-1074.3" font-family="Helvetica,sans-Serif" font-size="14.00">valveTemperature : Temperature</text>
<text text-anchor="start" x="439.5" y="-1051.3" font-family="Helvetica,sans-Serif" font-size="14.00">valveOperationalState : OperationalState</text>
<polygon fill="none" stroke="black" points="434,-1043 434,-1160 729,-1160 729,-1043 434,-1043"/>
</g>
<!-- IntakeManifold -->
<g id="node9" class="node">
<title>IntakeManifold</title>
<polygon fill="lightgray" stroke="transparent" points="423.5,-1731.5 423.5,-1754.5 740.5,-1754.5 740.5,-1731.5 423.5,-1731.5"/>
<text text-anchor="start" x="522.5" y="-1740.3" font-family="Helvetica,sans-Serif" font-weight="bold" font-size="14.00">IntakeManifold</text>
<text text-anchor="start" x="427.5" y="-1716.3" font-family="Helvetica,sans-Serif" font-size="14.00">intakeManifoldID : Identifier</text>
<text text-anchor="start" x="427.5" y="-1693.3" font-family="Helvetica,sans-Serif" font-size="14.00">manifoldPressure : Pressure</text>
<text text-anchor="start" x="427.5" y="-1670.3" font-family="Helvetica,sans-Serif" font-size="14.00">manifoldTemperature : Temperature</text>
<text text-anchor="start" x="427.5" y="-1647.3" font-family="Helvetica,sans-Serif" font-size="14.00">manifoldOperationalState : OperationalState</text>
<polygon fill="none" stroke="black" points="422,-1639 422,-1756 741,-1756 741,-1639 422,-1639"/>
</g>
<!-- ExhaustManifold -->
<g id="node10" class="node">
<title>ExhaustManifold</title>
<polygon fill="lightgray" stroke="transparent" points="425.5,-1582.5 425.5,-1605.5 737.5,-1605.5 737.5,-1582.5 425.5,-1582.5"/>
<text text-anchor="start" x="515.5" y="-1591.3" font-family="Helvetica,sans-Serif" font-weight="bold" font-size="14.00">ExhaustManifold</text>
<text text-anchor="start" x="429.5" y="-1567.3" font-family="Helvetica,sans-Serif" font-size="14.00">exhaustManifoldID : Identifier</text>
<text text-anchor="start" x="429.5" y="-1544.3" font-family="Helvetica,sans-Serif" font-size="14.00">exhaustPressure : Pressure</text>
<text text-anchor="start" x="429.5" y="-1521.3" font-family="Helvetica,sans-Serif" font-size="14.00">exhaustTemperature : Temperature</text>
<text text-anchor="start" x="429.5" y="-1498.3" font-family="Helvetica,sans-Serif" font-size="14.00">exhaustOperationalState : OperationalState</text>
<polygon fill="none" stroke="black" points="424.5,-1490 424.5,-1607 738.5,-1607 738.5,-1490 424.5,-1490"/>
</g>
<!-- Transmission -->
<g id="node11" class="node">
<title>Transmission</title>
<polygon fill="lightgray" stroke="transparent" points="409.5,-986.5 409.5,-1009.5 754.5,-1009.5 754.5,-986.5 409.5,-986.5"/>
<text text-anchor="start" x="530.5" y="-995.3" font-family="Helvetica,sans-Serif" font-weight="bold" font-size="14.00">Transmission</text>
<text text-anchor="start" x="413.5" y="-971.3" font-family="Helvetica,sans-Serif" font-size="14.00">transmissionID : Identifier</text>
<text text-anchor="start" x="413.5" y="-948.3" font-family="Helvetica,sans-Serif" font-size="14.00">inputSpeed : AngularVelocity</text>
<text text-anchor="start" x="413.5" y="-925.3" font-family="Helvetica,sans-Serif" font-size="14.00">outputSpeed : AngularVelocity</text>
<text text-anchor="start" x="413.5" y="-902.3" font-family="Helvetica,sans-Serif" font-size="14.00">transmissionOperationalState : OperationalState</text>
<polygon fill="none" stroke="black" points="408,-894 408,-1011 755,-1011 755,-894 408,-894"/>
</g>
<!-- Differential -->
<g id="node12" class="node">
<title>Differential</title>
<polygon fill="lightgray" stroke="transparent" points="416.5,-688.5 416.5,-711.5 746.5,-711.5 746.5,-688.5 416.5,-688.5"/>
<text text-anchor="start" x="537" y="-697.3" font-family="Helvetica,sans-Serif" font-weight="bold" font-size="14.00">Differential</text>
<text text-anchor="start" x="420.5" y="-673.3" font-family="Helvetica,sans-Serif" font-size="14.00">differentialID : Identifier</text>
<text text-anchor="start" x="420.5" y="-650.3" font-family="Helvetica,sans-Serif" font-size="14.00">inputTorque : Torque</text>
<text text-anchor="start" x="420.5" y="-627.3" font-family="Helvetica,sans-Serif" font-size="14.00">outputTorque : Torque</text>
<text text-anchor="start" x="420.5" y="-604.3" font-family="Helvetica,sans-Serif" font-size="14.00">differentialOperationalState : OperationalState</text>
<polygon fill="none" stroke="black" points="415.5,-596 415.5,-713 747.5,-713 747.5,-596 415.5,-596"/>
</g>
<!-- AxleAssembly -->
<g id="node13" class="node">
<title>AxleAssembly</title>
<polygon fill="lightgray" stroke="transparent" points="439.5,-539.5 439.5,-562.5 724.5,-562.5 724.5,-539.5 439.5,-539.5"/>
<text text-anchor="start" x="527.5" y="-548.3" font-family="Helvetica,sans-Serif" font-weight="bold" font-size="14.00">AxleAssembly</text>
<text text-anchor="start" x="443.5" y="-524.3" font-family="Helvetica,sans-Serif" font-size="14.00">axleAssemblyID : Identifier</text>
<text text-anchor="start" x="443.5" y="-501.3" font-family="Helvetica,sans-Serif" font-size="14.00">axleTorque : Torque</text>
<text text-anchor="start" x="443.5" y="-478.3" font-family="Helvetica,sans-Serif" font-size="14.00">axleSpeed : AngularVelocity</text>
<text text-anchor="start" x="443.5" y="-455.3" font-family="Helvetica,sans-Serif" font-size="14.00">axleOperationalState : OperationalState</text>
<polygon fill="none" stroke="black" points="438,-447 438,-564 725,-564 725,-447 438,-447"/>
</g>
<!-- Wheel -->
<g id="node14" class="node">
<title>Wheel</title>
<polygon fill="lightgray" stroke="transparent" points="433.5,-390.5 433.5,-413.5 730.5,-413.5 730.5,-390.5 433.5,-390.5"/>
<text text-anchor="start" x="557" y="-399.3" font-family="Helvetica,sans-Serif" font-weight="bold" font-size="14.00">Wheel</text>
<text text-anchor="start" x="437.5" y="-375.3" font-family="Helvetica,sans-Serif" font-size="14.00">wheelID : Identifier</text>
<text text-anchor="start" x="437.5" y="-352.3" font-family="Helvetica,sans-Serif" font-size="14.00">wheelPosition : Position</text>
<text text-anchor="start" x="437.5" y="-329.3" font-family="Helvetica,sans-Serif" font-size="14.00">wheelSpeed : AngularVelocity</text>
<text text-anchor="start" x="437.5" y="-306.3" font-family="Helvetica,sans-Serif" font-size="14.00">wheelOperationalState : OperationalState</text>
<polygon fill="none" stroke="black" points="432,-298 432,-415 731,-415 731,-298 432,-298"/>
</g>
<!-- SuspensionAssembly -->
<g id="node15" class="node">
<title>SuspensionAssembly</title>
<polygon fill="lightgray" stroke="transparent" points="414.5,-837.5 414.5,-860.5 749.5,-860.5 749.5,-837.5 414.5,-837.5"/>
<text text-anchor="start" x="500" y="-846.3" font-family="Helvetica,sans-Serif" font-weight="bold" font-size="14.00">SuspensionAssembly</text>
<text text-anchor="start" x="418.5" y="-822.3" font-family="Helvetica,sans-Serif" font-size="14.00">suspensionAssemblyID : Identifier</text>
<text text-anchor="start" x="418.5" y="-799.3" font-family="Helvetica,sans-Serif" font-size="14.00">suspensionPosition : Position</text>
<text text-anchor="start" x="418.5" y="-776.3" font-family="Helvetica,sans-Serif" font-size="14.00">suspensionExtent : Extent</text>
<text text-anchor="start" x="418.5" y="-753.3" font-family="Helvetica,sans-Serif" font-size="14.00">suspensionOperationalState : OperationalState</text>
<polygon fill="none" stroke="black" points="413,-745 413,-862 750,-862 750,-745 413,-745"/>
</g>
<!-- SteeringRack -->
<g id="node16" class="node">
<title>SteeringRack</title>
<polygon fill="lightgray" stroke="transparent" points="425.5,-241.5 425.5,-264.5 738.5,-264.5 738.5,-241.5 425.5,-241.5"/>
<text text-anchor="start" x="529.5" y="-250.3" font-family="Helvetica,sans-Serif" font-weight="bold" font-size="14.00">SteeringRack</text>
<text text-anchor="start" x="429.5" y="-226.3" font-family="Helvetica,sans-Serif" font-size="14.00">steeringRackID : Identifier</text>
<text text-anchor="start" x="429.5" y="-203.3" font-family="Helvetica,sans-Serif" font-size="14.00">steeringForce : Force</text>
<text text-anchor="start" x="429.5" y="-180.3" font-family="Helvetica,sans-Serif" font-size="14.00">steeringPosition : Position</text>
<text text-anchor="start" x="429.5" y="-157.3" font-family="Helvetica,sans-Serif" font-size="14.00">steeringOperationalState : OperationalState</text>
<polygon fill="none" stroke="black" points="424,-149 424,-266 739,-266 739,-149 424,-149"/>
</g>
<!-- BrakeAssembly -->
<g id="node17" class="node">
<title>BrakeAssembly</title>
<polygon fill="lightgray" stroke="transparent" points="434.5,-92.5 434.5,-115.5 729.5,-115.5 729.5,-92.5 434.5,-92.5"/>
<text text-anchor="start" x="521.5" y="-101.3" font-family="Helvetica,sans-Serif" font-weight="bold" font-size="14.00">BrakeAssembly</text>
<text text-anchor="start" x="438.5" y="-77.3" font-family="Helvetica,sans-Serif" font-size="14.00">brakeAssemblyID : Identifier</text>
<text text-anchor="start" x="438.5" y="-54.3" font-family="Helvetica,sans-Serif" font-size="14.00">brakeForce : Force</text>
<text text-anchor="start" x="438.5" y="-31.3" font-family="Helvetica,sans-Serif" font-size="14.00">brakeTemperature : Temperature</text>
<text text-anchor="start" x="438.5" y="-8.3" font-family="Helvetica,sans-Serif" font-size="14.00">brakeOperationalState : OperationalState</text>
<polygon fill="none" stroke="black" points="433,0 433,-117 730,-117 730,0 433,0"/>
</g>
<!-- A_AutomobileComposedWithBodyFrame -->
<g id="node18" class="node">
<title>A_AutomobileComposedWithBodyFrame</title>
<polygon fill="lightblue" stroke="transparent" points="16,-2373.5 16,-2396.5 321,-2396.5 321,-2373.5 16,-2373.5"/>
<text text-anchor="start" x="20" y="-2382.3" font-family="Helvetica,sans-Serif" font-weight="bold" font-size="14.00">AutomobileComposedWithBodyFrame</text>
<text text-anchor="start" x="20" y="-2358.3" font-family="Helvetica,sans-Serif" font-size="14.00">mountPosition : Position</text>
<polygon fill="none" stroke="black" points="14.5,-2349.5 14.5,-2397.5 321.5,-2397.5 321.5,-2349.5 14.5,-2349.5"/>
</g>
<!-- A_AutomobileComposedWithBodyFrame&#45;&gt;Automobile -->
<g id="edge1" class="edge">
<title>A_AutomobileComposedWithBodyFrame&#45;&gt;Automobile</title>
<path fill="none" stroke="#555555" d="M291.07,-2397.53C329.58,-2405.11 372.79,-2413.62 413.86,-2421.7"/>
</g>
<!-- A_AutomobileComposedWithBodyFrame&#45;&gt;BodyFrame -->
<g id="edge2" class="edge">
<title>A_AutomobileComposedWithBodyFrame&#45;&gt;BodyFrame</title>
<path fill="none" stroke="#555555" d="M292.46,-2349.5C336.26,-2340.98 386.01,-2331.31 431.7,-2322.43"/>
</g>
<!-- A_BodyFrameSupportsEngineBlock -->
<g id="node19" class="node">
<title>A_BodyFrameSupportsEngineBlock</title>
<polygon fill="lightblue" stroke="transparent" points="37,-2218.5 37,-2241.5 300,-2241.5 300,-2218.5 37,-2218.5"/>
<text text-anchor="start" x="41" y="-2227.3" font-family="Helvetica,sans-Serif" font-weight="bold" font-size="14.00">BodyFrameSupportsEngineBlock</text>
<text text-anchor="start" x="41" y="-2203.3" font-family="Helvetica,sans-Serif" font-size="14.00">mountPosition : Position</text>
<polygon fill="none" stroke="black" points="35.5,-2194.5 35.5,-2242.5 300.5,-2242.5 300.5,-2194.5 35.5,-2194.5"/>
</g>
<!-- A_BodyFrameSupportsEngineBlock&#45;&gt;BodyFrame -->
<g id="edge3" class="edge">
<title>A_BodyFrameSupportsEngineBlock&#45;&gt;BodyFrame</title>
<path fill="none" stroke="#555555" d="M300.62,-2242.49C342.35,-2250.1 388.79,-2258.56 431.65,-2266.37"/>
</g>
<!-- A_BodyFrameSupportsEngineBlock&#45;&gt;EngineBlock -->
<g id="edge4" class="edge">
<title>A_BodyFrameSupportsEngineBlock&#45;&gt;EngineBlock</title>
<path fill="none" stroke="#555555" d="M300.62,-2194.83C343.06,-2187.2 390.36,-2178.69 433.82,-2170.88"/>
</g>
<!-- A_EngineBlockConnectedToCylinderHead -->
<g id="node20" class="node">
<title>A_EngineBlockConnectedToCylinderHead</title>
<polygon fill="lightblue" stroke="transparent" points="13,-2066.5 13,-2089.5 324,-2089.5 324,-2066.5 13,-2066.5"/>
<text text-anchor="start" x="17" y="-2075.3" font-family="Helvetica,sans-Serif" font-weight="bold" font-size="14.00">EngineBlockConnectedToCylinderHead</text>
<text text-anchor="start" x="17" y="-2051.3" font-family="Helvetica,sans-Serif" font-size="14.00">sealState : OperationalState</text>
<polygon fill="none" stroke="black" points="11.5,-2042.5 11.5,-2090.5 324.5,-2090.5 324.5,-2042.5 11.5,-2042.5"/>
</g>
<!-- A_EngineBlockConnectedToCylinderHead&#45;&gt;EngineBlock -->
<g id="edge5" class="edge">
<title>A_EngineBlockConnectedToCylinderHead&#45;&gt;EngineBlock</title>
<path fill="none" stroke="#555555" d="M295.82,-2090.54C339.51,-2098.82 388.79,-2108.16 433.92,-2116.72"/>
</g>
<!-- A_EngineBlockConnectedToCylinderHead&#45;&gt;CylinderHead -->
<g id="edge6" class="edge">
<title>A_EngineBlockConnectedToCylinderHead&#45;&gt;CylinderHead</title>
<path fill="none" stroke="#555555" d="M308.32,-2042.46C349,-2035.44 393.57,-2027.75 434.65,-2020.66"/>
</g>
<!-- A_EngineBlockContainsPistonAssembly -->
<g id="node21" class="node">
<title>A_EngineBlockContainsPistonAssembly</title>
<polygon fill="lightblue" stroke="transparent" points="20,-1916.5 20,-1939.5 317,-1939.5 317,-1916.5 20,-1916.5"/>
<text text-anchor="start" x="24" y="-1925.3" font-family="Helvetica,sans-Serif" font-weight="bold" font-size="14.00">EngineBlockContainsPistonAssembly</text>
<text text-anchor="start" x="24" y="-1901.3" font-family="Helvetica,sans-Serif" font-size="14.00">assemblyPosition : Position</text>
<polygon fill="none" stroke="black" points="18.5,-1892.5 18.5,-1940.5 317.5,-1940.5 317.5,-1892.5 18.5,-1892.5"/>
</g>
<!-- A_EngineBlockContainsPistonAssembly&#45;&gt;EngineBlock -->
<g id="edge7" class="edge">
<title>A_EngineBlockContainsPistonAssembly&#45;&gt;EngineBlock</title>
<path fill="none" stroke="#555555" d="M205.8,-1940.7C267.59,-1981.24 387.46,-2059.58 408,-2070.5 417.78,-2075.7 428.01,-2080.83 438.39,-2085.81"/>
</g>
<!-- A_EngineBlockContainsPistonAssembly&#45;&gt;PistonAssembly -->
<g id="edge8" class="edge">
<title>A_EngineBlockContainsPistonAssembly&#45;&gt;PistonAssembly</title>
<path fill="none" stroke="#555555" d="M310.33,-1892.46C345.45,-1886.48 383.35,-1880.04 419.34,-1873.91"/>
</g>
<!-- A_PistonAssemblyDrivesCrankshaft -->
<g id="node22" class="node">
<title>A_PistonAssemblyDrivesCrankshaft</title>
<polygon fill="lightblue" stroke="transparent" points="34,-1516.5 34,-1539.5 302,-1539.5 302,-1516.5 34,-1516.5"/>
<text text-anchor="start" x="38" y="-1525.3" font-family="Helvetica,sans-Serif" font-weight="bold" font-size="14.00">PistonAssemblyDrivesCrankshaft</text>
<text text-anchor="start" x="38" y="-1501.3" font-family="Helvetica,sans-Serif" font-size="14.00">transmittedTorque : Torque</text>
<polygon fill="none" stroke="black" points="33,-1492.5 33,-1540.5 303,-1540.5 303,-1492.5 33,-1492.5"/>
</g>
<!-- A_PistonAssemblyDrivesCrankshaft&#45;&gt;PistonAssembly -->
<g id="edge9" class="edge">
<title>A_PistonAssemblyDrivesCrankshaft&#45;&gt;PistonAssembly</title>
<path fill="none" stroke="#555555" d="M303.04,-1537.68C315.08,-1543.38 326.35,-1550.54 336,-1559.5 409.22,-1627.5 340.2,-1699.1 408,-1772.5 413.09,-1778.01 418.65,-1783.12 424.57,-1787.87"/>
</g>
<!-- A_PistonAssemblyDrivesCrankshaft&#45;&gt;Crankshaft -->
<g id="edge10" class="edge">
<title>A_PistonAssemblyDrivesCrankshaft&#45;&gt;Crankshaft</title>
<path fill="none" stroke="#555555" d="M257.03,-1492.5C282.53,-1485.48 310.39,-1477.74 336,-1470.5 368.01,-1461.45 402.32,-1451.58 434.82,-1442.16"/>
</g>
<!-- A_CrankshaftCoupledToCamshaft -->
<g id="node23" class="node">
<title>A_CrankshaftCoupledToCamshaft</title>
<polygon fill="lightblue" stroke="transparent" points="43,-1338.5 43,-1361.5 294,-1361.5 294,-1338.5 43,-1338.5"/>
<text text-anchor="start" x="47" y="-1347.3" font-family="Helvetica,sans-Serif" font-weight="bold" font-size="14.00">CrankshaftCoupledToCamshaft</text>
<text text-anchor="start" x="47" y="-1323.3" font-family="Helvetica,sans-Serif" font-size="14.00">timingRatio : Ratio</text>
<polygon fill="none" stroke="black" points="41.5,-1314.5 41.5,-1362.5 294.5,-1362.5 294.5,-1314.5 41.5,-1314.5"/>
</g>
<!-- A_CrankshaftCoupledToCamshaft&#45;&gt;Crankshaft -->
<g id="edge11" class="edge">
<title>A_CrankshaftCoupledToCamshaft&#45;&gt;Crankshaft</title>
<path fill="none" stroke="#555555" d="M294.7,-1357.13C338.9,-1363.69 388.94,-1371.1 434.65,-1377.88"/>
</g>
<!-- A_CrankshaftCoupledToCamshaft&#45;&gt;Camshaft -->
<g id="edge12" class="edge">
<title>A_CrankshaftCoupledToCamshaft&#45;&gt;Camshaft</title>
<path fill="none" stroke="#555555" d="M281.44,-1314.45C324.28,-1305.29 373.96,-1294.67 420.37,-1284.74"/>
</g>
<!-- A_CamshaftOperatesValveTrain -->
<g id="node24" class="node">
<title>A_CamshaftOperatesValveTrain</title>
<polygon fill="lightblue" stroke="transparent" points="49,-1128.5 49,-1151.5 287,-1151.5 287,-1128.5 49,-1128.5"/>
<text text-anchor="start" x="53" y="-1137.3" font-family="Helvetica,sans-Serif" font-weight="bold" font-size="14.00">CamshaftOperatesValveTrain</text>
<text text-anchor="start" x="53" y="-1113.3" font-family="Helvetica,sans-Serif" font-size="14.00">liftState : OperationalState</text>
<polygon fill="none" stroke="black" points="48,-1104.5 48,-1152.5 288,-1152.5 288,-1104.5 48,-1104.5"/>
</g>
<!-- A_CamshaftOperatesValveTrain&#45;&gt;Camshaft -->
<g id="edge13" class="edge">
<title>A_CamshaftOperatesValveTrain&#45;&gt;Camshaft</title>
<path fill="none" stroke="#555555" d="M250.3,-1152.6C298.78,-1166.98 362.04,-1185.73 420.19,-1202.97"/>
</g>
<!-- A_CamshaftOperatesValveTrain&#45;&gt;ValveTrain -->
<g id="edge14" class="edge">
<title>A_CamshaftOperatesValveTrain&#45;&gt;ValveTrain</title>
<path fill="none" stroke="#555555" d="M288.02,-1120.69C333.6,-1117.7 386.12,-1114.25 433.97,-1111.11"/>
</g>
<!-- A_IntakeManifoldAttachedToCylinderHead -->
<g id="node25" class="node">
<title>A_IntakeManifoldAttachedToCylinderHead</title>
<polygon fill="lightblue" stroke="transparent" points="8,-1731.5 8,-1754.5 329,-1754.5 329,-1731.5 8,-1731.5"/>
<text text-anchor="start" x="12" y="-1740.3" font-family="Helvetica,sans-Serif" font-weight="bold" font-size="14.00">IntakeManifoldAttachedToCylinderHead</text>
<text text-anchor="start" x="12" y="-1716.3" font-family="Helvetica,sans-Serif" font-size="14.00">attachmentState : OperationalState</text>
<polygon fill="none" stroke="black" points="6.5,-1707.5 6.5,-1755.5 329.5,-1755.5 329.5,-1707.5 6.5,-1707.5"/>
</g>
<!-- A_IntakeManifoldAttachedToCylinderHead&#45;&gt;CylinderHead -->
<g id="edge16" class="edge">
<title>A_IntakeManifoldAttachedToCylinderHead&#45;&gt;CylinderHead</title>
<path fill="none" stroke="#555555" d="M194.53,-1755.63C236.49,-1794.38 323.81,-1871.21 408,-1921.5 416.95,-1926.85 426.36,-1932.01 435.97,-1936.96"/>
</g>
<!-- A_IntakeManifoldAttachedToCylinderHead&#45;&gt;IntakeManifold -->
<g id="edge15" class="edge">
<title>A_IntakeManifoldAttachedToCylinderHead&#45;&gt;IntakeManifold</title>
<path fill="none" stroke="#555555" d="M329.57,-1718.23C359.91,-1715.73 391.62,-1713.11 421.89,-1710.6"/>
</g>
<!-- A_ExhaustManifoldAttachedToCylinderHead -->
<g id="node26" class="node">
<title>A_ExhaustManifoldAttachedToCylinderHead</title>
<polygon fill="lightblue" stroke="transparent" points="1,-1599.5 1,-1622.5 335,-1622.5 335,-1599.5 1,-1599.5"/>
<text text-anchor="start" x="5" y="-1608.3" font-family="Helvetica,sans-Serif" font-weight="bold" font-size="14.00">ExhaustManifoldAttachedToCylinderHead</text>
<text text-anchor="start" x="5" y="-1584.3" font-family="Helvetica,sans-Serif" font-size="14.00">attachmentState : OperationalState</text>
<polygon fill="none" stroke="black" points="0,-1575.5 0,-1623.5 336,-1623.5 336,-1575.5 0,-1575.5"/>
</g>
<!-- A_ExhaustManifoldAttachedToCylinderHead&#45;&gt;CylinderHead -->
<g id="edge18" class="edge">
<title>A_ExhaustManifoldAttachedToCylinderHead&#45;&gt;CylinderHead</title>
<path fill="none" stroke="#555555" d="M238.61,-1623.58C272.27,-1638.43 310.75,-1660.62 336,-1691.5 403.79,-1774.43 336.21,-1842 408,-1921.5 415.86,-1930.21 424.92,-1937.93 434.69,-1944.77"/>
</g>
<!-- A_ExhaustManifoldAttachedToCylinderHead&#45;&gt;ExhaustManifold -->
<g id="edge17" class="edge">
<title>A_ExhaustManifoldAttachedToCylinderHead&#45;&gt;ExhaustManifold</title>
<path fill="none" stroke="#555555" d="M336.08,-1578.79C365.24,-1575.18 395.49,-1571.43 424.34,-1567.85"/>
</g>
<!-- A_CrankshaftDrivesTransmission -->
<g id="node27" class="node">
<title>A_CrankshaftDrivesTransmission</title>
<polygon fill="lightblue" stroke="transparent" points="45,-1235.5 45,-1258.5 291,-1258.5 291,-1235.5 45,-1235.5"/>
<text text-anchor="start" x="49" y="-1244.3" font-family="Helvetica,sans-Serif" font-weight="bold" font-size="14.00">CrankshaftDrivesTransmission</text>
<text text-anchor="start" x="49" y="-1220.3" font-family="Helvetica,sans-Serif" font-size="14.00">inputTorque : Torque</text>
<polygon fill="none" stroke="black" points="44,-1211.5 44,-1259.5 292,-1259.5 292,-1211.5 44,-1211.5"/>
</g>
<!-- A_CrankshaftDrivesTransmission&#45;&gt;Crankshaft -->
<g id="edge19" class="edge">
<title>A_CrankshaftDrivesTransmission&#45;&gt;Crankshaft</title>
<path fill="none" stroke="#555555" d="M234.21,-1259.57C265.15,-1271.12 302.57,-1285.29 336,-1298.5 370.06,-1311.96 406.63,-1326.83 440.84,-1340.93"/>
</g>
<!-- A_CrankshaftDrivesTransmission&#45;&gt;Transmission -->
<g id="edge20" class="edge">
<title>A_CrankshaftDrivesTransmission&#45;&gt;Transmission</title>
<path fill="none" stroke="#555555" d="M262.4,-1211.44C288.44,-1201.37 315.24,-1187.46 336,-1168.5 387.96,-1121.05 356.73,-1075.69 408,-1027.5 414.19,-1021.69 420.9,-1016.28 427.96,-1011.26"/>
</g>
<!-- A_TransmissionConnectedToDifferential -->
<g id="node28" class="node">
<title>A_TransmissionConnectedToDifferential</title>
<polygon fill="lightblue" stroke="transparent" points="18,-701.5 18,-724.5 318,-724.5 318,-701.5 18,-701.5"/>
<text text-anchor="start" x="22" y="-710.3" font-family="Helvetica,sans-Serif" font-weight="bold" font-size="14.00">TransmissionConnectedToDifferential</text>
<text text-anchor="start" x="22" y="-686.3" font-family="Helvetica,sans-Serif" font-size="14.00">outputTorque : Torque</text>
<polygon fill="none" stroke="black" points="17,-677.5 17,-725.5 319,-725.5 319,-677.5 17,-677.5"/>
</g>
<!-- A_TransmissionConnectedToDifferential&#45;&gt;Transmission -->
<g id="edge21" class="edge">
<title>A_TransmissionConnectedToDifferential&#45;&gt;Transmission</title>
<path fill="none" stroke="#555555" d="M196.94,-725.59C240.09,-761.98 326.51,-831.7 408,-878.5 417.18,-883.77 426.82,-888.9 436.63,-893.84"/>
</g>
<!-- A_TransmissionConnectedToDifferential&#45;&gt;Differential -->
<g id="edge22" class="edge">
<title>A_TransmissionConnectedToDifferential&#45;&gt;Differential</title>
<path fill="none" stroke="#555555" d="M319.02,-684.37C350.37,-680.78 383.59,-676.99 415.46,-673.35"/>
</g>
<!-- A_DifferentialConnectedToAxleAssembly -->
<g id="node29" class="node">
<title>A_DifferentialConnectedToAxleAssembly</title>
<polygon fill="lightblue" stroke="transparent" points="15,-607.5 15,-630.5 321,-630.5 321,-607.5 15,-607.5"/>
<text text-anchor="start" x="19" y="-616.3" font-family="Helvetica,sans-Serif" font-weight="bold" font-size="14.00">DifferentialConnectedToAxleAssembly</text>
<text text-anchor="start" x="19" y="-592.3" font-family="Helvetica,sans-Serif" font-size="14.00">distributedTorque : Torque</text>
<polygon fill="none" stroke="black" points="14,-583.5 14,-631.5 322,-631.5 322,-583.5 14,-583.5"/>
</g>
<!-- A_DifferentialConnectedToAxleAssembly&#45;&gt;Differential -->
<g id="edge23" class="edge">
<title>A_DifferentialConnectedToAxleAssembly&#45;&gt;Differential</title>
<path fill="none" stroke="#555555" d="M322.23,-625C352.62,-628.47 384.65,-632.13 415.41,-635.64"/>
</g>
<!-- A_DifferentialConnectedToAxleAssembly&#45;&gt;AxleAssembly -->
<g id="edge24" class="edge">
<title>A_DifferentialConnectedToAxleAssembly&#45;&gt;AxleAssembly</title>
<path fill="none" stroke="#555555" d="M266,-583.46C317.2,-570.76 381.02,-554.95 437.76,-540.88"/>
</g>
<!-- A_AxleAssemblyRotatesWheel -->
<g id="node30" class="node">
<title>A_AxleAssemblyRotatesWheel</title>
<polygon fill="lightblue" stroke="transparent" points="54,-387.5 54,-410.5 282,-410.5 282,-387.5 54,-387.5"/>
<text text-anchor="start" x="58" y="-396.3" font-family="Helvetica,sans-Serif" font-weight="bold" font-size="14.00">AxleAssemblyRotatesWheel</text>
<text text-anchor="start" x="58" y="-372.3" font-family="Helvetica,sans-Serif" font-size="14.00">wheelTorque : Torque</text>
<polygon fill="none" stroke="black" points="53,-363.5 53,-411.5 283,-411.5 283,-363.5 53,-363.5"/>
</g>
<!-- A_AxleAssemblyRotatesWheel&#45;&gt;AxleAssembly -->
<g id="edge25" class="edge">
<title>A_AxleAssemblyRotatesWheel&#45;&gt;AxleAssembly</title>
<path fill="none" stroke="#555555" d="M252.77,-411.52C305.88,-426.75 375.96,-446.85 437.68,-464.54"/>
</g>
<!-- A_AxleAssemblyRotatesWheel&#45;&gt;Wheel -->
<g id="edge26" class="edge">
<title>A_AxleAssemblyRotatesWheel&#45;&gt;Wheel</title>
<path fill="none" stroke="#555555" d="M283.08,-378.91C329.1,-375.44 382.82,-371.39 431.84,-367.7"/>
</g>
<!-- A_BodyFrameSupportsSuspensionAssembly -->
<g id="node31" class="node">
<title>A_BodyFrameSupportsSuspensionAssembly</title>
<polygon fill="lightblue" stroke="transparent" points="3,-1430.5 3,-1453.5 334,-1453.5 334,-1430.5 3,-1430.5"/>
<text text-anchor="start" x="7" y="-1439.3" font-family="Helvetica,sans-Serif" font-weight="bold" font-size="14.00">BodyFrameSupportsSuspensionAssembly</text>
<text text-anchor="start" x="7" y="-1415.3" font-family="Helvetica,sans-Serif" font-size="14.00">supportPosition : Position</text>
<polygon fill="none" stroke="black" points="1.5,-1406.5 1.5,-1454.5 334.5,-1454.5 334.5,-1406.5 1.5,-1406.5"/>
</g>
<!-- A_BodyFrameSupportsSuspensionAssembly&#45;&gt;BodyFrame -->
<g id="edge27" class="edge">
<title>A_BodyFrameSupportsSuspensionAssembly&#45;&gt;BodyFrame</title>
<path fill="none" stroke="#555555" d="M309.67,-1454.5C319.56,-1460.4 328.55,-1467.64 336,-1476.5 442.78,-1603.45 310.13,-2085.57 408,-2219.5 414.73,-2228.71 422.84,-2236.78 431.84,-2243.86"/>
</g>
<!-- A_BodyFrameSupportsSuspensionAssembly&#45;&gt;SuspensionAssembly -->
<g id="edge28" class="edge">
<title>A_BodyFrameSupportsSuspensionAssembly&#45;&gt;SuspensionAssembly</title>
<path fill="none" stroke="#555555" d="M299.84,-1406.33C313.53,-1399.26 326.05,-1390.17 336,-1378.5 481.66,-1207.65 271.8,-1056.98 408,-878.5 412.46,-872.66 417.46,-867.27 422.89,-862.29"/>
</g>
<!-- A_SuspensionAssemblySupportsWheel -->
<g id="node32" class="node">
<title>A_SuspensionAssemblySupportsWheel</title>
<polygon fill="lightblue" stroke="transparent" points="22,-498.5 22,-521.5 314,-521.5 314,-498.5 22,-498.5"/>
<text text-anchor="start" x="26" y="-507.3" font-family="Helvetica,sans-Serif" font-weight="bold" font-size="14.00">SuspensionAssemblySupportsWheel</text>
<text text-anchor="start" x="26" y="-483.3" font-family="Helvetica,sans-Serif" font-size="14.00">supportState : OperationalState</text>
<polygon fill="none" stroke="black" points="21,-474.5 21,-522.5 315,-522.5 315,-474.5 21,-474.5"/>
</g>
<!-- A_SuspensionAssemblySupportsWheel&#45;&gt;Wheel -->
<g id="edge30" class="edge">
<title>A_SuspensionAssemblySupportsWheel&#45;&gt;Wheel</title>
<path fill="none" stroke="#555555" d="M238.81,-474.41C291.54,-456.21 365.85,-430.57 431.71,-407.84"/>
</g>
<!-- A_SuspensionAssemblySupportsWheel&#45;&gt;SuspensionAssembly -->
<g id="edge29" class="edge">
<title>A_SuspensionAssemblySupportsWheel&#45;&gt;SuspensionAssembly</title>
<path fill="none" stroke="#555555" d="M261.78,-522.55C288.24,-532.95 315.44,-547.47 336,-567.5 392.44,-622.47 351.93,-674.15 408,-729.5 413.57,-734.99 419.6,-740.11 425.98,-744.87"/>
</g>
<!-- A_SteeringRackOrientsWheel -->
<g id="node33" class="node">
<title>A_SteeringRackOrientsWheel</title>
<polygon fill="lightblue" stroke="transparent" points="58,-257.5 58,-280.5 278,-280.5 278,-257.5 58,-257.5"/>
<text text-anchor="start" x="62" y="-266.3" font-family="Helvetica,sans-Serif" font-weight="bold" font-size="14.00">SteeringRackOrientsWheel</text>
<text text-anchor="start" x="62" y="-242.3" font-family="Helvetica,sans-Serif" font-size="14.00">steerAngle : Angle</text>
<polygon fill="none" stroke="black" points="57,-233.5 57,-281.5 279,-281.5 279,-233.5 57,-233.5"/>
</g>
<!-- A_SteeringRackOrientsWheel&#45;&gt;Wheel -->
<g id="edge32" class="edge">
<title>A_SteeringRackOrientsWheel&#45;&gt;Wheel</title>
<path fill="none" stroke="#555555" d="M268.88,-281.53C317.76,-293.29 377.6,-307.69 431.74,-320.71"/>
</g>
<!-- A_SteeringRackOrientsWheel&#45;&gt;SteeringRack -->
<g id="edge31" class="edge">
<title>A_SteeringRackOrientsWheel&#45;&gt;SteeringRack</title>
<path fill="none" stroke="#555555" d="M279,-244.13C323.41,-238.74 375.46,-232.41 423.71,-226.55"/>
</g>
<!-- A_BrakeAssemblyActsOnWheel -->
<g id="node34" class="node">
<title>A_BrakeAssemblyActsOnWheel</title>
<polygon fill="lightblue" stroke="transparent" points="51,-143.5 51,-166.5 285,-166.5 285,-143.5 51,-143.5"/>
<text text-anchor="start" x="55" y="-152.3" font-family="Helvetica,sans-Serif" font-weight="bold" font-size="14.00">BrakeAssemblyActsOnWheel</text>
<text text-anchor="start" x="55" y="-128.3" font-family="Helvetica,sans-Serif" font-size="14.00">appliedBrakeForce : Force</text>
<polygon fill="none" stroke="black" points="50,-119.5 50,-167.5 286,-167.5 286,-119.5 50,-119.5"/>
</g>
<!-- A_BrakeAssemblyActsOnWheel&#45;&gt;Wheel -->
<g id="edge34" class="edge">
<title>A_BrakeAssemblyActsOnWheel&#45;&gt;Wheel</title>
<path fill="none" stroke="#555555" d="M236.12,-167.55C267.64,-180.25 305.01,-197.39 336,-217.5 372.16,-240.97 371.7,-259.24 408,-282.5 416.37,-287.86 425.19,-293 434.24,-297.88"/>
</g>
<!-- A_BrakeAssemblyActsOnWheel&#45;&gt;BrakeAssembly -->
<g id="edge33" class="edge">
<title>A_BrakeAssemblyActsOnWheel&#45;&gt;BrakeAssembly</title>
<path fill="none" stroke="#555555" d="M285.27,-119.48C331.14,-110.01 384.38,-99.01 432.91,-88.99"/>
</g>
</g>
</svg>
