<?xml version="1.0" encoding="UTF-8" standalone="no"?>
<!DOCTYPE svg PUBLIC "-//W3C//DTD SVG 1.1//EN"
 "http://www.w3.org/Graphics/SVG/1.1/DTD/svg11.dtd">
<!-- Generated by graphviz version 2.42.4 (0)
 -->
<!-- Title: ERD Pages: 1 -->
<svg width="867pt" height="2423pt"
 viewBox="0.00 0.00 867.20 2423.20" xmlns="http://www.w3.org/2000/svg" xmlns:xlink="http://www.w3.org/1999/xlink">
<g id="graph0" class="graph" transform="scale(1 1) rotate(0) translate(21.6 2401.6)">
<title>ERD</title>
<polygon fill="white" stroke="transparent" points="-21.6,21.6 -21.6,-2401.6 845.6,-2401.6 845.6,21.6 -21.6,21.6"/>
<text text-anchor="middle" x="412" y="-2361.6" font-family="Times,serif" font-size="18.00">Automobile Component Network Model &#45; Packaged Assemblies Network</text>
<!-- Automobile -->
<g id="node1" class="node">
<title>Automobile</title>
<polygon fill="lightgray" stroke="transparent" points="490.5,-986.5 490.5,-1009.5 823.5,-1009.5 823.5,-986.5 490.5,-986.5"/>
<text text-anchor="start" x="612" y="-995.3" font-family="Helvetica,sans-Serif" font-weight="bold" font-size="14.00">Automobile</text>
<text text-anchor="start" x="494.5" y="-971.3" font-family="Helvetica,sans-Serif" font-size="14.00">automobileID : Identifier</text>
<text text-anchor="start" x="494.5" y="-948.3" font-family="Helvetica,sans-Serif" font-size="14.00">automobileExtent : Extent</text>
<text text-anchor="start" x="494.5" y="-925.3" font-family="Helvetica,sans-Serif" font-size="14.00">automobileMass : Mass</text>
<text text-anchor="start" x="494.5" y="-902.3" font-family="Helvetica,sans-Serif" font-size="14.00">automobileOperationalState : OperationalState</text>
<polygon fill="none" stroke="black" points="489,-894 489,-1011 824,-1011 824,-894 489,-894"/>
</g>
<!-- EngineAssembly -->
<g id="node2" class="node">
<title>EngineAssembly</title>
<polygon fill="lightgray" stroke="transparent" points="495.5,-1582.5 495.5,-1605.5 817.5,-1605.5 817.5,-1582.5 495.5,-1582.5"/>
<text text-anchor="start" x="592.5" y="-1591.3" font-family="Helvetica,sans-Serif" font-weight="bold" font-size="14.00">EngineAssembly</text>
<text text-anchor="start" x="499.5" y="-1567.3" font-family="Helvetica,sans-Serif" font-size="14.00">engineAssemblyID : Identifier</text>
<text text-anchor="start" x="499.5" y="-1544.3" font-family="Helvetica,sans-Serif" font-size="14.00">assemblyTemperature : Temperature</text>
<text text-anchor="start" x="499.5" y="-1521.3" font-family="Helvetica,sans-Serif" font-size="14.00">assemblyMass : Mass</text>
<text text-anchor="start" x="499.5" y="-1498.3" font-family="Helvetica,sans-Serif" font-size="14.00">assemblyOperationalState : OperationalState</text>
<polygon fill="none" stroke="black" points="494.5,-1490 494.5,-1607 818.5,-1607 818.5,-1490 494.5,-1490"/>
</g>
<!-- AirIntakeAssembly -->
<g id="node3" class="node">
<title>AirIntakeAssembly</title>
<polygon fill="lightgray" stroke="transparent" points="495.5,-2029.5 495.5,-2052.5 817.5,-2052.5 817.5,-2029.5 495.5,-2029.5"/>
<text text-anchor="start" x="583" y="-2038.3" font-family="Helvetica,sans-Serif" font-weight="bold" font-size="14.00">AirIntakeAssembly</text>
<text text-anchor="start" x="499.5" y="-2014.3" font-family="Helvetica,sans-Serif" font-size="14.00">airIntakeAssemblyID : Identifier</text>
<text text-anchor="start" x="499.5" y="-1991.3" font-family="Helvetica,sans-Serif" font-size="14.00">airPressure : Pressure</text>
<text text-anchor="start" x="499.5" y="-1968.3" font-family="Helvetica,sans-Serif" font-size="14.00">airTemperature : Temperature</text>
<text text-anchor="start" x="499.5" y="-1945.3" font-family="Helvetica,sans-Serif" font-size="14.00">assemblyOperationalState : OperationalState</text>
<polygon fill="none" stroke="black" points="494.5,-1937 494.5,-2054 818.5,-2054 818.5,-1937 494.5,-1937"/>
</g>
<!-- FuelDeliveryAssembly -->
<g id="node4" class="node">
<title>FuelDeliveryAssembly</title>
<polygon fill="lightgray" stroke="transparent" points="495.5,-1880.5 495.5,-1903.5 817.5,-1903.5 817.5,-1880.5 495.5,-1880.5"/>
<text text-anchor="start" x="570.5" y="-1889.3" font-family="Helvetica,sans-Serif" font-weight="bold" font-size="14.00">FuelDeliveryAssembly</text>
<text text-anchor="start" x="499.5" y="-1865.3" font-family="Helvetica,sans-Serif" font-size="14.00">fuelDeliveryAssemblyID : Identifier</text>
<text text-anchor="start" x="499.5" y="-1842.3" font-family="Helvetica,sans-Serif" font-size="14.00">fuelPressure : Pressure</text>
<text text-anchor="start" x="499.5" y="-1819.3" font-family="Helvetica,sans-Serif" font-size="14.00">fuelTemperature : Temperature</text>
<text text-anchor="start" x="499.5" y="-1796.3" font-family="Helvetica,sans-Serif" font-size="14.00">assemblyOperationalState : OperationalState</text>
<polygon fill="none" stroke="black" points="494.5,-1788 494.5,-1905 818.5,-1905 818.5,-1788 494.5,-1788"/>
</g>
<!-- IgnitionAssembly -->
<g id="node5" class="node">
<title>IgnitionAssembly</title>
<polygon fill="lightgray" stroke="transparent" points="495.5,-2178.5 495.5,-2201.5 817.5,-2201.5 817.5,-2178.5 495.5,-2178.5"/>
<text text-anchor="start" x="589" y="-2187.3" font-family="Helvetica,sans-Serif" font-weight="bold" font-size="14.00">IgnitionAssembly</text>
<text text-anchor="start" x="499.5" y="-2163.3" font-family="Helvetica,sans-Serif" font-size="14.00">ignitionAssemblyID : Identifier</text>
<text text-anchor="start" x="499.5" y="-2140.3" font-family="Helvetica,sans-Serif" font-size="14.00">electricalPotential : ElectricPotential</text>
<text text-anchor="start" x="499.5" y="-2117.3" font-family="Helvetica,sans-Serif" font-size="14.00">electricalCurrent : ElectricCurrent</text>
<text text-anchor="start" x="499.5" y="-2094.3" font-family="Helvetica,sans-Serif" font-size="14.00">assemblyOperationalState : OperationalState</text>
<polygon fill="none" stroke="black" points="494.5,-2086 494.5,-2203 818.5,-2203 818.5,-2086 494.5,-2086"/>
</g>
<!-- CoolingAssembly -->
<g id="node6" class="node">
<title>CoolingAssembly</title>
<polygon fill="lightgray" stroke="transparent" points="495.5,-1731.5 495.5,-1754.5 817.5,-1754.5 817.5,-1731.5 495.5,-1731.5"/>
<text text-anchor="start" x="590" y="-1740.3" font-family="Helvetica,sans-Serif" font-weight="bold" font-size="14.00">CoolingAssembly</text>
<text text-anchor="start" x="499.5" y="-1716.3" font-family="Helvetica,sans-Serif" font-size="14.00">coolingAssemblyID : Identifier</text>
<text text-anchor="start" x="499.5" y="-1693.3" font-family="Helvetica,sans-Serif" font-size="14.00">coolantTemperature : Temperature</text>
<text text-anchor="start" x="499.5" y="-1670.3" font-family="Helvetica,sans-Serif" font-size="14.00">coolantPressure : Pressure</text>
<text text-anchor="start" x="499.5" y="-1647.3" font-family="Helvetica,sans-Serif" font-size="14.00">assemblyOperationalState : OperationalState</text>
<polygon fill="none" stroke="black" points="494.5,-1639 494.5,-1756 818.5,-1756 818.5,-1639 494.5,-1639"/>
</g>
<!-- ExhaustAssembly -->
<g id="node7" class="node">
<title>ExhaustAssembly</title>
<polygon fill="lightgray" stroke="transparent" points="495.5,-1433.5 495.5,-1456.5 817.5,-1456.5 817.5,-1433.5 495.5,-1433.5"/>
<text text-anchor="start" x="587.5" y="-1442.3" font-family="Helvetica,sans-Serif" font-weight="bold" font-size="14.00">ExhaustAssembly</text>
<text text-anchor="start" x="499.5" y="-1418.3" font-family="Helvetica,sans-Serif" font-size="14.00">exhaustAssemblyID : Identifier</text>
<text text-anchor="start" x="499.5" y="-1395.3" font-family="Helvetica,sans-Serif" font-size="14.00">exhaustTemperature : Temperature</text>
<text text-anchor="start" x="499.5" y="-1372.3" font-family="Helvetica,sans-Serif" font-size="14.00">exhaustPressure : Pressure</text>
<text text-anchor="start" x="499.5" y="-1349.3" font-family="Helvetica,sans-Serif" font-size="14.00">assemblyOperationalState : OperationalState</text>
<polygon fill="none" stroke="black" points="494.5,-1341 494.5,-1458 818.5,-1458 818.5,-1341 494.5,-1341"/>
</g>
<!-- TransmissionAssembly -->
<g id="node8" class="node">
<title>TransmissionAssembly</title>
<polygon fill="lightgray" stroke="transparent" points="495.5,-1284.5 495.5,-1307.5 817.5,-1307.5 817.5,-1284.5 495.5,-1284.5"/>
<text text-anchor="start" x="568" y="-1293.3" font-family="Helvetica,sans-Serif" font-weight="bold" font-size="14.00">TransmissionAssembly</text>
<text text-anchor="start" x="499.5" y="-1269.3" font-family="Helvetica,sans-Serif" font-size="14.00">transmissionAssemblyID : Identifier</text>
<text text-anchor="start" x="499.5" y="-1246.3" font-family="Helvetica,sans-Serif" font-size="14.00">inputSpeed : AngularVelocity</text>
<text text-anchor="start" x="499.5" y="-1223.3" font-family="Helvetica,sans-Serif" font-size="14.00">outputSpeed : AngularVelocity</text>
<text text-anchor="start" x="499.5" y="-1200.3" font-family="Helvetica,sans-Serif" font-size="14.00">assemblyOperationalState : OperationalState</text>
<polygon fill="none" stroke="black" points="494.5,-1192 494.5,-1309 818.5,-1309 818.5,-1192 494.5,-1192"/>
</g>
<!-- DriveAxleAssembly -->
<g id="node9" class="node">
<title>DriveAxleAssembly</title>
<polygon fill="lightgray" stroke="transparent" points="495.5,-1135.5 495.5,-1158.5 817.5,-1158.5 817.5,-1135.5 495.5,-1135.5"/>
<text text-anchor="start" x="581.5" y="-1144.3" font-family="Helvetica,sans-Serif" font-weight="bold" font-size="14.00">DriveAxleAssembly</text>
<text text-anchor="start" x="499.5" y="-1120.3" font-family="Helvetica,sans-Serif" font-size="14.00">driveAxleAssemblyID : Identifier</text>
<text text-anchor="start" x="499.5" y="-1097.3" font-family="Helvetica,sans-Serif" font-size="14.00">axleTorque : Torque</text>
<text text-anchor="start" x="499.5" y="-1074.3" font-family="Helvetica,sans-Serif" font-size="14.00">axleSpeed : AngularVelocity</text>
<text text-anchor="start" x="499.5" y="-1051.3" font-family="Helvetica,sans-Serif" font-size="14.00">assemblyOperationalState : OperationalState</text>
<polygon fill="none" stroke="black" points="494.5,-1043 494.5,-1160 818.5,-1160 818.5,-1043 494.5,-1043"/>
</g>
<!-- FrontCornerModule -->
<g id="node10" class="node">
<title>FrontCornerModule</title>
<polygon fill="lightgray" stroke="transparent" points="502.5,-390.5 502.5,-413.5 810.5,-413.5 810.5,-390.5 502.5,-390.5"/>
<text text-anchor="start" x="579.5" y="-399.3" font-family="Helvetica,sans-Serif" font-weight="bold" font-size="14.00">FrontCornerModule</text>
<text text-anchor="start" x="506.5" y="-375.3" font-family="Helvetica,sans-Serif" font-size="14.00">frontCornerModuleID : Identifier</text>
<text text-anchor="start" x="506.5" y="-352.3" font-family="Helvetica,sans-Serif" font-size="14.00">modulePosition : Position</text>
<text text-anchor="start" x="506.5" y="-329.3" font-family="Helvetica,sans-Serif" font-size="14.00">moduleExtent : Extent</text>
<text text-anchor="start" x="506.5" y="-306.3" font-family="Helvetica,sans-Serif" font-size="14.00">moduleOperationalState : OperationalState</text>
<polygon fill="none" stroke="black" points="501.5,-298 501.5,-415 811.5,-415 811.5,-298 501.5,-298"/>
</g>
<!-- RearCornerModule -->
<g id="node11" class="node">
<title>RearCornerModule</title>
<polygon fill="lightgray" stroke="transparent" points="502.5,-837.5 502.5,-860.5 810.5,-860.5 810.5,-837.5 502.5,-837.5"/>
<text text-anchor="start" x="582.5" y="-846.3" font-family="Helvetica,sans-Serif" font-weight="bold" font-size="14.00">RearCornerModule</text>
<text text-anchor="start" x="506.5" y="-822.3" font-family="Helvetica,sans-Serif" font-size="14.00">rearCornerModuleID : Identifier</text>
<text text-anchor="start" x="506.5" y="-799.3" font-family="Helvetica,sans-Serif" font-size="14.00">modulePosition : Position</text>
<text text-anchor="start" x="506.5" y="-776.3" font-family="Helvetica,sans-Serif" font-size="14.00">moduleExtent : Extent</text>
<text text-anchor="start" x="506.5" y="-753.3" font-family="Helvetica,sans-Serif" font-size="14.00">moduleOperationalState : OperationalState</text>
<polygon fill="none" stroke="black" points="501.5,-745 501.5,-862 811.5,-862 811.5,-745 501.5,-745"/>
</g>
<!-- WheelTireModule -->
<g id="node12" class="node">
<title>WheelTireModule</title>
<polygon fill="lightgray" stroke="transparent" points="502.5,-688.5 502.5,-711.5 810.5,-711.5 810.5,-688.5 502.5,-688.5"/>
<text text-anchor="start" x="587" y="-697.3" font-family="Helvetica,sans-Serif" font-weight="bold" font-size="14.00">WheelTireModule</text>
<text text-anchor="start" x="506.5" y="-673.3" font-family="Helvetica,sans-Serif" font-size="14.00">wheelTireModuleID : Identifier</text>
<text text-anchor="start" x="506.5" y="-650.3" font-family="Helvetica,sans-Serif" font-size="14.00">moduleSpeed : AngularVelocity</text>
<text text-anchor="start" x="506.5" y="-627.3" font-family="Helvetica,sans-Serif" font-size="14.00">modulePosition : Position</text>
<text text-anchor="start" x="506.5" y="-604.3" font-family="Helvetica,sans-Serif" font-size="14.00">moduleOperationalState : OperationalState</text>
<polygon fill="none" stroke="black" points="501.5,-596 501.5,-713 811.5,-713 811.5,-596 501.5,-596"/>
</g>
<!-- BrakeModule -->
<g id="node13" class="node">
<title>BrakeModule</title>
<polygon fill="lightgray" stroke="transparent" points="502.5,-539.5 502.5,-562.5 810.5,-562.5 810.5,-539.5 502.5,-539.5"/>
<text text-anchor="start" x="604.5" y="-548.3" font-family="Helvetica,sans-Serif" font-weight="bold" font-size="14.00">BrakeModule</text>
<text text-anchor="start" x="506.5" y="-524.3" font-family="Helvetica,sans-Serif" font-size="14.00">brakeModuleID : Identifier</text>
<text text-anchor="start" x="506.5" y="-501.3" font-family="Helvetica,sans-Serif" font-size="14.00">brakeForce : Force</text>
<text text-anchor="start" x="506.5" y="-478.3" font-family="Helvetica,sans-Serif" font-size="14.00">brakeTemperature : Temperature</text>
<text text-anchor="start" x="506.5" y="-455.3" font-family="Helvetica,sans-Serif" font-size="14.00">moduleOperationalState : OperationalState</text>
<polygon fill="none" stroke="black" points="501.5,-447 501.5,-564 811.5,-564 811.5,-447 501.5,-447"/>
</g>
<!-- SteeringModule -->
<g id="node14" class="node">
<title>SteeringModule</title>
<polygon fill="lightgray" stroke="transparent" points="502.5,-92.5 502.5,-115.5 810.5,-115.5 810.5,-92.5 502.5,-92.5"/>
<text text-anchor="start" x="594" y="-101.3" font-family="Helvetica,sans-Serif" font-weight="bold" font-size="14.00">SteeringModule</text>
<text text-anchor="start" x="506.5" y="-77.3" font-family="Helvetica,sans-Serif" font-size="14.00">steeringModuleID : Identifier</text>
<text text-anchor="start" x="506.5" y="-54.3" font-family="Helvetica,sans-Serif" font-size="14.00">steeringAngle : Angle</text>
<text text-anchor="start" x="506.5" y="-31.3" font-family="Helvetica,sans-Serif" font-size="14.00">steeringForce : Force</text>
<text text-anchor="start" x="506.5" y="-8.3" font-family="Helvetica,sans-Serif" font-size="14.00">moduleOperationalState : OperationalState</text>
<polygon fill="none" stroke="black" points="501.5,0 501.5,-117 811.5,-117 811.5,0 501.5,0"/>
</g>
<!-- SuspensionModule -->
<g id="node15" class="node">
<title>SuspensionModule</title>
<polygon fill="lightgray" stroke="transparent" points="502.5,-241.5 502.5,-264.5 810.5,-264.5 810.5,-241.5 502.5,-241.5"/>
<text text-anchor="start" x="582.5" y="-250.3" font-family="Helvetica,sans-Serif" font-weight="bold" font-size="14.00">SuspensionModule</text>
<text text-anchor="start" x="506.5" y="-226.3" font-family="Helvetica,sans-Serif" font-size="14.00">suspensionModuleID : Identifier</text>
<text text-anchor="start" x="506.5" y="-203.3" font-family="Helvetica,sans-Serif" font-size="14.00">travelExtent : Extent</text>
<text text-anchor="start" x="506.5" y="-180.3" font-family="Helvetica,sans-Serif" font-size="14.00">supportForce : Force</text>
<text text-anchor="start" x="506.5" y="-157.3" font-family="Helvetica,sans-Serif" font-size="14.00">moduleOperationalState : OperationalState</text>
<polygon fill="none" stroke="black" points="501.5,-149 501.5,-266 811.5,-266 811.5,-149 501.5,-149"/>
</g>
<!-- ElectricalPowerAssembly -->
<g id="node16" class="node">
<title>ElectricalPowerAssembly</title>
<polygon fill="lightgray" stroke="transparent" points="495.5,-2327.5 495.5,-2350.5 817.5,-2350.5 817.5,-2327.5 495.5,-2327.5"/>
<text text-anchor="start" x="558" y="-2336.3" font-family="Helvetica,sans-Serif" font-weight="bold" font-size="14.00">ElectricalPowerAssembly</text>
<text text-anchor="start" x="499.5" y="-2312.3" font-family="Helvetica,sans-Serif" font-size="14.00">electricalPowerAssemblyID : Identifier</text>
<text text-anchor="start" x="499.5" y="-2289.3" font-family="Helvetica,sans-Serif" font-size="14.00">systemVoltage : ElectricPotential</text>
<text text-anchor="start" x="499.5" y="-2266.3" font-family="Helvetica,sans-Serif" font-size="14.00">systemCurrent : ElectricCurrent</text>
<text text-anchor="start" x="499.5" y="-2243.3" font-family="Helvetica,sans-Serif" font-size="14.00">assemblyOperationalState : OperationalState</text>
<polygon fill="none" stroke="black" points="494.5,-2235 494.5,-2352 818.5,-2352 818.5,-2235 494.5,-2235"/>
</g>
<!-- A_AutomobilePackagedWithEngineAssembly -->
<g id="node17" class="node">
<title>A_AutomobilePackagedWithEngineAssembly</title>
<polygon fill="lightblue" stroke="transparent" points="39.5,-1049.5 39.5,-1072.5 377.5,-1072.5 377.5,-1049.5 39.5,-1049.5"/>
<text text-anchor="start" x="43.5" y="-1058.3" font-family="Helvetica,sans-Serif" font-weight="bold" font-size="14.00">AutomobilePackagedWithEngineAssembly</text>
<text text-anchor="start" x="43.5" y="-1034.3" font-family="Helvetica,sans-Serif" font-size="14.00">packagePosition : Position</text>
<polygon fill="none" stroke="black" points="38.5,-1025.5 38.5,-1073.5 378.5,-1073.5 378.5,-1025.5 38.5,-1025.5"/>
</g>
<!-- A_AutomobilePackagedWithEngineAssembly&#45;&gt;Automobile -->
<g id="edge1" class="edge">
<title>A_AutomobilePackagedWithEngineAssembly&#45;&gt;Automobile</title>
<path fill="none" stroke="#555555" d="M320.03,-1025.46C370.98,-1014.38 432.54,-1000.99 488.94,-988.72"/>
</g>
<!-- A_AutomobilePackagedWithEngineAssembly&#45;&gt;EngineAssembly -->
<g id="edge2" class="edge">
<title>A_AutomobilePackagedWithEngineAssembly&#45;&gt;EngineAssembly</title>
<path fill="none" stroke="#555555" d="M290.73,-1073.53C334.38,-1090.49 385.56,-1117.61 417,-1158.5 504.81,-1272.68 397.5,-1363.25 489,-1474.5 493.52,-1480 498.53,-1485.1 503.92,-1489.83"/>
</g>
<!-- A_EngineAssemblyAdjacentToAirIntakeAssembly -->
<g id="node18" class="node">
<title>A_EngineAssemblyAdjacentToAirIntakeAssembly</title>
<polygon fill="lightblue" stroke="transparent" points="24.5,-1949.5 24.5,-1972.5 393.5,-1972.5 393.5,-1949.5 24.5,-1949.5"/>
<text text-anchor="start" x="28.5" y="-1958.3" font-family="Helvetica,sans-Serif" font-weight="bold" font-size="14.00">EngineAssemblyAdjacentToAirIntakeAssembly</text>
<text text-anchor="start" x="28.5" y="-1934.3" font-family="Helvetica,sans-Serif" font-size="14.00">adjacencyState : OperationalState</text>
<polygon fill="none" stroke="black" points="23,-1925.5 23,-1973.5 394,-1973.5 394,-1925.5 23,-1925.5"/>
</g>
<!-- A_EngineAssemblyAdjacentToAirIntakeAssembly&#45;&gt;EngineAssembly -->
<g id="edge3" class="edge">
<title>A_EngineAssemblyAdjacentToAirIntakeAssembly&#45;&gt;EngineAssembly</title>
<path fill="none" stroke="#555555" d="M281.35,-1925.46C326,-1907.17 381.47,-1877.86 417,-1835.5 480.95,-1759.26 422.09,-1697.15 489,-1623.5 494.33,-1617.63 500.21,-1612.2 506.47,-1607.16"/>
</g>
<!-- A_EngineAssemblyAdjacentToAirIntakeAssembly&#45;&gt;AirIntakeAssembly -->
<g id="edge4" class="edge">
<title>A_EngineAssemblyAdjacentToAirIntakeAssembly&#45;&gt;AirIntakeAssembly</title>
<path fill="none" stroke="#555555" d="M394.12,-1968.54C427.44,-1971.98 461.92,-1975.53 494.49,-1978.89"/>
</g>
<!-- A_EngineAssemblyAdjacentToFuelDeliveryAssembly -->
<g id="node19" class="node">
<title>A_EngineAssemblyAdjacentToFuelDeliveryAssembly</title>
<polygon fill="lightblue" stroke="transparent" points="11.5,-1795.5 11.5,-1818.5 405.5,-1818.5 405.5,-1795.5 11.5,-1795.5"/>
<text text-anchor="start" x="15.5" y="-1804.3" font-family="Helvetica,sans-Serif" font-weight="bold" font-size="14.00">EngineAssemblyAdjacentToFuelDeliveryAssembly</text>
<text text-anchor="start" x="15.5" y="-1780.3" font-family="Helvetica,sans-Serif" font-size="14.00">adjacencyState : OperationalState</text>
<polygon fill="none" stroke="black" points="10.5,-1771.5 10.5,-1819.5 406.5,-1819.5 406.5,-1771.5 10.5,-1771.5"/>
</g>
<!-- A_EngineAssemblyAdjacentToFuelDeliveryAssembly&#45;&gt;EngineAssembly -->
<g id="edge5" class="edge">
<title>A_EngineAssemblyAdjacentToFuelDeliveryAssembly&#45;&gt;EngineAssembly</title>
<path fill="none" stroke="#555555" d="M283.61,-1771.35C325.11,-1755.76 376.49,-1732.89 417,-1703.5 455.72,-1675.41 450.36,-1651.71 489,-1623.5 496.94,-1617.71 505.39,-1612.21 514.13,-1607.04"/>
</g>
<!-- A_EngineAssemblyAdjacentToFuelDeliveryAssembly&#45;&gt;FuelDeliveryAssembly -->
<g id="edge6" class="edge">
<title>A_EngineAssemblyAdjacentToFuelDeliveryAssembly&#45;&gt;FuelDeliveryAssembly</title>
<path fill="none" stroke="#555555" d="M406.75,-1818.05C436.01,-1821.4 465.87,-1824.82 494.28,-1828.06"/>
</g>
<!-- A_EngineAssemblyAdjacentToIgnitionAssembly -->
<g id="node20" class="node">
<title>A_EngineAssemblyAdjacentToIgnitionAssembly</title>
<polygon fill="lightblue" stroke="transparent" points="30.5,-2083.5 30.5,-2106.5 387.5,-2106.5 387.5,-2083.5 30.5,-2083.5"/>
<text text-anchor="start" x="34.5" y="-2092.3" font-family="Helvetica,sans-Serif" font-weight="bold" font-size="14.00">EngineAssemblyAdjacentToIgnitionAssembly</text>
<text text-anchor="start" x="34.5" y="-2068.3" font-family="Helvetica,sans-Serif" font-size="14.00">adjacencyState : OperationalState</text>
<polygon fill="none" stroke="black" points="29,-2059.5 29,-2107.5 388,-2107.5 388,-2059.5 29,-2059.5"/>
</g>
<!-- A_EngineAssemblyAdjacentToIgnitionAssembly&#45;&gt;EngineAssembly -->
<g id="edge7" class="edge">
<title>A_EngineAssemblyAdjacentToIgnitionAssembly&#45;&gt;EngineAssembly</title>
<path fill="none" stroke="#555555" d="M309.97,-2059.44C348.84,-2045.25 390.3,-2023.22 417,-1989.5 519.93,-1859.54 385.93,-1753.35 489,-1623.5 493.63,-1617.66 498.82,-1612.27 504.41,-1607.28"/>
</g>
<!-- A_EngineAssemblyAdjacentToIgnitionAssembly&#45;&gt;IgnitionAssembly -->
<g id="edge8" class="edge">
<title>A_EngineAssemblyAdjacentToIgnitionAssembly&#45;&gt;IgnitionAssembly</title>
<path fill="none" stroke="#555555" d="M385.13,-2107.52C421.09,-2112.44 458.76,-2117.59 494.19,-2122.44"/>
</g>
<!-- A_EngineAssemblyAdjacentToCoolingAssembly -->
<g id="node21" class="node">
<title>A_EngineAssemblyAdjacentToCoolingAssembly</title>
<polygon fill="lightblue" stroke="transparent" points="31.5,-1663.5 31.5,-1686.5 386.5,-1686.5 386.5,-1663.5 31.5,-1663.5"/>
<text text-anchor="start" x="35.5" y="-1672.3" font-family="Helvetica,sans-Serif" font-weight="bold" font-size="14.00">EngineAssemblyAdjacentToCoolingAssembly</text>
<text text-anchor="start" x="35.5" y="-1648.3" font-family="Helvetica,sans-Serif" font-size="14.00">adjacencyState : OperationalState</text>
<polygon fill="none" stroke="black" points="30,-1639.5 30,-1687.5 387,-1687.5 387,-1639.5 30,-1639.5"/>
</g>
<!-- A_EngineAssemblyAdjacentToCoolingAssembly&#45;&gt;EngineAssembly -->
<g id="edge9" class="edge">
<title>A_EngineAssemblyAdjacentToCoolingAssembly&#45;&gt;EngineAssembly</title>
<path fill="none" stroke="#555555" d="M302.72,-1639.46C358.14,-1625.17 429.95,-1606.66 494.3,-1590.06"/>
</g>
<!-- A_EngineAssemblyAdjacentToCoolingAssembly&#45;&gt;CoolingAssembly -->
<g id="edge10" class="edge">
<title>A_EngineAssemblyAdjacentToCoolingAssembly&#45;&gt;CoolingAssembly</title>
<path fill="none" stroke="#555555" d="M387.05,-1677.04C422.52,-1679.74 459.59,-1682.56 494.46,-1685.22"/>
</g>
<!-- A_EngineAssemblyAdjacentToExhaustAssembly -->
<g id="node22" class="node">
<title>A_EngineAssemblyAdjacentToExhaustAssembly</title>
<polygon fill="lightblue" stroke="transparent" points="28.5,-1488.5 28.5,-1511.5 388.5,-1511.5 388.5,-1488.5 28.5,-1488.5"/>
<text text-anchor="start" x="32.5" y="-1497.3" font-family="Helvetica,sans-Serif" font-weight="bold" font-size="14.00">EngineAssemblyAdjacentToExhaustAssembly</text>
<text text-anchor="start" x="32.5" y="-1473.3" font-family="Helvetica,sans-Serif" font-size="14.00">adjacencyState : OperationalState</text>
<polygon fill="none" stroke="black" points="27.5,-1464.5 27.5,-1512.5 389.5,-1512.5 389.5,-1464.5 27.5,-1464.5"/>
</g>
<!-- A_EngineAssemblyAdjacentToExhaustAssembly&#45;&gt;EngineAssembly -->
<g id="edge11" class="edge">
<title>A_EngineAssemblyAdjacentToExhaustAssembly&#45;&gt;EngineAssembly</title>
<path fill="none" stroke="#555555" d="M388.01,-1512.52C423.18,-1517.25 459.87,-1522.18 494.42,-1526.83"/>
</g>
<!-- A_EngineAssemblyAdjacentToExhaustAssembly&#45;&gt;ExhaustAssembly -->
<g id="edge12" class="edge">
<title>A_EngineAssemblyAdjacentToExhaustAssembly&#45;&gt;ExhaustAssembly</title>
<path fill="none" stroke="#555555" d="M329.9,-1464.47C380.47,-1454.38 440.03,-1442.5 494.3,-1431.67"/>
</g>
<!-- A_EngineAssemblyCoupledToTransmissionAssembly -->
<g id="node23" class="node">
<title>A_EngineAssemblyCoupledToTransmissionAssembly</title>
<polygon fill="lightblue" stroke="transparent" points="12.5,-1339.5 12.5,-1362.5 405.5,-1362.5 405.5,-1339.5 12.5,-1339.5"/>
<text text-anchor="start" x="16.5" y="-1348.3" font-family="Helvetica,sans-Serif" font-weight="bold" font-size="14.00">EngineAssemblyCoupledToTransmissionAssembly</text>
<text text-anchor="start" x="16.5" y="-1324.3" font-family="Helvetica,sans-Serif" font-size="14.00">couplingTorque : Torque</text>
<polygon fill="none" stroke="black" points="11,-1315.5 11,-1363.5 406,-1363.5 406,-1315.5 11,-1315.5"/>
</g>
<!-- A_EngineAssemblyCoupledToTransmissionAssembly&#45;&gt;EngineAssembly -->
<g id="edge13" class="edge">
<title>A_EngineAssemblyCoupledToTransmissionAssembly&#45;&gt;EngineAssembly</title>
<path fill="none" stroke="#555555" d="M258.25,-1363.63C313.85,-1391.01 407.6,-1436.76 489,-1474.5 499.91,-1479.56 511.24,-1484.74 522.64,-1489.91"/>
</g>
<!-- A_EngineAssemblyCoupledToTransmissionAssembly&#45;&gt;TransmissionAssembly -->
<g id="edge14" class="edge">
<title>A_EngineAssemblyCoupledToTransmissionAssembly&#45;&gt;TransmissionAssembly</title>
<path fill="none" stroke="#555555" d="M329.9,-1315.47C380.47,-1305.38 440.03,-1293.5 494.3,-1282.67"/>
</g>
<!-- A_TransmissionAssemblyCoupledToDriveAxleAssembly -->
<g id="node24" class="node">
<title>A_TransmissionAssemblyCoupledToDriveAxleAssembly</title>
<polygon fill="lightblue" stroke="transparent" points="1.5,-1198.5 1.5,-1221.5 416.5,-1221.5 416.5,-1198.5 1.5,-1198.5"/>
<text text-anchor="start" x="5.5" y="-1207.3" font-family="Helvetica,sans-Serif" font-weight="bold" font-size="14.00">TransmissionAssemblyCoupledToDriveAxleAssembly</text>
<text text-anchor="start" x="5.5" y="-1183.3" font-family="Helvetica,sans-Serif" font-size="14.00">couplingTorque : Torque</text>
<polygon fill="none" stroke="black" points="0,-1174.5 0,-1222.5 417,-1222.5 417,-1174.5 0,-1174.5"/>
</g>
<!-- A_TransmissionAssemblyCoupledToDriveAxleAssembly&#45;&gt;TransmissionAssembly -->
<g id="edge15" class="edge">
<title>A_TransmissionAssemblyCoupledToDriveAxleAssembly&#45;&gt;TransmissionAssembly</title>
<path fill="none" stroke="#555555" d="M415.53,-1222.52C442,-1225.61 468.8,-1228.73 494.41,-1231.72"/>
</g>
<!-- A_TransmissionAssemblyCoupledToDriveAxleAssembly&#45;&gt;DriveAxleAssembly -->
<g id="edge16" class="edge">
<title>A_TransmissionAssemblyCoupledToDriveAxleAssembly&#45;&gt;DriveAxleAssembly</title>
<path fill="none" stroke="#555555" d="M320.03,-1174.46C372.66,-1163.01 436.61,-1149.11 494.5,-1136.52"/>
</g>
<!-- A_AutomobilePackagedWithFrontCornerModule -->
<g id="node25" class="node">
<title>A_AutomobilePackagedWithFrontCornerModule</title>
<polygon fill="lightblue" stroke="transparent" points="27.5,-638.5 27.5,-661.5 390.5,-661.5 390.5,-638.5 27.5,-638.5"/>
<text text-anchor="start" x="31.5" y="-647.3" font-family="Helvetica,sans-Serif" font-weight="bold" font-size="14.00">AutomobilePackagedWithFrontCornerModule</text>
<text text-anchor="start" x="31.5" y="-623.3" font-family="Helvetica,sans-Serif" font-size="14.00">modulePosition : Position</text>
<polygon fill="none" stroke="black" points="26,-614.5 26,-662.5 391,-662.5 391,-614.5 26,-614.5"/>
</g>
<!-- A_AutomobilePackagedWithFrontCornerModule&#45;&gt;Automobile -->
<g id="edge17" class="edge">
<title>A_AutomobilePackagedWithFrontCornerModule&#45;&gt;Automobile</title>
<path fill="none" stroke="#555555" d="M389.1,-662.74C399.09,-667.97 408.51,-674.17 417,-681.5 487.55,-742.43 425.36,-810.39 489,-878.5 494.18,-884.05 499.86,-889.2 505.89,-894"/>
</g>
<!-- A_AutomobilePackagedWithFrontCornerModule&#45;&gt;FrontCornerModule -->
<g id="edge18" class="edge">
<title>A_AutomobilePackagedWithFrontCornerModule&#45;&gt;FrontCornerModule</title>
<path fill="none" stroke="#555555" d="M381.26,-614.4C394.08,-608.51 406.21,-601.3 417,-592.5 477.74,-542.96 433.65,-487 489,-431.5 494.82,-425.66 501.18,-420.24 507.9,-415.2"/>
</g>
<!-- A_AutomobilePackagedWithRearCornerModule -->
<g id="node26" class="node">
<title>A_AutomobilePackagedWithRearCornerModule</title>
<polygon fill="lightblue" stroke="transparent" points="29.5,-917.5 29.5,-940.5 387.5,-940.5 387.5,-917.5 29.5,-917.5"/>
<text text-anchor="start" x="33.5" y="-926.3" font-family="Helvetica,sans-Serif" font-weight="bold" font-size="14.00">AutomobilePackagedWithRearCornerModule</text>
<text text-anchor="start" x="33.5" y="-902.3" font-family="Helvetica,sans-Serif" font-size="14.00">modulePosition : Position</text>
<polygon fill="none" stroke="black" points="28.5,-893.5 28.5,-941.5 388.5,-941.5 388.5,-893.5 28.5,-893.5"/>
</g>
<!-- A_AutomobilePackagedWithRearCornerModule&#45;&gt;Automobile -->
<g id="edge19" class="edge">
<title>A_AutomobilePackagedWithRearCornerModule&#45;&gt;Automobile</title>
<path fill="none" stroke="#555555" d="M388.66,-931.56C421.72,-934.15 456.12,-936.85 488.79,-939.42"/>
</g>
<!-- A_AutomobilePackagedWithRearCornerModule&#45;&gt;RearCornerModule -->
<g id="edge20" class="edge">
<title>A_AutomobilePackagedWithRearCornerModule&#45;&gt;RearCornerModule</title>
<path fill="none" stroke="#555555" d="M303.54,-893.46C360.92,-878.8 435.64,-859.7 501.48,-842.87"/>
</g>
<!-- A_FrontCornerModuleContainsWheelTireModule -->
<g id="node27" class="node">
<title>A_FrontCornerModuleContainsWheelTireModule</title>
<polygon fill="lightblue" stroke="transparent" points="24.5,-552.5 24.5,-575.5 393.5,-575.5 393.5,-552.5 24.5,-552.5"/>
<text text-anchor="start" x="28.5" y="-561.3" font-family="Helvetica,sans-Serif" font-weight="bold" font-size="14.00">FrontCornerModuleContainsWheelTireModule</text>
<text text-anchor="start" x="28.5" y="-537.3" font-family="Helvetica,sans-Serif" font-size="14.00">containedPosition : Position</text>
<polygon fill="none" stroke="black" points="23,-528.5 23,-576.5 394,-576.5 394,-528.5 23,-528.5"/>
</g>
<!-- A_FrontCornerModuleContainsWheelTireModule&#45;&gt;FrontCornerModule -->
<g id="edge21" class="edge">
<title>A_FrontCornerModuleContainsWheelTireModule&#45;&gt;FrontCornerModule</title>
<path fill="none" stroke="#555555" d="M348.1,-528.43C371.91,-521.34 395.79,-512.22 417,-500.5 455.79,-479.06 452.26,-456.29 489,-431.5 497.54,-425.74 506.6,-420.23 515.9,-415"/>
</g>
<!-- A_FrontCornerModuleContainsWheelTireModule&#45;&gt;WheelTireModule -->
<g id="edge22" class="edge">
<title>A_FrontCornerModuleContainsWheelTireModule&#45;&gt;WheelTireModule</title>
<path fill="none" stroke="#555555" d="M319.13,-576.54C350.74,-583.54 385.25,-591.25 417,-598.5 444.26,-604.72 473.26,-611.44 501.29,-617.99"/>
</g>
<!-- A_RearCornerModuleContainsWheelTireModule -->
<g id="node28" class="node">
<title>A_RearCornerModuleContainsWheelTireModule</title>
<polygon fill="lightblue" stroke="transparent" points="27.5,-802.5 27.5,-825.5 390.5,-825.5 390.5,-802.5 27.5,-802.5"/>
<text text-anchor="start" x="31.5" y="-811.3" font-family="Helvetica,sans-Serif" font-weight="bold" font-size="14.00">RearCornerModuleContainsWheelTireModule</text>
<text text-anchor="start" x="31.5" y="-787.3" font-family="Helvetica,sans-Serif" font-size="14.00">containedPosition : Position</text>
<polygon fill="none" stroke="black" points="26,-778.5 26,-826.5 391,-826.5 391,-778.5 26,-778.5"/>
</g>
<!-- A_RearCornerModuleContainsWheelTireModule&#45;&gt;RearCornerModule -->
<g id="edge23" class="edge">
<title>A_RearCornerModuleContainsWheelTireModule&#45;&gt;RearCornerModule</title>
<path fill="none" stroke="#555555" d="M391.23,-802.91C427.74,-802.99 465.78,-803.07 501.26,-803.15"/>
</g>
<!-- A_RearCornerModuleContainsWheelTireModule&#45;&gt;WheelTireModule -->
<g id="edge24" class="edge">
<title>A_RearCornerModuleContainsWheelTireModule&#45;&gt;WheelTireModule</title>
<path fill="none" stroke="#555555" d="M353.45,-778.46C374.96,-773.6 396.71,-767.96 417,-761.5 418.61,-760.99 470.47,-737.73 525.42,-713.04"/>
</g>
<!-- A_FrontCornerModuleContainsBrakeModule -->
<g id="node29" class="node">
<title>A_FrontCornerModuleContainsBrakeModule</title>
<polygon fill="lightblue" stroke="transparent" points="41.5,-460.5 41.5,-483.5 375.5,-483.5 375.5,-460.5 41.5,-460.5"/>
<text text-anchor="start" x="45.5" y="-469.3" font-family="Helvetica,sans-Serif" font-weight="bold" font-size="14.00">FrontCornerModuleContainsBrakeModule</text>
<text text-anchor="start" x="45.5" y="-445.3" font-family="Helvetica,sans-Serif" font-size="14.00">containedPosition : Position</text>
<polygon fill="none" stroke="black" points="40.5,-436.5 40.5,-484.5 376.5,-484.5 376.5,-436.5 40.5,-436.5"/>
</g>
<!-- A_FrontCornerModuleContainsBrakeModule&#45;&gt;FrontCornerModule -->
<g id="edge25" class="edge">
<title>A_FrontCornerModuleContainsBrakeModule&#45;&gt;FrontCornerModule</title>
<path fill="none" stroke="#555555" d="M312.66,-436.44C368.62,-423.4 438.91,-407.01 501.25,-392.47"/>
</g>
<!-- A_FrontCornerModuleContainsBrakeModule&#45;&gt;BrakeModule -->
<g id="edge26" class="edge">
<title>A_FrontCornerModuleContainsBrakeModule&#45;&gt;BrakeModule</title>
<path fill="none" stroke="#555555" d="M376.53,-477.35C417.45,-481.48 461.07,-485.88 501.36,-489.95"/>
</g>
<!-- A_FrontCornerModuleContainsSteeringModule -->
<g id="node30" class="node">
<title>A_FrontCornerModuleContainsSteeringModule</title>
<polygon fill="lightblue" stroke="transparent" points="31.5,-59.5 31.5,-82.5 386.5,-82.5 386.5,-59.5 31.5,-59.5"/>
<text text-anchor="start" x="35.5" y="-68.3" font-family="Helvetica,sans-Serif" font-weight="bold" font-size="14.00">FrontCornerModuleContainsSteeringModule</text>
<text text-anchor="start" x="35.5" y="-44.3" font-family="Helvetica,sans-Serif" font-size="14.00">containedPosition : Position</text>
<polygon fill="none" stroke="black" points="30,-35.5 30,-83.5 387,-83.5 387,-35.5 30,-35.5"/>
</g>
<!-- A_FrontCornerModuleContainsSteeringModule&#45;&gt;FrontCornerModule -->
<g id="edge27" class="edge">
<title>A_FrontCornerModuleContainsSteeringModule&#45;&gt;FrontCornerModule</title>
<path fill="none" stroke="#555555" d="M256.69,-83.54C300.89,-107.38 367.39,-146.74 417,-191.5 455.29,-226.05 448.25,-250.89 489,-282.5 496,-287.93 503.46,-293.06 511.19,-297.88"/>
</g>
<!-- A_FrontCornerModuleContainsSteeringModule&#45;&gt;SteeringModule -->
<g id="edge28" class="edge">
<title>A_FrontCornerModuleContainsSteeringModule&#45;&gt;SteeringModule</title>
<path fill="none" stroke="#555555" d="M387.05,-59.1C424.83,-59.02 464.42,-58.93 501.24,-58.85"/>
</g>
<!-- A_FrontCornerModuleContainsSuspensionModule -->
<g id="node31" class="node">
<title>A_FrontCornerModuleContainsSuspensionModule</title>
<polygon fill="lightblue" stroke="transparent" points="19.5,-231.5 19.5,-254.5 397.5,-254.5 397.5,-231.5 19.5,-231.5"/>
<text text-anchor="start" x="23.5" y="-240.3" font-family="Helvetica,sans-Serif" font-weight="bold" font-size="14.00">FrontCornerModuleContainsSuspensionModule</text>
<text text-anchor="start" x="23.5" y="-216.3" font-family="Helvetica,sans-Serif" font-size="14.00">containedPosition : Position</text>
<polygon fill="none" stroke="black" points="18.5,-207.5 18.5,-255.5 398.5,-255.5 398.5,-207.5 18.5,-207.5"/>
</g>
<!-- A_FrontCornerModuleContainsSuspensionModule&#45;&gt;FrontCornerModule -->
<g id="edge29" class="edge">
<title>A_FrontCornerModuleContainsSuspensionModule&#45;&gt;FrontCornerModule</title>
<path fill="none" stroke="#555555" d="M295.23,-255.53C353.55,-271.87 432.38,-293.97 501.43,-313.32"/>
</g>
<!-- A_FrontCornerModuleContainsSuspensionModule&#45;&gt;SuspensionModule -->
<g id="edge30" class="edge">
<title>A_FrontCornerModuleContainsSuspensionModule&#45;&gt;SuspensionModule</title>
<path fill="none" stroke="#555555" d="M398.64,-221.32C432.95,-219.48 468.35,-217.57 501.5,-215.79"/>
</g>
<!-- A_RearCornerModuleContainsBrakeModule -->
<g id="node32" class="node">
<title>A_RearCornerModuleContainsBrakeModule</title>
<polygon fill="lightblue" stroke="transparent" points="44.5,-721.5 44.5,-744.5 373.5,-744.5 373.5,-721.5 44.5,-721.5"/>
<text text-anchor="start" x="48.5" y="-730.3" font-family="Helvetica,sans-Serif" font-weight="bold" font-size="14.00">RearCornerModuleContainsBrakeModule</text>
<text text-anchor="start" x="48.5" y="-706.3" font-family="Helvetica,sans-Serif" font-size="14.00">containedPosition : Position</text>
<polygon fill="none" stroke="black" points="43,-697.5 43,-745.5 374,-745.5 374,-697.5 43,-697.5"/>
</g>
<!-- A_RearCornerModuleContainsBrakeModule&#45;&gt;RearCornerModule -->
<g id="edge31" class="edge">
<title>A_RearCornerModuleContainsBrakeModule&#45;&gt;RearCornerModule</title>
<path fill="none" stroke="#555555" d="M340.3,-745.55C390.81,-754.83 448.97,-765.53 501.48,-775.18"/>
</g>
<!-- A_RearCornerModuleContainsBrakeModule&#45;&gt;BrakeModule -->
<g id="edge32" class="edge">
<title>A_RearCornerModuleContainsBrakeModule&#45;&gt;BrakeModule</title>
<path fill="none" stroke="#555555" d="M374.02,-699.39C389.16,-693.86 403.77,-687 417,-678.5 462.48,-649.3 446.98,-614.49 489,-580.5 496.15,-574.72 503.81,-569.28 511.79,-564.19"/>
</g>
<!-- A_RearCornerModuleContainsSuspensionModule -->
<g id="node33" class="node">
<title>A_RearCornerModuleContainsSuspensionModule</title>
<polygon fill="lightblue" stroke="transparent" points="22.5,-357.5 22.5,-380.5 394.5,-380.5 394.5,-357.5 22.5,-357.5"/>
<text text-anchor="start" x="26.5" y="-366.3" font-family="Helvetica,sans-Serif" font-weight="bold" font-size="14.00">RearCornerModuleContainsSuspensionModule</text>
<text text-anchor="start" x="26.5" y="-342.3" font-family="Helvetica,sans-Serif" font-size="14.00">containedPosition : Position</text>
<polygon fill="none" stroke="black" points="21.5,-333.5 21.5,-381.5 395.5,-381.5 395.5,-333.5 21.5,-333.5"/>
</g>
<!-- A_RearCornerModuleContainsSuspensionModule&#45;&gt;RearCornerModule -->
<g id="edge33" class="edge">
<title>A_RearCornerModuleContainsSuspensionModule&#45;&gt;RearCornerModule</title>
<path fill="none" stroke="#555555" d="M358.11,-381.52C380.16,-390.68 400.85,-403.25 417,-420.5 513.37,-523.44 399.16,-620.81 489,-729.5 493.53,-734.99 498.56,-740.08 503.95,-744.81"/>
</g>
<!-- A_RearCornerModuleContainsSuspensionModule&#45;&gt;SuspensionModule -->
<g id="edge34" class="edge">
<title>A_RearCornerModuleContainsSuspensionModule&#45;&gt;SuspensionModule</title>
<path fill="none" stroke="#555555" d="M281.16,-333.4C340.38,-313.48 426.56,-284.5 501.31,-259.36"/>
</g>
<!-- A_ElectricalPowerAssemblySupportsIgnitionAssembly -->
<g id="node34" class="node">
<title>A_ElectricalPowerAssemblySupportsIgnitionAssembly</title>
<polygon fill="lightblue" stroke="transparent" points="3.5,-2190.5 3.5,-2213.5 413.5,-2213.5 413.5,-2190.5 3.5,-2190.5"/>
<text text-anchor="start" x="7.5" y="-2199.3" font-family="Helvetica,sans-Serif" font-weight="bold" font-size="14.00">ElectricalPowerAssemblySupportsIgnitionAssembly</text>
<text text-anchor="start" x="7.5" y="-2175.3" font-family="Helvetica,sans-Serif" font-size="14.00">suppliedVoltage : ElectricPotential</text>
<polygon fill="none" stroke="black" points="2.5,-2166.5 2.5,-2214.5 414.5,-2214.5 414.5,-2166.5 2.5,-2166.5"/>
</g>
<!-- A_ElectricalPowerAssemblySupportsIgnitionAssembly&#45;&gt;IgnitionAssembly -->
<g id="edge36" class="edge">
<title>A_ElectricalPowerAssemblySupportsIgnitionAssembly&#45;&gt;IgnitionAssembly</title>
<path fill="none" stroke="#555555" d="M414.55,-2169.35C441.32,-2166.59 468.44,-2163.79 494.35,-2161.12"/>
</g>
<!-- A_ElectricalPowerAssemblySupportsIgnitionAssembly&#45;&gt;ElectricalPowerAssembly -->
<g id="edge35" class="edge">
<title>A_ElectricalPowerAssemblySupportsIgnitionAssembly&#45;&gt;ElectricalPowerAssembly</title>
<path fill="none" stroke="#555555" d="M313.5,-2214.52C367.3,-2226.94 434.16,-2242.38 494.46,-2256.31"/>
</g>
</g>
</svg>
