<?xml version="1.0" encoding="UTF-8" standalone="no"?>
<!DOCTYPE svg PUBLIC "-//W3C//DTD SVG 1.1//EN"
 "http://www.w3.org/Graphics/SVG/1.1/DTD/svg11.dtd">
<!-- Generated by graphviz version 2.42.4 (0)
 -->
<!-- Title: ERD Pages: 1 -->
<svg width="789pt" height="2572pt"
 viewBox="0.00 0.00 789.20 2572.20" xmlns="http://www.w3.org/2000/svg" xmlns:xlink="http://www.w3.org/1999/xlink">
<g id="graph0" class="graph" transform="scale(1 1) rotate(0) translate(21.6 2550.6)">
<title>ERD</title>
<polygon fill="white" stroke="transparent" points="-21.6,21.6 -21.6,-2550.6 767.6,-2550.6 767.6,21.6 -21.6,21.6"/>
<text text-anchor="middle" x="373" y="-2510.6" font-family="Times,serif" font-size="18.00">Automobile Component Network Model &#45; Serviceable Parts Interaction Network</text>
<!-- Chassis -->
<g id="node1" class="node">
<title>Chassis</title>
<polygon fill="lightgray" stroke="transparent" points="401,-986.5 401,-1009.5 708,-1009.5 708,-986.5 401,-986.5"/>
<text text-anchor="start" x="524.5" y="-995.3" font-family="Helvetica,sans-Serif" font-weight="bold" font-size="14.00">Chassis</text>
<text text-anchor="start" x="405" y="-971.3" font-family="Helvetica,sans-Serif" font-size="14.00">chassisID : Identifier</text>
<text text-anchor="start" x="405" y="-948.3" font-family="Helvetica,sans-Serif" font-size="14.00">chassisMass : Mass</text>
<text text-anchor="start" x="405" y="-925.3" font-family="Helvetica,sans-Serif" font-size="14.00">chassisExtent : Extent</text>
<text text-anchor="start" x="405" y="-902.3" font-family="Helvetica,sans-Serif" font-size="14.00">chassisOperationalState : OperationalState</text>
<polygon fill="none" stroke="black" points="399.5,-894 399.5,-1011 708.5,-1011 708.5,-894 399.5,-894"/>
</g>
<!-- EngineMount -->
<g id="node2" class="node">
<title>EngineMount</title>
<polygon fill="lightgray" stroke="transparent" points="404,-1731.5 404,-1754.5 705,-1754.5 705,-1731.5 404,-1731.5"/>
<text text-anchor="start" x="502.5" y="-1740.3" font-family="Helvetica,sans-Serif" font-weight="bold" font-size="14.00">EngineMount</text>
<text text-anchor="start" x="408" y="-1716.3" font-family="Helvetica,sans-Serif" font-size="14.00">engineMountID : Identifier</text>
<text text-anchor="start" x="408" y="-1693.3" font-family="Helvetica,sans-Serif" font-size="14.00">mountPosition : Position</text>
<text text-anchor="start" x="408" y="-1670.3" font-family="Helvetica,sans-Serif" font-size="14.00">mountForce : Force</text>
<text text-anchor="start" x="408" y="-1647.3" font-family="Helvetica,sans-Serif" font-size="14.00">mountOperationalState : OperationalState</text>
<polygon fill="none" stroke="black" points="402.5,-1639 402.5,-1756 705.5,-1756 705.5,-1639 402.5,-1639"/>
</g>
<!-- Engine -->
<g id="node3" class="node">
<title>Engine</title>
<polygon fill="lightgray" stroke="transparent" points="403,-2178.5 403,-2201.5 706,-2201.5 706,-2178.5 403,-2178.5"/>
<text text-anchor="start" x="527.5" y="-2187.3" font-family="Helvetica,sans-Serif" font-weight="bold" font-size="14.00">Engine</text>
<text text-anchor="start" x="407" y="-2163.3" font-family="Helvetica,sans-Serif" font-size="14.00">engineID : Identifier</text>
<text text-anchor="start" x="407" y="-2140.3" font-family="Helvetica,sans-Serif" font-size="14.00">engineTemperature : Temperature</text>
<text text-anchor="start" x="407" y="-2117.3" font-family="Helvetica,sans-Serif" font-size="14.00">engineTorque : Torque</text>
<text text-anchor="start" x="407" y="-2094.3" font-family="Helvetica,sans-Serif" font-size="14.00">engineOperationalState : OperationalState</text>
<polygon fill="none" stroke="black" points="401.5,-2086 401.5,-2203 706.5,-2203 706.5,-2086 401.5,-2086"/>
</g>
<!-- Radiator -->
<g id="node4" class="node">
<title>Radiator</title>
<polygon fill="lightgray" stroke="transparent" points="399,-2476.5 399,-2499.5 710,-2499.5 710,-2476.5 399,-2476.5"/>
<text text-anchor="start" x="520.5" y="-2485.3" font-family="Helvetica,sans-Serif" font-weight="bold" font-size="14.00">Radiator</text>
<text text-anchor="start" x="403" y="-2461.3" font-family="Helvetica,sans-Serif" font-size="14.00">radiatorID : Identifier</text>
<text text-anchor="start" x="403" y="-2438.3" font-family="Helvetica,sans-Serif" font-size="14.00">radiatorTemperature : Temperature</text>
<text text-anchor="start" x="403" y="-2415.3" font-family="Helvetica,sans-Serif" font-size="14.00">coolantFlowRate : MassFlowRate</text>
<text text-anchor="start" x="403" y="-2392.3" font-family="Helvetica,sans-Serif" font-size="14.00">radiatorOperationalState : OperationalState</text>
<polygon fill="none" stroke="black" points="397.5,-2384 397.5,-2501 710.5,-2501 710.5,-2384 397.5,-2384"/>
</g>
<!-- Battery -->
<g id="node5" class="node">
<title>Battery</title>
<polygon fill="lightgray" stroke="transparent" points="401,-2029.5 401,-2052.5 707,-2052.5 707,-2029.5 401,-2029.5"/>
<text text-anchor="start" x="524" y="-2038.3" font-family="Helvetica,sans-Serif" font-weight="bold" font-size="14.00">Battery</text>
<text text-anchor="start" x="405" y="-2014.3" font-family="Helvetica,sans-Serif" font-size="14.00">batteryID : Identifier</text>
<text text-anchor="start" x="405" y="-1991.3" font-family="Helvetica,sans-Serif" font-size="14.00">batteryVoltage : ElectricPotential</text>
<text text-anchor="start" x="405" y="-1968.3" font-family="Helvetica,sans-Serif" font-size="14.00">batteryCharge : ElectricCharge</text>
<text text-anchor="start" x="405" y="-1945.3" font-family="Helvetica,sans-Serif" font-size="14.00">batteryOperationalState : OperationalState</text>
<polygon fill="none" stroke="black" points="400,-1937 400,-2054 708,-2054 708,-1937 400,-1937"/>
</g>
<!-- Alternator -->
<g id="node6" class="node">
<title>Alternator</title>
<polygon fill="lightgray" stroke="transparent" points="392,-2327.5 392,-2350.5 716,-2350.5 716,-2327.5 392,-2327.5"/>
<text text-anchor="start" x="513" y="-2336.3" font-family="Helvetica,sans-Serif" font-weight="bold" font-size="14.00">Alternator</text>
<text text-anchor="start" x="396" y="-2312.3" font-family="Helvetica,sans-Serif" font-size="14.00">alternatorID : Identifier</text>
<text text-anchor="start" x="396" y="-2289.3" font-family="Helvetica,sans-Serif" font-size="14.00">alternatorVoltage : ElectricPotential</text>
<text text-anchor="start" x="396" y="-2266.3" font-family="Helvetica,sans-Serif" font-size="14.00">alternatorCurrent : ElectricCurrent</text>
<text text-anchor="start" x="396" y="-2243.3" font-family="Helvetica,sans-Serif" font-size="14.00">alternatorOperationalState : OperationalState</text>
<polygon fill="none" stroke="black" points="391,-2235 391,-2352 717,-2352 717,-2235 391,-2235"/>
</g>
<!-- StarterMotor -->
<g id="node7" class="node">
<title>StarterMotor</title>
<polygon fill="lightgray" stroke="transparent" points="403,-1582.5 403,-1605.5 706,-1605.5 706,-1582.5 403,-1582.5"/>
<text text-anchor="start" x="502.5" y="-1591.3" font-family="Helvetica,sans-Serif" font-weight="bold" font-size="14.00">StarterMotor</text>
<text text-anchor="start" x="407" y="-1567.3" font-family="Helvetica,sans-Serif" font-size="14.00">starterMotorID : Identifier</text>
<text text-anchor="start" x="407" y="-1544.3" font-family="Helvetica,sans-Serif" font-size="14.00">motorTorque : Torque</text>
<text text-anchor="start" x="407" y="-1521.3" font-family="Helvetica,sans-Serif" font-size="14.00">motorSpeed : AngularVelocity</text>
<text text-anchor="start" x="407" y="-1498.3" font-family="Helvetica,sans-Serif" font-size="14.00">starterOperationalState : OperationalState</text>
<polygon fill="none" stroke="black" points="401.5,-1490 401.5,-1607 706.5,-1607 706.5,-1490 401.5,-1490"/>
</g>
<!-- FuelTank -->
<g id="node8" class="node">
<title>FuelTank</title>
<polygon fill="lightgray" stroke="transparent" points="411,-1135.5 411,-1158.5 698,-1158.5 698,-1135.5 411,-1135.5"/>
<text text-anchor="start" x="519.5" y="-1144.3" font-family="Helvetica,sans-Serif" font-weight="bold" font-size="14.00">FuelTank</text>
<text text-anchor="start" x="415" y="-1120.3" font-family="Helvetica,sans-Serif" font-size="14.00">fuelTankID : Identifier</text>
<text text-anchor="start" x="415" y="-1097.3" font-family="Helvetica,sans-Serif" font-size="14.00">fuelMass : Mass</text>
<text text-anchor="start" x="415" y="-1074.3" font-family="Helvetica,sans-Serif" font-size="14.00">tankPosition : Position</text>
<text text-anchor="start" x="415" y="-1051.3" font-family="Helvetica,sans-Serif" font-size="14.00">tankOperationalState : OperationalState</text>
<polygon fill="none" stroke="black" points="409.5,-1043 409.5,-1160 698.5,-1160 698.5,-1043 409.5,-1043"/>
</g>
<!-- FuelPump -->
<g id="node9" class="node">
<title>FuelPump</title>
<polygon fill="lightgray" stroke="transparent" points="406,-1433.5 406,-1456.5 703,-1456.5 703,-1433.5 406,-1433.5"/>
<text text-anchor="start" x="515.5" y="-1442.3" font-family="Helvetica,sans-Serif" font-weight="bold" font-size="14.00">FuelPump</text>
<text text-anchor="start" x="410" y="-1418.3" font-family="Helvetica,sans-Serif" font-size="14.00">fuelPumpID : Identifier</text>
<text text-anchor="start" x="410" y="-1395.3" font-family="Helvetica,sans-Serif" font-size="14.00">fuelPressure : Pressure</text>
<text text-anchor="start" x="410" y="-1372.3" font-family="Helvetica,sans-Serif" font-size="14.00">fuelFlowRate : MassFlowRate</text>
<text text-anchor="start" x="410" y="-1349.3" font-family="Helvetica,sans-Serif" font-size="14.00">pumpOperationalState : OperationalState</text>
<polygon fill="none" stroke="black" points="404.5,-1341 404.5,-1458 703.5,-1458 703.5,-1341 404.5,-1341"/>
</g>
<!-- InjectorRail -->
<g id="node10" class="node">
<title>InjectorRail</title>
<polygon fill="lightgray" stroke="transparent" points="415,-1880.5 415,-1903.5 693,-1903.5 693,-1880.5 415,-1880.5"/>
<text text-anchor="start" x="508.5" y="-1889.3" font-family="Helvetica,sans-Serif" font-weight="bold" font-size="14.00">InjectorRail</text>
<text text-anchor="start" x="419" y="-1865.3" font-family="Helvetica,sans-Serif" font-size="14.00">injectorRailID : Identifier</text>
<text text-anchor="start" x="419" y="-1842.3" font-family="Helvetica,sans-Serif" font-size="14.00">railPressure : Pressure</text>
<text text-anchor="start" x="419" y="-1819.3" font-family="Helvetica,sans-Serif" font-size="14.00">railTemperature : Temperature</text>
<text text-anchor="start" x="419" y="-1796.3" font-family="Helvetica,sans-Serif" font-size="14.00">railOperationalState : OperationalState</text>
<polygon fill="none" stroke="black" points="414,-1788 414,-1905 694,-1905 694,-1788 414,-1788"/>
</g>
<!-- Gearbox -->
<g id="node11" class="node">
<title>Gearbox</title>
<polygon fill="lightgray" stroke="transparent" points="398,-1284.5 398,-1307.5 711,-1307.5 711,-1284.5 398,-1284.5"/>
<text text-anchor="start" x="521" y="-1293.3" font-family="Helvetica,sans-Serif" font-weight="bold" font-size="14.00">Gearbox</text>
<text text-anchor="start" x="402" y="-1269.3" font-family="Helvetica,sans-Serif" font-size="14.00">gearboxID : Identifier</text>
<text text-anchor="start" x="402" y="-1246.3" font-family="Helvetica,sans-Serif" font-size="14.00">gearboxInputSpeed : AngularVelocity</text>
<text text-anchor="start" x="402" y="-1223.3" font-family="Helvetica,sans-Serif" font-size="14.00">gearboxOutputSpeed : AngularVelocity</text>
<text text-anchor="start" x="402" y="-1200.3" font-family="Helvetica,sans-Serif" font-size="14.00">gearboxOperationalState : OperationalState</text>
<polygon fill="none" stroke="black" points="396.5,-1192 396.5,-1309 711.5,-1309 711.5,-1192 396.5,-1192"/>
</g>
<!-- Driveshaft -->
<g id="node12" class="node">
<title>Driveshaft</title>
<polygon fill="lightgray" stroke="transparent" points="409,-837.5 409,-860.5 700,-860.5 700,-837.5 409,-837.5"/>
<text text-anchor="start" x="513.5" y="-846.3" font-family="Helvetica,sans-Serif" font-weight="bold" font-size="14.00">Driveshaft</text>
<text text-anchor="start" x="413" y="-822.3" font-family="Helvetica,sans-Serif" font-size="14.00">driveshaftID : Identifier</text>
<text text-anchor="start" x="413" y="-799.3" font-family="Helvetica,sans-Serif" font-size="14.00">shaftTorque : Torque</text>
<text text-anchor="start" x="413" y="-776.3" font-family="Helvetica,sans-Serif" font-size="14.00">shaftSpeed : AngularVelocity</text>
<text text-anchor="start" x="413" y="-753.3" font-family="Helvetica,sans-Serif" font-size="14.00">shaftOperationalState : OperationalState</text>
<polygon fill="none" stroke="black" points="407.5,-745 407.5,-862 700.5,-862 700.5,-745 407.5,-745"/>
</g>
<!-- Differential -->
<g id="node13" class="node">
<title>Differential</title>
<polygon fill="lightgray" stroke="transparent" points="389,-539.5 389,-562.5 719,-562.5 719,-539.5 389,-539.5"/>
<text text-anchor="start" x="509.5" y="-548.3" font-family="Helvetica,sans-Serif" font-weight="bold" font-size="14.00">Differential</text>
<text text-anchor="start" x="393" y="-524.3" font-family="Helvetica,sans-Serif" font-size="14.00">differentialID : Identifier</text>
<text text-anchor="start" x="393" y="-501.3" font-family="Helvetica,sans-Serif" font-size="14.00">differentialTorque : Torque</text>
<text text-anchor="start" x="393" y="-478.3" font-family="Helvetica,sans-Serif" font-size="14.00">differentialSpeed : AngularVelocity</text>
<text text-anchor="start" x="393" y="-455.3" font-family="Helvetica,sans-Serif" font-size="14.00">differentialOperationalState : OperationalState</text>
<polygon fill="none" stroke="black" points="388,-447 388,-564 720,-564 720,-447 388,-447"/>
</g>
<!-- HubAssembly -->
<g id="node14" class="node">
<title>HubAssembly</title>
<polygon fill="lightgray" stroke="transparent" points="413,-390.5 413,-413.5 696,-413.5 696,-390.5 413,-390.5"/>
<text text-anchor="start" x="501.5" y="-399.3" font-family="Helvetica,sans-Serif" font-weight="bold" font-size="14.00">HubAssembly</text>
<text text-anchor="start" x="417" y="-375.3" font-family="Helvetica,sans-Serif" font-size="14.00">hubAssemblyID : Identifier</text>
<text text-anchor="start" x="417" y="-352.3" font-family="Helvetica,sans-Serif" font-size="14.00">hubPosition : Position</text>
<text text-anchor="start" x="417" y="-329.3" font-family="Helvetica,sans-Serif" font-size="14.00">hubSpeed : AngularVelocity</text>
<text text-anchor="start" x="417" y="-306.3" font-family="Helvetica,sans-Serif" font-size="14.00">hubOperationalState : OperationalState</text>
<polygon fill="none" stroke="black" points="411.5,-298 411.5,-415 696.5,-415 696.5,-298 411.5,-298"/>
</g>
<!-- TireWheelUnit -->
<g id="node15" class="node">
<title>TireWheelUnit</title>
<polygon fill="lightgray" stroke="transparent" points="406,-241.5 406,-264.5 703,-264.5 703,-241.5 406,-241.5"/>
<text text-anchor="start" x="498" y="-250.3" font-family="Helvetica,sans-Serif" font-weight="bold" font-size="14.00">TireWheelUnit</text>
<text text-anchor="start" x="410" y="-226.3" font-family="Helvetica,sans-Serif" font-size="14.00">tireWheelUnitID : Identifier</text>
<text text-anchor="start" x="410" y="-203.3" font-family="Helvetica,sans-Serif" font-size="14.00">wheelSpeed : AngularVelocity</text>
<text text-anchor="start" x="410" y="-180.3" font-family="Helvetica,sans-Serif" font-size="14.00">wheelPosition : Position</text>
<text text-anchor="start" x="410" y="-157.3" font-family="Helvetica,sans-Serif" font-size="14.00">wheelOperationalState : OperationalState</text>
<polygon fill="none" stroke="black" points="404.5,-149 404.5,-266 703.5,-266 703.5,-149 404.5,-149"/>
</g>
<!-- BrakeCaliper -->
<g id="node16" class="node">
<title>BrakeCaliper</title>
<polygon fill="lightgray" stroke="transparent" points="403,-92.5 403,-115.5 706,-115.5 706,-92.5 403,-92.5"/>
<text text-anchor="start" x="503.5" y="-101.3" font-family="Helvetica,sans-Serif" font-weight="bold" font-size="14.00">BrakeCaliper</text>
<text text-anchor="start" x="407" y="-77.3" font-family="Helvetica,sans-Serif" font-size="14.00">brakeCaliperID : Identifier</text>
<text text-anchor="start" x="407" y="-54.3" font-family="Helvetica,sans-Serif" font-size="14.00">brakeForce : Force</text>
<text text-anchor="start" x="407" y="-31.3" font-family="Helvetica,sans-Serif" font-size="14.00">caliperTemperature : Temperature</text>
<text text-anchor="start" x="407" y="-8.3" font-family="Helvetica,sans-Serif" font-size="14.00">caliperOperationalState : OperationalState</text>
<polygon fill="none" stroke="black" points="401.5,0 401.5,-117 706.5,-117 706.5,0 401.5,0"/>
</g>
<!-- ControlArm -->
<g id="node17" class="node">
<title>ControlArm</title>
<polygon fill="lightgray" stroke="transparent" points="413,-688.5 413,-711.5 696,-711.5 696,-688.5 413,-688.5"/>
<text text-anchor="start" x="509.5" y="-697.3" font-family="Helvetica,sans-Serif" font-weight="bold" font-size="14.00">ControlArm</text>
<text text-anchor="start" x="417" y="-673.3" font-family="Helvetica,sans-Serif" font-size="14.00">controlArmID : Identifier</text>
<text text-anchor="start" x="417" y="-650.3" font-family="Helvetica,sans-Serif" font-size="14.00">armPosition : Position</text>
<text text-anchor="start" x="417" y="-627.3" font-family="Helvetica,sans-Serif" font-size="14.00">armForce : Force</text>
<text text-anchor="start" x="417" y="-604.3" font-family="Helvetica,sans-Serif" font-size="14.00">armOperationalState : OperationalState</text>
<polygon fill="none" stroke="black" points="411.5,-596 411.5,-713 696.5,-713 696.5,-596 411.5,-596"/>
</g>
<!-- A_ChassisSupportsEngineMount -->
<g id="node18" class="node">
<title>A_ChassisSupportsEngineMount</title>
<polygon fill="lightblue" stroke="transparent" points="50,-1478.5 50,-1501.5 292,-1501.5 292,-1478.5 50,-1478.5"/>
<text text-anchor="start" x="54" y="-1487.3" font-family="Helvetica,sans-Serif" font-weight="bold" font-size="14.00">ChassisSupportsEngineMount</text>
<text text-anchor="start" x="54" y="-1463.3" font-family="Helvetica,sans-Serif" font-size="14.00">supportPosition : Position</text>
<polygon fill="none" stroke="black" points="49,-1454.5 49,-1502.5 293,-1502.5 293,-1454.5 49,-1454.5"/>
</g>
<!-- A_ChassisSupportsEngineMount&#45;&gt;Chassis -->
<g id="edge1" class="edge">
<title>A_ChassisSupportsEngineMount&#45;&gt;Chassis</title>
<path fill="none" stroke="#555555" d="M205.99,-1454.47C239.18,-1429.18 288.57,-1386.3 316,-1337.5 385.31,-1214.2 298.38,-1136.93 388,-1027.5 392.78,-1021.66 398.12,-1016.25 403.87,-1011.25"/>
</g>
<!-- A_ChassisSupportsEngineMount&#45;&gt;EngineMount -->
<g id="edge2" class="edge">
<title>A_ChassisSupportsEngineMount&#45;&gt;EngineMount</title>
<path fill="none" stroke="#555555" d="M211.26,-1502.61C240.48,-1520.78 281.15,-1546.58 316,-1570.5 348.76,-1592.99 353.68,-1603.48 388,-1623.5 397.08,-1628.8 406.62,-1633.98 416.32,-1638.98"/>
</g>
<!-- A_EngineMountSupportsEngine -->
<g id="node19" class="node">
<title>A_EngineMountSupportsEngine</title>
<polygon fill="lightblue" stroke="transparent" points="53,-1896.5 53,-1919.5 289,-1919.5 289,-1896.5 53,-1896.5"/>
<text text-anchor="start" x="57" y="-1905.3" font-family="Helvetica,sans-Serif" font-weight="bold" font-size="14.00">EngineMountSupportsEngine</text>
<text text-anchor="start" x="57" y="-1881.3" font-family="Helvetica,sans-Serif" font-size="14.00">supportForce : Force</text>
<polygon fill="none" stroke="black" points="52,-1872.5 52,-1920.5 290,-1920.5 290,-1872.5 52,-1872.5"/>
</g>
<!-- A_EngineMountSupportsEngine&#45;&gt;EngineMount -->
<g id="edge3" class="edge">
<title>A_EngineMountSupportsEngine&#45;&gt;EngineMount</title>
<path fill="none" stroke="#555555" d="M268.79,-1872.39C285.2,-1866.23 301.58,-1858.68 316,-1849.5 355.52,-1824.33 349.94,-1799.83 388,-1772.5 396.05,-1766.72 404.62,-1761.22 413.45,-1756.03"/>
</g>
<!-- A_EngineMountSupportsEngine&#45;&gt;Engine -->
<g id="edge4" class="edge">
<title>A_EngineMountSupportsEngine&#45;&gt;Engine</title>
<path fill="none" stroke="#555555" d="M284.87,-1920.61C296.03,-1925.74 306.66,-1931.96 316,-1939.5 367.69,-1981.23 339.16,-2025.46 388,-2070.5 393.89,-2075.93 400.24,-2081.01 406.9,-2085.76"/>
</g>
<!-- A_EngineAdjacentToRadiator -->
<g id="node20" class="node">
<title>A_EngineAdjacentToRadiator</title>
<polygon fill="lightblue" stroke="transparent" points="49,-2370.5 49,-2393.5 294,-2393.5 294,-2370.5 49,-2370.5"/>
<text text-anchor="start" x="67.5" y="-2379.3" font-family="Helvetica,sans-Serif" font-weight="bold" font-size="14.00">EngineAdjacentToRadiator</text>
<text text-anchor="start" x="53" y="-2355.3" font-family="Helvetica,sans-Serif" font-size="14.00">adjacencyState : OperationalState</text>
<polygon fill="none" stroke="black" points="47.5,-2346.5 47.5,-2394.5 294.5,-2394.5 294.5,-2346.5 47.5,-2346.5"/>
</g>
<!-- A_EngineAdjacentToRadiator&#45;&gt;Engine -->
<g id="edge5" class="edge">
<title>A_EngineAdjacentToRadiator&#45;&gt;Engine</title>
<path fill="none" stroke="#555555" d="M202.65,-2346.36C243.48,-2314.85 318.65,-2259.06 388,-2219.5 397.84,-2213.89 408.17,-2208.37 418.67,-2203.03"/>
</g>
<!-- A_EngineAdjacentToRadiator&#45;&gt;Radiator -->
<g id="edge6" class="edge">
<title>A_EngineAdjacentToRadiator&#45;&gt;Radiator</title>
<path fill="none" stroke="#555555" d="M294.65,-2393.68C327.39,-2399.86 363.2,-2406.63 397.46,-2413.11"/>
</g>
<!-- A_BatteryPowersStarterMotor -->
<g id="node21" class="node">
<title>A_BatteryPowersStarterMotor</title>
<polygon fill="lightblue" stroke="transparent" points="53,-1716.5 53,-1739.5 289,-1739.5 289,-1716.5 53,-1716.5"/>
<text text-anchor="start" x="60.5" y="-1725.3" font-family="Helvetica,sans-Serif" font-weight="bold" font-size="14.00">BatteryPowersStarterMotor</text>
<text text-anchor="start" x="57" y="-1701.3" font-family="Helvetica,sans-Serif" font-size="14.00">suppliedCurrent : ElectricCurrent</text>
<polygon fill="none" stroke="black" points="52,-1692.5 52,-1740.5 290,-1740.5 290,-1692.5 52,-1692.5"/>
</g>
<!-- A_BatteryPowersStarterMotor&#45;&gt;Battery -->
<g id="edge7" class="edge">
<title>A_BatteryPowersStarterMotor&#45;&gt;Battery</title>
<path fill="none" stroke="#555555" d="M269.66,-1740.66C286.44,-1747.95 302.73,-1757.37 316,-1769.5 371.17,-1819.93 334.6,-1869.19 388,-1921.5 393.61,-1926.99 399.69,-1932.12 406.11,-1936.89"/>
</g>
<!-- A_BatteryPowersStarterMotor&#45;&gt;StarterMotor -->
<g id="edge8" class="edge">
<title>A_BatteryPowersStarterMotor&#45;&gt;StarterMotor</title>
<path fill="none" stroke="#555555" d="M226.59,-1692.43C276.9,-1670.25 353.59,-1636.43 420,-1607.14"/>
</g>
<!-- A_AlternatorChargesBattery -->
<g id="node22" class="node">
<title>A_AlternatorChargesBattery</title>
<polygon fill="lightblue" stroke="transparent" points="53,-2112.5 53,-2135.5 290,-2135.5 290,-2112.5 53,-2112.5"/>
<text text-anchor="start" x="69" y="-2121.3" font-family="Helvetica,sans-Serif" font-weight="bold" font-size="14.00">AlternatorChargesBattery</text>
<text text-anchor="start" x="57" y="-2097.3" font-family="Helvetica,sans-Serif" font-size="14.00">chargingCurrent : ElectricCurrent</text>
<polygon fill="none" stroke="black" points="51.5,-2088.5 51.5,-2136.5 290.5,-2136.5 290.5,-2088.5 51.5,-2088.5"/>
</g>
<!-- A_AlternatorChargesBattery&#45;&gt;Battery -->
<g id="edge10" class="edge">
<title>A_AlternatorChargesBattery&#45;&gt;Battery</title>
<path fill="none" stroke="#555555" d="M250.48,-2088.4C293.61,-2075.15 348.63,-2058.26 399.88,-2042.52"/>
</g>
<!-- A_AlternatorChargesBattery&#45;&gt;Alternator -->
<g id="edge9" class="edge">
<title>A_AlternatorChargesBattery&#45;&gt;Alternator</title>
<path fill="none" stroke="#555555" d="M227.59,-2136.61C254.55,-2148.65 287.24,-2163.76 316,-2178.5 348.77,-2195.3 355.16,-2202.84 388,-2219.5 398.08,-2224.61 408.59,-2229.75 419.2,-2234.81"/>
</g>
<!-- A_EngineDrivesAlternator -->
<g id="node23" class="node">
<title>A_EngineDrivesAlternator</title>
<polygon fill="lightblue" stroke="transparent" points="75,-2218.5 75,-2241.5 267,-2241.5 267,-2218.5 75,-2218.5"/>
<text text-anchor="start" x="79" y="-2227.3" font-family="Helvetica,sans-Serif" font-weight="bold" font-size="14.00">EngineDrivesAlternator</text>
<text text-anchor="start" x="79" y="-2203.3" font-family="Helvetica,sans-Serif" font-size="14.00">driveTorque : Torque</text>
<polygon fill="none" stroke="black" points="74,-2194.5 74,-2242.5 268,-2242.5 268,-2194.5 74,-2194.5"/>
</g>
<!-- A_EngineDrivesAlternator&#45;&gt;Engine -->
<g id="edge11" class="edge">
<title>A_EngineDrivesAlternator&#45;&gt;Engine</title>
<path fill="none" stroke="#555555" d="M268.14,-2199.83C308.48,-2191.99 356.38,-2182.69 401.27,-2173.97"/>
</g>
<!-- A_EngineDrivesAlternator&#45;&gt;Alternator -->
<g id="edge12" class="edge">
<title>A_EngineDrivesAlternator&#45;&gt;Alternator</title>
<path fill="none" stroke="#555555" d="M268.14,-2237.43C305.4,-2244.76 349.09,-2253.36 390.92,-2261.59"/>
</g>
<!-- A_FuelTankSuppliesFuelPump -->
<g id="node24" class="node">
<title>A_FuelTankSuppliesFuelPump</title>
<polygon fill="lightblue" stroke="transparent" points="61,-1297.5 61,-1320.5 282,-1320.5 282,-1297.5 61,-1297.5"/>
<text text-anchor="start" x="65" y="-1306.3" font-family="Helvetica,sans-Serif" font-weight="bold" font-size="14.00">FuelTankSuppliesFuelPump</text>
<text text-anchor="start" x="65" y="-1282.3" font-family="Helvetica,sans-Serif" font-size="14.00">suppliedFuelMass : Mass</text>
<polygon fill="none" stroke="black" points="59.5,-1273.5 59.5,-1321.5 282.5,-1321.5 282.5,-1273.5 59.5,-1273.5"/>
</g>
<!-- A_FuelTankSuppliesFuelPump&#45;&gt;FuelTank -->
<g id="edge13" class="edge">
<title>A_FuelTankSuppliesFuelPump&#45;&gt;FuelTank</title>
<path fill="none" stroke="#555555" d="M212.45,-1273.49C255.45,-1248.3 325.68,-1208.05 388,-1176.5 398.81,-1171.03 410.1,-1165.51 421.48,-1160.07"/>
</g>
<!-- A_FuelTankSuppliesFuelPump&#45;&gt;FuelPump -->
<g id="edge14" class="edge">
<title>A_FuelTankSuppliesFuelPump&#45;&gt;FuelPump</title>
<path fill="none" stroke="#555555" d="M261.81,-1321.54C304.27,-1332.91 356.09,-1346.79 404.19,-1359.66"/>
</g>
<!-- A_FuelPumpSuppliesInjectorRail -->
<g id="node25" class="node">
<title>A_FuelPumpSuppliesInjectorRail</title>
<polygon fill="lightblue" stroke="transparent" points="50,-1610.5 50,-1633.5 292,-1633.5 292,-1610.5 50,-1610.5"/>
<text text-anchor="start" x="54" y="-1619.3" font-family="Helvetica,sans-Serif" font-weight="bold" font-size="14.00">FuelPumpSuppliesInjectorRail</text>
<text text-anchor="start" x="54" y="-1595.3" font-family="Helvetica,sans-Serif" font-size="14.00">suppliedFuelPressure : Pressure</text>
<polygon fill="none" stroke="black" points="49,-1586.5 49,-1634.5 293,-1634.5 293,-1586.5 49,-1586.5"/>
</g>
<!-- A_FuelPumpSuppliesInjectorRail&#45;&gt;FuelPump -->
<g id="edge15" class="edge">
<title>A_FuelPumpSuppliesInjectorRail&#45;&gt;FuelPump</title>
<path fill="none" stroke="#555555" d="M209.85,-1586.28C266.88,-1549.84 370.1,-1484.14 388,-1474.5 398.25,-1468.98 408.98,-1463.48 419.85,-1458.13"/>
</g>
<!-- A_FuelPumpSuppliesInjectorRail&#45;&gt;InjectorRail -->
<g id="edge16" class="edge">
<title>A_FuelPumpSuppliesInjectorRail&#45;&gt;InjectorRail</title>
<path fill="none" stroke="#555555" d="M242.66,-1634.61C267.4,-1645.12 294.38,-1659.07 316,-1676.5 357.52,-1709.97 346.34,-1739.2 388,-1772.5 396.09,-1778.97 404.84,-1785 413.94,-1790.6"/>
</g>
<!-- A_InjectorRailSuppliesEngine -->
<g id="node26" class="node">
<title>A_InjectorRailSuppliesEngine</title>
<polygon fill="lightblue" stroke="transparent" points="62,-1979.5 62,-2002.5 280,-2002.5 280,-1979.5 62,-1979.5"/>
<text text-anchor="start" x="66" y="-1988.3" font-family="Helvetica,sans-Serif" font-weight="bold" font-size="14.00">InjectorRailSuppliesEngine</text>
<text text-anchor="start" x="66" y="-1964.3" font-family="Helvetica,sans-Serif" font-size="14.00">deliveryPressure : Pressure</text>
<polygon fill="none" stroke="black" points="61,-1955.5 61,-2003.5 281,-2003.5 281,-1955.5 61,-1955.5"/>
</g>
<!-- A_InjectorRailSuppliesEngine&#45;&gt;Engine -->
<g id="edge18" class="edge">
<title>A_InjectorRailSuppliesEngine&#45;&gt;Engine</title>
<path fill="none" stroke="#555555" d="M227.81,-2003.67C277.52,-2025.2 352.28,-2057.57 417.59,-2085.86"/>
</g>
<!-- A_InjectorRailSuppliesEngine&#45;&gt;InjectorRail -->
<g id="edge17" class="edge">
<title>A_InjectorRailSuppliesEngine&#45;&gt;InjectorRail</title>
<path fill="none" stroke="#555555" d="M256.46,-1955.4C276.09,-1949.49 296.85,-1942.99 316,-1936.5 347.89,-1925.7 381.88,-1913.32 413.88,-1901.26"/>
</g>
<!-- A_EngineCoupledToGearbox -->
<g id="node27" class="node">
<title>A_EngineCoupledToGearbox</title>
<polygon fill="lightblue" stroke="transparent" points="67,-1809.5 67,-1832.5 276,-1832.5 276,-1809.5 67,-1809.5"/>
<text text-anchor="start" x="71" y="-1818.3" font-family="Helvetica,sans-Serif" font-weight="bold" font-size="14.00">EngineCoupledToGearbox</text>
<text text-anchor="start" x="71" y="-1794.3" font-family="Helvetica,sans-Serif" font-size="14.00">coupledTorque : Torque</text>
<polygon fill="none" stroke="black" points="65.5,-1785.5 65.5,-1833.5 276.5,-1833.5 276.5,-1785.5 65.5,-1785.5"/>
</g>
<!-- A_EngineCoupledToGearbox&#45;&gt;Engine -->
<g id="edge19" class="edge">
<title>A_EngineCoupledToGearbox&#45;&gt;Engine</title>
<path fill="none" stroke="#555555" d="M276.63,-1830.6C291.16,-1837.05 304.89,-1845.49 316,-1856.5 387.28,-1927.14 320.57,-1996.18 388,-2070.5 392.96,-2075.96 398.4,-2081.05 404.18,-2085.78"/>
</g>
<!-- A_EngineCoupledToGearbox&#45;&gt;Gearbox -->
<g id="edge20" class="edge">
<title>A_EngineCoupledToGearbox&#45;&gt;Gearbox</title>
<path fill="none" stroke="#555555" d="M276.6,-1786.23C291.58,-1778.89 305.46,-1769.22 316,-1756.5 439.9,-1606.94 269.72,-1479.54 388,-1325.5 392.5,-1319.64 397.57,-1314.21 403.06,-1309.21"/>
</g>
<!-- A_GearboxDrivesDriveshaft -->
<g id="node28" class="node">
<title>A_GearboxDrivesDriveshaft</title>
<polygon fill="lightblue" stroke="transparent" points="68,-1115.5 68,-1138.5 274,-1138.5 274,-1115.5 68,-1115.5"/>
<text text-anchor="start" x="72" y="-1124.3" font-family="Helvetica,sans-Serif" font-weight="bold" font-size="14.00">GearboxDrivesDriveshaft</text>
<text text-anchor="start" x="72" y="-1100.3" font-family="Helvetica,sans-Serif" font-size="14.00">outputTorque : Torque</text>
<polygon fill="none" stroke="black" points="67,-1091.5 67,-1139.5 275,-1139.5 275,-1091.5 67,-1091.5"/>
</g>
<!-- A_GearboxDrivesDriveshaft&#45;&gt;Gearbox -->
<g id="edge21" class="edge">
<title>A_GearboxDrivesDriveshaft&#45;&gt;Gearbox</title>
<path fill="none" stroke="#555555" d="M240.12,-1139.64C283.57,-1155.03 341.75,-1175.65 396.15,-1194.92"/>
</g>
<!-- A_GearboxDrivesDriveshaft&#45;&gt;Driveshaft -->
<g id="edge22" class="edge">
<title>A_GearboxDrivesDriveshaft&#45;&gt;Driveshaft</title>
<path fill="none" stroke="#555555" d="M188.76,-1091.35C222.07,-1044.86 300.9,-941.89 388,-878.5 395.89,-872.76 404.28,-867.31 412.95,-862.16"/>
</g>
<!-- A_DriveshaftDrivesDifferential -->
<g id="node29" class="node">
<title>A_DriveshaftDrivesDifferential</title>
<polygon fill="lightblue" stroke="transparent" points="57,-767.5 57,-790.5 285,-790.5 285,-767.5 57,-767.5"/>
<text text-anchor="start" x="61" y="-776.3" font-family="Helvetica,sans-Serif" font-weight="bold" font-size="14.00">DriveshaftDrivesDifferential</text>
<text text-anchor="start" x="61" y="-752.3" font-family="Helvetica,sans-Serif" font-size="14.00">inputTorque : Torque</text>
<polygon fill="none" stroke="black" points="56,-743.5 56,-791.5 286,-791.5 286,-743.5 56,-743.5"/>
</g>
<!-- A_DriveshaftDrivesDifferential&#45;&gt;Driveshaft -->
<g id="edge23" class="edge">
<title>A_DriveshaftDrivesDifferential&#45;&gt;Driveshaft</title>
<path fill="none" stroke="#555555" d="M286.05,-778.28C324.2,-781.88 367.25,-785.95 407.46,-789.75"/>
</g>
<!-- A_DriveshaftDrivesDifferential&#45;&gt;Differential -->
<g id="edge24" class="edge">
<title>A_DriveshaftDrivesDifferential&#45;&gt;Differential</title>
<path fill="none" stroke="#555555" d="M195.11,-743.45C232.77,-705.22 310.96,-629.89 388,-580.5 396.87,-574.81 406.25,-569.33 415.85,-564.09"/>
</g>
<!-- A_DifferentialDrivesHubAssembly -->
<g id="node30" class="node">
<title>A_DifferentialDrivesHubAssembly</title>
<polygon fill="lightblue" stroke="transparent" points="45,-392.5 45,-415.5 297,-415.5 297,-392.5 45,-392.5"/>
<text text-anchor="start" x="49" y="-401.3" font-family="Helvetica,sans-Serif" font-weight="bold" font-size="14.00">DifferentialDrivesHubAssembly</text>
<text text-anchor="start" x="49" y="-377.3" font-family="Helvetica,sans-Serif" font-size="14.00">hubTorque : Torque</text>
<polygon fill="none" stroke="black" points="44,-368.5 44,-416.5 298,-416.5 298,-368.5 44,-368.5"/>
</g>
<!-- A_DifferentialDrivesHubAssembly&#45;&gt;Differential -->
<g id="edge25" class="edge">
<title>A_DifferentialDrivesHubAssembly&#45;&gt;Differential</title>
<path fill="none" stroke="#555555" d="M253.27,-416.6C292.61,-428.27 341.33,-442.72 387.98,-456.56"/>
</g>
<!-- A_DifferentialDrivesHubAssembly&#45;&gt;HubAssembly -->
<g id="edge26" class="edge">
<title>A_DifferentialDrivesHubAssembly&#45;&gt;HubAssembly</title>
<path fill="none" stroke="#555555" d="M298.07,-380.59C334.37,-377.16 374.2,-373.39 411.37,-369.88"/>
</g>
<!-- A_HubAssemblyRotatesTireWheelUnit -->
<g id="node31" class="node">
<title>A_HubAssemblyRotatesTireWheelUnit</title>
<polygon fill="lightblue" stroke="transparent" points="27,-241.5 27,-264.5 315,-264.5 315,-241.5 27,-241.5"/>
<text text-anchor="start" x="31" y="-250.3" font-family="Helvetica,sans-Serif" font-weight="bold" font-size="14.00">HubAssemblyRotatesTireWheelUnit</text>
<text text-anchor="start" x="31" y="-226.3" font-family="Helvetica,sans-Serif" font-size="14.00">wheelTorque : Torque</text>
<polygon fill="none" stroke="black" points="26,-217.5 26,-265.5 316,-265.5 316,-217.5 26,-217.5"/>
</g>
<!-- A_HubAssemblyRotatesTireWheelUnit&#45;&gt;HubAssembly -->
<g id="edge27" class="edge">
<title>A_HubAssemblyRotatesTireWheelUnit&#45;&gt;HubAssembly</title>
<path fill="none" stroke="#555555" d="M251.87,-265.61C298.02,-279.54 357.43,-297.47 411.26,-313.72"/>
</g>
<!-- A_HubAssemblyRotatesTireWheelUnit&#45;&gt;TireWheelUnit -->
<g id="edge28" class="edge">
<title>A_HubAssemblyRotatesTireWheelUnit&#45;&gt;TireWheelUnit</title>
<path fill="none" stroke="#555555" d="M316.04,-228.65C344.91,-226.07 375.3,-223.36 404.32,-220.77"/>
</g>
<!-- A_BrakeCaliperActsOnTireWheelUnit -->
<g id="node32" class="node">
<title>A_BrakeCaliperActsOnTireWheelUnit</title>
<polygon fill="lightblue" stroke="transparent" points="32,-92.5 32,-115.5 310,-115.5 310,-92.5 32,-92.5"/>
<text text-anchor="start" x="36" y="-101.3" font-family="Helvetica,sans-Serif" font-weight="bold" font-size="14.00">BrakeCaliperActsOnTireWheelUnit</text>
<text text-anchor="start" x="36" y="-77.3" font-family="Helvetica,sans-Serif" font-size="14.00">appliedBrakeForce : Force</text>
<polygon fill="none" stroke="black" points="31,-68.5 31,-116.5 311,-116.5 311,-68.5 31,-68.5"/>
</g>
<!-- A_BrakeCaliperActsOnTireWheelUnit&#45;&gt;TireWheelUnit -->
<g id="edge30" class="edge">
<title>A_BrakeCaliperActsOnTireWheelUnit&#45;&gt;TireWheelUnit</title>
<path fill="none" stroke="#555555" d="M251.87,-116.61C296.06,-129.94 352.4,-146.95 404.36,-162.64"/>
</g>
<!-- A_BrakeCaliperActsOnTireWheelUnit&#45;&gt;BrakeCaliper -->
<g id="edge29" class="edge">
<title>A_BrakeCaliperActsOnTireWheelUnit&#45;&gt;BrakeCaliper</title>
<path fill="none" stroke="#555555" d="M311.17,-80.08C340.5,-77.46 371.59,-74.69 401.36,-72.03"/>
</g>
<!-- A_ControlArmSupportsHubAssembly -->
<g id="node33" class="node">
<title>A_ControlArmSupportsHubAssembly</title>
<polygon fill="lightblue" stroke="transparent" points="34,-544.5 34,-567.5 308,-567.5 308,-544.5 34,-544.5"/>
<text text-anchor="start" x="38" y="-553.3" font-family="Helvetica,sans-Serif" font-weight="bold" font-size="14.00">ControlArmSupportsHubAssembly</text>
<text text-anchor="start" x="38" y="-529.3" font-family="Helvetica,sans-Serif" font-size="14.00">supportState : OperationalState</text>
<polygon fill="none" stroke="black" points="33,-520.5 33,-568.5 309,-568.5 309,-520.5 33,-520.5"/>
</g>
<!-- A_ControlArmSupportsHubAssembly&#45;&gt;HubAssembly -->
<g id="edge32" class="edge">
<title>A_ControlArmSupportsHubAssembly&#45;&gt;HubAssembly</title>
<path fill="none" stroke="#555555" d="M216.31,-520.4C259.72,-497.01 327.91,-460.84 388,-431.5 399.03,-426.11 410.52,-420.63 422.09,-415.2"/>
</g>
<!-- A_ControlArmSupportsHubAssembly&#45;&gt;ControlArm -->
<g id="edge31" class="edge">
<title>A_ControlArmSupportsHubAssembly&#45;&gt;ControlArm</title>
<path fill="none" stroke="#555555" d="M255.14,-568.5C300.79,-581.68 358.66,-598.39 411.22,-613.57"/>
</g>
<!-- A_ChassisSupportsControlArm -->
<g id="node34" class="node">
<title>A_ChassisSupportsControlArm</title>
<polygon fill="lightblue" stroke="transparent" points="57,-900.5 57,-923.5 285,-923.5 285,-900.5 57,-900.5"/>
<text text-anchor="start" x="61" y="-909.3" font-family="Helvetica,sans-Serif" font-weight="bold" font-size="14.00">ChassisSupportsControlArm</text>
<text text-anchor="start" x="61" y="-885.3" font-family="Helvetica,sans-Serif" font-size="14.00">supportPosition : Position</text>
<polygon fill="none" stroke="black" points="56,-876.5 56,-924.5 286,-924.5 286,-876.5 56,-876.5"/>
</g>
<!-- A_ChassisSupportsControlArm&#45;&gt;Chassis -->
<g id="edge33" class="edge">
<title>A_ChassisSupportsControlArm&#45;&gt;Chassis</title>
<path fill="none" stroke="#555555" d="M286.05,-916.07C321.68,-920.93 361.58,-926.37 399.46,-931.54"/>
</g>
<!-- A_ChassisSupportsControlArm&#45;&gt;ControlArm -->
<g id="edge34" class="edge">
<title>A_ChassisSupportsControlArm&#45;&gt;ControlArm</title>
<path fill="none" stroke="#555555" d="M215.23,-876.48C244.9,-859.08 284.46,-834.03 316,-807.5 352.1,-777.13 349.77,-757.14 388,-729.5 395.9,-723.78 404.31,-718.35 412.99,-713.22"/>
</g>
</g>
</svg>
