<?xml version="1.0" encoding="UTF-8" standalone="no"?>
<!DOCTYPE svg PUBLIC "-//W3C//DTD SVG 1.1//EN"
 "http://www.w3.org/Graphics/SVG/1.1/DTD/svg11.dtd">
<!-- Generated by graphviz version 2.42.4 (0)
 -->
<!-- Title: ERD Pages: 1 -->
<svg width="670pt" height="1875pt"
 viewBox="0.00 0.00 670.20 1874.70" xmlns="http://www.w3.org/2000/svg" xmlns:xlink="http://www.w3.org/1999/xlink">
<g id="graph0" class="graph" transform="scale(1 1) rotate(0) translate(21.6 1853.1)">
<title>ERD</title>
<polygon fill="white" stroke="transparent" points="-21.6,21.6 -21.6,-1853.1 648.6,-1853.1 648.6,21.6 -21.6,21.6"/>
<text text-anchor="middle" x="313.5" y="-1813.1" font-family="Times,serif" font-size="18.00">University Campus Resource and Interaction Network Model</text>
<!-- Campus -->
<g id="node1" class="node">
<title>Campus</title>
<polygon fill="lightgray" stroke="transparent" points="385,-1779.5 385,-1802.5 615,-1802.5 615,-1779.5 385,-1779.5"/>
<text text-anchor="start" x="468.5" y="-1788.3" font-family="Helvetica,sans-Serif" font-weight="bold" font-size="14.00">Campus</text>
<text text-anchor="start" x="389" y="-1764.3" font-family="Helvetica,sans-Serif" font-size="14.00">campusID : Identifier</text>
<text text-anchor="start" x="389" y="-1741.3" font-family="Helvetica,sans-Serif" font-size="14.00">campusName : Name</text>
<text text-anchor="start" x="389" y="-1718.3" font-family="Helvetica,sans-Serif" font-size="14.00">campusPosition : Position</text>
<text text-anchor="start" x="389" y="-1695.3" font-family="Helvetica,sans-Serif" font-size="14.00">campusExtent : Extent</text>
<text text-anchor="start" x="389" y="-1672.3" font-family="Helvetica,sans-Serif" font-size="14.00">campusState : OperationalState</text>
<polygon fill="none" stroke="black" points="384,-1663.5 384,-1803.5 616,-1803.5 616,-1663.5 384,-1663.5"/>
</g>
<!-- Building -->
<g id="node2" class="node">
<title>Building</title>
<polygon fill="lightgray" stroke="transparent" points="385,-1606.5 385,-1629.5 616,-1629.5 616,-1606.5 385,-1606.5"/>
<text text-anchor="start" x="468.5" y="-1615.3" font-family="Helvetica,sans-Serif" font-weight="bold" font-size="14.00">Building</text>
<text text-anchor="start" x="389" y="-1591.3" font-family="Helvetica,sans-Serif" font-size="14.00">buildingID : Identifier</text>
<text text-anchor="start" x="389" y="-1568.3" font-family="Helvetica,sans-Serif" font-size="14.00">buildingName : Name</text>
<text text-anchor="start" x="389" y="-1545.3" font-family="Helvetica,sans-Serif" font-size="14.00">buildingExtent : Extent</text>
<text text-anchor="start" x="389" y="-1522.3" font-family="Helvetica,sans-Serif" font-size="14.00">buildingState : OperationalState</text>
<polygon fill="none" stroke="black" points="383.5,-1514 383.5,-1631 616.5,-1631 616.5,-1514 383.5,-1514"/>
</g>
<!-- Room -->
<g id="node3" class="node">
<title>Room</title>
<polygon fill="lightgray" stroke="transparent" points="395,-1457.5 395,-1480.5 605,-1480.5 605,-1457.5 395,-1457.5"/>
<text text-anchor="start" x="477.5" y="-1466.3" font-family="Helvetica,sans-Serif" font-weight="bold" font-size="14.00">Room</text>
<text text-anchor="start" x="399" y="-1442.3" font-family="Helvetica,sans-Serif" font-size="14.00">roomID : Identifier</text>
<text text-anchor="start" x="399" y="-1419.3" font-family="Helvetica,sans-Serif" font-size="14.00">roomName : Name</text>
<text text-anchor="start" x="399" y="-1396.3" font-family="Helvetica,sans-Serif" font-size="14.00">roomExtent : Extent</text>
<text text-anchor="start" x="399" y="-1373.3" font-family="Helvetica,sans-Serif" font-size="14.00">roomCapacityCount : Count</text>
<text text-anchor="start" x="399" y="-1350.3" font-family="Helvetica,sans-Serif" font-size="14.00">roomState : OperationalState</text>
<polygon fill="none" stroke="black" points="394,-1341.5 394,-1481.5 606,-1481.5 606,-1341.5 394,-1341.5"/>
</g>
<!-- LibraryResource -->
<g id="node4" class="node">
<title>LibraryResource</title>
<polygon fill="lightgray" stroke="transparent" points="383,-390.5 383,-413.5 617,-413.5 617,-390.5 383,-390.5"/>
<text text-anchor="start" x="435.5" y="-399.3" font-family="Helvetica,sans-Serif" font-weight="bold" font-size="14.00">LibraryResource</text>
<text text-anchor="start" x="387" y="-375.3" font-family="Helvetica,sans-Serif" font-size="14.00">libraryResourceID : Identifier</text>
<text text-anchor="start" x="387" y="-352.3" font-family="Helvetica,sans-Serif" font-size="14.00">resourceName : Name</text>
<text text-anchor="start" x="387" y="-329.3" font-family="Helvetica,sans-Serif" font-size="14.00">resourceState : OperationalState</text>
<text text-anchor="start" x="387" y="-306.3" font-family="Helvetica,sans-Serif" font-size="14.00">accessState : OperationalState</text>
<polygon fill="none" stroke="black" points="382,-298 382,-415 618,-415 618,-298 382,-298"/>
</g>
<!-- LaboratoryResource -->
<g id="node5" class="node">
<title>LaboratoryResource</title>
<polygon fill="lightgray" stroke="transparent" points="383,-241.5 383,-264.5 617,-264.5 617,-241.5 383,-241.5"/>
<text text-anchor="start" x="420" y="-250.3" font-family="Helvetica,sans-Serif" font-weight="bold" font-size="14.00">LaboratoryResource</text>
<text text-anchor="start" x="387" y="-226.3" font-family="Helvetica,sans-Serif" font-size="14.00">laboratoryResourceID : Identifier</text>
<text text-anchor="start" x="387" y="-203.3" font-family="Helvetica,sans-Serif" font-size="14.00">resourceName : Name</text>
<text text-anchor="start" x="387" y="-180.3" font-family="Helvetica,sans-Serif" font-size="14.00">resourceState : OperationalState</text>
<text text-anchor="start" x="387" y="-157.3" font-family="Helvetica,sans-Serif" font-size="14.00">usageState : OperationalState</text>
<polygon fill="none" stroke="black" points="382,-149 382,-266 618,-266 618,-149 382,-149"/>
</g>
<!-- Person -->
<g id="node6" class="node">
<title>Person</title>
<polygon fill="lightgray" stroke="transparent" points="389,-539.5 389,-562.5 612,-562.5 612,-539.5 389,-539.5"/>
<text text-anchor="start" x="473" y="-548.3" font-family="Helvetica,sans-Serif" font-weight="bold" font-size="14.00">Person</text>
<text text-anchor="start" x="393" y="-524.3" font-family="Helvetica,sans-Serif" font-size="14.00">personID : Identifier</text>
<text text-anchor="start" x="393" y="-501.3" font-family="Helvetica,sans-Serif" font-size="14.00">personName : Name</text>
<text text-anchor="start" x="393" y="-478.3" font-family="Helvetica,sans-Serif" font-size="14.00">personState : OperationalState</text>
<text text-anchor="start" x="393" y="-455.3" font-family="Helvetica,sans-Serif" font-size="14.00">roleState : OperationalState</text>
<polygon fill="none" stroke="black" points="387.5,-447 387.5,-564 612.5,-564 612.5,-447 387.5,-447"/>
</g>
<!-- ClassMeeting -->
<g id="node7" class="node">
<title>ClassMeeting</title>
<polygon fill="lightgray" stroke="transparent" points="384,-986.5 384,-1009.5 616,-1009.5 616,-986.5 384,-986.5"/>
<text text-anchor="start" x="447" y="-995.3" font-family="Helvetica,sans-Serif" font-weight="bold" font-size="14.00">ClassMeeting</text>
<text text-anchor="start" x="388" y="-971.3" font-family="Helvetica,sans-Serif" font-size="14.00">classMeetingID : Identifier</text>
<text text-anchor="start" x="388" y="-948.3" font-family="Helvetica,sans-Serif" font-size="14.00">meetingState : OperationalState</text>
<text text-anchor="start" x="388" y="-925.3" font-family="Helvetica,sans-Serif" font-size="14.00">startTime : Time</text>
<text text-anchor="start" x="388" y="-902.3" font-family="Helvetica,sans-Serif" font-size="14.00">endTime : Time</text>
<polygon fill="none" stroke="black" points="383,-894 383,-1011 617,-1011 617,-894 383,-894"/>
</g>
<!-- AdvisingSession -->
<g id="node8" class="node">
<title>AdvisingSession</title>
<polygon fill="lightgray" stroke="transparent" points="387,-837.5 387,-860.5 614,-860.5 614,-837.5 387,-837.5"/>
<text text-anchor="start" x="437" y="-846.3" font-family="Helvetica,sans-Serif" font-weight="bold" font-size="14.00">AdvisingSession</text>
<text text-anchor="start" x="391" y="-822.3" font-family="Helvetica,sans-Serif" font-size="14.00">advisingSessionID : Identifier</text>
<text text-anchor="start" x="391" y="-799.3" font-family="Helvetica,sans-Serif" font-size="14.00">sessionState : OperationalState</text>
<text text-anchor="start" x="391" y="-776.3" font-family="Helvetica,sans-Serif" font-size="14.00">startTime : Time</text>
<text text-anchor="start" x="391" y="-753.3" font-family="Helvetica,sans-Serif" font-size="14.00">endTime : Time</text>
<polygon fill="none" stroke="black" points="385.5,-745 385.5,-862 614.5,-862 614.5,-745 385.5,-745"/>
</g>
<!-- ServiceUnit -->
<g id="node9" class="node">
<title>ServiceUnit</title>
<polygon fill="lightgray" stroke="transparent" points="388,-92.5 388,-115.5 613,-115.5 613,-92.5 388,-92.5"/>
<text text-anchor="start" x="455" y="-101.3" font-family="Helvetica,sans-Serif" font-weight="bold" font-size="14.00">ServiceUnit</text>
<text text-anchor="start" x="392" y="-77.3" font-family="Helvetica,sans-Serif" font-size="14.00">serviceUnitID : Identifier</text>
<text text-anchor="start" x="392" y="-54.3" font-family="Helvetica,sans-Serif" font-size="14.00">serviceUnitName : Name</text>
<text text-anchor="start" x="392" y="-31.3" font-family="Helvetica,sans-Serif" font-size="14.00">serviceState : OperationalState</text>
<text text-anchor="start" x="392" y="-8.3" font-family="Helvetica,sans-Serif" font-size="14.00">caseCount : Count</text>
<polygon fill="none" stroke="black" points="386.5,0 386.5,-117 613.5,-117 613.5,0 386.5,0"/>
</g>
<!-- HousingUnit -->
<g id="node10" class="node">
<title>HousingUnit</title>
<polygon fill="lightgray" stroke="transparent" points="376,-1284.5 376,-1307.5 625,-1307.5 625,-1284.5 376,-1284.5"/>
<text text-anchor="start" x="452" y="-1293.3" font-family="Helvetica,sans-Serif" font-weight="bold" font-size="14.00">HousingUnit</text>
<text text-anchor="start" x="380" y="-1269.3" font-family="Helvetica,sans-Serif" font-size="14.00">housingUnitID : Identifier</text>
<text text-anchor="start" x="380" y="-1246.3" font-family="Helvetica,sans-Serif" font-size="14.00">housingState : OperationalState</text>
<text text-anchor="start" x="380" y="-1223.3" font-family="Helvetica,sans-Serif" font-size="14.00">bedCount : Count</text>
<text text-anchor="start" x="380" y="-1200.3" font-family="Helvetica,sans-Serif" font-size="14.00">occupancyState : OperationalState</text>
<polygon fill="none" stroke="black" points="374.5,-1192 374.5,-1309 625.5,-1309 625.5,-1192 374.5,-1192"/>
</g>
<!-- DiningUnit -->
<g id="node11" class="node">
<title>DiningUnit</title>
<polygon fill="lightgray" stroke="transparent" points="391,-1135.5 391,-1158.5 610,-1158.5 610,-1135.5 391,-1135.5"/>
<text text-anchor="start" x="459.5" y="-1144.3" font-family="Helvetica,sans-Serif" font-weight="bold" font-size="14.00">DiningUnit</text>
<text text-anchor="start" x="395" y="-1120.3" font-family="Helvetica,sans-Serif" font-size="14.00">diningUnitID : Identifier</text>
<text text-anchor="start" x="395" y="-1097.3" font-family="Helvetica,sans-Serif" font-size="14.00">diningState : OperationalState</text>
<text text-anchor="start" x="395" y="-1074.3" font-family="Helvetica,sans-Serif" font-size="14.00">mealCount : Count</text>
<text text-anchor="start" x="395" y="-1051.3" font-family="Helvetica,sans-Serif" font-size="14.00">capacityCount : Count</text>
<polygon fill="none" stroke="black" points="389.5,-1043 389.5,-1160 610.5,-1160 610.5,-1043 389.5,-1043"/>
</g>
<!-- TechnologySystem -->
<g id="node12" class="node">
<title>TechnologySystem</title>
<polygon fill="lightgray" stroke="transparent" points="374,-688.5 374,-711.5 626,-711.5 626,-688.5 374,-688.5"/>
<text text-anchor="start" x="427" y="-697.3" font-family="Helvetica,sans-Serif" font-weight="bold" font-size="14.00">TechnologySystem</text>
<text text-anchor="start" x="378" y="-673.3" font-family="Helvetica,sans-Serif" font-size="14.00">technologySystemID : Identifier</text>
<text text-anchor="start" x="378" y="-650.3" font-family="Helvetica,sans-Serif" font-size="14.00">technologyState : OperationalState</text>
<text text-anchor="start" x="378" y="-627.3" font-family="Helvetica,sans-Serif" font-size="14.00">deviceCount : Count</text>
<text text-anchor="start" x="378" y="-604.3" font-family="Helvetica,sans-Serif" font-size="14.00">availabilityState : OperationalState</text>
<polygon fill="none" stroke="black" points="373,-596 373,-713 627,-713 627,-596 373,-596"/>
</g>
<!-- A_CampusContainsBuilding -->
<g id="node13" class="node">
<title>A_CampusContainsBuilding</title>
<polygon fill="lightblue" stroke="transparent" points="49.5,-1652.5 49.5,-1675.5 252.5,-1675.5 252.5,-1652.5 49.5,-1652.5"/>
<text text-anchor="start" x="53.5" y="-1661.3" font-family="Helvetica,sans-Serif" font-weight="bold" font-size="14.00">CampusContainsBuilding</text>
<text text-anchor="start" x="53.5" y="-1637.3" font-family="Helvetica,sans-Serif" font-size="14.00">relativePosition : Position</text>
<polygon fill="none" stroke="black" points="48,-1628.5 48,-1676.5 253,-1676.5 253,-1628.5 48,-1628.5"/>
</g>
<!-- A_CampusContainsBuilding&#45;&gt;Campus -->
<g id="edge1" class="edge">
<title>A_CampusContainsBuilding&#45;&gt;Campus</title>
<path fill="none" stroke="#555555" d="M253.41,-1676.26C294.37,-1685.8 341.79,-1696.85 383.97,-1706.69"/>
</g>
<!-- A_CampusContainsBuilding&#45;&gt;Building -->
<g id="edge2" class="edge">
<title>A_CampusContainsBuilding&#45;&gt;Building</title>
<path fill="none" stroke="#555555" d="M253.41,-1629.04C294.17,-1619.66 341.32,-1608.8 383.35,-1599.12"/>
</g>
<!-- A_BuildingContainsRoom -->
<g id="node14" class="node">
<title>A_BuildingContainsRoom</title>
<polygon fill="lightblue" stroke="transparent" points="58.5,-1491.5 58.5,-1514.5 243.5,-1514.5 243.5,-1491.5 58.5,-1491.5"/>
<text text-anchor="start" x="62.5" y="-1500.3" font-family="Helvetica,sans-Serif" font-weight="bold" font-size="14.00">BuildingContainsRoom</text>
<text text-anchor="start" x="62.5" y="-1476.3" font-family="Helvetica,sans-Serif" font-size="14.00">relativePosition : Position</text>
<polygon fill="none" stroke="black" points="57,-1467.5 57,-1515.5 244,-1515.5 244,-1467.5 57,-1467.5"/>
</g>
<!-- A_BuildingContainsRoom&#45;&gt;Building -->
<g id="edge3" class="edge">
<title>A_BuildingContainsRoom&#45;&gt;Building</title>
<path fill="none" stroke="#555555" d="M244.17,-1513.1C286.89,-1523.06 338.05,-1534.98 383.28,-1545.53"/>
</g>
<!-- A_BuildingContainsRoom&#45;&gt;Room -->
<g id="edge4" class="edge">
<title>A_BuildingContainsRoom&#45;&gt;Room</title>
<path fill="none" stroke="#555555" d="M244.17,-1470.17C290.21,-1459.57 346.04,-1446.71 393.7,-1435.74"/>
</g>
<!-- A_BuildingContainsHousingUnit -->
<g id="node15" class="node">
<title>A_BuildingContainsHousingUnit</title>
<polygon fill="lightblue" stroke="transparent" points="1.5,-1411.5 1.5,-1434.5 299.5,-1434.5 299.5,-1411.5 1.5,-1411.5"/>
<text text-anchor="start" x="36" y="-1420.3" font-family="Helvetica,sans-Serif" font-weight="bold" font-size="14.00">BuildingContainsHousingUnit</text>
<text text-anchor="start" x="5.5" y="-1396.3" font-family="Helvetica,sans-Serif" font-size="14.00">housingAllocationState : OperationalState</text>
<polygon fill="none" stroke="black" points="0.5,-1387.5 0.5,-1435.5 300.5,-1435.5 300.5,-1387.5 0.5,-1387.5"/>
</g>
<!-- A_BuildingContainsHousingUnit&#45;&gt;Building -->
<g id="edge5" class="edge">
<title>A_BuildingContainsHousingUnit&#45;&gt;Building</title>
<path fill="none" stroke="#555555" d="M257.86,-1435.61C272.6,-1440.2 287.35,-1445.49 301,-1451.5 335.75,-1466.81 340.68,-1477.56 373,-1497.5 381.67,-1502.85 390.7,-1508.35 399.78,-1513.84"/>
</g>
<!-- A_BuildingContainsHousingUnit&#45;&gt;HousingUnit -->
<g id="edge6" class="edge">
<title>A_BuildingContainsHousingUnit&#45;&gt;HousingUnit</title>
<path fill="none" stroke="#555555" d="M257.86,-1387.39C272.6,-1382.8 287.35,-1377.51 301,-1371.5 335.75,-1356.19 340.68,-1345.44 373,-1325.5 381.67,-1320.15 390.7,-1314.65 399.78,-1309.16"/>
</g>
<!-- A_BuildingContainsDiningUnit -->
<g id="node16" class="node">
<title>A_BuildingContainsDiningUnit</title>
<polygon fill="lightblue" stroke="transparent" points="4.5,-1331.5 4.5,-1354.5 296.5,-1354.5 296.5,-1331.5 4.5,-1331.5"/>
<text text-anchor="start" x="43.5" y="-1340.3" font-family="Helvetica,sans-Serif" font-weight="bold" font-size="14.00">BuildingContainsDiningUnit</text>
<text text-anchor="start" x="8.5" y="-1316.3" font-family="Helvetica,sans-Serif" font-size="14.00">serviceAllocationState : OperationalState</text>
<polygon fill="none" stroke="black" points="3.5,-1307.5 3.5,-1355.5 297.5,-1355.5 297.5,-1307.5 3.5,-1307.5"/>
</g>
<!-- A_BuildingContainsDiningUnit&#45;&gt;Building -->
<g id="edge7" class="edge">
<title>A_BuildingContainsDiningUnit&#45;&gt;Building</title>
<path fill="none" stroke="#555555" d="M274.5,-1355.56C283.93,-1360.01 292.91,-1365.27 301,-1371.5 352.09,-1410.87 327.8,-1451.49 373,-1497.5 378.62,-1503.22 384.76,-1508.67 391.22,-1513.82"/>
</g>
<!-- A_BuildingContainsDiningUnit&#45;&gt;DiningUnit -->
<g id="edge8" class="edge">
<title>A_BuildingContainsDiningUnit&#45;&gt;DiningUnit</title>
<path fill="none" stroke="#555555" d="M273.48,-1307.43C283.24,-1302.99 292.57,-1297.73 301,-1291.5 349.5,-1255.66 329.88,-1218.66 373,-1176.5 378.82,-1170.8 385.16,-1165.36 391.79,-1160.2"/>
</g>
<!-- A_RoomHostsClassMeeting -->
<g id="node17" class="node">
<title>A_RoomHostsClassMeeting</title>
<polygon fill="lightblue" stroke="transparent" points="34.5,-1250.5 34.5,-1273.5 266.5,-1273.5 266.5,-1250.5 34.5,-1250.5"/>
<text text-anchor="start" x="52.5" y="-1259.3" font-family="Helvetica,sans-Serif" font-weight="bold" font-size="14.00">RoomHostsClassMeeting</text>
<text text-anchor="start" x="38.5" y="-1235.3" font-family="Helvetica,sans-Serif" font-size="14.00">occupancyCount : Count</text>
<text text-anchor="start" x="38.5" y="-1212.3" font-family="Helvetica,sans-Serif" font-size="14.00">meetingState : OperationalState</text>
<polygon fill="none" stroke="black" points="33.5,-1204 33.5,-1275 267.5,-1275 267.5,-1204 33.5,-1204"/>
</g>
<!-- A_RoomHostsClassMeeting&#45;&gt;Room -->
<g id="edge9" class="edge">
<title>A_RoomHostsClassMeeting&#45;&gt;Room</title>
<path fill="none" stroke="#555555" d="M262.37,-1275.11C275.55,-1280.21 288.69,-1285.71 301,-1291.5 332.1,-1306.13 364.51,-1324.38 393.89,-1342.19"/>
</g>
<!-- A_RoomHostsClassMeeting&#45;&gt;ClassMeeting -->
<g id="edge10" class="edge">
<title>A_RoomHostsClassMeeting&#45;&gt;ClassMeeting</title>
<path fill="none" stroke="#555555" d="M267.55,-1209.3C279.69,-1203.05 291.17,-1195.54 301,-1186.5 358.12,-1134.01 321.29,-1085.33 373,-1027.5 378.18,-1021.71 383.91,-1016.24 389.99,-1011.09"/>
</g>
<!-- A_PersonParticipatesInClassMeeting -->
<g id="node18" class="node">
<title>A_PersonParticipatesInClassMeeting</title>
<polygon fill="lightblue" stroke="transparent" points="5.5,-763.5 5.5,-786.5 296.5,-786.5 296.5,-763.5 5.5,-763.5"/>
<text text-anchor="start" x="15.5" y="-772.3" font-family="Helvetica,sans-Serif" font-weight="bold" font-size="14.00">PersonParticipatesInClassMeeting</text>
<text text-anchor="start" x="9.5" y="-748.3" font-family="Helvetica,sans-Serif" font-size="14.00">participationRoleState : OperationalState</text>
<polygon fill="none" stroke="black" points="4,-739.5 4,-787.5 297,-787.5 297,-739.5 4,-739.5"/>
</g>
<!-- A_PersonParticipatesInClassMeeting&#45;&gt;Person -->
<g id="edge11" class="edge">
<title>A_PersonParticipatesInClassMeeting&#45;&gt;Person</title>
<path fill="none" stroke="#555555" d="M244.37,-739.47C264.53,-731.28 284.67,-720.53 301,-706.5 350.22,-664.22 327.47,-625.73 373,-579.5 378.34,-574.08 384.16,-568.91 390.27,-564.01"/>
</g>
<!-- A_PersonParticipatesInClassMeeting&#45;&gt;ClassMeeting -->
<g id="edge12" class="edge">
<title>A_PersonParticipatesInClassMeeting&#45;&gt;ClassMeeting</title>
<path fill="none" stroke="#555555" d="M243.44,-787.62C263.1,-794.57 283.28,-803.15 301,-813.5 338.23,-835.24 338.23,-853.01 373,-878.5 380.06,-883.68 387.5,-888.8 395.1,-893.79"/>
</g>
<!-- A_RoomHostsAdvisingSession -->
<g id="node19" class="node">
<title>A_RoomHostsAdvisingSession</title>
<polygon fill="lightblue" stroke="transparent" points="37.5,-1146.5 37.5,-1169.5 263.5,-1169.5 263.5,-1146.5 37.5,-1146.5"/>
<text text-anchor="start" x="42.5" y="-1155.3" font-family="Helvetica,sans-Serif" font-weight="bold" font-size="14.00">RoomHostsAdvisingSession</text>
<text text-anchor="start" x="41.5" y="-1131.3" font-family="Helvetica,sans-Serif" font-size="14.00">privacyState : OperationalState</text>
<polygon fill="none" stroke="black" points="36.5,-1122.5 36.5,-1170.5 264.5,-1170.5 264.5,-1122.5 36.5,-1122.5"/>
</g>
<!-- A_RoomHostsAdvisingSession&#45;&gt;Room -->
<g id="edge13" class="edge">
<title>A_RoomHostsAdvisingSession&#45;&gt;Room</title>
<path fill="none" stroke="#555555" d="M264.62,-1167.36C277.71,-1172.85 290.21,-1179.77 301,-1188.5 354.47,-1231.77 327.24,-1274.15 373,-1325.5 379.34,-1332.62 386.39,-1339.44 393.83,-1345.89"/>
</g>
<!-- A_RoomHostsAdvisingSession&#45;&gt;AdvisingSession -->
<g id="edge14" class="edge">
<title>A_RoomHostsAdvisingSession&#45;&gt;AdvisingSession</title>
<path fill="none" stroke="#555555" d="M264.66,-1128.85C278.05,-1123.08 290.62,-1115.48 301,-1105.5 377.3,-1032.15 307.23,-961.43 373,-878.5 377.59,-872.72 382.75,-867.28 388.31,-862.19"/>
</g>
<!-- A_PersonParticipatesInAdvisingSession -->
<g id="node20" class="node">
<title>A_PersonParticipatesInAdvisingSession</title>
<polygon fill="lightblue" stroke="transparent" points="1.5,-666.5 1.5,-689.5 300.5,-689.5 300.5,-666.5 1.5,-666.5"/>
<text text-anchor="start" x="5.5" y="-675.3" font-family="Helvetica,sans-Serif" font-weight="bold" font-size="14.00">PersonParticipatesInAdvisingSession</text>
<text text-anchor="start" x="5.5" y="-651.3" font-family="Helvetica,sans-Serif" font-size="14.00">participantRoleState : OperationalState</text>
<polygon fill="none" stroke="black" points="0,-642.5 0,-690.5 301,-690.5 301,-642.5 0,-642.5"/>
</g>
<!-- A_PersonParticipatesInAdvisingSession&#45;&gt;Person -->
<g id="edge15" class="edge">
<title>A_PersonParticipatesInAdvisingSession&#45;&gt;Person</title>
<path fill="none" stroke="#555555" d="M203.52,-642.4C251.9,-619.98 325.58,-585.85 387.25,-557.27"/>
</g>
<!-- A_PersonParticipatesInAdvisingSession&#45;&gt;AdvisingSession -->
<g id="edge16" class="edge">
<title>A_PersonParticipatesInAdvisingSession&#45;&gt;AdvisingSession</title>
<path fill="none" stroke="#555555" d="M215.63,-690.63C242.1,-700.68 273.08,-712.54 301,-723.5 328.35,-734.24 357.74,-745.99 385.29,-757.11"/>
</g>
<!-- A_LibraryResourceAccessedByPerson -->
<g id="node21" class="node">
<title>A_LibraryResourceAccessedByPerson</title>
<polygon fill="lightblue" stroke="transparent" points="8.5,-395.5 8.5,-418.5 292.5,-418.5 292.5,-395.5 8.5,-395.5"/>
<text text-anchor="start" x="12.5" y="-404.3" font-family="Helvetica,sans-Serif" font-weight="bold" font-size="14.00">LibraryResourceAccessedByPerson</text>
<text text-anchor="start" x="12.5" y="-380.3" font-family="Helvetica,sans-Serif" font-size="14.00">accessTime : Time</text>
<text text-anchor="start" x="12.5" y="-357.3" font-family="Helvetica,sans-Serif" font-size="14.00">accessState : OperationalState</text>
<polygon fill="none" stroke="black" points="7.5,-349 7.5,-420 293.5,-420 293.5,-349 7.5,-349"/>
</g>
<!-- A_LibraryResourceAccessedByPerson&#45;&gt;LibraryResource -->
<g id="edge17" class="edge">
<title>A_LibraryResourceAccessedByPerson&#45;&gt;LibraryResource</title>
<path fill="none" stroke="#555555" d="M293.59,-373.05C322.95,-370.69 353.55,-368.22 381.89,-365.94"/>
</g>
<!-- A_LibraryResourceAccessedByPerson&#45;&gt;Person -->
<g id="edge18" class="edge">
<title>A_LibraryResourceAccessedByPerson&#45;&gt;Person</title>
<path fill="none" stroke="#555555" d="M253.88,-420.15C295.82,-434.75 344.48,-451.7 387.34,-466.62"/>
</g>
<!-- A_LaboratoryResourceUsedByPerson -->
<g id="node22" class="node">
<title>A_LaboratoryResourceUsedByPerson</title>
<polygon fill="lightblue" stroke="transparent" points="9.5,-255.5 9.5,-278.5 291.5,-278.5 291.5,-255.5 9.5,-255.5"/>
<text text-anchor="start" x="13.5" y="-264.3" font-family="Helvetica,sans-Serif" font-weight="bold" font-size="14.00">LaboratoryResourceUsedByPerson</text>
<text text-anchor="start" x="13.5" y="-240.3" font-family="Helvetica,sans-Serif" font-size="14.00">usageTime : Time</text>
<text text-anchor="start" x="13.5" y="-217.3" font-family="Helvetica,sans-Serif" font-size="14.00">usageState : OperationalState</text>
<polygon fill="none" stroke="black" points="8.5,-209 8.5,-280 292.5,-280 292.5,-209 8.5,-209"/>
</g>
<!-- A_LaboratoryResourceUsedByPerson&#45;&gt;LaboratoryResource -->
<g id="edge19" class="edge">
<title>A_LaboratoryResourceUsedByPerson&#45;&gt;LaboratoryResource</title>
<path fill="none" stroke="#555555" d="M292.59,-229.48C322.2,-226.32 353.13,-223.03 381.76,-219.98"/>
</g>
<!-- A_LaboratoryResourceUsedByPerson&#45;&gt;Person -->
<g id="edge20" class="edge">
<title>A_LaboratoryResourceUsedByPerson&#45;&gt;Person</title>
<path fill="none" stroke="#555555" d="M225.11,-280C250.67,-294.29 278.54,-312.21 301,-332.5 341.11,-368.73 332.98,-394.18 373,-430.5 379.22,-436.15 385.93,-441.58 392.9,-446.77"/>
</g>
<!-- A_ServiceUnitServesPerson -->
<g id="node23" class="node">
<title>A_ServiceUnitServesPerson</title>
<polygon fill="lightblue" stroke="transparent" points="6.5,-129.5 6.5,-152.5 294.5,-152.5 294.5,-129.5 6.5,-129.5"/>
<text text-anchor="start" x="51" y="-138.3" font-family="Helvetica,sans-Serif" font-weight="bold" font-size="14.00">ServiceUnitServesPerson</text>
<text text-anchor="start" x="10.5" y="-114.3" font-family="Helvetica,sans-Serif" font-size="14.00">serviceTime : Time</text>
<text text-anchor="start" x="10.5" y="-91.3" font-family="Helvetica,sans-Serif" font-size="14.00">serviceOutcomeState : OperationalState</text>
<polygon fill="none" stroke="black" points="5.5,-83 5.5,-154 295.5,-154 295.5,-83 5.5,-83"/>
</g>
<!-- A_ServiceUnitServesPerson&#45;&gt;Person -->
<g id="edge22" class="edge">
<title>A_ServiceUnitServesPerson&#45;&gt;Person</title>
<path fill="none" stroke="#555555" d="M252.45,-154.21C270.54,-164.3 287.81,-176.92 301,-192.5 372.4,-276.85 304.91,-343.46 373,-430.5 377.55,-436.31 382.68,-441.77 388.21,-446.89"/>
</g>
<!-- A_ServiceUnitServesPerson&#45;&gt;ServiceUnit -->
<g id="edge21" class="edge">
<title>A_ServiceUnitServesPerson&#45;&gt;ServiceUnit</title>
<path fill="none" stroke="#555555" d="M295.6,-93.62C325.92,-88.38 357.49,-82.93 386.45,-77.93"/>
</g>
<!-- A_HousingUnitAssignedToPerson -->
<g id="node24" class="node">
<title>A_HousingUnitAssignedToPerson</title>
<polygon fill="lightblue" stroke="transparent" points="26.5,-982.5 26.5,-1005.5 275.5,-1005.5 275.5,-982.5 26.5,-982.5"/>
<text text-anchor="start" x="31.5" y="-991.3" font-family="Helvetica,sans-Serif" font-weight="bold" font-size="14.00">HousingUnitAssignedToPerson</text>
<text text-anchor="start" x="30.5" y="-967.3" font-family="Helvetica,sans-Serif" font-size="14.00">assignmentTime : Time</text>
<text text-anchor="start" x="30.5" y="-944.3" font-family="Helvetica,sans-Serif" font-size="14.00">occupancyState : OperationalState</text>
<polygon fill="none" stroke="black" points="25,-936 25,-1007 276,-1007 276,-936 25,-936"/>
</g>
<!-- A_HousingUnitAssignedToPerson&#45;&gt;Person -->
<g id="edge24" class="edge">
<title>A_HousingUnitAssignedToPerson&#45;&gt;Person</title>
<path fill="none" stroke="#555555" d="M276.06,-937.73C285.34,-931.77 293.84,-924.75 301,-916.5 401.34,-800.79 283.37,-703.69 373,-579.5 377.23,-573.64 382.08,-568.16 387.36,-563.06"/>
</g>
<!-- A_HousingUnitAssignedToPerson&#45;&gt;HousingUnit -->
<g id="edge23" class="edge">
<title>A_HousingUnitAssignedToPerson&#45;&gt;HousingUnit</title>
<path fill="none" stroke="#555555" d="M275.56,-1007.18C284.7,-1012.48 293.33,-1018.55 301,-1025.5 356.09,-1075.43 322.74,-1121.71 373,-1176.5 377.97,-1181.92 383.44,-1187.06 389.22,-1191.92"/>
</g>
<!-- A_DiningUnitServesPerson -->
<g id="node25" class="node">
<title>A_DiningUnitServesPerson</title>
<polygon fill="lightblue" stroke="transparent" points="46.5,-875.5 46.5,-898.5 255.5,-898.5 255.5,-875.5 46.5,-875.5"/>
<text text-anchor="start" x="56" y="-884.3" font-family="Helvetica,sans-Serif" font-weight="bold" font-size="14.00">DiningUnitServesPerson</text>
<text text-anchor="start" x="50.5" y="-860.3" font-family="Helvetica,sans-Serif" font-size="14.00">mealTime : Time</text>
<text text-anchor="start" x="50.5" y="-837.3" font-family="Helvetica,sans-Serif" font-size="14.00">mealState : OperationalState</text>
<polygon fill="none" stroke="black" points="45,-829 45,-900 256,-900 256,-829 45,-829"/>
</g>
<!-- A_DiningUnitServesPerson&#45;&gt;Person -->
<g id="edge26" class="edge">
<title>A_DiningUnitServesPerson&#45;&gt;Person</title>
<path fill="none" stroke="#555555" d="M256.3,-835.62C272.88,-827.38 288.62,-816.87 301,-803.5 372.07,-726.79 307.62,-661.12 373,-579.5 377.36,-574.06 382.24,-568.93 387.47,-564.11"/>
</g>
<!-- A_DiningUnitServesPerson&#45;&gt;DiningUnit -->
<g id="edge25" class="edge">
<title>A_DiningUnitServesPerson&#45;&gt;DiningUnit</title>
<path fill="none" stroke="#555555" d="M256.1,-894.06C272.05,-901.22 287.62,-909.94 301,-920.5 345.98,-956.02 331.25,-988.23 373,-1027.5 378.73,-1032.89 384.92,-1038.06 391.37,-1042.98"/>
</g>
<!-- A_TechnologySystemSupportsRoom -->
<g id="node26" class="node">
<title>A_TechnologySystemSupportsRoom</title>
<polygon fill="lightblue" stroke="transparent" points="16.5,-1065.5 16.5,-1088.5 285.5,-1088.5 285.5,-1065.5 16.5,-1065.5"/>
<text text-anchor="start" x="20.5" y="-1074.3" font-family="Helvetica,sans-Serif" font-weight="bold" font-size="14.00">TechnologySystemSupportsRoom</text>
<text text-anchor="start" x="20.5" y="-1050.3" font-family="Helvetica,sans-Serif" font-size="14.00">availabilityState : OperationalState</text>
<polygon fill="none" stroke="black" points="15,-1041.5 15,-1089.5 286,-1089.5 286,-1041.5 15,-1041.5"/>
</g>
<!-- A_TechnologySystemSupportsRoom&#45;&gt;Room -->
<g id="edge28" class="edge">
<title>A_TechnologySystemSupportsRoom&#45;&gt;Room</title>
<path fill="none" stroke="#555555" d="M277.41,-1089.5C285.98,-1094.21 293.98,-1099.82 301,-1106.5 375.24,-1177.12 311.42,-1243.61 373,-1325.5 379.13,-1333.65 386.26,-1341.29 393.96,-1348.4"/>
</g>
<!-- A_TechnologySystemSupportsRoom&#45;&gt;TechnologySystem -->
<g id="edge27" class="edge">
<title>A_TechnologySystemSupportsRoom&#45;&gt;TechnologySystem</title>
<path fill="none" stroke="#555555" d="M277.67,-1041.43C286.24,-1036.49 294.16,-1030.58 301,-1023.5 394.77,-926.44 292.45,-836.78 373,-728.5 377.09,-723 381.72,-717.84 386.72,-713.01"/>
</g>
<!-- A_TechnologySystemSupportsPerson -->
<g id="node27" class="node">
<title>A_TechnologySystemSupportsPerson</title>
<polygon fill="lightblue" stroke="transparent" points="11.5,-545.5 11.5,-568.5 290.5,-568.5 290.5,-545.5 11.5,-545.5"/>
<text text-anchor="start" x="15.5" y="-554.3" font-family="Helvetica,sans-Serif" font-weight="bold" font-size="14.00">TechnologySystemSupportsPerson</text>
<text text-anchor="start" x="15.5" y="-530.3" font-family="Helvetica,sans-Serif" font-size="14.00">accessState : OperationalState</text>
<polygon fill="none" stroke="black" points="10,-521.5 10,-569.5 291,-569.5 291,-521.5 10,-521.5"/>
</g>
<!-- A_TechnologySystemSupportsPerson&#45;&gt;Person -->
<g id="edge30" class="edge">
<title>A_TechnologySystemSupportsPerson&#45;&gt;Person</title>
<path fill="none" stroke="#555555" d="M291.09,-529.43C323.08,-525.75 356.67,-521.88 387.3,-518.36"/>
</g>
<!-- A_TechnologySystemSupportsPerson&#45;&gt;TechnologySystem -->
<g id="edge29" class="edge">
<title>A_TechnologySystemSupportsPerson&#45;&gt;TechnologySystem</title>
<path fill="none" stroke="#555555" d="M228.19,-569.56C270.56,-582.85 324.28,-599.69 372.67,-614.88"/>
</g>
</g>
</svg>
