<?xml version="1.0" encoding="UTF-8" standalone="no"?>
<!DOCTYPE svg PUBLIC "-//W3C//DTD SVG 1.1//EN"
 "http://www.w3.org/Graphics/SVG/1.1/DTD/svg11.dtd">
<!-- Generated by graphviz version 2.42.4 (0)
 -->
<!-- Title: ERD Pages: 1 -->
<svg width="756pt" height="2002pt"
 viewBox="0.00 0.00 756.20 2002.20" xmlns="http://www.w3.org/2000/svg" xmlns:xlink="http://www.w3.org/1999/xlink">
<g id="graph0" class="graph" transform="scale(1 1) rotate(0) translate(21.6 1980.6)">
<title>ERD</title>
<polygon fill="white" stroke="transparent" points="-21.6,21.6 -21.6,-1980.6 734.6,-1980.6 734.6,21.6 -21.6,21.6"/>
<text text-anchor="middle" x="356.5" y="-1940.6" font-family="Times,serif" font-size="18.00">University Academic Lifecycle Model</text>
<!-- Applicant -->
<g id="node1" class="node">
<title>Applicant</title>
<polygon fill="lightgray" stroke="transparent" points="458,-1159.5 458,-1182.5 709,-1182.5 709,-1159.5 458,-1159.5"/>
<text text-anchor="start" x="546.5" y="-1168.3" font-family="Helvetica,sans-Serif" font-weight="bold" font-size="14.00">Applicant</text>
<text text-anchor="start" x="462" y="-1144.3" font-family="Helvetica,sans-Serif" font-size="14.00">applicantID : Identifier</text>
<text text-anchor="start" x="462" y="-1121.3" font-family="Helvetica,sans-Serif" font-size="14.00">applicantName : Name</text>
<text text-anchor="start" x="462" y="-1098.3" font-family="Helvetica,sans-Serif" font-size="14.00">applicationState : OperationalState</text>
<text text-anchor="start" x="462" y="-1075.3" font-family="Helvetica,sans-Serif" font-size="14.00">applicationTime : Time</text>
<polygon fill="none" stroke="black" points="456.5,-1067 456.5,-1184 709.5,-1184 709.5,-1067 456.5,-1067"/>
</g>
<!-- AdmissionDecision -->
<g id="node2" class="node">
<title>AdmissionDecision</title>
<polygon fill="lightgray" stroke="transparent" points="467,-1010.5 467,-1033.5 699,-1033.5 699,-1010.5 467,-1010.5"/>
<text text-anchor="start" x="510" y="-1019.3" font-family="Helvetica,sans-Serif" font-weight="bold" font-size="14.00">AdmissionDecision</text>
<text text-anchor="start" x="471" y="-995.3" font-family="Helvetica,sans-Serif" font-size="14.00">admissionDecisionID : Identifier</text>
<text text-anchor="start" x="471" y="-972.3" font-family="Helvetica,sans-Serif" font-size="14.00">decisionState : OperationalState</text>
<text text-anchor="start" x="471" y="-949.3" font-family="Helvetica,sans-Serif" font-size="14.00">decisionTime : Time</text>
<text text-anchor="start" x="471" y="-926.3" font-family="Helvetica,sans-Serif" font-size="14.00">decisionPriority : Order</text>
<polygon fill="none" stroke="black" points="466,-918 466,-1035 700,-1035 700,-918 466,-918"/>
</g>
<!-- Student -->
<g id="node3" class="node">
<title>Student</title>
<polygon fill="lightgray" stroke="transparent" points="465,-712.5 465,-735.5 701,-735.5 701,-712.5 465,-712.5"/>
<text text-anchor="start" x="551.5" y="-721.3" font-family="Helvetica,sans-Serif" font-weight="bold" font-size="14.00">Student</text>
<text text-anchor="start" x="469" y="-697.3" font-family="Helvetica,sans-Serif" font-size="14.00">studentID : Identifier</text>
<text text-anchor="start" x="469" y="-674.3" font-family="Helvetica,sans-Serif" font-size="14.00">studentName : Name</text>
<text text-anchor="start" x="469" y="-651.3" font-family="Helvetica,sans-Serif" font-size="14.00">studentState : OperationalState</text>
<text text-anchor="start" x="469" y="-628.3" font-family="Helvetica,sans-Serif" font-size="14.00">standingState : OperationalState</text>
<text text-anchor="start" x="469" y="-605.3" font-family="Helvetica,sans-Serif" font-size="14.00">earnedCreditCount : Count</text>
<polygon fill="none" stroke="black" points="464,-596.5 464,-736.5 702,-736.5 702,-596.5 464,-596.5"/>
</g>
<!-- Term -->
<g id="node4" class="node">
<title>Term</title>
<polygon fill="lightgray" stroke="transparent" points="480,-1757.5 480,-1780.5 687,-1780.5 687,-1757.5 480,-1757.5"/>
<text text-anchor="start" x="564" y="-1766.3" font-family="Helvetica,sans-Serif" font-weight="bold" font-size="14.00">Term</text>
<text text-anchor="start" x="484" y="-1742.3" font-family="Helvetica,sans-Serif" font-size="14.00">termID : Identifier</text>
<text text-anchor="start" x="484" y="-1719.3" font-family="Helvetica,sans-Serif" font-size="14.00">termName : Name</text>
<text text-anchor="start" x="484" y="-1696.3" font-family="Helvetica,sans-Serif" font-size="14.00">termState : OperationalState</text>
<text text-anchor="start" x="484" y="-1673.3" font-family="Helvetica,sans-Serif" font-size="14.00">startTime : Time</text>
<text text-anchor="start" x="484" y="-1650.3" font-family="Helvetica,sans-Serif" font-size="14.00">endTime : Time</text>
<polygon fill="none" stroke="black" points="478.5,-1641.5 478.5,-1781.5 687.5,-1781.5 687.5,-1641.5 478.5,-1641.5"/>
</g>
<!-- CourseCatalogEntry -->
<g id="node5" class="node">
<title>CourseCatalogEntry</title>
<polygon fill="lightgray" stroke="transparent" points="471,-1906.5 471,-1929.5 696,-1929.5 696,-1906.5 471,-1906.5"/>
<text text-anchor="start" x="504.5" y="-1915.3" font-family="Helvetica,sans-Serif" font-weight="bold" font-size="14.00">CourseCatalogEntry</text>
<text text-anchor="start" x="475" y="-1891.3" font-family="Helvetica,sans-Serif" font-size="14.00">catalogEntryID : Identifier</text>
<text text-anchor="start" x="475" y="-1868.3" font-family="Helvetica,sans-Serif" font-size="14.00">courseName : Name</text>
<text text-anchor="start" x="475" y="-1845.3" font-family="Helvetica,sans-Serif" font-size="14.00">creditCount : Count</text>
<text text-anchor="start" x="475" y="-1822.3" font-family="Helvetica,sans-Serif" font-size="14.00">catalogState : OperationalState</text>
<polygon fill="none" stroke="black" points="469.5,-1814 469.5,-1931 696.5,-1931 696.5,-1814 469.5,-1814"/>
</g>
<!-- CourseSection -->
<g id="node6" class="node">
<title>CourseSection</title>
<polygon fill="lightgray" stroke="transparent" points="468,-1584.5 468,-1607.5 699,-1607.5 699,-1584.5 468,-1584.5"/>
<text text-anchor="start" x="526.5" y="-1593.3" font-family="Helvetica,sans-Serif" font-weight="bold" font-size="14.00">CourseSection</text>
<text text-anchor="start" x="472" y="-1569.3" font-family="Helvetica,sans-Serif" font-size="14.00">courseSectionID : Identifier</text>
<text text-anchor="start" x="472" y="-1546.3" font-family="Helvetica,sans-Serif" font-size="14.00">sectionState : OperationalState</text>
<text text-anchor="start" x="472" y="-1523.3" font-family="Helvetica,sans-Serif" font-size="14.00">capacityCount : Count</text>
<text text-anchor="start" x="472" y="-1500.3" font-family="Helvetica,sans-Serif" font-size="14.00">deliveryState : OperationalState</text>
<polygon fill="none" stroke="black" points="466.5,-1492 466.5,-1609 699.5,-1609 699.5,-1492 466.5,-1492"/>
</g>
<!-- InstructorAssignment -->
<g id="node7" class="node">
<title>InstructorAssignment</title>
<polygon fill="lightgray" stroke="transparent" points="455,-1435.5 455,-1458.5 711,-1458.5 711,-1435.5 455,-1435.5"/>
<text text-anchor="start" x="498" y="-1444.3" font-family="Helvetica,sans-Serif" font-weight="bold" font-size="14.00">InstructorAssignment</text>
<text text-anchor="start" x="459" y="-1420.3" font-family="Helvetica,sans-Serif" font-size="14.00">instructorAssignmentID : Identifier</text>
<text text-anchor="start" x="459" y="-1397.3" font-family="Helvetica,sans-Serif" font-size="14.00">assignmentState : OperationalState</text>
<text text-anchor="start" x="459" y="-1374.3" font-family="Helvetica,sans-Serif" font-size="14.00">assignmentTime : Time</text>
<polygon fill="none" stroke="black" points="454,-1365.5 454,-1459.5 712,-1459.5 712,-1365.5 454,-1365.5"/>
</g>
<!-- Registration -->
<g id="node8" class="node">
<title>Registration</title>
<polygon fill="lightgray" stroke="transparent" points="456,-1308.5 456,-1331.5 711,-1331.5 711,-1308.5 456,-1308.5"/>
<text text-anchor="start" x="535" y="-1317.3" font-family="Helvetica,sans-Serif" font-weight="bold" font-size="14.00">Registration</text>
<text text-anchor="start" x="460" y="-1293.3" font-family="Helvetica,sans-Serif" font-size="14.00">registrationID : Identifier</text>
<text text-anchor="start" x="460" y="-1270.3" font-family="Helvetica,sans-Serif" font-size="14.00">registrationState : OperationalState</text>
<text text-anchor="start" x="460" y="-1247.3" font-family="Helvetica,sans-Serif" font-size="14.00">registrationTime : Time</text>
<text text-anchor="start" x="460" y="-1224.3" font-family="Helvetica,sans-Serif" font-size="14.00">creditCount : Count</text>
<polygon fill="none" stroke="black" points="454.5,-1216 454.5,-1333 711.5,-1333 711.5,-1216 454.5,-1216"/>
</g>
<!-- LearningActivity -->
<g id="node9" class="node">
<title>LearningActivity</title>
<polygon fill="lightgray" stroke="transparent" points="471,-861.5 471,-884.5 696,-884.5 696,-861.5 471,-861.5"/>
<text text-anchor="start" x="519" y="-870.3" font-family="Helvetica,sans-Serif" font-weight="bold" font-size="14.00">LearningActivity</text>
<text text-anchor="start" x="475" y="-846.3" font-family="Helvetica,sans-Serif" font-size="14.00">learningActivityID : Identifier</text>
<text text-anchor="start" x="475" y="-823.3" font-family="Helvetica,sans-Serif" font-size="14.00">activityState : OperationalState</text>
<text text-anchor="start" x="475" y="-800.3" font-family="Helvetica,sans-Serif" font-size="14.00">activityTime : Time</text>
<text text-anchor="start" x="475" y="-777.3" font-family="Helvetica,sans-Serif" font-size="14.00">activityCount : Count</text>
<polygon fill="none" stroke="black" points="469.5,-769 469.5,-886 696.5,-886 696.5,-769 469.5,-769"/>
</g>
<!-- Assessment -->
<g id="node10" class="node">
<title>Assessment</title>
<polygon fill="lightgray" stroke="transparent" points="454,-539.5 454,-562.5 712,-562.5 712,-539.5 454,-539.5"/>
<text text-anchor="start" x="536" y="-548.3" font-family="Helvetica,sans-Serif" font-weight="bold" font-size="14.00">Assessment</text>
<text text-anchor="start" x="458" y="-524.3" font-family="Helvetica,sans-Serif" font-size="14.00">assessmentID : Identifier</text>
<text text-anchor="start" x="458" y="-501.3" font-family="Helvetica,sans-Serif" font-size="14.00">assessmentState : OperationalState</text>
<text text-anchor="start" x="458" y="-478.3" font-family="Helvetica,sans-Serif" font-size="14.00">assessmentTime : Time</text>
<text text-anchor="start" x="458" y="-455.3" font-family="Helvetica,sans-Serif" font-size="14.00">weightRatio : Ratio</text>
<polygon fill="none" stroke="black" points="453,-447 453,-564 713,-564 713,-447 453,-447"/>
</g>
<!-- Result -->
<g id="node11" class="node">
<title>Result</title>
<polygon fill="lightgray" stroke="transparent" points="475,-390.5 475,-413.5 691,-413.5 691,-390.5 475,-390.5"/>
<text text-anchor="start" x="558" y="-399.3" font-family="Helvetica,sans-Serif" font-weight="bold" font-size="14.00">Result</text>
<text text-anchor="start" x="479" y="-375.3" font-family="Helvetica,sans-Serif" font-size="14.00">resultID : Identifier</text>
<text text-anchor="start" x="479" y="-352.3" font-family="Helvetica,sans-Serif" font-size="14.00">resultState : OperationalState</text>
<text text-anchor="start" x="479" y="-329.3" font-family="Helvetica,sans-Serif" font-size="14.00">scoreRatio : Ratio</text>
<text text-anchor="start" x="479" y="-306.3" font-family="Helvetica,sans-Serif" font-size="14.00">gradeState : OperationalState</text>
<polygon fill="none" stroke="black" points="474,-298 474,-415 692,-415 692,-298 474,-298"/>
</g>
<!-- ProgressEvaluation -->
<g id="node12" class="node">
<title>ProgressEvaluation</title>
<polygon fill="lightgray" stroke="transparent" points="466,-241.5 466,-264.5 701,-264.5 701,-241.5 466,-241.5"/>
<text text-anchor="start" x="506.5" y="-250.3" font-family="Helvetica,sans-Serif" font-weight="bold" font-size="14.00">ProgressEvaluation</text>
<text text-anchor="start" x="470" y="-226.3" font-family="Helvetica,sans-Serif" font-size="14.00">progressEvaluationID : Identifier</text>
<text text-anchor="start" x="470" y="-203.3" font-family="Helvetica,sans-Serif" font-size="14.00">progressState : OperationalState</text>
<text text-anchor="start" x="470" y="-180.3" font-family="Helvetica,sans-Serif" font-size="14.00">evaluationTime : Time</text>
<text text-anchor="start" x="470" y="-157.3" font-family="Helvetica,sans-Serif" font-size="14.00">remainingCreditCount : Count</text>
<polygon fill="none" stroke="black" points="464.5,-149 464.5,-266 701.5,-266 701.5,-149 464.5,-149"/>
</g>
<!-- Credential -->
<g id="node13" class="node">
<title>Credential</title>
<polygon fill="lightgray" stroke="transparent" points="462,-92.5 462,-115.5 705,-115.5 705,-92.5 462,-92.5"/>
<text text-anchor="start" x="542.5" y="-101.3" font-family="Helvetica,sans-Serif" font-weight="bold" font-size="14.00">Credential</text>
<text text-anchor="start" x="466" y="-77.3" font-family="Helvetica,sans-Serif" font-size="14.00">credentialID : Identifier</text>
<text text-anchor="start" x="466" y="-54.3" font-family="Helvetica,sans-Serif" font-size="14.00">credentialState : OperationalState</text>
<text text-anchor="start" x="466" y="-31.3" font-family="Helvetica,sans-Serif" font-size="14.00">awardTime : Time</text>
<text text-anchor="start" x="466" y="-8.3" font-family="Helvetica,sans-Serif" font-size="14.00">completionCreditCount : Count</text>
<polygon fill="none" stroke="black" points="460.5,0 460.5,-117 705.5,-117 705.5,0 460.5,0"/>
</g>
<!-- A_ApplicantEvaluatedByAdmissionDecision -->
<g id="node14" class="node">
<title>A_ApplicantEvaluatedByAdmissionDecision</title>
<polygon fill="lightblue" stroke="transparent" points="27.5,-983.5 27.5,-1006.5 353.5,-1006.5 353.5,-983.5 27.5,-983.5"/>
<text text-anchor="start" x="31.5" y="-992.3" font-family="Helvetica,sans-Serif" font-weight="bold" font-size="14.00">ApplicantEvaluatedByAdmissionDecision</text>
<text text-anchor="start" x="31.5" y="-968.3" font-family="Helvetica,sans-Serif" font-size="14.00">decisionReasonState : OperationalState</text>
<polygon fill="none" stroke="black" points="26.5,-959.5 26.5,-1007.5 354.5,-1007.5 354.5,-959.5 26.5,-959.5"/>
</g>
<!-- A_ApplicantEvaluatedByAdmissionDecision&#45;&gt;Applicant -->
<g id="edge1" class="edge">
<title>A_ApplicantEvaluatedByAdmissionDecision&#45;&gt;Applicant</title>
<path fill="none" stroke="#555555" d="M257.74,-1007.59C311.93,-1027.29 390.1,-1055.72 456.11,-1079.72"/>
</g>
<!-- A_ApplicantEvaluatedByAdmissionDecision&#45;&gt;AdmissionDecision -->
<g id="edge2" class="edge">
<title>A_ApplicantEvaluatedByAdmissionDecision&#45;&gt;AdmissionDecision</title>
<path fill="none" stroke="#555555" d="M354.56,-980.58C391.89,-979.91 430.84,-979.21 465.73,-978.58"/>
</g>
<!-- A_AdmissionDecisionCreatesStudent -->
<g id="node15" class="node">
<title>A_AdmissionDecisionCreatesStudent</title>
<polygon fill="lightblue" stroke="transparent" points="51.5,-899.5 51.5,-922.5 329.5,-922.5 329.5,-899.5 51.5,-899.5"/>
<text text-anchor="start" x="55.5" y="-908.3" font-family="Helvetica,sans-Serif" font-weight="bold" font-size="14.00">AdmissionDecisionCreatesStudent</text>
<text text-anchor="start" x="55.5" y="-884.3" font-family="Helvetica,sans-Serif" font-size="14.00">matriculationState : OperationalState</text>
<text text-anchor="start" x="55.5" y="-861.3" font-family="Helvetica,sans-Serif" font-size="14.00">matriculationTime : Time</text>
<polygon fill="none" stroke="black" points="50.5,-853 50.5,-924 330.5,-924 330.5,-853 50.5,-853"/>
</g>
<!-- A_AdmissionDecisionCreatesStudent&#45;&gt;AdmissionDecision -->
<g id="edge3" class="edge">
<title>A_AdmissionDecisionCreatesStudent&#45;&gt;AdmissionDecision</title>
<path fill="none" stroke="#555555" d="M330.55,-919.84C374.81,-929.81 423.29,-940.73 465.77,-950.31"/>
</g>
<!-- A_AdmissionDecisionCreatesStudent&#45;&gt;Student -->
<g id="edge4" class="edge">
<title>A_AdmissionDecisionCreatesStudent&#45;&gt;Student</title>
<path fill="none" stroke="#555555" d="M330.81,-855.14C348.34,-848.3 365.53,-840.15 381,-830.5 420.75,-805.69 417.35,-783.9 453,-753.5 459.68,-747.8 466.74,-742.15 473.98,-736.62"/>
</g>
<!-- A_CourseCatalogEntryScheduledAsCourseSection -->
<g id="node16" class="node">
<title>A_CourseCatalogEntryScheduledAsCourseSection</title>
<polygon fill="lightblue" stroke="transparent" points="1.5,-1811.5 1.5,-1834.5 380.5,-1834.5 380.5,-1811.5 1.5,-1811.5"/>
<text text-anchor="start" x="5.5" y="-1820.3" font-family="Helvetica,sans-Serif" font-weight="bold" font-size="14.00">CourseCatalogEntryScheduledAsCourseSection</text>
<text text-anchor="start" x="5.5" y="-1796.3" font-family="Helvetica,sans-Serif" font-size="14.00">scheduleState : OperationalState</text>
<polygon fill="none" stroke="black" points="0,-1787.5 0,-1835.5 381,-1835.5 381,-1787.5 0,-1787.5"/>
</g>
<!-- A_CourseCatalogEntryScheduledAsCourseSection&#45;&gt;CourseCatalogEntry -->
<g id="edge5" class="edge">
<title>A_CourseCatalogEntryScheduledAsCourseSection&#45;&gt;CourseCatalogEntry</title>
<path fill="none" stroke="#555555" d="M345.28,-1835.52C386.68,-1841.99 430.7,-1848.86 469.4,-1854.91"/>
</g>
<!-- A_CourseCatalogEntryScheduledAsCourseSection&#45;&gt;CourseSection -->
<g id="edge6" class="edge">
<title>A_CourseCatalogEntryScheduledAsCourseSection&#45;&gt;CourseSection</title>
<path fill="none" stroke="#555555" d="M223.45,-1787.33C272.08,-1750.87 368,-1680.27 453,-1625.5 461.49,-1620.03 470.39,-1614.48 479.38,-1609.01"/>
</g>
<!-- A_TermContainsCourseSection -->
<g id="node17" class="node">
<title>A_TermContainsCourseSection</title>
<polygon fill="lightblue" stroke="transparent" points="48.5,-1610.5 48.5,-1633.5 333.5,-1633.5 333.5,-1610.5 48.5,-1610.5"/>
<text text-anchor="start" x="80.5" y="-1619.3" font-family="Helvetica,sans-Serif" font-weight="bold" font-size="14.00">TermContainsCourseSection</text>
<text text-anchor="start" x="52.5" y="-1595.3" font-family="Helvetica,sans-Serif" font-size="14.00">deliveryWindowState : OperationalState</text>
<polygon fill="none" stroke="black" points="47,-1586.5 47,-1634.5 334,-1634.5 334,-1586.5 47,-1586.5"/>
</g>
<!-- A_TermContainsCourseSection&#45;&gt;Term -->
<g id="edge7" class="edge">
<title>A_TermContainsCourseSection&#45;&gt;Term</title>
<path fill="none" stroke="#555555" d="M284.54,-1634.56C342.85,-1649.65 418.11,-1669.11 478.33,-1684.69"/>
</g>
<!-- A_TermContainsCourseSection&#45;&gt;CourseSection -->
<g id="edge8" class="edge">
<title>A_TermContainsCourseSection&#45;&gt;CourseSection</title>
<path fill="none" stroke="#555555" d="M334.14,-1588.58C377.6,-1581.91 424.83,-1574.65 466.28,-1568.28"/>
</g>
<!-- A_InstructorAssignmentAssignedToCourseSection -->
<g id="node18" class="node">
<title>A_InstructorAssignmentAssignedToCourseSection</title>
<polygon fill="lightblue" stroke="transparent" points="1.5,-1471.5 1.5,-1494.5 380.5,-1494.5 380.5,-1471.5 1.5,-1471.5"/>
<text text-anchor="start" x="5.5" y="-1480.3" font-family="Helvetica,sans-Serif" font-weight="bold" font-size="14.00">InstructorAssignmentAssignedToCourseSection</text>
<text text-anchor="start" x="5.5" y="-1456.3" font-family="Helvetica,sans-Serif" font-size="14.00">teachingRoleState : OperationalState</text>
<polygon fill="none" stroke="black" points="0,-1447.5 0,-1495.5 381,-1495.5 381,-1447.5 0,-1447.5"/>
</g>
<!-- A_InstructorAssignmentAssignedToCourseSection&#45;&gt;CourseSection -->
<g id="edge10" class="edge">
<title>A_InstructorAssignmentAssignedToCourseSection&#45;&gt;CourseSection</title>
<path fill="none" stroke="#555555" d="M310.25,-1495.52C359.84,-1505.56 417.25,-1517.17 466.49,-1527.13"/>
</g>
<!-- A_InstructorAssignmentAssignedToCourseSection&#45;&gt;InstructorAssignment -->
<g id="edge9" class="edge">
<title>A_InstructorAssignmentAssignedToCourseSection&#45;&gt;InstructorAssignment</title>
<path fill="none" stroke="#555555" d="M350.61,-1447.46C385.01,-1442.26 420.96,-1436.83 453.98,-1431.84"/>
</g>
<!-- A_StudentCreatesRegistration -->
<g id="node19" class="node">
<title>A_StudentCreatesRegistration</title>
<polygon fill="lightblue" stroke="transparent" points="42.5,-1100.5 42.5,-1123.5 338.5,-1123.5 338.5,-1100.5 42.5,-1100.5"/>
<text text-anchor="start" x="80" y="-1109.3" font-family="Helvetica,sans-Serif" font-weight="bold" font-size="14.00">StudentCreatesRegistration</text>
<text text-anchor="start" x="46.5" y="-1085.3" font-family="Helvetica,sans-Serif" font-size="14.00">registrationIntentState : OperationalState</text>
<polygon fill="none" stroke="black" points="41.5,-1076.5 41.5,-1124.5 339.5,-1124.5 339.5,-1076.5 41.5,-1076.5"/>
</g>
<!-- A_StudentCreatesRegistration&#45;&gt;Student -->
<g id="edge11" class="edge">
<title>A_StudentCreatesRegistration&#45;&gt;Student</title>
<path fill="none" stroke="#555555" d="M298.56,-1076.35C328.84,-1064.84 359.39,-1048 381,-1023.5 463.15,-930.35 380.94,-854.65 453,-753.5 457.23,-747.56 462.01,-741.9 467.16,-736.54"/>
</g>
<!-- A_StudentCreatesRegistration&#45;&gt;Registration -->
<g id="edge12" class="edge">
<title>A_StudentCreatesRegistration&#45;&gt;Registration</title>
<path fill="none" stroke="#555555" d="M264.38,-1124.5C299.98,-1136.87 343.2,-1152.83 381,-1169.5 412.52,-1183.4 445.98,-1200.06 476.36,-1215.98"/>
</g>
<!-- A_RegistrationAppliesToCourseSection -->
<g id="node20" class="node">
<title>A_RegistrationAppliesToCourseSection</title>
<polygon fill="lightblue" stroke="transparent" points="44.5,-1303.5 44.5,-1326.5 337.5,-1326.5 337.5,-1303.5 44.5,-1303.5"/>
<text text-anchor="start" x="48.5" y="-1312.3" font-family="Helvetica,sans-Serif" font-weight="bold" font-size="14.00">RegistrationAppliesToCourseSection</text>
<text text-anchor="start" x="48.5" y="-1288.3" font-family="Helvetica,sans-Serif" font-size="14.00">seatState : OperationalState</text>
<polygon fill="none" stroke="black" points="43,-1279.5 43,-1327.5 338,-1327.5 338,-1279.5 43,-1279.5"/>
</g>
<!-- A_RegistrationAppliesToCourseSection&#45;&gt;CourseSection -->
<g id="edge14" class="edge">
<title>A_RegistrationAppliesToCourseSection&#45;&gt;CourseSection</title>
<path fill="none" stroke="#555555" d="M227.05,-1327.78C276.99,-1361.68 370.98,-1424.74 453,-1475.5 461.7,-1480.89 470.79,-1486.39 479.94,-1491.86"/>
</g>
<!-- A_RegistrationAppliesToCourseSection&#45;&gt;Registration -->
<g id="edge13" class="edge">
<title>A_RegistrationAppliesToCourseSection&#45;&gt;Registration</title>
<path fill="none" stroke="#555555" d="M338.02,-1292.62C376.22,-1289.78 417.07,-1286.75 454.21,-1283.99"/>
</g>
<!-- A_CourseSectionGeneratesLearningActivity -->
<g id="node21" class="node">
<title>A_CourseSectionGeneratesLearningActivity</title>
<polygon fill="lightblue" stroke="transparent" points="24.5,-1209.5 24.5,-1232.5 356.5,-1232.5 356.5,-1209.5 24.5,-1209.5"/>
<text text-anchor="start" x="28.5" y="-1218.3" font-family="Helvetica,sans-Serif" font-weight="bold" font-size="14.00">CourseSectionGeneratesLearningActivity</text>
<text text-anchor="start" x="28.5" y="-1194.3" font-family="Helvetica,sans-Serif" font-size="14.00">activityFrequency : TemporalFrequency</text>
<polygon fill="none" stroke="black" points="23.5,-1185.5 23.5,-1233.5 357.5,-1233.5 357.5,-1185.5 23.5,-1185.5"/>
</g>
<!-- A_CourseSectionGeneratesLearningActivity&#45;&gt;CourseSection -->
<g id="edge15" class="edge">
<title>A_CourseSectionGeneratesLearningActivity&#45;&gt;CourseSection</title>
<path fill="none" stroke="#555555" d="M334.26,-1233.52C351.45,-1241 367.62,-1250.77 381,-1263.5 453.09,-1332.09 389.98,-1398.49 453,-1475.5 457.76,-1481.31 463.09,-1486.77 468.81,-1491.88"/>
</g>
<!-- A_CourseSectionGeneratesLearningActivity&#45;&gt;LearningActivity -->
<g id="edge16" class="edge">
<title>A_CourseSectionGeneratesLearningActivity&#45;&gt;LearningActivity</title>
<path fill="none" stroke="#555555" d="M309.75,-1185.36C336.03,-1175.22 361.75,-1160.85 381,-1140.5 456.95,-1060.22 384.46,-989.19 453,-902.5 457.9,-896.3 463.46,-890.52 469.46,-885.13"/>
</g>
<!-- A_LearningActivityGeneratesAssessment -->
<g id="node22" class="node">
<title>A_LearningActivityGeneratesAssessment</title>
<polygon fill="lightblue" stroke="transparent" points="34.5,-699.5 34.5,-722.5 346.5,-722.5 346.5,-699.5 34.5,-699.5"/>
<text text-anchor="start" x="38.5" y="-708.3" font-family="Helvetica,sans-Serif" font-weight="bold" font-size="14.00">LearningActivityGeneratesAssessment</text>
<text text-anchor="start" x="38.5" y="-684.3" font-family="Helvetica,sans-Serif" font-size="14.00">assessmentTypeState : OperationalState</text>
<polygon fill="none" stroke="black" points="33.5,-675.5 33.5,-723.5 347.5,-723.5 347.5,-675.5 33.5,-675.5"/>
</g>
<!-- A_LearningActivityGeneratesAssessment&#45;&gt;LearningActivity -->
<g id="edge17" class="edge">
<title>A_LearningActivityGeneratesAssessment&#45;&gt;LearningActivity</title>
<path fill="none" stroke="#555555" d="M288.47,-723.54C318.33,-731.5 351.19,-740.81 381,-750.5 409.87,-759.89 440.67,-771.07 469.25,-781.97"/>
</g>
<!-- A_LearningActivityGeneratesAssessment&#45;&gt;Assessment -->
<g id="edge18" class="edge">
<title>A_LearningActivityGeneratesAssessment&#45;&gt;Assessment</title>
<path fill="none" stroke="#555555" d="M284.71,-675.44C316.24,-665.51 351.04,-652.52 381,-636.5 416.75,-617.39 419.4,-603.18 453,-580.5 461.16,-574.99 469.74,-569.47 478.43,-564.05"/>
</g>
<!-- A_StudentParticipatesInLearningActivity -->
<g id="node23" class="node">
<title>A_StudentParticipatesInLearningActivity</title>
<polygon fill="lightblue" stroke="transparent" points="36.5,-790.5 36.5,-813.5 345.5,-813.5 345.5,-790.5 36.5,-790.5"/>
<text text-anchor="start" x="40.5" y="-799.3" font-family="Helvetica,sans-Serif" font-weight="bold" font-size="14.00">StudentParticipatesInLearningActivity</text>
<text text-anchor="start" x="40.5" y="-775.3" font-family="Helvetica,sans-Serif" font-size="14.00">participationState : OperationalState</text>
<polygon fill="none" stroke="black" points="35,-766.5 35,-814.5 346,-814.5 346,-766.5 35,-766.5"/>
</g>
<!-- A_StudentParticipatesInLearningActivity&#45;&gt;Student -->
<g id="edge19" class="edge">
<title>A_StudentParticipatesInLearningActivity&#45;&gt;Student</title>
<path fill="none" stroke="#555555" d="M287.39,-766.4C317.51,-758.37 350.78,-749.03 381,-739.5 408,-730.98 436.74,-721.06 463.8,-711.33"/>
</g>
<!-- A_StudentParticipatesInLearningActivity&#45;&gt;LearningActivity -->
<g id="edge20" class="edge">
<title>A_StudentParticipatesInLearningActivity&#45;&gt;LearningActivity</title>
<path fill="none" stroke="#555555" d="M346.12,-805.15C387.24,-809.05 430.87,-813.18 469.29,-816.82"/>
</g>
<!-- A_StudentCompletesAssessment -->
<g id="node24" class="node">
<title>A_StudentCompletesAssessment</title>
<polygon fill="lightblue" stroke="transparent" points="63.5,-595.5 63.5,-618.5 317.5,-618.5 317.5,-595.5 63.5,-595.5"/>
<text text-anchor="start" x="70.5" y="-604.3" font-family="Helvetica,sans-Serif" font-weight="bold" font-size="14.00">StudentCompletesAssessment</text>
<text text-anchor="start" x="67.5" y="-580.3" font-family="Helvetica,sans-Serif" font-size="14.00">submissionState : OperationalState</text>
<text text-anchor="start" x="67.5" y="-557.3" font-family="Helvetica,sans-Serif" font-size="14.00">submissionTime : Time</text>
<polygon fill="none" stroke="black" points="62.5,-549 62.5,-620 318.5,-620 318.5,-549 62.5,-549"/>
</g>
<!-- A_StudentCompletesAssessment&#45;&gt;Student -->
<g id="edge21" class="edge">
<title>A_StudentCompletesAssessment&#45;&gt;Student</title>
<path fill="none" stroke="#555555" d="M318.55,-611.18C365.31,-621 418.03,-632.07 463.95,-641.71"/>
</g>
<!-- A_StudentCompletesAssessment&#45;&gt;Assessment -->
<g id="edge22" class="edge">
<title>A_StudentCompletesAssessment&#45;&gt;Assessment</title>
<path fill="none" stroke="#555555" d="M318.55,-558.8C361.52,-550.1 409.53,-540.39 452.67,-531.66"/>
</g>
<!-- A_AssessmentProducesResult -->
<g id="node25" class="node">
<title>A_AssessmentProducesResult</title>
<polygon fill="lightblue" stroke="transparent" points="67.5,-361.5 67.5,-384.5 314.5,-384.5 314.5,-361.5 67.5,-361.5"/>
<text text-anchor="start" x="82.5" y="-370.3" font-family="Helvetica,sans-Serif" font-weight="bold" font-size="14.00">AssessmentProducesResult</text>
<text text-anchor="start" x="71.5" y="-346.3" font-family="Helvetica,sans-Serif" font-size="14.00">evaluationState : OperationalState</text>
<polygon fill="none" stroke="black" points="66,-337.5 66,-385.5 315,-385.5 315,-337.5 66,-337.5"/>
</g>
<!-- A_AssessmentProducesResult&#45;&gt;Assessment -->
<g id="edge23" class="edge">
<title>A_AssessmentProducesResult&#45;&gt;Assessment</title>
<path fill="none" stroke="#555555" d="M310.97,-385.55C334.47,-391.49 358.73,-398.49 381,-406.5 412.11,-417.69 444.72,-432.37 474.41,-446.98"/>
</g>
<!-- A_AssessmentProducesResult&#45;&gt;Result -->
<g id="edge24" class="edge">
<title>A_AssessmentProducesResult&#45;&gt;Result</title>
<path fill="none" stroke="#555555" d="M315.06,-359.92C366,-359.27 424.51,-358.52 473.74,-357.89"/>
</g>
<!-- A_ResultAttributedToStudent -->
<g id="node26" class="node">
<title>A_ResultAttributedToStudent</title>
<polygon fill="lightblue" stroke="transparent" points="81.5,-446.5 81.5,-469.5 300.5,-469.5 300.5,-446.5 81.5,-446.5"/>
<text text-anchor="start" x="85.5" y="-455.3" font-family="Helvetica,sans-Serif" font-weight="bold" font-size="14.00">ResultAttributedToStudent</text>
<text text-anchor="start" x="85.5" y="-431.3" font-family="Helvetica,sans-Serif" font-size="14.00">recordState : OperationalState</text>
<polygon fill="none" stroke="black" points="80,-422.5 80,-470.5 301,-470.5 301,-422.5 80,-422.5"/>
</g>
<!-- A_ResultAttributedToStudent&#45;&gt;Student -->
<g id="edge26" class="edge">
<title>A_ResultAttributedToStudent&#45;&gt;Student</title>
<path fill="none" stroke="#555555" d="M249.86,-470.52C287.93,-486.85 338.29,-509.75 381,-533.5 386.49,-536.55 430.99,-565.96 476.73,-596.36"/>
</g>
<!-- A_ResultAttributedToStudent&#45;&gt;Result -->
<g id="edge25" class="edge">
<title>A_ResultAttributedToStudent&#45;&gt;Result</title>
<path fill="none" stroke="#555555" d="M295.63,-422.5C350.65,-409.82 418.11,-394.27 473.73,-381.45"/>
</g>
<!-- A_StudentEvaluatedByProgressEvaluation -->
<g id="node27" class="node">
<title>A_StudentEvaluatedByProgressEvaluation</title>
<polygon fill="lightblue" stroke="transparent" points="29.5,-244.5 29.5,-267.5 351.5,-267.5 351.5,-244.5 29.5,-244.5"/>
<text text-anchor="start" x="33.5" y="-253.3" font-family="Helvetica,sans-Serif" font-weight="bold" font-size="14.00">StudentEvaluatedByProgressEvaluation</text>
<text text-anchor="start" x="33.5" y="-229.3" font-family="Helvetica,sans-Serif" font-size="14.00">standingState : OperationalState</text>
<polygon fill="none" stroke="black" points="28.5,-220.5 28.5,-268.5 352.5,-268.5 352.5,-220.5 28.5,-220.5"/>
</g>
<!-- A_StudentEvaluatedByProgressEvaluation&#45;&gt;Student -->
<g id="edge27" class="edge">
<title>A_StudentEvaluatedByProgressEvaluation&#45;&gt;Student</title>
<path fill="none" stroke="#555555" d="M297.91,-268.6C328.34,-280.12 359.14,-296.98 381,-321.5 460.5,-410.69 382.9,-483.75 453,-580.5 457.03,-586.06 461.53,-591.36 466.38,-596.41"/>
</g>
<!-- A_StudentEvaluatedByProgressEvaluation&#45;&gt;ProgressEvaluation -->
<g id="edge28" class="edge">
<title>A_StudentEvaluatedByProgressEvaluation&#45;&gt;ProgressEvaluation</title>
<path fill="none" stroke="#555555" d="M352.59,-229.24C389.98,-225.69 429.1,-221.99 464.23,-218.66"/>
</g>
<!-- A_ProgressEvaluationProducesCredential -->
<g id="node28" class="node">
<title>A_ProgressEvaluationProducesCredential</title>
<polygon fill="lightblue" stroke="transparent" points="32.5,-130.5 32.5,-153.5 348.5,-153.5 348.5,-130.5 32.5,-130.5"/>
<text text-anchor="start" x="36.5" y="-139.3" font-family="Helvetica,sans-Serif" font-weight="bold" font-size="14.00">ProgressEvaluationProducesCredential</text>
<text text-anchor="start" x="36.5" y="-115.3" font-family="Helvetica,sans-Serif" font-size="14.00">completionState : OperationalState</text>
<polygon fill="none" stroke="black" points="31.5,-106.5 31.5,-154.5 349.5,-154.5 349.5,-106.5 31.5,-106.5"/>
</g>
<!-- A_ProgressEvaluationProducesCredential&#45;&gt;ProgressEvaluation -->
<g id="edge29" class="edge">
<title>A_ProgressEvaluationProducesCredential&#45;&gt;ProgressEvaluation</title>
<path fill="none" stroke="#555555" d="M313.45,-154.55C361.56,-164.03 416.62,-174.89 464.31,-184.29"/>
</g>
<!-- A_ProgressEvaluationProducesCredential&#45;&gt;Credential -->
<g id="edge30" class="edge">
<title>A_ProgressEvaluationProducesCredential&#45;&gt;Credential</title>
<path fill="none" stroke="#555555" d="M321.8,-106.48C366.49,-98.23 416.31,-89.05 460.29,-80.94"/>
</g>
</g>
</svg>
