<?xml version="1.0" encoding="UTF-8" standalone="no"?>
<!DOCTYPE svg PUBLIC "-//W3C//DTD SVG 1.1//EN"
 "http://www.w3.org/Graphics/SVG/1.1/DTD/svg11.dtd">
<!-- Generated by graphviz version 2.42.4 (0)
 -->
<!-- Title: ERD Pages: 1 -->
<svg width="789pt" height="2644pt"
 viewBox="0.00 0.00 789.20 2644.20" xmlns="http://www.w3.org/2000/svg" xmlns:xlink="http://www.w3.org/1999/xlink">
<g id="graph0" class="graph" transform="scale(1 1) rotate(0) translate(21.6 2622.6)">
<title>ERD</title>
<polygon fill="white" stroke="transparent" points="-21.6,21.6 -21.6,-2622.6 767.6,-2622.6 767.6,21.6 -21.6,21.6"/>
<text text-anchor="middle" x="373" y="-2582.6" font-family="Times,serif" font-size="18.00">University Institutional Hierarchy Model</text>
<!-- University -->
<g id="node1" class="node">
<title>University</title>
<polygon fill="lightgray" stroke="transparent" points="452.5,-1952.5 452.5,-1975.5 734.5,-1975.5 734.5,-1952.5 452.5,-1952.5"/>
<text text-anchor="start" x="553.5" y="-1961.3" font-family="Helvetica,sans-Serif" font-weight="bold" font-size="14.00">University</text>
<text text-anchor="start" x="456.5" y="-1937.3" font-family="Helvetica,sans-Serif" font-size="14.00">universityID : Identifier</text>
<text text-anchor="start" x="456.5" y="-1914.3" font-family="Helvetica,sans-Serif" font-size="14.00">universityName : Name</text>
<text text-anchor="start" x="456.5" y="-1891.3" font-family="Helvetica,sans-Serif" font-size="14.00">institutionalState : OperationalState</text>
<text text-anchor="start" x="456.5" y="-1868.3" font-family="Helvetica,sans-Serif" font-size="14.00">mainPosition : Position</text>
<text text-anchor="start" x="456.5" y="-1845.3" font-family="Helvetica,sans-Serif" font-size="14.00">mainExtent : Extent</text>
<text text-anchor="start" x="456.5" y="-1822.3" font-family="Helvetica,sans-Serif" font-size="14.00">collegeCount : Count</text>
<text text-anchor="start" x="456.5" y="-1799.3" font-family="Helvetica,sans-Serif" font-size="14.00">departmentCount : Count</text>
<text text-anchor="start" x="456.5" y="-1776.3" font-family="Helvetica,sans-Serif" font-size="14.00">studentCount : Count</text>
<text text-anchor="start" x="456.5" y="-1753.3" font-family="Helvetica,sans-Serif" font-size="14.00">employeeCount : Count</text>
<text text-anchor="start" x="456.5" y="-1730.3" font-family="Helvetica,sans-Serif" font-size="14.00">academicCalendar : AcademicCalendar</text>
<text text-anchor="start" x="456.5" y="-1707.3" font-family="Helvetica,sans-Serif" font-size="14.00">governanceBody : GovernanceBody</text>
<text text-anchor="start" x="456.5" y="-1684.3" font-family="Helvetica,sans-Serif" font-size="14.00">admissionsSystem : AdmissionsSystem</text>
<text text-anchor="start" x="456.5" y="-1661.3" font-family="Helvetica,sans-Serif" font-size="14.00">... 4 more</text>
<polygon fill="none" stroke="black" points="451.5,-1652.5 451.5,-1976.5 735.5,-1976.5 735.5,-1652.5 451.5,-1652.5"/>
</g>
<!-- GovernanceBody -->
<g id="node2" class="node">
<title>GovernanceBody</title>
<polygon fill="lightgray" stroke="transparent" points="465.5,-2250.5 465.5,-2273.5 721.5,-2273.5 721.5,-2250.5 465.5,-2250.5"/>
<text text-anchor="start" x="527" y="-2259.3" font-family="Helvetica,sans-Serif" font-weight="bold" font-size="14.00">GovernanceBody</text>
<text text-anchor="start" x="469.5" y="-2235.3" font-family="Helvetica,sans-Serif" font-size="14.00">governanceBodyID : Identifier</text>
<text text-anchor="start" x="469.5" y="-2212.3" font-family="Helvetica,sans-Serif" font-size="14.00">governanceState : OperationalState</text>
<text text-anchor="start" x="469.5" y="-2189.3" font-family="Helvetica,sans-Serif" font-size="14.00">memberCount : Count</text>
<text text-anchor="start" x="469.5" y="-2166.3" font-family="Helvetica,sans-Serif" font-size="14.00">decisionCount : Count</text>
<polygon fill="none" stroke="black" points="464.5,-2158 464.5,-2275 722.5,-2275 722.5,-2158 464.5,-2158"/>
</g>
<!-- AcademicCalendar -->
<g id="node3" class="node">
<title>AcademicCalendar</title>
<polygon fill="lightgray" stroke="transparent" points="469.5,-2101.5 469.5,-2124.5 718.5,-2124.5 718.5,-2101.5 469.5,-2101.5"/>
<text text-anchor="start" x="521" y="-2110.3" font-family="Helvetica,sans-Serif" font-weight="bold" font-size="14.00">AcademicCalendar</text>
<text text-anchor="start" x="473.5" y="-2086.3" font-family="Helvetica,sans-Serif" font-size="14.00">calendarID : Identifier</text>
<text text-anchor="start" x="473.5" y="-2063.3" font-family="Helvetica,sans-Serif" font-size="14.00">calendarState : OperationalState</text>
<text text-anchor="start" x="473.5" y="-2040.3" font-family="Helvetica,sans-Serif" font-size="14.00">termCount : Count</text>
<text text-anchor="start" x="473.5" y="-2017.3" font-family="Helvetica,sans-Serif" font-size="14.00">activeTermState : OperationalState</text>
<polygon fill="none" stroke="black" points="468,-2009 468,-2126 719,-2126 719,-2009 468,-2009"/>
</g>
<!-- College -->
<g id="node4" class="node">
<title>College</title>
<polygon fill="lightgray" stroke="transparent" points="481.5,-1596.5 481.5,-1619.5 705.5,-1619.5 705.5,-1596.5 481.5,-1596.5"/>
<text text-anchor="start" x="564" y="-1605.3" font-family="Helvetica,sans-Serif" font-weight="bold" font-size="14.00">College</text>
<text text-anchor="start" x="485.5" y="-1581.3" font-family="Helvetica,sans-Serif" font-size="14.00">collegeID : Identifier</text>
<text text-anchor="start" x="485.5" y="-1558.3" font-family="Helvetica,sans-Serif" font-size="14.00">collegeName : Name</text>
<text text-anchor="start" x="485.5" y="-1535.3" font-family="Helvetica,sans-Serif" font-size="14.00">collegeState : OperationalState</text>
<text text-anchor="start" x="485.5" y="-1512.3" font-family="Helvetica,sans-Serif" font-size="14.00">departmentCount : Count</text>
<text text-anchor="start" x="485.5" y="-1489.3" font-family="Helvetica,sans-Serif" font-size="14.00">programCount : Count</text>
<polygon fill="none" stroke="black" points="480.5,-1480.5 480.5,-1620.5 706.5,-1620.5 706.5,-1480.5 480.5,-1480.5"/>
</g>
<!-- Department -->
<g id="node5" class="node">
<title>Department</title>
<polygon fill="lightgray" stroke="transparent" points="465.5,-1274.5 465.5,-1297.5 722.5,-1297.5 722.5,-1274.5 465.5,-1274.5"/>
<text text-anchor="start" x="546.5" y="-1283.3" font-family="Helvetica,sans-Serif" font-weight="bold" font-size="14.00">Department</text>
<text text-anchor="start" x="469.5" y="-1259.3" font-family="Helvetica,sans-Serif" font-size="14.00">departmentID : Identifier</text>
<text text-anchor="start" x="469.5" y="-1236.3" font-family="Helvetica,sans-Serif" font-size="14.00">departmentName : Name</text>
<text text-anchor="start" x="469.5" y="-1213.3" font-family="Helvetica,sans-Serif" font-size="14.00">departmentState : OperationalState</text>
<text text-anchor="start" x="469.5" y="-1190.3" font-family="Helvetica,sans-Serif" font-size="14.00">facultyCount : Count</text>
<text text-anchor="start" x="469.5" y="-1167.3" font-family="Helvetica,sans-Serif" font-size="14.00">courseCount : Count</text>
<polygon fill="none" stroke="black" points="464,-1158.5 464,-1298.5 723,-1298.5 723,-1158.5 464,-1158.5"/>
</g>
<!-- Program -->
<g id="node6" class="node">
<title>Program</title>
<polygon fill="lightgray" stroke="transparent" points="476.5,-930.5 476.5,-953.5 710.5,-953.5 710.5,-930.5 476.5,-930.5"/>
<text text-anchor="start" x="559.5" y="-939.3" font-family="Helvetica,sans-Serif" font-weight="bold" font-size="14.00">Program</text>
<text text-anchor="start" x="480.5" y="-915.3" font-family="Helvetica,sans-Serif" font-size="14.00">programID : Identifier</text>
<text text-anchor="start" x="480.5" y="-892.3" font-family="Helvetica,sans-Serif" font-size="14.00">programName : Name</text>
<text text-anchor="start" x="480.5" y="-869.3" font-family="Helvetica,sans-Serif" font-size="14.00">programState : OperationalState</text>
<text text-anchor="start" x="480.5" y="-846.3" font-family="Helvetica,sans-Serif" font-size="14.00">requiredCreditCount : Count</text>
<text text-anchor="start" x="480.5" y="-823.3" font-family="Helvetica,sans-Serif" font-size="14.00">concentrationCount : Count</text>
<polygon fill="none" stroke="black" points="475.5,-814.5 475.5,-954.5 711.5,-954.5 711.5,-814.5 475.5,-814.5"/>
</g>
<!-- Course -->
<g id="node7" class="node">
<title>Course</title>
<polygon fill="lightgray" stroke="transparent" points="482.5,-758.5 482.5,-781.5 704.5,-781.5 704.5,-758.5 482.5,-758.5"/>
<text text-anchor="start" x="566" y="-767.3" font-family="Helvetica,sans-Serif" font-weight="bold" font-size="14.00">Course</text>
<text text-anchor="start" x="486.5" y="-743.3" font-family="Helvetica,sans-Serif" font-size="14.00">courseID : Identifier</text>
<text text-anchor="start" x="486.5" y="-720.3" font-family="Helvetica,sans-Serif" font-size="14.00">courseName : Name</text>
<text text-anchor="start" x="486.5" y="-697.3" font-family="Helvetica,sans-Serif" font-size="14.00">courseState : OperationalState</text>
<text text-anchor="start" x="486.5" y="-674.3" font-family="Helvetica,sans-Serif" font-size="14.00">creditCount : Count</text>
<text text-anchor="start" x="486.5" y="-651.3" font-family="Helvetica,sans-Serif" font-size="14.00">courseLevel : Order</text>
<polygon fill="none" stroke="black" points="481.5,-642.5 481.5,-782.5 705.5,-782.5 705.5,-642.5 481.5,-642.5"/>
</g>
<!-- Student -->
<g id="node8" class="node">
<title>Student</title>
<polygon fill="lightgray" stroke="transparent" points="442.5,-436.5 442.5,-459.5 745.5,-459.5 745.5,-436.5 442.5,-436.5"/>
<text text-anchor="start" x="562.5" y="-445.3" font-family="Helvetica,sans-Serif" font-weight="bold" font-size="14.00">Student</text>
<text text-anchor="start" x="446.5" y="-421.3" font-family="Helvetica,sans-Serif" font-size="14.00">studentID : Identifier</text>
<text text-anchor="start" x="446.5" y="-398.3" font-family="Helvetica,sans-Serif" font-size="14.00">studentName : Name</text>
<text text-anchor="start" x="446.5" y="-375.3" font-family="Helvetica,sans-Serif" font-size="14.00">studentState : OperationalState</text>
<text text-anchor="start" x="446.5" y="-352.3" font-family="Helvetica,sans-Serif" font-size="14.00">admissionState : OperationalState</text>
<text text-anchor="start" x="446.5" y="-329.3" font-family="Helvetica,sans-Serif" font-size="14.00">academicStandingState : OperationalState</text>
<text text-anchor="start" x="446.5" y="-306.3" font-family="Helvetica,sans-Serif" font-size="14.00">earnedCreditCount : Count</text>
<polygon fill="none" stroke="black" points="441,-298 441,-461 746,-461 746,-298 441,-298"/>
</g>
<!-- FacultyMember -->
<g id="node9" class="node">
<title>FacultyMember</title>
<polygon fill="lightgray" stroke="transparent" points="482.5,-1102.5 482.5,-1125.5 704.5,-1125.5 704.5,-1102.5 482.5,-1102.5"/>
<text text-anchor="start" x="532.5" y="-1111.3" font-family="Helvetica,sans-Serif" font-weight="bold" font-size="14.00">FacultyMember</text>
<text text-anchor="start" x="486.5" y="-1087.3" font-family="Helvetica,sans-Serif" font-size="14.00">facultyMemberID : Identifier</text>
<text text-anchor="start" x="486.5" y="-1064.3" font-family="Helvetica,sans-Serif" font-size="14.00">facultyMemberName : Name</text>
<text text-anchor="start" x="486.5" y="-1041.3" font-family="Helvetica,sans-Serif" font-size="14.00">facultyState : OperationalState</text>
<text text-anchor="start" x="486.5" y="-1018.3" font-family="Helvetica,sans-Serif" font-size="14.00">rankState : OperationalState</text>
<text text-anchor="start" x="486.5" y="-995.3" font-family="Helvetica,sans-Serif" font-size="14.00">teachingLoadCount : Count</text>
<polygon fill="none" stroke="black" points="481.5,-986.5 481.5,-1126.5 705.5,-1126.5 705.5,-986.5 481.5,-986.5"/>
</g>
<!-- StaffMember -->
<g id="node10" class="node">
<title>StaffMember</title>
<polygon fill="lightgray" stroke="transparent" points="465.5,-2548.5 465.5,-2571.5 721.5,-2571.5 721.5,-2548.5 465.5,-2548.5"/>
<text text-anchor="start" x="542" y="-2557.3" font-family="Helvetica,sans-Serif" font-weight="bold" font-size="14.00">StaffMember</text>
<text text-anchor="start" x="469.5" y="-2533.3" font-family="Helvetica,sans-Serif" font-size="14.00">staffMemberID : Identifier</text>
<text text-anchor="start" x="469.5" y="-2510.3" font-family="Helvetica,sans-Serif" font-size="14.00">staffMemberName : Name</text>
<text text-anchor="start" x="469.5" y="-2487.3" font-family="Helvetica,sans-Serif" font-size="14.00">staffState : OperationalState</text>
<text text-anchor="start" x="469.5" y="-2464.3" font-family="Helvetica,sans-Serif" font-size="14.00">serviceAreaState : OperationalState</text>
<polygon fill="none" stroke="black" points="464.5,-2456 464.5,-2573 722.5,-2573 722.5,-2456 464.5,-2456"/>
</g>
<!-- AdmissionsSystem -->
<g id="node11" class="node">
<title>AdmissionsSystem</title>
<polygon fill="lightgray" stroke="transparent" points="467.5,-241.5 467.5,-264.5 720.5,-264.5 720.5,-241.5 467.5,-241.5"/>
<text text-anchor="start" x="521" y="-250.3" font-family="Helvetica,sans-Serif" font-weight="bold" font-size="14.00">AdmissionsSystem</text>
<text text-anchor="start" x="471.5" y="-226.3" font-family="Helvetica,sans-Serif" font-size="14.00">admissionsSystemID : Identifier</text>
<text text-anchor="start" x="471.5" y="-203.3" font-family="Helvetica,sans-Serif" font-size="14.00">admissionsState : OperationalState</text>
<text text-anchor="start" x="471.5" y="-180.3" font-family="Helvetica,sans-Serif" font-size="14.00">applicationCount : Count</text>
<text text-anchor="start" x="471.5" y="-157.3" font-family="Helvetica,sans-Serif" font-size="14.00">decisionCount : Count</text>
<polygon fill="none" stroke="black" points="466,-149 466,-266 721,-266 721,-149 466,-149"/>
</g>
<!-- AcademicSystem -->
<g id="node12" class="node">
<title>AcademicSystem</title>
<polygon fill="lightgray" stroke="transparent" points="473.5,-585.5 473.5,-608.5 714.5,-608.5 714.5,-585.5 473.5,-585.5"/>
<text text-anchor="start" x="527.5" y="-594.3" font-family="Helvetica,sans-Serif" font-weight="bold" font-size="14.00">AcademicSystem</text>
<text text-anchor="start" x="477.5" y="-570.3" font-family="Helvetica,sans-Serif" font-size="14.00">academicSystemID : Identifier</text>
<text text-anchor="start" x="477.5" y="-547.3" font-family="Helvetica,sans-Serif" font-size="14.00">academicState : OperationalState</text>
<text text-anchor="start" x="477.5" y="-524.3" font-family="Helvetica,sans-Serif" font-size="14.00">termCourseCount : Count</text>
<text text-anchor="start" x="477.5" y="-501.3" font-family="Helvetica,sans-Serif" font-size="14.00">termEnrollmentCount : Count</text>
<polygon fill="none" stroke="black" points="472,-493 472,-610 715,-610 715,-493 472,-493"/>
</g>
<!-- StudentServicesSystem -->
<g id="node13" class="node">
<title>StudentServicesSystem</title>
<polygon fill="lightgray" stroke="transparent" points="461.5,-2399.5 461.5,-2422.5 725.5,-2422.5 725.5,-2399.5 461.5,-2399.5"/>
<text text-anchor="start" x="500" y="-2408.3" font-family="Helvetica,sans-Serif" font-weight="bold" font-size="14.00">StudentServicesSystem</text>
<text text-anchor="start" x="465.5" y="-2384.3" font-family="Helvetica,sans-Serif" font-size="14.00">studentServicesSystemID : Identifier</text>
<text text-anchor="start" x="465.5" y="-2361.3" font-family="Helvetica,sans-Serif" font-size="14.00">servicesState : OperationalState</text>
<text text-anchor="start" x="465.5" y="-2338.3" font-family="Helvetica,sans-Serif" font-size="14.00">serviceCount : Count</text>
<text text-anchor="start" x="465.5" y="-2315.3" font-family="Helvetica,sans-Serif" font-size="14.00">activeCaseCount : Count</text>
<polygon fill="none" stroke="black" points="460.5,-2307 460.5,-2424 726.5,-2424 726.5,-2307 460.5,-2307"/>
</g>
<!-- FacilitiesSystem -->
<g id="node14" class="node">
<title>FacilitiesSystem</title>
<polygon fill="lightgray" stroke="transparent" points="477.5,-1423.5 477.5,-1446.5 709.5,-1446.5 709.5,-1423.5 477.5,-1423.5"/>
<text text-anchor="start" x="529.5" y="-1432.3" font-family="Helvetica,sans-Serif" font-weight="bold" font-size="14.00">FacilitiesSystem</text>
<text text-anchor="start" x="481.5" y="-1408.3" font-family="Helvetica,sans-Serif" font-size="14.00">facilitiesSystemID : Identifier</text>
<text text-anchor="start" x="481.5" y="-1385.3" font-family="Helvetica,sans-Serif" font-size="14.00">facilitiesState : OperationalState</text>
<text text-anchor="start" x="481.5" y="-1362.3" font-family="Helvetica,sans-Serif" font-size="14.00">buildingCount : Count</text>
<text text-anchor="start" x="481.5" y="-1339.3" font-family="Helvetica,sans-Serif" font-size="14.00">roomCount : Count</text>
<polygon fill="none" stroke="black" points="476.5,-1331 476.5,-1448 710.5,-1448 710.5,-1331 476.5,-1331"/>
</g>
<!-- FinanceSystem -->
<g id="node15" class="node">
<title>FinanceSystem</title>
<polygon fill="lightgray" stroke="transparent" points="480.5,-92.5 480.5,-115.5 706.5,-115.5 706.5,-92.5 480.5,-92.5"/>
<text text-anchor="start" x="533.5" y="-101.3" font-family="Helvetica,sans-Serif" font-weight="bold" font-size="14.00">FinanceSystem</text>
<text text-anchor="start" x="484.5" y="-77.3" font-family="Helvetica,sans-Serif" font-size="14.00">financeSystemID : Identifier</text>
<text text-anchor="start" x="484.5" y="-54.3" font-family="Helvetica,sans-Serif" font-size="14.00">financeState : OperationalState</text>
<text text-anchor="start" x="484.5" y="-31.3" font-family="Helvetica,sans-Serif" font-size="14.00">budgetAmount : Money</text>
<text text-anchor="start" x="484.5" y="-8.3" font-family="Helvetica,sans-Serif" font-size="14.00">tuitionAmount : Money</text>
<polygon fill="none" stroke="black" points="479.5,0 479.5,-117 707.5,-117 707.5,0 479.5,0"/>
</g>
<!-- A_UniversityGovernedByGovernanceBody -->
<g id="node16" class="node">
<title>A_UniversityGovernedByGovernanceBody</title>
<polygon fill="lightblue" stroke="transparent" points="26.5,-2055.5 26.5,-2078.5 342.5,-2078.5 342.5,-2055.5 26.5,-2055.5"/>
<text text-anchor="start" x="30.5" y="-2064.3" font-family="Helvetica,sans-Serif" font-weight="bold" font-size="14.00">UniversityGovernedByGovernanceBody</text>
<text text-anchor="start" x="30.5" y="-2040.3" font-family="Helvetica,sans-Serif" font-size="14.00">governanceScopeState : OperationalState</text>
<polygon fill="none" stroke="black" points="25.5,-2031.5 25.5,-2079.5 343.5,-2079.5 343.5,-2031.5 25.5,-2031.5"/>
</g>
<!-- A_UniversityGovernedByGovernanceBody&#45;&gt;University -->
<g id="edge1" class="edge">
<title>A_UniversityGovernedByGovernanceBody&#45;&gt;University</title>
<path fill="none" stroke="#555555" d="M226.39,-2031.29C278.7,-2000.31 372.03,-1945.05 451.37,-1898.07"/>
</g>
<!-- A_UniversityGovernedByGovernanceBody&#45;&gt;GovernanceBody -->
<g id="edge2" class="edge">
<title>A_UniversityGovernedByGovernanceBody&#45;&gt;GovernanceBody</title>
<path fill="none" stroke="#555555" d="M246.43,-2079.6C303.76,-2102.28 391.41,-2136.95 464.16,-2165.73"/>
</g>
<!-- A_UniversityOperatesAcademicCalendar -->
<g id="node17" class="node">
<title>A_UniversityOperatesAcademicCalendar</title>
<polygon fill="lightblue" stroke="transparent" points="31.5,-1894.5 31.5,-1917.5 337.5,-1917.5 337.5,-1894.5 31.5,-1894.5"/>
<text text-anchor="start" x="35.5" y="-1903.3" font-family="Helvetica,sans-Serif" font-weight="bold" font-size="14.00">UniversityOperatesAcademicCalendar</text>
<text text-anchor="start" x="35.5" y="-1879.3" font-family="Helvetica,sans-Serif" font-size="14.00">activeTermState : OperationalState</text>
<polygon fill="none" stroke="black" points="30.5,-1870.5 30.5,-1918.5 338.5,-1918.5 338.5,-1870.5 30.5,-1870.5"/>
</g>
<!-- A_UniversityOperatesAcademicCalendar&#45;&gt;University -->
<g id="edge3" class="edge">
<title>A_UniversityOperatesAcademicCalendar&#45;&gt;University</title>
<path fill="none" stroke="#555555" d="M307.61,-1870.5C352.8,-1861.61 404.41,-1851.47 451.16,-1842.28"/>
</g>
<!-- A_UniversityOperatesAcademicCalendar&#45;&gt;AcademicCalendar -->
<g id="edge4" class="edge">
<title>A_UniversityOperatesAcademicCalendar&#45;&gt;AcademicCalendar</title>
<path fill="none" stroke="#555555" d="M242.09,-1918.55C300.19,-1943.25 392.5,-1982.49 467.79,-2014.49"/>
</g>
<!-- A_UniversityContainsCollege -->
<g id="node18" class="node">
<title>A_UniversityContainsCollege</title>
<polygon fill="lightblue" stroke="transparent" points="76.5,-1630.5 76.5,-1653.5 292.5,-1653.5 292.5,-1630.5 76.5,-1630.5"/>
<text text-anchor="start" x="80.5" y="-1639.3" font-family="Helvetica,sans-Serif" font-weight="bold" font-size="14.00">UniversityContainsCollege</text>
<text text-anchor="start" x="80.5" y="-1615.3" font-family="Helvetica,sans-Serif" font-size="14.00">relativePosition : Position</text>
<polygon fill="none" stroke="black" points="75.5,-1606.5 75.5,-1654.5 293.5,-1654.5 293.5,-1606.5 75.5,-1606.5"/>
</g>
<!-- A_UniversityContainsCollege&#45;&gt;University -->
<g id="edge5" class="edge">
<title>A_UniversityContainsCollege&#45;&gt;University</title>
<path fill="none" stroke="#555555" d="M238.71,-1654.55C292.47,-1678.86 377.85,-1717.46 451.26,-1750.65"/>
</g>
<!-- A_UniversityContainsCollege&#45;&gt;College -->
<g id="edge6" class="edge">
<title>A_UniversityContainsCollege&#45;&gt;College</title>
<path fill="none" stroke="#555555" d="M293.77,-1609.22C351.34,-1597.9 422.06,-1584 480.23,-1572.57"/>
</g>
<!-- A_CollegeContainsDepartment -->
<g id="node19" class="node">
<title>A_CollegeContainsDepartment</title>
<polygon fill="lightblue" stroke="transparent" points="48.5,-1469.5 48.5,-1492.5 321.5,-1492.5 321.5,-1469.5 48.5,-1469.5"/>
<text text-anchor="start" x="73.5" y="-1478.3" font-family="Helvetica,sans-Serif" font-weight="bold" font-size="14.00">CollegeContainsDepartment</text>
<text text-anchor="start" x="52.5" y="-1454.3" font-family="Helvetica,sans-Serif" font-size="14.00">organizationalState : OperationalState</text>
<polygon fill="none" stroke="black" points="47,-1445.5 47,-1493.5 322,-1493.5 322,-1445.5 47,-1445.5"/>
</g>
<!-- A_CollegeContainsDepartment&#45;&gt;College -->
<g id="edge7" class="edge">
<title>A_CollegeContainsDepartment&#45;&gt;College</title>
<path fill="none" stroke="#555555" d="M306.24,-1493.53C361.31,-1504.49 426.14,-1517.39 480.16,-1528.14"/>
</g>
<!-- A_CollegeContainsDepartment&#45;&gt;Department -->
<g id="edge8" class="edge">
<title>A_CollegeContainsDepartment&#45;&gt;Department</title>
<path fill="none" stroke="#555555" d="M224.68,-1445.25C274.64,-1414.43 363.82,-1359.8 441,-1314.5 449.87,-1309.29 459.05,-1303.95 468.31,-1298.61"/>
</g>
<!-- A_DepartmentAdministersProgram -->
<g id="node20" class="node">
<title>A_DepartmentAdministersProgram</title>
<polygon fill="lightblue" stroke="transparent" points="16.5,-1090.5 16.5,-1113.5 352.5,-1113.5 352.5,-1090.5 16.5,-1090.5"/>
<text text-anchor="start" x="56.5" y="-1099.3" font-family="Helvetica,sans-Serif" font-weight="bold" font-size="14.00">DepartmentAdministersProgram</text>
<text text-anchor="start" x="20.5" y="-1075.3" font-family="Helvetica,sans-Serif" font-size="14.00">programAdministrationState : OperationalState</text>
<polygon fill="none" stroke="black" points="15.5,-1066.5 15.5,-1114.5 353.5,-1114.5 353.5,-1066.5 15.5,-1066.5"/>
</g>
<!-- A_DepartmentAdministersProgram&#45;&gt;Department -->
<g id="edge9" class="edge">
<title>A_DepartmentAdministersProgram&#45;&gt;Department</title>
<path fill="none" stroke="#555555" d="M311.75,-1114.55C331.09,-1119.23 350.7,-1124.56 369,-1130.5 400.33,-1140.67 433.25,-1153.71 463.89,-1166.92"/>
</g>
<!-- A_DepartmentAdministersProgram&#45;&gt;Program -->
<g id="edge10" class="edge">
<title>A_DepartmentAdministersProgram&#45;&gt;Program</title>
<path fill="none" stroke="#555555" d="M332.37,-1066.36C345.16,-1061.7 357.57,-1056.14 369,-1049.5 410.09,-1025.66 403.88,-1000.15 441,-970.5 451.75,-961.91 463.47,-953.66 475.47,-945.89"/>
</g>
<!-- A_DepartmentOffersCourse -->
<g id="node21" class="node">
<title>A_DepartmentOffersCourse</title>
<polygon fill="lightblue" stroke="transparent" points="45.5,-1009.5 45.5,-1032.5 324.5,-1032.5 324.5,-1009.5 45.5,-1009.5"/>
<text text-anchor="start" x="86" y="-1018.3" font-family="Helvetica,sans-Serif" font-weight="bold" font-size="14.00">DepartmentOffersCourse</text>
<text text-anchor="start" x="49.5" y="-994.3" font-family="Helvetica,sans-Serif" font-size="14.00">courseOfferingState : OperationalState</text>
<text text-anchor="start" x="49.5" y="-971.3" font-family="Helvetica,sans-Serif" font-size="14.00">courseFrequency : TemporalFrequency</text>
<polygon fill="none" stroke="black" points="44,-963 44,-1034 325,-1034 325,-963 44,-963"/>
</g>
<!-- A_DepartmentOffersCourse&#45;&gt;Department -->
<g id="edge11" class="edge">
<title>A_DepartmentOffersCourse&#45;&gt;Department</title>
<path fill="none" stroke="#555555" d="M325.46,-1027.96C340.8,-1034.12 355.67,-1041.55 369,-1050.5 412.1,-1079.45 401.68,-1108.6 441,-1142.5 448.22,-1148.72 455.95,-1154.71 463.96,-1160.44"/>
</g>
<!-- A_DepartmentOffersCourse&#45;&gt;Course -->
<g id="edge12" class="edge">
<title>A_DepartmentOffersCourse&#45;&gt;Course</title>
<path fill="none" stroke="#555555" d="M325.15,-972.72C340.98,-965.93 356.05,-957.34 369,-946.5 425.08,-899.54 390.94,-851.84 441,-798.5 452.69,-786.04 466.6,-774.89 481.19,-765.08"/>
</g>
<!-- A_ProgramRequiresCourse -->
<g id="node22" class="node">
<title>A_ProgramRequiresCourse</title>
<polygon fill="lightblue" stroke="transparent" points="54.5,-803.5 54.5,-826.5 314.5,-826.5 314.5,-803.5 54.5,-803.5"/>
<text text-anchor="start" x="88.5" y="-812.3" font-family="Helvetica,sans-Serif" font-weight="bold" font-size="14.00">ProgramRequiresCourse</text>
<text text-anchor="start" x="58.5" y="-788.3" font-family="Helvetica,sans-Serif" font-size="14.00">requirementState : OperationalState</text>
<text text-anchor="start" x="58.5" y="-765.3" font-family="Helvetica,sans-Serif" font-size="14.00">requiredCreditCount : Count</text>
<polygon fill="none" stroke="black" points="53.5,-757 53.5,-828 315.5,-828 315.5,-757 53.5,-757"/>
</g>
<!-- A_ProgramRequiresCourse&#45;&gt;Program -->
<g id="edge13" class="edge">
<title>A_ProgramRequiresCourse&#45;&gt;Program</title>
<path fill="none" stroke="#555555" d="M315.68,-821.93C366.96,-833.52 425.41,-846.73 475.35,-858.02"/>
</g>
<!-- A_ProgramRequiresCourse&#45;&gt;Course -->
<g id="edge14" class="edge">
<title>A_ProgramRequiresCourse&#45;&gt;Course</title>
<path fill="none" stroke="#555555" d="M315.68,-766.91C369.05,-756.42 430.2,-744.4 481.42,-734.33"/>
</g>
<!-- A_StudentEnrolledInProgram -->
<g id="node23" class="node">
<title>A_StudentEnrolledInProgram</title>
<polygon fill="lightblue" stroke="transparent" points="60.5,-700.5 60.5,-723.5 309.5,-723.5 309.5,-700.5 60.5,-700.5"/>
<text text-anchor="start" x="80" y="-709.3" font-family="Helvetica,sans-Serif" font-weight="bold" font-size="14.00">StudentEnrolledInProgram</text>
<text text-anchor="start" x="64.5" y="-685.3" font-family="Helvetica,sans-Serif" font-size="14.00">enrollmentState : OperationalState</text>
<text text-anchor="start" x="64.5" y="-662.3" font-family="Helvetica,sans-Serif" font-size="14.00">declaredTime : Time</text>
<polygon fill="none" stroke="black" points="59,-654 59,-725 310,-725 310,-654 59,-654"/>
</g>
<!-- A_StudentEnrolledInProgram&#45;&gt;Program -->
<g id="edge16" class="edge">
<title>A_StudentEnrolledInProgram&#45;&gt;Program</title>
<path fill="none" stroke="#555555" d="M310.02,-716.68C330.27,-723.18 350.62,-731.06 369,-740.5 405.55,-759.28 407.02,-775.39 441,-798.5 451.88,-805.9 463.44,-813.27 475.12,-820.4"/>
</g>
<!-- A_StudentEnrolledInProgram&#45;&gt;Student -->
<g id="edge15" class="edge">
<title>A_StudentEnrolledInProgram&#45;&gt;Student</title>
<path fill="none" stroke="#555555" d="M273.71,-653.99C306.11,-638.11 341.54,-617.13 369,-591.5 413.08,-550.35 398.58,-519.36 441,-476.5 446.16,-471.28 451.66,-466.21 457.37,-461.29"/>
</g>
<!-- A_StudentTakesCourse -->
<g id="node24" class="node">
<title>A_StudentTakesCourse</title>
<polygon fill="lightblue" stroke="transparent" points="57.5,-430.5 57.5,-453.5 312.5,-453.5 312.5,-430.5 57.5,-430.5"/>
<text text-anchor="start" x="104" y="-439.3" font-family="Helvetica,sans-Serif" font-weight="bold" font-size="14.00">StudentTakesCourse</text>
<text text-anchor="start" x="61.5" y="-415.3" font-family="Helvetica,sans-Serif" font-size="14.00">registrationState : OperationalState</text>
<text text-anchor="start" x="61.5" y="-392.3" font-family="Helvetica,sans-Serif" font-size="14.00">gradeState : OperationalState</text>
<polygon fill="none" stroke="black" points="56,-384 56,-455 313,-455 313,-384 56,-384"/>
</g>
<!-- A_StudentTakesCourse&#45;&gt;Course -->
<g id="edge18" class="edge">
<title>A_StudentTakesCourse&#45;&gt;Course</title>
<path fill="none" stroke="#555555" d="M280.28,-455.02C310.83,-469.46 343.38,-488.29 369,-511.5 413.41,-551.73 397.74,-584.03 441,-625.5 453.04,-637.05 466.9,-647.65 481.24,-657.17"/>
</g>
<!-- A_StudentTakesCourse&#45;&gt;Student -->
<g id="edge17" class="edge">
<title>A_StudentTakesCourse&#45;&gt;Student</title>
<path fill="none" stroke="#555555" d="M313.16,-406.95C353.61,-402.98 398.72,-398.54 440.69,-394.42"/>
</g>
<!-- A_FacultyMemberAssignedToDepartment -->
<g id="node25" class="node">
<title>A_FacultyMemberAssignedToDepartment</title>
<polygon fill="lightblue" stroke="transparent" points="28.5,-1193.5 28.5,-1216.5 340.5,-1216.5 340.5,-1193.5 28.5,-1193.5"/>
<text text-anchor="start" x="32.5" y="-1202.3" font-family="Helvetica,sans-Serif" font-weight="bold" font-size="14.00">FacultyMemberAssignedToDepartment</text>
<text text-anchor="start" x="32.5" y="-1178.3" font-family="Helvetica,sans-Serif" font-size="14.00">employmentState : OperationalState</text>
<text text-anchor="start" x="32.5" y="-1155.3" font-family="Helvetica,sans-Serif" font-size="14.00">appointmentTime : Time</text>
<polygon fill="none" stroke="black" points="27.5,-1147 27.5,-1218 341.5,-1218 341.5,-1147 27.5,-1147"/>
</g>
<!-- A_FacultyMemberAssignedToDepartment&#45;&gt;Department -->
<g id="edge20" class="edge">
<title>A_FacultyMemberAssignedToDepartment&#45;&gt;Department</title>
<path fill="none" stroke="#555555" d="M341.69,-1200.15C382.04,-1204.71 425.02,-1209.57 463.79,-1213.95"/>
</g>
<!-- A_FacultyMemberAssignedToDepartment&#45;&gt;FacultyMember -->
<g id="edge19" class="edge">
<title>A_FacultyMemberAssignedToDepartment&#45;&gt;FacultyMember</title>
<path fill="none" stroke="#555555" d="M313.55,-1146.99C332.19,-1141.59 351.12,-1135.99 369,-1130.5 405.73,-1119.22 445.62,-1106.25 481.4,-1094.35"/>
</g>
<!-- A_FacultyMemberTeachesCourse -->
<g id="node26" class="node">
<title>A_FacultyMemberTeachesCourse</title>
<polygon fill="lightblue" stroke="transparent" points="25.5,-906.5 25.5,-929.5 343.5,-929.5 343.5,-906.5 25.5,-906.5"/>
<text text-anchor="start" x="64.5" y="-915.3" font-family="Helvetica,sans-Serif" font-weight="bold" font-size="14.00">FacultyMemberTeachesCourse</text>
<text text-anchor="start" x="29.5" y="-891.3" font-family="Helvetica,sans-Serif" font-size="14.00">teachingAssignmentState : OperationalState</text>
<text text-anchor="start" x="29.5" y="-868.3" font-family="Helvetica,sans-Serif" font-size="14.00">termState : OperationalState</text>
<polygon fill="none" stroke="black" points="24.5,-860 24.5,-931 344.5,-931 344.5,-860 24.5,-860"/>
</g>
<!-- A_FacultyMemberTeachesCourse&#45;&gt;Course -->
<g id="edge22" class="edge">
<title>A_FacultyMemberTeachesCourse&#45;&gt;Course</title>
<path fill="none" stroke="#555555" d="M326.71,-859.9C341.2,-854.94 355.53,-849.47 369,-843.5 403.5,-828.2 408.58,-817.82 441,-798.5 453.99,-790.76 467.69,-782.76 481.31,-774.9"/>
</g>
<!-- A_FacultyMemberTeachesCourse&#45;&gt;FacultyMember -->
<g id="edge21" class="edge">
<title>A_FacultyMemberTeachesCourse&#45;&gt;FacultyMember</title>
<path fill="none" stroke="#555555" d="M324.17,-931.06C339.43,-935.85 354.63,-941.02 369,-946.5 406.48,-960.79 446.14,-979.16 481.48,-996.79"/>
</g>
<!-- A_StaffMemberSupportsStudentServicesSystem -->
<g id="node27" class="node">
<title>A_StaffMemberSupportsStudentServicesSystem</title>
<polygon fill="lightblue" stroke="transparent" points="1.5,-2439.5 1.5,-2462.5 368.5,-2462.5 368.5,-2439.5 1.5,-2439.5"/>
<text text-anchor="start" x="5.5" y="-2448.3" font-family="Helvetica,sans-Serif" font-weight="bold" font-size="14.00">StaffMemberSupportsStudentServicesSystem</text>
<text text-anchor="start" x="5.5" y="-2424.3" font-family="Helvetica,sans-Serif" font-size="14.00">serviceRoleState : OperationalState</text>
<polygon fill="none" stroke="black" points="0,-2415.5 0,-2463.5 369,-2463.5 369,-2415.5 0,-2415.5"/>
</g>
<!-- A_StaffMemberSupportsStudentServicesSystem&#45;&gt;StaffMember -->
<g id="edge23" class="edge">
<title>A_StaffMemberSupportsStudentServicesSystem&#45;&gt;StaffMember</title>
<path fill="none" stroke="#555555" d="M315.96,-2463.54C363.39,-2472.28 416.93,-2482.15 464.17,-2490.85"/>
</g>
<!-- A_StaffMemberSupportsStudentServicesSystem&#45;&gt;StudentServicesSystem -->
<g id="edge24" class="edge">
<title>A_StaffMemberSupportsStudentServicesSystem&#45;&gt;StudentServicesSystem</title>
<path fill="none" stroke="#555555" d="M317.64,-2415.47C363.37,-2407.16 414.6,-2397.85 460.33,-2389.53"/>
</g>
<!-- A_AdmissionsSystemProcessesStudent -->
<g id="node28" class="node">
<title>A_AdmissionsSystemProcessesStudent</title>
<polygon fill="lightblue" stroke="transparent" points="36.5,-272.5 36.5,-295.5 332.5,-295.5 332.5,-272.5 36.5,-272.5"/>
<text text-anchor="start" x="40.5" y="-281.3" font-family="Helvetica,sans-Serif" font-weight="bold" font-size="14.00">AdmissionsSystemProcessesStudent</text>
<text text-anchor="start" x="40.5" y="-257.3" font-family="Helvetica,sans-Serif" font-size="14.00">applicationState : OperationalState</text>
<text text-anchor="start" x="40.5" y="-234.3" font-family="Helvetica,sans-Serif" font-size="14.00">decisionTime : Time</text>
<polygon fill="none" stroke="black" points="35.5,-226 35.5,-297 333.5,-297 333.5,-226 35.5,-226"/>
</g>
<!-- A_AdmissionsSystemProcessesStudent&#45;&gt;Student -->
<g id="edge26" class="edge">
<title>A_AdmissionsSystemProcessesStudent&#45;&gt;Student</title>
<path fill="none" stroke="#555555" d="M308.17,-297.06C349.94,-309.18 397.15,-322.86 440.93,-335.55"/>
</g>
<!-- A_AdmissionsSystemProcessesStudent&#45;&gt;AdmissionsSystem -->
<g id="edge25" class="edge">
<title>A_AdmissionsSystemProcessesStudent&#45;&gt;AdmissionsSystem</title>
<path fill="none" stroke="#555555" d="M333.59,-241.85C377,-236.09 424.05,-229.85 465.99,-224.29"/>
</g>
<!-- A_AcademicSystemAdministersCourse -->
<g id="node29" class="node">
<title>A_AcademicSystemAdministersCourse</title>
<polygon fill="lightblue" stroke="transparent" points="40.5,-551.5 40.5,-574.5 329.5,-574.5 329.5,-551.5 40.5,-551.5"/>
<text text-anchor="start" x="44.5" y="-560.3" font-family="Helvetica,sans-Serif" font-weight="bold" font-size="14.00">AcademicSystemAdministersCourse</text>
<text text-anchor="start" x="44.5" y="-536.3" font-family="Helvetica,sans-Serif" font-size="14.00">schedulingState : OperationalState</text>
<polygon fill="none" stroke="black" points="39,-527.5 39,-575.5 330,-575.5 330,-527.5 39,-527.5"/>
</g>
<!-- A_AcademicSystemAdministersCourse&#45;&gt;Course -->
<g id="edge28" class="edge">
<title>A_AcademicSystemAdministersCourse&#45;&gt;Course</title>
<path fill="none" stroke="#555555" d="M246.43,-575.6C308.3,-600.08 405.5,-638.53 481.16,-668.46"/>
</g>
<!-- A_AcademicSystemAdministersCourse&#45;&gt;AcademicSystem -->
<g id="edge27" class="edge">
<title>A_AcademicSystemAdministersCourse&#45;&gt;AcademicSystem</title>
<path fill="none" stroke="#555555" d="M330.14,-551.5C376.52,-551.5 427.37,-551.5 471.85,-551.5"/>
</g>
<!-- A_FinanceSystemAccountsForStudent -->
<g id="node30" class="node">
<title>A_FinanceSystemAccountsForStudent</title>
<polygon fill="lightblue" stroke="transparent" points="41.5,-146.5 41.5,-169.5 328.5,-169.5 328.5,-146.5 41.5,-146.5"/>
<text text-anchor="start" x="45.5" y="-155.3" font-family="Helvetica,sans-Serif" font-weight="bold" font-size="14.00">FinanceSystemAccountsForStudent</text>
<text text-anchor="start" x="45.5" y="-131.3" font-family="Helvetica,sans-Serif" font-size="14.00">accountBalanceAmount : Money</text>
<text text-anchor="start" x="45.5" y="-108.3" font-family="Helvetica,sans-Serif" font-size="14.00">paymentState : OperationalState</text>
<polygon fill="none" stroke="black" points="40,-100 40,-171 329,-171 329,-100 40,-100"/>
</g>
<!-- A_FinanceSystemAccountsForStudent&#45;&gt;Student -->
<g id="edge30" class="edge">
<title>A_FinanceSystemAccountsForStudent&#45;&gt;Student</title>
<path fill="none" stroke="#555555" d="M294.42,-171.04C319.9,-181.59 346.22,-194.43 369,-209.5 406.75,-234.47 405.8,-253.05 441,-281.5 447.82,-287.01 454.96,-292.49 462.27,-297.88"/>
</g>
<!-- A_FinanceSystemAccountsForStudent&#45;&gt;FinanceSystem -->
<g id="edge29" class="edge">
<title>A_FinanceSystemAccountsForStudent&#45;&gt;FinanceSystem</title>
<path fill="none" stroke="#555555" d="M329.28,-108.3C378.46,-98.99 432.76,-88.72 479.19,-79.94"/>
</g>
<!-- A_FacilitiesSystemSupportsDepartment -->
<g id="node31" class="node">
<title>A_FacilitiesSystemSupportsDepartment</title>
<polygon fill="lightblue" stroke="transparent" points="34.5,-1274.5 34.5,-1297.5 335.5,-1297.5 335.5,-1274.5 34.5,-1274.5"/>
<text text-anchor="start" x="38.5" y="-1283.3" font-family="Helvetica,sans-Serif" font-weight="bold" font-size="14.00">FacilitiesSystemSupportsDepartment</text>
<text text-anchor="start" x="38.5" y="-1259.3" font-family="Helvetica,sans-Serif" font-size="14.00">spaceAllocationExtent : Extent</text>
<polygon fill="none" stroke="black" points="33,-1250.5 33,-1298.5 336,-1298.5 336,-1250.5 33,-1250.5"/>
</g>
<!-- A_FacilitiesSystemSupportsDepartment&#45;&gt;Department -->
<g id="edge32" class="edge">
<title>A_FacilitiesSystemSupportsDepartment&#45;&gt;Department</title>
<path fill="none" stroke="#555555" d="M336.18,-1257.47C378.17,-1252.72 423.38,-1247.61 463.96,-1243.03"/>
</g>
<!-- A_FacilitiesSystemSupportsDepartment&#45;&gt;FacilitiesSystem -->
<g id="edge31" class="edge">
<title>A_FacilitiesSystemSupportsDepartment&#45;&gt;FacilitiesSystem</title>
<path fill="none" stroke="#555555" d="M270.82,-1298.61C330.49,-1315.47 410.91,-1338.19 476.41,-1356.7"/>
</g>
</g>
</svg>
