<?xml version="1.0" encoding="UTF-8" standalone="no"?>
<!DOCTYPE svg PUBLIC "-//W3C//DTD SVG 1.1//EN"
 "http://www.w3.org/Graphics/SVG/1.1/DTD/svg11.dtd">
<!-- Generated by graphviz version 2.42.4 (0)
 -->
<!-- Title: ERD Pages: 1 -->
<svg width="932pt" height="2119pt"
 viewBox="0.00 0.00 932.20 2119.20" xmlns="http://www.w3.org/2000/svg" xmlns:xlink="http://www.w3.org/1999/xlink">
<g id="graph0" class="graph" transform="scale(1 1) rotate(0) translate(21.6 2097.6)">
<title>ERD</title>
<polygon fill="white" stroke="transparent" points="-21.6,21.6 -21.6,-2097.6 910.6,-2097.6 910.6,21.6 -21.6,21.6"/>
<text text-anchor="middle" x="444.5" y="-2057.6" font-family="Times,serif" font-size="18.00">Smart Home System Hierarchy Model</text>
<!-- SmartHome -->
<g id="node1" class="node">
<title>SmartHome</title>
<polygon fill="lightgray" stroke="transparent" points="44,-300 44,-323 448,-323 448,-300 44,-300"/>
<text text-anchor="start" x="199" y="-308.8" font-family="Helvetica,sans-Serif" font-weight="bold" font-size="14.00">SmartHome</text>
<text text-anchor="start" x="48" y="-284.8" font-family="Helvetica,sans-Serif" font-size="14.00">smartHomeID : Identifier</text>
<text text-anchor="start" x="48" y="-261.8" font-family="Helvetica,sans-Serif" font-size="14.00">overallOperationalState : OperationalState</text>
<text text-anchor="start" x="48" y="-238.8" font-family="Helvetica,sans-Serif" font-size="14.00">propertyPosition : Position</text>
<text text-anchor="start" x="48" y="-215.8" font-family="Helvetica,sans-Serif" font-size="14.00">propertyExtent : Extent</text>
<text text-anchor="start" x="48" y="-192.8" font-family="Helvetica,sans-Serif" font-size="14.00">occupancyState : OperationalState</text>
<text text-anchor="start" x="48" y="-169.8" font-family="Helvetica,sans-Serif" font-size="14.00">zoneCount : Count</text>
<text text-anchor="start" x="48" y="-146.8" font-family="Helvetica,sans-Serif" font-size="14.00">lightingSystem : LightingSystem</text>
<text text-anchor="start" x="48" y="-123.8" font-family="Helvetica,sans-Serif" font-size="14.00">climateSystem : ClimateSystem</text>
<text text-anchor="start" x="48" y="-100.8" font-family="Helvetica,sans-Serif" font-size="14.00">securitySystem : SecuritySystem</text>
<text text-anchor="start" x="48" y="-77.8" font-family="Helvetica,sans-Serif" font-size="14.00">accessControlSystem : AccessControlSystem</text>
<text text-anchor="start" x="48" y="-54.8" font-family="Helvetica,sans-Serif" font-size="14.00">energyManagementSystem : EnergyManagementSystem</text>
<text text-anchor="start" x="48" y="-31.8" font-family="Helvetica,sans-Serif" font-size="14.00">waterManagementSystem : WaterManagementSystem</text>
<text text-anchor="start" x="48" y="-8.8" font-family="Helvetica,sans-Serif" font-size="14.00">... 4 more</text>
<polygon fill="none" stroke="black" points="43,0 43,-324 449,-324 449,0 43,0"/>
</g>
<!-- AutomationController -->
<g id="node2" class="node">
<title>AutomationController</title>
<polygon fill="lightgray" stroke="transparent" points="566.5,-1010 566.5,-1033 887.5,-1033 887.5,-1010 566.5,-1010"/>
<text text-anchor="start" x="641.5" y="-1018.8" font-family="Helvetica,sans-Serif" font-weight="bold" font-size="14.00">AutomationController</text>
<text text-anchor="start" x="570.5" y="-994.8" font-family="Helvetica,sans-Serif" font-size="14.00">controllerID : Identifier</text>
<text text-anchor="start" x="570.5" y="-971.8" font-family="Helvetica,sans-Serif" font-size="14.00">controllerOperationalState : OperationalState</text>
<text text-anchor="start" x="570.5" y="-948.8" font-family="Helvetica,sans-Serif" font-size="14.00">processingLoad : Ratio</text>
<text text-anchor="start" x="570.5" y="-925.8" font-family="Helvetica,sans-Serif" font-size="14.00">ruleCount : Count</text>
<text text-anchor="start" x="570.5" y="-902.8" font-family="Helvetica,sans-Serif" font-size="14.00">scheduleCount : Count</text>
<polygon fill="none" stroke="black" points="565,-894 565,-1034 888,-1034 888,-894 565,-894"/>
</g>
<!-- LightingSystem -->
<g id="node3" class="node">
<title>LightingSystem</title>
<polygon fill="lightgray" stroke="transparent" points="572.5,-1855 572.5,-1878 881.5,-1878 881.5,-1855 572.5,-1855"/>
<text text-anchor="start" x="666" y="-1863.8" font-family="Helvetica,sans-Serif" font-weight="bold" font-size="14.00">LightingSystem</text>
<text text-anchor="start" x="576.5" y="-1839.8" font-family="Helvetica,sans-Serif" font-size="14.00">lightingSystemID : Identifier</text>
<text text-anchor="start" x="576.5" y="-1816.8" font-family="Helvetica,sans-Serif" font-size="14.00">illuminationLevel : LuminousIntensity</text>
<text text-anchor="start" x="576.5" y="-1793.8" font-family="Helvetica,sans-Serif" font-size="14.00">lightingPower : Power</text>
<text text-anchor="start" x="576.5" y="-1770.8" font-family="Helvetica,sans-Serif" font-size="14.00">lightingOperationalState : OperationalState</text>
<text text-anchor="start" x="576.5" y="-1747.8" font-family="Helvetica,sans-Serif" font-size="14.00">fixtureCount : Count</text>
<polygon fill="none" stroke="black" points="571,-1739 571,-1879 882,-1879 882,-1739 571,-1739"/>
</g>
<!-- ClimateSystem -->
<g id="node4" class="node">
<title>ClimateSystem</title>
<polygon fill="lightgray" stroke="transparent" points="573.5,-1517 573.5,-1540 879.5,-1540 879.5,-1517 573.5,-1517"/>
<text text-anchor="start" x="667.5" y="-1525.8" font-family="Helvetica,sans-Serif" font-weight="bold" font-size="14.00">ClimateSystem</text>
<text text-anchor="start" x="577.5" y="-1501.8" font-family="Helvetica,sans-Serif" font-size="14.00">climateSystemID : Identifier</text>
<text text-anchor="start" x="577.5" y="-1478.8" font-family="Helvetica,sans-Serif" font-size="14.00">ambientTemperature : Temperature</text>
<text text-anchor="start" x="577.5" y="-1455.8" font-family="Helvetica,sans-Serif" font-size="14.00">ambientHumidity : Ratio</text>
<text text-anchor="start" x="577.5" y="-1432.8" font-family="Helvetica,sans-Serif" font-size="14.00">airFlowRate : MassFlowRate</text>
<text text-anchor="start" x="577.5" y="-1409.8" font-family="Helvetica,sans-Serif" font-size="14.00">climateOperationalState : OperationalState</text>
<polygon fill="none" stroke="black" points="572.5,-1401 572.5,-1541 880.5,-1541 880.5,-1401 572.5,-1401"/>
</g>
<!-- SecuritySystem -->
<g id="node5" class="node">
<title>SecuritySystem</title>
<polygon fill="lightgray" stroke="transparent" points="570.5,-1686 570.5,-1709 882.5,-1709 882.5,-1686 570.5,-1686"/>
<text text-anchor="start" x="665" y="-1694.8" font-family="Helvetica,sans-Serif" font-weight="bold" font-size="14.00">SecuritySystem</text>
<text text-anchor="start" x="574.5" y="-1670.8" font-family="Helvetica,sans-Serif" font-size="14.00">securitySystemID : Identifier</text>
<text text-anchor="start" x="574.5" y="-1647.8" font-family="Helvetica,sans-Serif" font-size="14.00">securityOperationalState : OperationalState</text>
<text text-anchor="start" x="574.5" y="-1624.8" font-family="Helvetica,sans-Serif" font-size="14.00">alarmState : OperationalState</text>
<text text-anchor="start" x="574.5" y="-1601.8" font-family="Helvetica,sans-Serif" font-size="14.00">sensorCount : Count</text>
<text text-anchor="start" x="574.5" y="-1578.8" font-family="Helvetica,sans-Serif" font-size="14.00">cameraCount : Count</text>
<polygon fill="none" stroke="black" points="569.5,-1570 569.5,-1710 883.5,-1710 883.5,-1570 569.5,-1570"/>
</g>
<!-- AccessControlSystem -->
<g id="node6" class="node">
<title>AccessControlSystem</title>
<polygon fill="lightgray" stroke="transparent" points="575.5,-1348 575.5,-1371 878.5,-1371 878.5,-1348 575.5,-1348"/>
<text text-anchor="start" x="642.5" y="-1356.8" font-family="Helvetica,sans-Serif" font-weight="bold" font-size="14.00">AccessControlSystem</text>
<text text-anchor="start" x="579.5" y="-1332.8" font-family="Helvetica,sans-Serif" font-size="14.00">accessControlSystemID : Identifier</text>
<text text-anchor="start" x="579.5" y="-1309.8" font-family="Helvetica,sans-Serif" font-size="14.00">lockCount : Count</text>
<text text-anchor="start" x="579.5" y="-1286.8" font-family="Helvetica,sans-Serif" font-size="14.00">doorState : OperationalState</text>
<text text-anchor="start" x="579.5" y="-1263.8" font-family="Helvetica,sans-Serif" font-size="14.00">windowState : OperationalState</text>
<text text-anchor="start" x="579.5" y="-1240.8" font-family="Helvetica,sans-Serif" font-size="14.00">accessOperationalState : OperationalState</text>
<polygon fill="none" stroke="black" points="574,-1232 574,-1372 879,-1372 879,-1232 574,-1232"/>
</g>
<!-- EnergyManagementSystem -->
<g id="node7" class="node">
<title>EnergyManagementSystem</title>
<polygon fill="lightgray" stroke="transparent" points="574.5,-1179 574.5,-1202 878.5,-1202 878.5,-1179 574.5,-1179"/>
<text text-anchor="start" x="618" y="-1187.8" font-family="Helvetica,sans-Serif" font-weight="bold" font-size="14.00">EnergyManagementSystem</text>
<text text-anchor="start" x="578.5" y="-1163.8" font-family="Helvetica,sans-Serif" font-size="14.00">energyManagementSystemID : Identifier</text>
<text text-anchor="start" x="578.5" y="-1140.8" font-family="Helvetica,sans-Serif" font-size="14.00">instantPowerDemand : Power</text>
<text text-anchor="start" x="578.5" y="-1117.8" font-family="Helvetica,sans-Serif" font-size="14.00">storedEnergy : Energy</text>
<text text-anchor="start" x="578.5" y="-1094.8" font-family="Helvetica,sans-Serif" font-size="14.00">energyOperationalState : OperationalState</text>
<text text-anchor="start" x="578.5" y="-1071.8" font-family="Helvetica,sans-Serif" font-size="14.00">meterCount : Count</text>
<polygon fill="none" stroke="black" points="573.5,-1063 573.5,-1203 879.5,-1203 879.5,-1063 573.5,-1063"/>
</g>
<!-- WaterManagementSystem -->
<g id="node8" class="node">
<title>WaterManagementSystem</title>
<polygon fill="lightgray" stroke="transparent" points="579.5,-841 579.5,-864 874.5,-864 874.5,-841 579.5,-841"/>
<text text-anchor="start" x="622" y="-849.8" font-family="Helvetica,sans-Serif" font-weight="bold" font-size="14.00">WaterManagementSystem</text>
<text text-anchor="start" x="583.5" y="-825.8" font-family="Helvetica,sans-Serif" font-size="14.00">waterManagementSystemID : Identifier</text>
<text text-anchor="start" x="583.5" y="-802.8" font-family="Helvetica,sans-Serif" font-size="14.00">waterPressure : Pressure</text>
<text text-anchor="start" x="583.5" y="-779.8" font-family="Helvetica,sans-Serif" font-size="14.00">waterFlowRate : MassFlowRate</text>
<text text-anchor="start" x="583.5" y="-756.8" font-family="Helvetica,sans-Serif" font-size="14.00">waterOperationalState : OperationalState</text>
<text text-anchor="start" x="583.5" y="-733.8" font-family="Helvetica,sans-Serif" font-size="14.00">leakState : OperationalState</text>
<polygon fill="none" stroke="black" points="578,-725 578,-865 875,-865 875,-725 578,-725"/>
</g>
<!-- MediaSystem -->
<g id="node9" class="node">
<title>MediaSystem</title>
<polygon fill="lightgray" stroke="transparent" points="577.5,-672 577.5,-695 876.5,-695 876.5,-672 577.5,-672"/>
<text text-anchor="start" x="674" y="-680.8" font-family="Helvetica,sans-Serif" font-weight="bold" font-size="14.00">MediaSystem</text>
<text text-anchor="start" x="581.5" y="-656.8" font-family="Helvetica,sans-Serif" font-size="14.00">mediaSystemID : Identifier</text>
<text text-anchor="start" x="581.5" y="-633.8" font-family="Helvetica,sans-Serif" font-size="14.00">audioPower : Power</text>
<text text-anchor="start" x="581.5" y="-610.8" font-family="Helvetica,sans-Serif" font-size="14.00">displayCount : Count</text>
<text text-anchor="start" x="581.5" y="-587.8" font-family="Helvetica,sans-Serif" font-size="14.00">mediaOperationalState : OperationalState</text>
<text text-anchor="start" x="581.5" y="-564.8" font-family="Helvetica,sans-Serif" font-size="14.00">activeStreamCount : Count</text>
<polygon fill="none" stroke="black" points="576,-556 576,-696 877,-696 877,-556 576,-556"/>
</g>
<!-- ApplianceSystem -->
<g id="node10" class="node">
<title>ApplianceSystem</title>
<polygon fill="lightgray" stroke="transparent" points="565.5,-502 565.5,-525 888.5,-525 888.5,-502 565.5,-502"/>
<text text-anchor="start" x="659.5" y="-510.8" font-family="Helvetica,sans-Serif" font-weight="bold" font-size="14.00">ApplianceSystem</text>
<text text-anchor="start" x="569.5" y="-486.8" font-family="Helvetica,sans-Serif" font-size="14.00">applianceSystemID : Identifier</text>
<text text-anchor="start" x="569.5" y="-463.8" font-family="Helvetica,sans-Serif" font-size="14.00">applianceCount : Count</text>
<text text-anchor="start" x="569.5" y="-440.8" font-family="Helvetica,sans-Serif" font-size="14.00">appliancePowerDemand : Power</text>
<text text-anchor="start" x="569.5" y="-417.8" font-family="Helvetica,sans-Serif" font-size="14.00">applianceOperationalState : OperationalState</text>
<polygon fill="none" stroke="black" points="564,-409.5 564,-526.5 889,-526.5 889,-409.5 564,-409.5"/>
</g>
<!-- NetworkSystem -->
<g id="node11" class="node">
<title>NetworkSystem</title>
<polygon fill="lightgray" stroke="transparent" points="570.5,-356 570.5,-379 882.5,-379 882.5,-356 570.5,-356"/>
<text text-anchor="start" x="664" y="-364.8" font-family="Helvetica,sans-Serif" font-weight="bold" font-size="14.00">NetworkSystem</text>
<text text-anchor="start" x="574.5" y="-340.8" font-family="Helvetica,sans-Serif" font-size="14.00">networkSystemID : Identifier</text>
<text text-anchor="start" x="574.5" y="-317.8" font-family="Helvetica,sans-Serif" font-size="14.00">networkOperationalState : OperationalState</text>
<text text-anchor="start" x="574.5" y="-294.8" font-family="Helvetica,sans-Serif" font-size="14.00">signalStrength : Ratio</text>
<text text-anchor="start" x="574.5" y="-271.8" font-family="Helvetica,sans-Serif" font-size="14.00">latency : Duration</text>
<text text-anchor="start" x="574.5" y="-248.8" font-family="Helvetica,sans-Serif" font-size="14.00">connectedDeviceCount : Count</text>
<polygon fill="none" stroke="black" points="569.5,-240 569.5,-380 883.5,-380 883.5,-240 569.5,-240"/>
</g>
<!-- Zone -->
<g id="node12" class="node">
<title>Zone</title>
<polygon fill="lightgray" stroke="transparent" points="584.5,-2024 584.5,-2047 869.5,-2047 869.5,-2024 584.5,-2024"/>
<text text-anchor="start" x="707" y="-2032.8" font-family="Helvetica,sans-Serif" font-weight="bold" font-size="14.00">Zone</text>
<text text-anchor="start" x="588.5" y="-2008.8" font-family="Helvetica,sans-Serif" font-size="14.00">zoneID : Identifier</text>
<text text-anchor="start" x="588.5" y="-1985.8" font-family="Helvetica,sans-Serif" font-size="14.00">zoneName : Name</text>
<text text-anchor="start" x="588.5" y="-1962.8" font-family="Helvetica,sans-Serif" font-size="14.00">zonePosition : Position</text>
<text text-anchor="start" x="588.5" y="-1939.8" font-family="Helvetica,sans-Serif" font-size="14.00">zoneExtent : Extent</text>
<text text-anchor="start" x="588.5" y="-1916.8" font-family="Helvetica,sans-Serif" font-size="14.00">zoneOccupancyState : OperationalState</text>
<polygon fill="none" stroke="black" points="583,-1908 583,-2048 870,-2048 870,-1908 583,-1908"/>
</g>
<!-- A_AutomationControllerCoordinatesLightingSystem -->
<g id="node13" class="node">
<title>A_AutomationControllerCoordinatesLightingSystem</title>
<polygon fill="lightblue" stroke="transparent" points="48,-1499 48,-1522 444,-1522 444,-1499 48,-1499"/>
<text text-anchor="start" x="52" y="-1507.8" font-family="Helvetica,sans-Serif" font-weight="bold" font-size="14.00">AutomationControllerCoordinatesLightingSystem</text>
<text text-anchor="start" x="52" y="-1483.8" font-family="Helvetica,sans-Serif" font-size="14.00">commandFrequency : TemporalFrequency</text>
<text text-anchor="start" x="52" y="-1460.8" font-family="Helvetica,sans-Serif" font-size="14.00">targetOperationalState : OperationalState</text>
<polygon fill="none" stroke="black" points="47,-1452.5 47,-1523.5 445,-1523.5 445,-1452.5 47,-1452.5"/>
</g>
<!-- A_AutomationControllerCoordinatesLightingSystem&#45;&gt;AutomationController -->
<g id="edge1" class="edge">
<title>A_AutomationControllerCoordinatesLightingSystem&#45;&gt;AutomationController</title>
<path fill="none" stroke="#555555" d="M445.1,-1465C462.54,-1456.69 478.62,-1445.91 492,-1432 612.07,-1307.17 461.11,-1188.33 564,-1049 567.86,-1043.77 572.13,-1038.84 576.74,-1034.19"/>
</g>
<!-- A_AutomationControllerCoordinatesLightingSystem&#45;&gt;LightingSystem -->
<g id="edge2" class="edge">
<title>A_AutomationControllerCoordinatesLightingSystem&#45;&gt;LightingSystem</title>
<path fill="none" stroke="#555555" d="M445.21,-1512.35C462.14,-1519.76 478.08,-1529.15 492,-1541 558.86,-1597.94 505.3,-1659.68 564,-1725 568.33,-1729.82 573,-1734.4 577.94,-1738.76"/>
</g>
<!-- A_AutomationControllerCoordinatesClimateSystem -->
<g id="node14" class="node">
<title>A_AutomationControllerCoordinatesClimateSystem</title>
<polygon fill="lightblue" stroke="transparent" points="50,-1282 50,-1305 442,-1305 442,-1282 50,-1282"/>
<text text-anchor="start" x="54" y="-1290.8" font-family="Helvetica,sans-Serif" font-weight="bold" font-size="14.00">AutomationControllerCoordinatesClimateSystem</text>
<text text-anchor="start" x="54" y="-1266.8" font-family="Helvetica,sans-Serif" font-size="14.00">targetTemperature : Temperature</text>
<text text-anchor="start" x="54" y="-1243.8" font-family="Helvetica,sans-Serif" font-size="14.00">targetHumidity : Ratio</text>
<polygon fill="none" stroke="black" points="49,-1235.5 49,-1306.5 443,-1306.5 443,-1235.5 49,-1235.5"/>
</g>
<!-- A_AutomationControllerCoordinatesClimateSystem&#45;&gt;AutomationController -->
<g id="edge3" class="edge">
<title>A_AutomationControllerCoordinatesClimateSystem&#45;&gt;AutomationController</title>
<path fill="none" stroke="#555555" d="M431.7,-1235.42C453.5,-1226 474.27,-1214.08 492,-1199 548.34,-1151.1 512.69,-1102.25 564,-1049 569.06,-1043.75 574.51,-1038.76 580.24,-1034.02"/>
</g>
<!-- A_AutomationControllerCoordinatesClimateSystem&#45;&gt;ClimateSystem -->
<g id="edge4" class="edge">
<title>A_AutomationControllerCoordinatesClimateSystem&#45;&gt;ClimateSystem</title>
<path fill="none" stroke="#555555" d="M426.32,-1306.55C448.94,-1313.66 471.36,-1322.08 492,-1332 528.29,-1349.45 530.01,-1365.41 564,-1387 571.34,-1391.66 578.96,-1396.29 586.72,-1400.84"/>
</g>
<!-- A_AutomationControllerCoordinatesSecuritySystem -->
<g id="node15" class="node">
<title>A_AutomationControllerCoordinatesSecuritySystem</title>
<polygon fill="lightblue" stroke="transparent" points="48,-1393 48,-1416 444,-1416 444,-1393 48,-1393"/>
<text text-anchor="start" x="52" y="-1401.8" font-family="Helvetica,sans-Serif" font-weight="bold" font-size="14.00">AutomationControllerCoordinatesSecuritySystem</text>
<text text-anchor="start" x="52" y="-1377.8" font-family="Helvetica,sans-Serif" font-size="14.00">armingState : OperationalState</text>
<text text-anchor="start" x="52" y="-1354.8" font-family="Helvetica,sans-Serif" font-size="14.00">alertPriority : Order</text>
<polygon fill="none" stroke="black" points="47,-1346.5 47,-1417.5 445,-1417.5 445,-1346.5 47,-1346.5"/>
</g>
<!-- A_AutomationControllerCoordinatesSecuritySystem&#45;&gt;AutomationController -->
<g id="edge5" class="edge">
<title>A_AutomationControllerCoordinatesSecuritySystem&#45;&gt;AutomationController</title>
<path fill="none" stroke="#555555" d="M445.11,-1353.35C462.38,-1344.98 478.42,-1334.38 492,-1321 581.08,-1233.23 486.09,-1146.82 564,-1049 568.15,-1043.8 572.7,-1038.87 577.56,-1034.22"/>
</g>
<!-- A_AutomationControllerCoordinatesSecuritySystem&#45;&gt;SecuritySystem -->
<g id="edge6" class="edge">
<title>A_AutomationControllerCoordinatesSecuritySystem&#45;&gt;SecuritySystem</title>
<path fill="none" stroke="#555555" d="M445.05,-1412.29C461.72,-1419.22 477.66,-1427.68 492,-1438 541.86,-1473.89 519.1,-1514.07 564,-1556 569.2,-1560.85 574.73,-1565.5 580.49,-1569.95"/>
</g>
<!-- A_AutomationControllerCoordinatesAccessControlSystem -->
<g id="node16" class="node">
<title>A_AutomationControllerCoordinatesAccessControlSystem</title>
<polygon fill="lightblue" stroke="transparent" points="25,-1160 25,-1183 468,-1183 468,-1160 25,-1160"/>
<text text-anchor="start" x="29" y="-1168.8" font-family="Helvetica,sans-Serif" font-weight="bold" font-size="14.00">AutomationControllerCoordinatesAccessControlSystem</text>
<text text-anchor="start" x="29" y="-1144.8" font-family="Helvetica,sans-Serif" font-size="14.00">targetDoorState : OperationalState</text>
<text text-anchor="start" x="29" y="-1121.8" font-family="Helvetica,sans-Serif" font-size="14.00">targetWindowState : OperationalState</text>
<polygon fill="none" stroke="black" points="23.5,-1113.5 23.5,-1184.5 468.5,-1184.5 468.5,-1113.5 23.5,-1113.5"/>
</g>
<!-- A_AutomationControllerCoordinatesAccessControlSystem&#45;&gt;AutomationController -->
<g id="edge7" class="edge">
<title>A_AutomationControllerCoordinatesAccessControlSystem&#45;&gt;AutomationController</title>
<path fill="none" stroke="#555555" d="M341.64,-1113.39C387.15,-1096.19 442.46,-1075.16 492,-1056 515.57,-1046.88 540.45,-1037.18 564.82,-1027.61"/>
</g>
<!-- A_AutomationControllerCoordinatesAccessControlSystem&#45;&gt;AccessControlSystem -->
<g id="edge8" class="edge">
<title>A_AutomationControllerCoordinatesAccessControlSystem&#45;&gt;AccessControlSystem</title>
<path fill="none" stroke="#555555" d="M372.31,-1184.57C410.82,-1195.84 453.26,-1208.6 492,-1221 518.56,-1229.5 546.69,-1238.91 573.87,-1248.22"/>
</g>
<!-- A_AutomationControllerCoordinatesEnergyManagementSystem -->
<g id="node17" class="node">
<title>A_AutomationControllerCoordinatesEnergyManagementSystem</title>
<polygon fill="lightblue" stroke="transparent" points="1,-1017 1,-1040 491,-1040 491,-1017 1,-1017"/>
<text text-anchor="start" x="5" y="-1025.8" font-family="Helvetica,sans-Serif" font-weight="bold" font-size="14.00">AutomationControllerCoordinatesEnergyManagementSystem</text>
<text text-anchor="start" x="5" y="-1001.8" font-family="Helvetica,sans-Serif" font-size="14.00">demandLimit : Power</text>
<text text-anchor="start" x="5" y="-978.8" font-family="Helvetica,sans-Serif" font-size="14.00">storageDispatchPower : Power</text>
<polygon fill="none" stroke="black" points="0,-970.5 0,-1041.5 492,-1041.5 492,-970.5 0,-970.5"/>
</g>
<!-- A_AutomationControllerCoordinatesEnergyManagementSystem&#45;&gt;AutomationController -->
<g id="edge9" class="edge">
<title>A_AutomationControllerCoordinatesEnergyManagementSystem&#45;&gt;AutomationController</title>
<path fill="none" stroke="#555555" d="M492.21,-984.48C516.9,-982.31 541.51,-980.15 564.98,-978.09"/>
</g>
<!-- A_AutomationControllerCoordinatesEnergyManagementSystem&#45;&gt;EnergyManagementSystem -->
<g id="edge10" class="edge">
<title>A_AutomationControllerCoordinatesEnergyManagementSystem&#45;&gt;EnergyManagementSystem</title>
<path fill="none" stroke="#555555" d="M380.93,-1041.55C440.78,-1057.43 511.63,-1076.24 573.47,-1092.65"/>
</g>
<!-- A_AutomationControllerCoordinatesWaterManagementSystem -->
<g id="node18" class="node">
<title>A_AutomationControllerCoordinatesWaterManagementSystem</title>
<polygon fill="lightblue" stroke="transparent" points="5,-861 5,-884 488,-884 488,-861 5,-861"/>
<text text-anchor="start" x="9" y="-869.8" font-family="Helvetica,sans-Serif" font-weight="bold" font-size="14.00">AutomationControllerCoordinatesWaterManagementSystem</text>
<text text-anchor="start" x="9" y="-845.8" font-family="Helvetica,sans-Serif" font-size="14.00">targetValveState : OperationalState</text>
<text text-anchor="start" x="9" y="-822.8" font-family="Helvetica,sans-Serif" font-size="14.00">leakResponseState : OperationalState</text>
<polygon fill="none" stroke="black" points="3.5,-814.5 3.5,-885.5 488.5,-885.5 488.5,-814.5 3.5,-814.5"/>
</g>
<!-- A_AutomationControllerCoordinatesWaterManagementSystem&#45;&gt;AutomationController -->
<g id="edge11" class="edge">
<title>A_AutomationControllerCoordinatesWaterManagementSystem&#45;&gt;AutomationController</title>
<path fill="none" stroke="#555555" d="M396.1,-885.52C449.73,-898.3 510.42,-912.76 564.98,-925.76"/>
</g>
<!-- A_AutomationControllerCoordinatesWaterManagementSystem&#45;&gt;WaterManagementSystem -->
<g id="edge12" class="edge">
<title>A_AutomationControllerCoordinatesWaterManagementSystem&#45;&gt;WaterManagementSystem</title>
<path fill="none" stroke="#555555" d="M488.7,-822.22C519.1,-818.72 549.44,-815.24 577.77,-811.98"/>
</g>
<!-- A_AutomationControllerCoordinatesMediaSystem -->
<g id="node19" class="node">
<title>A_AutomationControllerCoordinatesMediaSystem</title>
<polygon fill="lightblue" stroke="transparent" points="56,-738 56,-761 436,-761 436,-738 56,-738"/>
<text text-anchor="start" x="60" y="-746.8" font-family="Helvetica,sans-Serif" font-weight="bold" font-size="14.00">AutomationControllerCoordinatesMediaSystem</text>
<text text-anchor="start" x="60" y="-722.8" font-family="Helvetica,sans-Serif" font-size="14.00">mediaMode : OperationalState</text>
<text text-anchor="start" x="60" y="-699.8" font-family="Helvetica,sans-Serif" font-size="14.00">volumeLevel : Ratio</text>
<polygon fill="none" stroke="black" points="55,-691.5 55,-762.5 437,-762.5 437,-691.5 55,-691.5"/>
</g>
<!-- A_AutomationControllerCoordinatesMediaSystem&#45;&gt;AutomationController -->
<g id="edge13" class="edge">
<title>A_AutomationControllerCoordinatesMediaSystem&#45;&gt;AutomationController</title>
<path fill="none" stroke="#555555" d="M411.92,-762.53C439.82,-772.29 467.62,-784.58 492,-800 532.43,-825.56 526.18,-850.72 564,-880 570.12,-884.74 576.55,-889.34 583.17,-893.79"/>
</g>
<!-- A_AutomationControllerCoordinatesMediaSystem&#45;&gt;MediaSystem -->
<g id="edge14" class="edge">
<title>A_AutomationControllerCoordinatesMediaSystem&#45;&gt;MediaSystem</title>
<path fill="none" stroke="#555555" d="M415.36,-691.46C467.59,-680.44 524.76,-668.37 575.63,-657.63"/>
</g>
<!-- A_AutomationControllerCoordinatesApplianceSystem -->
<g id="node20" class="node">
<title>A_AutomationControllerCoordinatesApplianceSystem</title>
<polygon fill="lightblue" stroke="transparent" points="42,-592 42,-615 450,-615 450,-592 42,-592"/>
<text text-anchor="start" x="46" y="-600.8" font-family="Helvetica,sans-Serif" font-weight="bold" font-size="14.00">AutomationControllerCoordinatesApplianceSystem</text>
<text text-anchor="start" x="46" y="-576.8" font-family="Helvetica,sans-Serif" font-size="14.00">targetApplianceState : OperationalState</text>
<text text-anchor="start" x="46" y="-553.8" font-family="Helvetica,sans-Serif" font-size="14.00">scheduledStartTime : Time</text>
<polygon fill="none" stroke="black" points="41,-545.5 41,-616.5 451,-616.5 451,-545.5 41,-545.5"/>
</g>
<!-- A_AutomationControllerCoordinatesApplianceSystem&#45;&gt;AutomationController -->
<g id="edge15" class="edge">
<title>A_AutomationControllerCoordinatesApplianceSystem&#45;&gt;AutomationController</title>
<path fill="none" stroke="#555555" d="M396.9,-616.59C431.66,-630.68 466.03,-650.17 492,-677 558.58,-745.79 501.17,-807.78 564,-880 568.25,-884.89 572.86,-889.53 577.74,-893.94"/>
</g>
<!-- A_AutomationControllerCoordinatesApplianceSystem&#45;&gt;ApplianceSystem -->
<g id="edge16" class="edge">
<title>A_AutomationControllerCoordinatesApplianceSystem&#45;&gt;ApplianceSystem</title>
<path fill="none" stroke="#555555" d="M397.42,-545.48C450.3,-532.99 509.93,-518.91 563.71,-506.21"/>
</g>
<!-- A_NetworkSystemConnectsAutomationController -->
<g id="node21" class="node">
<title>A_NetworkSystemConnectsAutomationController</title>
<polygon fill="lightblue" stroke="transparent" points="58,-400 58,-423 434,-423 434,-400 58,-400"/>
<text text-anchor="start" x="62" y="-408.8" font-family="Helvetica,sans-Serif" font-weight="bold" font-size="14.00">NetworkSystemConnectsAutomationController</text>
<text text-anchor="start" x="62" y="-384.8" font-family="Helvetica,sans-Serif" font-size="14.00">controllerLatency : Duration</text>
<text text-anchor="start" x="62" y="-361.8" font-family="Helvetica,sans-Serif" font-size="14.00">controllerSignalStrength : Ratio</text>
<polygon fill="none" stroke="black" points="57,-353.5 57,-424.5 435,-424.5 435,-353.5 57,-353.5"/>
</g>
<!-- A_NetworkSystemConnectsAutomationController&#45;&gt;AutomationController -->
<g id="edge18" class="edge">
<title>A_NetworkSystemConnectsAutomationController&#45;&gt;AutomationController</title>
<path fill="none" stroke="#555555" d="M348.35,-424.57C398.94,-447.39 456.72,-482.04 492,-531 584.6,-659.49 468.49,-753.66 564,-880 567.72,-884.92 571.8,-889.57 576.18,-893.97"/>
</g>
<!-- A_NetworkSystemConnectsAutomationController&#45;&gt;NetworkSystem -->
<g id="edge17" class="edge">
<title>A_NetworkSystemConnectsAutomationController&#45;&gt;NetworkSystem</title>
<path fill="none" stroke="#555555" d="M435.09,-357.95C479.57,-350.6 526.53,-342.85 569.42,-335.77"/>
</g>
<!-- A_SecuritySystemMonitorsZone -->
<g id="node22" class="node">
<title>A_SecuritySystemMonitorsZone</title>
<polygon fill="lightblue" stroke="transparent" points="123,-1804 123,-1827 369,-1827 369,-1804 123,-1804"/>
<text text-anchor="start" x="130" y="-1812.8" font-family="Helvetica,sans-Serif" font-weight="bold" font-size="14.00">SecuritySystemMonitorsZone</text>
<text text-anchor="start" x="127" y="-1788.8" font-family="Helvetica,sans-Serif" font-size="14.00">monitoredState : OperationalState</text>
<text text-anchor="start" x="127" y="-1765.8" font-family="Helvetica,sans-Serif" font-size="14.00">coverageCount : Count</text>
<polygon fill="none" stroke="black" points="122,-1757.5 122,-1828.5 370,-1828.5 370,-1757.5 122,-1757.5"/>
</g>
<!-- A_SecuritySystemMonitorsZone&#45;&gt;SecuritySystem -->
<g id="edge19" class="edge">
<title>A_SecuritySystemMonitorsZone&#45;&gt;SecuritySystem</title>
<path fill="none" stroke="#555555" d="M370.1,-1772.54C409.49,-1764.63 452.99,-1754.43 492,-1742 520.13,-1733.03 549.47,-1721.81 577.47,-1710.11"/>
</g>
<!-- A_SecuritySystemMonitorsZone&#45;&gt;Zone -->
<g id="edge20" class="edge">
<title>A_SecuritySystemMonitorsZone&#45;&gt;Zone</title>
<path fill="none" stroke="#555555" d="M370.29,-1807.88C410.2,-1815.38 453.96,-1826.52 492,-1843 527.98,-1858.59 530.53,-1873.57 564,-1894 571.55,-1898.61 579.39,-1903.22 587.35,-1907.76"/>
</g>
<!-- A_LightingSystemIlluminatesZone -->
<g id="node23" class="node">
<title>A_LightingSystemIlluminatesZone</title>
<polygon fill="lightblue" stroke="transparent" points="98,-1904 98,-1927 394,-1927 394,-1904 98,-1904"/>
<text text-anchor="start" x="121.5" y="-1912.8" font-family="Helvetica,sans-Serif" font-weight="bold" font-size="14.00">LightingSystemIlluminatesZone</text>
<text text-anchor="start" x="102" y="-1888.8" font-family="Helvetica,sans-Serif" font-size="14.00">deliveredIllumination : LuminousIntensity</text>
<text text-anchor="start" x="102" y="-1865.8" font-family="Helvetica,sans-Serif" font-size="14.00">targetLightState : OperationalState</text>
<polygon fill="none" stroke="black" points="97,-1857.5 97,-1928.5 395,-1928.5 395,-1857.5 97,-1857.5"/>
</g>
<!-- A_LightingSystemIlluminatesZone&#45;&gt;LightingSystem -->
<g id="edge21" class="edge">
<title>A_LightingSystemIlluminatesZone&#45;&gt;LightingSystem</title>
<path fill="none" stroke="#555555" d="M395.12,-1867C450.84,-1857.22 514.31,-1846.07 570.63,-1836.19"/>
</g>
<!-- A_LightingSystemIlluminatesZone&#45;&gt;Zone -->
<g id="edge22" class="edge">
<title>A_LightingSystemIlluminatesZone&#45;&gt;Zone</title>
<path fill="none" stroke="#555555" d="M395.12,-1919.31C454.96,-1929.94 523.73,-1942.16 582.99,-1952.68"/>
</g>
<!-- A_ClimateSystemConditionsZone -->
<g id="node24" class="node">
<title>A_ClimateSystemConditionsZone</title>
<polygon fill="lightblue" stroke="transparent" points="122,-1703 122,-1726 371,-1726 371,-1703 122,-1703"/>
<text text-anchor="start" x="126" y="-1711.8" font-family="Helvetica,sans-Serif" font-weight="bold" font-size="14.00">ClimateSystemConditionsZone</text>
<text text-anchor="start" x="126" y="-1687.8" font-family="Helvetica,sans-Serif" font-size="14.00">zoneTemperature : Temperature</text>
<text text-anchor="start" x="126" y="-1664.8" font-family="Helvetica,sans-Serif" font-size="14.00">zoneHumidity : Ratio</text>
<polygon fill="none" stroke="black" points="120.5,-1656.5 120.5,-1727.5 371.5,-1727.5 371.5,-1656.5 120.5,-1656.5"/>
</g>
<!-- A_ClimateSystemConditionsZone&#45;&gt;ClimateSystem -->
<g id="edge23" class="edge">
<title>A_ClimateSystemConditionsZone&#45;&gt;ClimateSystem</title>
<path fill="none" stroke="#555555" d="M371.53,-1682.29C412.06,-1675.02 455.87,-1662.49 492,-1641 534.55,-1615.69 525.39,-1586.99 564,-1556 570.43,-1550.84 577.21,-1545.86 584.22,-1541.06"/>
</g>
<!-- A_ClimateSystemConditionsZone&#45;&gt;Zone -->
<g id="edge24" class="edge">
<title>A_ClimateSystemConditionsZone&#45;&gt;Zone</title>
<path fill="none" stroke="#555555" d="M371.61,-1695.95C413.41,-1702.66 458,-1716.31 492,-1743 550.48,-1788.91 512.35,-1840.52 564,-1894 569.82,-1900.02 576.16,-1905.7 582.86,-1911.04"/>
</g>
<!-- A_AccessControlSystemSecuresZone -->
<g id="node25" class="node">
<title>A_AccessControlSystemSecuresZone</title>
<polygon fill="lightblue" stroke="transparent" points="98,-1602 98,-1625 395,-1625 395,-1602 98,-1602"/>
<text text-anchor="start" x="111" y="-1610.8" font-family="Helvetica,sans-Serif" font-weight="bold" font-size="14.00">AccessControlSystemSecuresZone</text>
<text text-anchor="start" x="102" y="-1586.8" font-family="Helvetica,sans-Serif" font-size="14.00">barrierState : OperationalState</text>
<text text-anchor="start" x="102" y="-1563.8" font-family="Helvetica,sans-Serif" font-size="14.00">accessPermissionState : OperationalState</text>
<polygon fill="none" stroke="black" points="96.5,-1555.5 96.5,-1626.5 395.5,-1626.5 395.5,-1555.5 96.5,-1555.5"/>
</g>
<!-- A_AccessControlSystemSecuresZone&#45;&gt;AccessControlSystem -->
<g id="edge25" class="edge">
<title>A_AccessControlSystemSecuresZone&#45;&gt;AccessControlSystem</title>
<path fill="none" stroke="#555555" d="M395.51,-1581.15C429.89,-1573.13 464.44,-1559.81 492,-1538 550.3,-1491.86 512.48,-1440.6 564,-1387 569.05,-1381.75 574.5,-1376.75 580.23,-1372.01"/>
</g>
<!-- A_AccessControlSystemSecuresZone&#45;&gt;Zone -->
<g id="edge26" class="edge">
<title>A_AccessControlSystemSecuresZone&#45;&gt;Zone</title>
<path fill="none" stroke="#555555" d="M395.57,-1595.83C430.76,-1603.54 465.67,-1617.52 492,-1642 577.32,-1721.3 490.33,-1803.78 564,-1894 569.6,-1900.85 575.9,-1907.21 582.69,-1913.11"/>
</g>
</g>
</svg>
