<?xml version="1.0" encoding="UTF-8" standalone="no"?>
<!DOCTYPE svg PUBLIC "-//W3C//DTD SVG 1.1//EN"
 "http://www.w3.org/Graphics/SVG/1.1/DTD/svg11.dtd">
<!-- Generated by graphviz version 2.42.4 (0)
 -->
<!-- Title: ERD Pages: 1 -->
<svg width="808pt" height="1839pt"
 viewBox="0.00 0.00 808.20 1839.20" xmlns="http://www.w3.org/2000/svg" xmlns:xlink="http://www.w3.org/1999/xlink">
<g id="graph0" class="graph" transform="scale(1 1) rotate(0) translate(21.6 1817.6)">
<title>ERD</title>
<polygon fill="white" stroke="transparent" points="-21.6,21.6 -21.6,-1817.6 786.6,-1817.6 786.6,21.6 -21.6,21.6"/>
<text text-anchor="middle" x="382.5" y="-1777.6" font-family="Times,serif" font-size="18.00">Smart Home Event and Control Flow Model</text>
<!-- SmartHome -->
<g id="node1" class="node">
<title>SmartHome</title>
<polygon fill="lightgray" stroke="transparent" points="28,-92.5 28,-115.5 331,-115.5 331,-92.5 28,-92.5"/>
<text text-anchor="start" x="132.5" y="-101.3" font-family="Helvetica,sans-Serif" font-weight="bold" font-size="14.00">SmartHome</text>
<text text-anchor="start" x="32" y="-77.3" font-family="Helvetica,sans-Serif" font-size="14.00">smartHomeID : Identifier</text>
<text text-anchor="start" x="32" y="-54.3" font-family="Helvetica,sans-Serif" font-size="14.00">overallOperationalState : OperationalState</text>
<text text-anchor="start" x="32" y="-31.3" font-family="Helvetica,sans-Serif" font-size="14.00">activeMode : OperationalState</text>
<text text-anchor="start" x="32" y="-8.3" font-family="Helvetica,sans-Serif" font-size="14.00">occupancyState : OperationalState</text>
<polygon fill="none" stroke="black" points="26.5,0 26.5,-117 331.5,-117 331.5,0 26.5,0"/>
</g>
<!-- SensedCondition -->
<g id="node2" class="node">
<title>SensedCondition</title>
<polygon fill="lightgray" stroke="transparent" points="437.5,-797.5 437.5,-820.5 757.5,-820.5 757.5,-797.5 437.5,-797.5"/>
<text text-anchor="start" x="531" y="-806.3" font-family="Helvetica,sans-Serif" font-weight="bold" font-size="14.00">SensedCondition</text>
<text text-anchor="start" x="441.5" y="-782.3" font-family="Helvetica,sans-Serif" font-size="14.00">conditionID : Identifier</text>
<text text-anchor="start" x="441.5" y="-759.3" font-family="Helvetica,sans-Serif" font-size="14.00">conditionTime : Time</text>
<text text-anchor="start" x="441.5" y="-736.3" font-family="Helvetica,sans-Serif" font-size="14.00">conditionOperationalState : OperationalState</text>
<text text-anchor="start" x="441.5" y="-713.3" font-family="Helvetica,sans-Serif" font-size="14.00">conditionValueCount : Count</text>
<polygon fill="none" stroke="black" points="436.5,-705 436.5,-822 758.5,-822 758.5,-705 436.5,-705"/>
</g>
<!-- EnvironmentalState -->
<g id="node3" class="node">
<title>EnvironmentalState</title>
<polygon fill="lightgray" stroke="transparent" points="464.5,-1597.5 464.5,-1620.5 731.5,-1620.5 731.5,-1597.5 464.5,-1597.5"/>
<text text-anchor="start" x="519.5" y="-1606.3" font-family="Helvetica,sans-Serif" font-weight="bold" font-size="14.00">EnvironmentalState</text>
<text text-anchor="start" x="468.5" y="-1582.3" font-family="Helvetica,sans-Serif" font-size="14.00">environmentalStateID : Identifier</text>
<text text-anchor="start" x="468.5" y="-1559.3" font-family="Helvetica,sans-Serif" font-size="14.00">temperature : Temperature</text>
<text text-anchor="start" x="468.5" y="-1536.3" font-family="Helvetica,sans-Serif" font-size="14.00">humidity : Ratio</text>
<text text-anchor="start" x="468.5" y="-1513.3" font-family="Helvetica,sans-Serif" font-size="14.00">illuminationLevel : LuminousIntensity</text>
<text text-anchor="start" x="468.5" y="-1490.3" font-family="Helvetica,sans-Serif" font-size="14.00">airQualityState : OperationalState</text>
<text text-anchor="start" x="468.5" y="-1467.3" font-family="Helvetica,sans-Serif" font-size="14.00">noiseLevel : Ratio</text>
<polygon fill="none" stroke="black" points="463,-1459 463,-1622 732,-1622 732,-1459 463,-1459"/>
</g>
<!-- OccupancyState -->
<g id="node4" class="node">
<title>OccupancyState</title>
<polygon fill="lightgray" stroke="transparent" points="473.5,-1405.5 473.5,-1428.5 722.5,-1428.5 722.5,-1405.5 473.5,-1405.5"/>
<text text-anchor="start" x="534" y="-1414.3" font-family="Helvetica,sans-Serif" font-weight="bold" font-size="14.00">OccupancyState</text>
<text text-anchor="start" x="477.5" y="-1390.3" font-family="Helvetica,sans-Serif" font-size="14.00">occupancyStateID : Identifier</text>
<text text-anchor="start" x="477.5" y="-1367.3" font-family="Helvetica,sans-Serif" font-size="14.00">presenceState : OperationalState</text>
<text text-anchor="start" x="477.5" y="-1344.3" font-family="Helvetica,sans-Serif" font-size="14.00">occupantCount : Count</text>
<text text-anchor="start" x="477.5" y="-1321.3" font-family="Helvetica,sans-Serif" font-size="14.00">movementState : OperationalState</text>
<polygon fill="none" stroke="black" points="472,-1313 472,-1430 723,-1430 723,-1313 472,-1313"/>
</g>
<!-- SecurityState -->
<g id="node5" class="node">
<title>SecurityState</title>
<polygon fill="lightgray" stroke="transparent" points="479.5,-1089.5 479.5,-1112.5 716.5,-1112.5 716.5,-1089.5 479.5,-1089.5"/>
<text text-anchor="start" x="544" y="-1098.3" font-family="Helvetica,sans-Serif" font-weight="bold" font-size="14.00">SecurityState</text>
<text text-anchor="start" x="483.5" y="-1074.3" font-family="Helvetica,sans-Serif" font-size="14.00">securityStateID : Identifier</text>
<text text-anchor="start" x="483.5" y="-1051.3" font-family="Helvetica,sans-Serif" font-size="14.00">armingState : OperationalState</text>
<text text-anchor="start" x="483.5" y="-1028.3" font-family="Helvetica,sans-Serif" font-size="14.00">intrusionState : OperationalState</text>
<text text-anchor="start" x="483.5" y="-1005.3" font-family="Helvetica,sans-Serif" font-size="14.00">hazardState : OperationalState</text>
<polygon fill="none" stroke="black" points="478,-997 478,-1114 717,-1114 717,-997 478,-997"/>
</g>
<!-- EnergyState -->
<g id="node6" class="node">
<title>EnergyState</title>
<polygon fill="lightgray" stroke="transparent" points="496.5,-1259.5 496.5,-1282.5 699.5,-1282.5 699.5,-1259.5 496.5,-1259.5"/>
<text text-anchor="start" x="549" y="-1268.3" font-family="Helvetica,sans-Serif" font-weight="bold" font-size="14.00">EnergyState</text>
<text text-anchor="start" x="500.5" y="-1244.3" font-family="Helvetica,sans-Serif" font-size="14.00">energyStateID : Identifier</text>
<text text-anchor="start" x="500.5" y="-1221.3" font-family="Helvetica,sans-Serif" font-size="14.00">powerDemand : Power</text>
<text text-anchor="start" x="500.5" y="-1198.3" font-family="Helvetica,sans-Serif" font-size="14.00">powerSupply : Power</text>
<text text-anchor="start" x="500.5" y="-1175.3" font-family="Helvetica,sans-Serif" font-size="14.00">storedEnergy : Energy</text>
<text text-anchor="start" x="500.5" y="-1152.3" font-family="Helvetica,sans-Serif" font-size="14.00">gridState : OperationalState</text>
<polygon fill="none" stroke="black" points="495,-1143.5 495,-1283.5 700,-1283.5 700,-1143.5 495,-1143.5"/>
</g>
<!-- AutomationPolicy -->
<g id="node7" class="node">
<title>AutomationPolicy</title>
<polygon fill="lightgray" stroke="transparent" points="449.5,-359.5 449.5,-382.5 746.5,-382.5 746.5,-359.5 449.5,-359.5"/>
<text text-anchor="start" x="528.5" y="-368.3" font-family="Helvetica,sans-Serif" font-weight="bold" font-size="14.00">AutomationPolicy</text>
<text text-anchor="start" x="453.5" y="-344.3" font-family="Helvetica,sans-Serif" font-size="14.00">policyID : Identifier</text>
<text text-anchor="start" x="453.5" y="-321.3" font-family="Helvetica,sans-Serif" font-size="14.00">policyPriority : Order</text>
<text text-anchor="start" x="453.5" y="-298.3" font-family="Helvetica,sans-Serif" font-size="14.00">policyOperationalState : OperationalState</text>
<text text-anchor="start" x="453.5" y="-275.3" font-family="Helvetica,sans-Serif" font-size="14.00">policyVersion : Identifier</text>
<polygon fill="none" stroke="black" points="448,-267 448,-384 747,-384 747,-267 448,-267"/>
</g>
<!-- Decision -->
<g id="node8" class="node">
<title>Decision</title>
<polygon fill="lightgray" stroke="transparent" points="441.5,-213.5 441.5,-236.5 754.5,-236.5 754.5,-213.5 441.5,-213.5"/>
<text text-anchor="start" x="564.5" y="-222.3" font-family="Helvetica,sans-Serif" font-weight="bold" font-size="14.00">Decision</text>
<text text-anchor="start" x="445.5" y="-198.3" font-family="Helvetica,sans-Serif" font-size="14.00">decisionID : Identifier</text>
<text text-anchor="start" x="445.5" y="-175.3" font-family="Helvetica,sans-Serif" font-size="14.00">decisionTime : Time</text>
<text text-anchor="start" x="445.5" y="-152.3" font-family="Helvetica,sans-Serif" font-size="14.00">decisionPriority : Order</text>
<text text-anchor="start" x="445.5" y="-129.3" font-family="Helvetica,sans-Serif" font-size="14.00">decisionOperationalState : OperationalState</text>
<polygon fill="none" stroke="black" points="440,-121 440,-238 755,-238 755,-121 440,-121"/>
</g>
<!-- Command -->
<g id="node9" class="node">
<title>Command</title>
<polygon fill="lightgray" stroke="transparent" points="435.5,-505.5 435.5,-528.5 760.5,-528.5 760.5,-505.5 435.5,-505.5"/>
<text text-anchor="start" x="558.5" y="-514.3" font-family="Helvetica,sans-Serif" font-weight="bold" font-size="14.00">Command</text>
<text text-anchor="start" x="439.5" y="-490.3" font-family="Helvetica,sans-Serif" font-size="14.00">commandID : Identifier</text>
<text text-anchor="start" x="439.5" y="-467.3" font-family="Helvetica,sans-Serif" font-size="14.00">commandTime : Time</text>
<text text-anchor="start" x="439.5" y="-444.3" font-family="Helvetica,sans-Serif" font-size="14.00">commandOperationalState : OperationalState</text>
<text text-anchor="start" x="439.5" y="-421.3" font-family="Helvetica,sans-Serif" font-size="14.00">targetState : OperationalState</text>
<polygon fill="none" stroke="black" points="434,-413 434,-530 761,-530 761,-413 434,-413"/>
</g>
<!-- ActuatorGroup -->
<g id="node10" class="node">
<title>ActuatorGroup</title>
<polygon fill="lightgray" stroke="transparent" points="476.5,-943.5 476.5,-966.5 718.5,-966.5 718.5,-943.5 476.5,-943.5"/>
<text text-anchor="start" x="539.5" y="-952.3" font-family="Helvetica,sans-Serif" font-weight="bold" font-size="14.00">ActuatorGroup</text>
<text text-anchor="start" x="480.5" y="-928.3" font-family="Helvetica,sans-Serif" font-size="14.00">actuatorGroupID : Identifier</text>
<text text-anchor="start" x="480.5" y="-905.3" font-family="Helvetica,sans-Serif" font-size="14.00">actuatorCount : Count</text>
<text text-anchor="start" x="480.5" y="-882.3" font-family="Helvetica,sans-Serif" font-size="14.00">executionState : OperationalState</text>
<text text-anchor="start" x="480.5" y="-859.3" font-family="Helvetica,sans-Serif" font-size="14.00">executionLatency : Duration</text>
<polygon fill="none" stroke="black" points="475.5,-851 475.5,-968 719.5,-968 719.5,-851 475.5,-851"/>
</g>
<!-- SensorGroup -->
<g id="node11" class="node">
<title>SensorGroup</title>
<polygon fill="lightgray" stroke="transparent" points="446.5,-1743.5 446.5,-1766.5 749.5,-1766.5 749.5,-1743.5 446.5,-1743.5"/>
<text text-anchor="start" x="547" y="-1752.3" font-family="Helvetica,sans-Serif" font-weight="bold" font-size="14.00">SensorGroup</text>
<text text-anchor="start" x="450.5" y="-1728.3" font-family="Helvetica,sans-Serif" font-size="14.00">sensorGroupID : Identifier</text>
<text text-anchor="start" x="450.5" y="-1705.3" font-family="Helvetica,sans-Serif" font-size="14.00">sensorCount : Count</text>
<text text-anchor="start" x="450.5" y="-1682.3" font-family="Helvetica,sans-Serif" font-size="14.00">samplingFrequency : TemporalFrequency</text>
<text text-anchor="start" x="450.5" y="-1659.3" font-family="Helvetica,sans-Serif" font-size="14.00">sensorOperationalState : OperationalState</text>
<polygon fill="none" stroke="black" points="445,-1651 445,-1768 750,-1768 750,-1651 445,-1651"/>
</g>
<!-- Notification -->
<g id="node12" class="node">
<title>Notification</title>
<polygon fill="lightgray" stroke="transparent" points="431.5,-651.5 431.5,-674.5 764.5,-674.5 764.5,-651.5 431.5,-651.5"/>
<text text-anchor="start" x="551.5" y="-660.3" font-family="Helvetica,sans-Serif" font-weight="bold" font-size="14.00">Notification</text>
<text text-anchor="start" x="435.5" y="-636.3" font-family="Helvetica,sans-Serif" font-size="14.00">notificationID : Identifier</text>
<text text-anchor="start" x="435.5" y="-613.3" font-family="Helvetica,sans-Serif" font-size="14.00">notificationTime : Time</text>
<text text-anchor="start" x="435.5" y="-590.3" font-family="Helvetica,sans-Serif" font-size="14.00">notificationPriority : Order</text>
<text text-anchor="start" x="435.5" y="-567.3" font-family="Helvetica,sans-Serif" font-size="14.00">notificationOperationalState : OperationalState</text>
<polygon fill="none" stroke="black" points="430,-559 430,-676 765,-676 765,-559 430,-559"/>
</g>
<!-- A_SensorGroupObservesEnvironmentalState -->
<g id="node13" class="node">
<title>A_SensorGroupObservesEnvironmentalState</title>
<polygon fill="lightblue" stroke="transparent" points="9,-1720.5 9,-1743.5 349,-1743.5 349,-1720.5 9,-1720.5"/>
<text text-anchor="start" x="13" y="-1729.3" font-family="Helvetica,sans-Serif" font-weight="bold" font-size="14.00">SensorGroupObservesEnvironmentalState</text>
<text text-anchor="start" x="13" y="-1705.3" font-family="Helvetica,sans-Serif" font-size="14.00">samplingFrequency : TemporalFrequency</text>
<text text-anchor="start" x="13" y="-1682.3" font-family="Helvetica,sans-Serif" font-size="14.00">observationFreshness : Duration</text>
<polygon fill="none" stroke="black" points="8,-1674 8,-1745 350,-1745 350,-1674 8,-1674"/>
</g>
<!-- A_SensorGroupObservesEnvironmentalState&#45;&gt;EnvironmentalState -->
<g id="edge2" class="edge">
<title>A_SensorGroupObservesEnvironmentalState&#45;&gt;EnvironmentalState</title>
<path fill="none" stroke="#555555" d="M316.92,-1673.89C330.92,-1669.4 344.82,-1664.59 358,-1659.5 392.75,-1646.09 429.23,-1629.34 462.92,-1612.69"/>
</g>
<!-- A_SensorGroupObservesEnvironmentalState&#45;&gt;SensorGroup -->
<g id="edge1" class="edge">
<title>A_SensorGroupObservesEnvironmentalState&#45;&gt;SensorGroup</title>
<path fill="none" stroke="#555555" d="M350.01,-1709.5C381.39,-1709.5 413.96,-1709.5 444.76,-1709.5"/>
</g>
<!-- A_SensorGroupObservesOccupancyState -->
<g id="node14" class="node">
<title>A_SensorGroupObservesOccupancyState</title>
<polygon fill="lightblue" stroke="transparent" points="9,-1620.5 9,-1643.5 350,-1643.5 350,-1620.5 9,-1620.5"/>
<text text-anchor="start" x="28" y="-1629.3" font-family="Helvetica,sans-Serif" font-weight="bold" font-size="14.00">SensorGroupObservesOccupancyState</text>
<text text-anchor="start" x="13" y="-1605.3" font-family="Helvetica,sans-Serif" font-size="14.00">detectionConfidence : Ratio</text>
<text text-anchor="start" x="13" y="-1582.3" font-family="Helvetica,sans-Serif" font-size="14.00">presenceUpdateFrequency : TemporalFrequency</text>
<polygon fill="none" stroke="black" points="7.5,-1574 7.5,-1645 350.5,-1645 350.5,-1574 7.5,-1574"/>
</g>
<!-- A_SensorGroupObservesOccupancyState&#45;&gt;OccupancyState -->
<g id="edge4" class="edge">
<title>A_SensorGroupObservesOccupancyState&#45;&gt;OccupancyState</title>
<path fill="none" stroke="#555555" d="M334.96,-1573.98C343.05,-1569.69 350.81,-1564.89 358,-1559.5 406.27,-1523.36 384.36,-1483.91 430,-1444.5 442.54,-1433.67 456.94,-1424.21 471.91,-1416.02"/>
</g>
<!-- A_SensorGroupObservesOccupancyState&#45;&gt;SensorGroup -->
<g id="edge3" class="edge">
<title>A_SensorGroupObservesOccupancyState&#45;&gt;SensorGroup</title>
<path fill="none" stroke="#555555" d="M328.02,-1645.04C365.89,-1654.13 406.68,-1663.93 444.74,-1673.06"/>
</g>
<!-- A_SensorGroupObservesSecurityState -->
<g id="node15" class="node">
<title>A_SensorGroupObservesSecurityState</title>
<polygon fill="lightblue" stroke="transparent" points="34,-1420.5 34,-1443.5 325,-1443.5 325,-1420.5 34,-1420.5"/>
<text text-anchor="start" x="38" y="-1429.3" font-family="Helvetica,sans-Serif" font-weight="bold" font-size="14.00">SensorGroupObservesSecurityState</text>
<text text-anchor="start" x="38" y="-1405.3" font-family="Helvetica,sans-Serif" font-size="14.00">hazardDetectionConfidence : Ratio</text>
<text text-anchor="start" x="38" y="-1382.3" font-family="Helvetica,sans-Serif" font-size="14.00">eventFrequency : TemporalFrequency</text>
<polygon fill="none" stroke="black" points="32.5,-1374 32.5,-1445 325.5,-1445 325.5,-1374 32.5,-1374"/>
</g>
<!-- A_SensorGroupObservesSecurityState&#45;&gt;SecurityState -->
<g id="edge6" class="edge">
<title>A_SensorGroupObservesSecurityState&#45;&gt;SecurityState</title>
<path fill="none" stroke="#555555" d="M325.8,-1382.35C337.58,-1376.19 348.56,-1368.67 358,-1359.5 435.11,-1284.54 358.3,-1208.64 430,-1128.5 443.26,-1113.68 460.07,-1101.73 477.89,-1092.14"/>
</g>
<!-- A_SensorGroupObservesSecurityState&#45;&gt;SensorGroup -->
<g id="edge5" class="edge">
<title>A_SensorGroupObservesSecurityState&#45;&gt;SensorGroup</title>
<path fill="none" stroke="#555555" d="M325.87,-1437.95C337.5,-1443.84 348.43,-1450.95 358,-1459.5 421.33,-1516.08 370.76,-1575.65 430,-1636.5 434.95,-1641.59 440.32,-1646.35 446,-1650.79"/>
</g>
<!-- A_SensorGroupObservesEnergyState -->
<g id="node16" class="node">
<title>A_SensorGroupObservesEnergyState</title>
<polygon fill="lightblue" stroke="transparent" points="17,-1520.5 17,-1543.5 342,-1543.5 342,-1520.5 17,-1520.5"/>
<text text-anchor="start" x="43" y="-1529.3" font-family="Helvetica,sans-Serif" font-weight="bold" font-size="14.00">SensorGroupObservesEnergyState</text>
<text text-anchor="start" x="21" y="-1505.3" font-family="Helvetica,sans-Serif" font-size="14.00">powerMeasurementRate : TemporalFrequency</text>
<text text-anchor="start" x="21" y="-1482.3" font-family="Helvetica,sans-Serif" font-size="14.00">measurementAccuracy : Ratio</text>
<polygon fill="none" stroke="black" points="15.5,-1474 15.5,-1545 342.5,-1545 342.5,-1474 15.5,-1474"/>
</g>
<!-- A_SensorGroupObservesEnergyState&#45;&gt;EnergyState -->
<g id="edge8" class="edge">
<title>A_SensorGroupObservesEnergyState&#45;&gt;EnergyState</title>
<path fill="none" stroke="#555555" d="M337.98,-1473.9C345.08,-1469.63 351.8,-1464.85 358,-1459.5 417.34,-1408.28 376.02,-1355.34 430,-1298.5 448.1,-1279.44 471.42,-1263.93 494.84,-1251.63"/>
</g>
<!-- A_SensorGroupObservesEnergyState&#45;&gt;SensorGroup -->
<g id="edge7" class="edge">
<title>A_SensorGroupObservesEnergyState&#45;&gt;SensorGroup</title>
<path fill="none" stroke="#555555" d="M330.19,-1545.09C339.86,-1549.38 349.22,-1554.16 358,-1559.5 398.03,-1583.84 391.76,-1609.43 430,-1636.5 437.08,-1641.52 444.57,-1646.3 452.28,-1650.83"/>
</g>
<!-- A_ObservedStateFormsSensedCondition -->
<g id="node17" class="node">
<title>A_ObservedStateFormsSensedCondition</title>
<polygon fill="lightblue" stroke="transparent" points="26,-1220.5 26,-1243.5 332,-1243.5 332,-1220.5 26,-1220.5"/>
<text text-anchor="start" x="30" y="-1229.3" font-family="Helvetica,sans-Serif" font-weight="bold" font-size="14.00">ObservedStateFormsSensedCondition</text>
<text text-anchor="start" x="30" y="-1205.3" font-family="Helvetica,sans-Serif" font-size="14.00">conditionTime : Time</text>
<text text-anchor="start" x="30" y="-1182.3" font-family="Helvetica,sans-Serif" font-size="14.00">conditionPriority : Order</text>
<polygon fill="none" stroke="black" points="25,-1174 25,-1245 333,-1245 333,-1174 25,-1174"/>
</g>
<!-- A_ObservedStateFormsSensedCondition&#45;&gt;SensedCondition -->
<g id="edge13" class="edge">
<title>A_ObservedStateFormsSensedCondition&#45;&gt;SensedCondition</title>
<path fill="none" stroke="#555555" d="M333.31,-1179.29C342.35,-1173.73 350.72,-1167.19 358,-1159.5 459.13,-1052.7 336.55,-950.08 430,-836.5 434.21,-831.38 438.85,-826.61 443.82,-822.17"/>
</g>
<!-- A_ObservedStateFormsSensedCondition&#45;&gt;EnvironmentalState -->
<g id="edge9" class="edge">
<title>A_ObservedStateFormsSensedCondition&#45;&gt;EnvironmentalState</title>
<path fill="none" stroke="#555555" d="M333.3,-1241.74C342.17,-1246.83 350.51,-1252.71 358,-1259.5 423.35,-1318.78 372.52,-1377.56 430,-1444.5 439.56,-1455.64 450.76,-1465.78 462.74,-1474.95"/>
</g>
<!-- A_ObservedStateFormsSensedCondition&#45;&gt;OccupancyState -->
<g id="edge10" class="edge">
<title>A_ObservedStateFormsSensedCondition&#45;&gt;OccupancyState</title>
<path fill="none" stroke="#555555" d="M318,-1245.12C331.65,-1249.58 345.18,-1254.38 358,-1259.5 391.61,-1272.91 397.45,-1281.7 430,-1297.5 443.52,-1304.06 457.75,-1310.74 471.97,-1317.26"/>
</g>
<!-- A_ObservedStateFormsSensedCondition&#45;&gt;SecurityState -->
<g id="edge11" class="edge">
<title>A_ObservedStateFormsSensedCondition&#45;&gt;SecurityState</title>
<path fill="none" stroke="#555555" d="M314.27,-1173.92C329.12,-1169.35 343.94,-1164.51 358,-1159.5 361.36,-1158.3 419.64,-1132.89 477.74,-1107.49"/>
</g>
<!-- A_ObservedStateFormsSensedCondition&#45;&gt;EnergyState -->
<g id="edge12" class="edge">
<title>A_ObservedStateFormsSensedCondition&#45;&gt;EnergyState</title>
<path fill="none" stroke="#555555" d="M333.02,-1210.97C386.97,-1211.49 446.26,-1212.06 494.91,-1212.52"/>
</g>
<!-- A_AutomationPolicyEvaluatesSensedCondition -->
<g id="node18" class="node">
<title>A_AutomationPolicyEvaluatesSensedCondition</title>
<polygon fill="lightblue" stroke="transparent" points="1,-592.5 1,-615.5 357,-615.5 357,-592.5 1,-592.5"/>
<text text-anchor="start" x="5" y="-601.3" font-family="Helvetica,sans-Serif" font-weight="bold" font-size="14.00">AutomationPolicyEvaluatesSensedCondition</text>
<text text-anchor="start" x="5" y="-577.3" font-family="Helvetica,sans-Serif" font-size="14.00">evaluationTime : Time</text>
<text text-anchor="start" x="5" y="-554.3" font-family="Helvetica,sans-Serif" font-size="14.00">evaluationPriority : Order</text>
<polygon fill="none" stroke="black" points="0,-546 0,-617 358,-617 358,-546 0,-546"/>
</g>
<!-- A_AutomationPolicyEvaluatesSensedCondition&#45;&gt;SensedCondition -->
<g id="edge15" class="edge">
<title>A_AutomationPolicyEvaluatesSensedCondition&#45;&gt;SensedCondition</title>
<path fill="none" stroke="#555555" d="M285.81,-617.1C309.89,-626.2 335.11,-636.54 358,-647.5 391.61,-663.6 396.87,-673.43 430,-690.5 439.4,-695.34 449.19,-700.17 459.11,-704.9"/>
</g>
<!-- A_AutomationPolicyEvaluatesSensedCondition&#45;&gt;AutomationPolicy -->
<g id="edge14" class="edge">
<title>A_AutomationPolicyEvaluatesSensedCondition&#45;&gt;AutomationPolicy</title>
<path fill="none" stroke="#555555" d="M280.95,-545.94C307.66,-533.72 335.33,-518.27 358,-499.5 400.46,-464.34 387.22,-433.26 430,-398.5 436.25,-393.42 442.9,-388.64 449.82,-384.13"/>
</g>
<!-- A_AutomationPolicyProducesDecision -->
<g id="node19" class="node">
<title>A_AutomationPolicyProducesDecision</title>
<polygon fill="lightblue" stroke="transparent" points="37,-192.5 37,-215.5 322,-215.5 322,-192.5 37,-192.5"/>
<text text-anchor="start" x="41" y="-201.3" font-family="Helvetica,sans-Serif" font-weight="bold" font-size="14.00">AutomationPolicyProducesDecision</text>
<text text-anchor="start" x="41" y="-177.3" font-family="Helvetica,sans-Serif" font-size="14.00">decisionReasonState : OperationalState</text>
<text text-anchor="start" x="41" y="-154.3" font-family="Helvetica,sans-Serif" font-size="14.00">decisionPriority : Order</text>
<polygon fill="none" stroke="black" points="35.5,-146 35.5,-217 322.5,-217 322.5,-146 35.5,-146"/>
</g>
<!-- A_AutomationPolicyProducesDecision&#45;&gt;AutomationPolicy -->
<g id="edge16" class="edge">
<title>A_AutomationPolicyProducesDecision&#45;&gt;AutomationPolicy</title>
<path fill="none" stroke="#555555" d="M303.9,-217.09C322.12,-222.7 340.59,-228.6 358,-234.5 387.38,-244.46 418.52,-255.78 448.27,-266.97"/>
</g>
<!-- A_AutomationPolicyProducesDecision&#45;&gt;Decision -->
<g id="edge17" class="edge">
<title>A_AutomationPolicyProducesDecision&#45;&gt;Decision</title>
<path fill="none" stroke="#555555" d="M322.75,-180.81C360.43,-180.63 401.29,-180.44 439.67,-180.25"/>
</g>
<!-- A_DecisionGeneratesCommand -->
<g id="node20" class="node">
<title>A_DecisionGeneratesCommand</title>
<polygon fill="lightblue" stroke="transparent" points="62,-295.5 62,-318.5 296,-318.5 296,-295.5 62,-295.5"/>
<text text-anchor="start" x="66" y="-304.3" font-family="Helvetica,sans-Serif" font-weight="bold" font-size="14.00">DecisionGeneratesCommand</text>
<text text-anchor="start" x="66" y="-280.3" font-family="Helvetica,sans-Serif" font-size="14.00">commandCount : Count</text>
<text text-anchor="start" x="66" y="-257.3" font-family="Helvetica,sans-Serif" font-size="14.00">executionDeadline : Time</text>
<polygon fill="none" stroke="black" points="61,-249 61,-320 297,-320 297,-249 61,-249"/>
</g>
<!-- A_DecisionGeneratesCommand&#45;&gt;Decision -->
<g id="edge18" class="edge">
<title>A_DecisionGeneratesCommand&#45;&gt;Decision</title>
<path fill="none" stroke="#555555" d="M297.13,-254.97C341.4,-243.81 392.51,-230.93 439.84,-218.99"/>
</g>
<!-- A_DecisionGeneratesCommand&#45;&gt;Command -->
<g id="edge19" class="edge">
<title>A_DecisionGeneratesCommand&#45;&gt;Command</title>
<path fill="none" stroke="#555555" d="M257.29,-320.1C306.62,-342.73 371.97,-372.55 430,-398.5 440.52,-403.2 451.42,-408.05 462.38,-412.9"/>
</g>
<!-- A_CommandTargetsActuatorGroup -->
<g id="node21" class="node">
<title>A_CommandTargetsActuatorGroup</title>
<polygon fill="lightblue" stroke="transparent" points="31,-708.5 31,-731.5 328,-731.5 328,-708.5 31,-708.5"/>
<text text-anchor="start" x="53" y="-717.3" font-family="Helvetica,sans-Serif" font-weight="bold" font-size="14.00">CommandTargetsActuatorGroup</text>
<text text-anchor="start" x="35" y="-693.3" font-family="Helvetica,sans-Serif" font-size="14.00">targetOperationalState : OperationalState</text>
<text text-anchor="start" x="35" y="-670.3" font-family="Helvetica,sans-Serif" font-size="14.00">executionLatency : Duration</text>
<polygon fill="none" stroke="black" points="29.5,-662 29.5,-733 328.5,-733 328.5,-662 29.5,-662"/>
</g>
<!-- A_CommandTargetsActuatorGroup&#45;&gt;Command -->
<g id="edge20" class="edge">
<title>A_CommandTargetsActuatorGroup&#45;&gt;Command</title>
<path fill="none" stroke="#555555" d="M302.56,-661.82C322,-653.46 341.2,-643.42 358,-631.5 398.93,-602.45 389.93,-574.73 430,-544.5 436.68,-539.46 443.76,-534.69 451.08,-530.17"/>
</g>
<!-- A_CommandTargetsActuatorGroup&#45;&gt;ActuatorGroup -->
<g id="edge21" class="edge">
<title>A_CommandTargetsActuatorGroup&#45;&gt;ActuatorGroup</title>
<path fill="none" stroke="#555555" d="M315.26,-733.03C330.23,-739.42 344.81,-746.87 358,-755.5 398.3,-781.88 391.04,-808.17 430,-836.5 443.91,-846.62 459.45,-855.73 475.28,-863.82"/>
</g>
<!-- A_ActuatorGroupChangesEnvironmentalState -->
<g id="node22" class="node">
<title>A_ActuatorGroupChangesEnvironmentalState</title>
<polygon fill="lightblue" stroke="transparent" points="5,-1320.5 5,-1343.5 353,-1343.5 353,-1320.5 5,-1320.5"/>
<text text-anchor="start" x="9" y="-1329.3" font-family="Helvetica,sans-Serif" font-weight="bold" font-size="14.00">ActuatorGroupChangesEnvironmentalState</text>
<text text-anchor="start" x="9" y="-1305.3" font-family="Helvetica,sans-Serif" font-size="14.00">temperatureDelta : TemperatureDelta</text>
<text text-anchor="start" x="9" y="-1282.3" font-family="Helvetica,sans-Serif" font-size="14.00">illuminationDelta : LuminousIntensity</text>
<polygon fill="none" stroke="black" points="4,-1274 4,-1345 354,-1345 354,-1274 4,-1274"/>
</g>
<!-- A_ActuatorGroupChangesEnvironmentalState&#45;&gt;EnvironmentalState -->
<g id="edge23" class="edge">
<title>A_ActuatorGroupChangesEnvironmentalState&#45;&gt;EnvironmentalState</title>
<path fill="none" stroke="#555555" d="M331.4,-1345.02C340.67,-1349.31 349.63,-1354.12 358,-1359.5 399.66,-1386.26 391.99,-1412.78 430,-1444.5 440.25,-1453.05 451.36,-1461.28 462.81,-1469.06"/>
</g>
<!-- A_ActuatorGroupChangesEnvironmentalState&#45;&gt;ActuatorGroup -->
<g id="edge22" class="edge">
<title>A_ActuatorGroupChangesEnvironmentalState&#45;&gt;ActuatorGroup</title>
<path fill="none" stroke="#555555" d="M341.1,-1273.74C347.15,-1269.5 352.83,-1264.77 358,-1259.5 447.06,-1168.68 347.48,-1079.3 430,-982.5 442.39,-967.97 458.22,-956.23 475.18,-946.77"/>
</g>
<!-- A_ActuatorGroupChangesOccupancyState -->
<g id="node23" class="node">
<title>A_ActuatorGroupChangesOccupancyState</title>
<polygon fill="lightblue" stroke="transparent" points="20,-1120.5 20,-1143.5 339,-1143.5 339,-1120.5 20,-1120.5"/>
<text text-anchor="start" x="24" y="-1129.3" font-family="Helvetica,sans-Serif" font-weight="bold" font-size="14.00">ActuatorGroupChangesOccupancyState</text>
<text text-anchor="start" x="24" y="-1105.3" font-family="Helvetica,sans-Serif" font-size="14.00">presenceStateEffect : OperationalState</text>
<text text-anchor="start" x="24" y="-1082.3" font-family="Helvetica,sans-Serif" font-size="14.00">movementStateEffect : OperationalState</text>
<polygon fill="none" stroke="black" points="18.5,-1074 18.5,-1145 339.5,-1145 339.5,-1074 18.5,-1074"/>
</g>
<!-- A_ActuatorGroupChangesOccupancyState&#45;&gt;OccupancyState -->
<g id="edge25" class="edge">
<title>A_ActuatorGroupChangesOccupancyState&#45;&gt;OccupancyState</title>
<path fill="none" stroke="#555555" d="M336.75,-1145.08C344.25,-1149.35 351.4,-1154.14 358,-1159.5 411.71,-1203.1 379.57,-1250.14 430,-1297.5 442.34,-1309.09 456.79,-1319.06 471.93,-1327.59"/>
</g>
<!-- A_ActuatorGroupChangesOccupancyState&#45;&gt;ActuatorGroup -->
<g id="edge24" class="edge">
<title>A_ActuatorGroupChangesOccupancyState&#45;&gt;ActuatorGroup</title>
<path fill="none" stroke="#555555" d="M330.19,-1073.91C339.86,-1069.62 349.22,-1064.84 358,-1059.5 398.03,-1035.16 391.76,-1009.57 430,-982.5 443.91,-972.65 459.36,-963.71 475.08,-955.73"/>
</g>
<!-- A_ActuatorGroupChangesSecurityState -->
<g id="node24" class="node">
<title>A_ActuatorGroupChangesSecurityState</title>
<polygon fill="lightblue" stroke="transparent" points="30,-920.5 30,-943.5 329,-943.5 329,-920.5 30,-920.5"/>
<text text-anchor="start" x="34" y="-929.3" font-family="Helvetica,sans-Serif" font-weight="bold" font-size="14.00">ActuatorGroupChangesSecurityState</text>
<text text-anchor="start" x="34" y="-905.3" font-family="Helvetica,sans-Serif" font-size="14.00">armingStateEffect : OperationalState</text>
<text text-anchor="start" x="34" y="-882.3" font-family="Helvetica,sans-Serif" font-size="14.00">hazardMitigationState : OperationalState</text>
<polygon fill="none" stroke="black" points="28.5,-874 28.5,-945 329.5,-945 329.5,-874 28.5,-874"/>
</g>
<!-- A_ActuatorGroupChangesSecurityState&#45;&gt;SecurityState -->
<g id="edge27" class="edge">
<title>A_ActuatorGroupChangesSecurityState&#45;&gt;SecurityState</title>
<path fill="none" stroke="#555555" d="M312.69,-945.05C328.04,-949.67 343.42,-954.53 358,-959.5 397.51,-972.95 439.97,-989.39 477.96,-1004.83"/>
</g>
<!-- A_ActuatorGroupChangesSecurityState&#45;&gt;ActuatorGroup -->
<g id="edge26" class="edge">
<title>A_ActuatorGroupChangesSecurityState&#45;&gt;ActuatorGroup</title>
<path fill="none" stroke="#555555" d="M329.78,-909.5C377.59,-909.5 429.87,-909.5 475.38,-909.5"/>
</g>
<!-- A_ActuatorGroupChangesEnergyState -->
<g id="node25" class="node">
<title>A_ActuatorGroupChangesEnergyState</title>
<polygon fill="lightblue" stroke="transparent" points="35,-1020.5 35,-1043.5 324,-1043.5 324,-1020.5 35,-1020.5"/>
<text text-anchor="start" x="39" y="-1029.3" font-family="Helvetica,sans-Serif" font-weight="bold" font-size="14.00">ActuatorGroupChangesEnergyState</text>
<text text-anchor="start" x="39" y="-1005.3" font-family="Helvetica,sans-Serif" font-size="14.00">powerDemandDelta : Power</text>
<text text-anchor="start" x="39" y="-982.3" font-family="Helvetica,sans-Serif" font-size="14.00">storageDelta : Energy</text>
<polygon fill="none" stroke="black" points="33.5,-974 33.5,-1045 324.5,-1045 324.5,-974 33.5,-974"/>
</g>
<!-- A_ActuatorGroupChangesEnergyState&#45;&gt;EnergyState -->
<g id="edge29" class="edge">
<title>A_ActuatorGroupChangesEnergyState&#45;&gt;EnergyState</title>
<path fill="none" stroke="#555555" d="M324.82,-1043.55C336.34,-1048.24 347.55,-1053.53 358,-1059.5 396.49,-1081.48 393.88,-1102.82 430,-1128.5 449.97,-1142.7 472.64,-1155.92 494.69,-1167.5"/>
</g>
<!-- A_ActuatorGroupChangesEnergyState&#45;&gt;ActuatorGroup -->
<g id="edge28" class="edge">
<title>A_ActuatorGroupChangesEnergyState&#45;&gt;ActuatorGroup</title>
<path fill="none" stroke="#555555" d="M324.5,-974.81C373.72,-962.99 428.21,-949.91 475.4,-938.58"/>
</g>
<!-- A_SecurityStateTriggersNotification -->
<g id="node26" class="node">
<title>A_SecurityStateTriggersNotification</title>
<polygon fill="lightblue" stroke="transparent" points="43,-816.5 43,-839.5 315,-839.5 315,-816.5 43,-816.5"/>
<text text-anchor="start" x="47" y="-825.3" font-family="Helvetica,sans-Serif" font-weight="bold" font-size="14.00">SecurityStateTriggersNotification</text>
<text text-anchor="start" x="47" y="-801.3" font-family="Helvetica,sans-Serif" font-size="14.00">notificationPriority : Order</text>
<text text-anchor="start" x="47" y="-778.3" font-family="Helvetica,sans-Serif" font-size="14.00">triggerTime : Time</text>
<polygon fill="none" stroke="black" points="42,-770 42,-841 316,-841 316,-770 42,-770"/>
</g>
<!-- A_SecurityStateTriggersNotification&#45;&gt;SecurityState -->
<g id="edge30" class="edge">
<title>A_SecurityStateTriggersNotification&#45;&gt;SecurityState</title>
<path fill="none" stroke="#555555" d="M316.11,-834.9C331.1,-841.51 345.45,-849.6 358,-859.5 407.73,-898.73 382.68,-940.39 430,-982.5 444.03,-994.98 460.53,-1005.61 477.6,-1014.56"/>
</g>
<!-- A_SecurityStateTriggersNotification&#45;&gt;Notification -->
<g id="edge31" class="edge">
<title>A_SecurityStateTriggersNotification&#45;&gt;Notification</title>
<path fill="none" stroke="#555555" d="M308.22,-769.83C325.36,-763.31 342.39,-755.87 358,-747.5 393.97,-728.21 395.02,-711.53 430,-690.5 438.25,-685.54 446.9,-680.72 455.73,-676.09"/>
</g>
<!-- A_DecisionTriggersNotification -->
<g id="node27" class="node">
<title>A_DecisionTriggersNotification</title>
<polygon fill="lightblue" stroke="transparent" points="28,-460.5 28,-483.5 331,-483.5 331,-460.5 28,-460.5"/>
<text text-anchor="start" x="68" y="-469.3" font-family="Helvetica,sans-Serif" font-weight="bold" font-size="14.00">DecisionTriggersNotification</text>
<text text-anchor="start" x="32" y="-445.3" font-family="Helvetica,sans-Serif" font-size="14.00">notificationReasonState : OperationalState</text>
<text text-anchor="start" x="32" y="-422.3" font-family="Helvetica,sans-Serif" font-size="14.00">notificationTime : Time</text>
<polygon fill="none" stroke="black" points="26.5,-414 26.5,-485 331.5,-485 331.5,-414 26.5,-414"/>
</g>
<!-- A_DecisionTriggersNotification&#45;&gt;Decision -->
<g id="edge32" class="edge">
<title>A_DecisionTriggersNotification&#45;&gt;Decision</title>
<path fill="none" stroke="#555555" d="M244.35,-413.83C279.58,-392.89 323.04,-364.66 358,-334.5 394.72,-302.82 390.86,-281.14 430,-252.5 436.88,-247.47 444.16,-242.68 451.67,-238.15"/>
</g>
<!-- A_DecisionTriggersNotification&#45;&gt;Notification -->
<g id="edge33" class="edge">
<title>A_DecisionTriggersNotification&#45;&gt;Notification</title>
<path fill="none" stroke="#555555" d="M268.07,-485.03C321.19,-506.45 390.17,-534.27 451.18,-558.89"/>
</g>
</g>
</svg>
